<?xml version="1.0" encoding="utf-8"?><svg xmlns="http://www.w3.org/2000/svg" xmlns:xlink="http://www.w3.org/1999/xlink"><symbol viewBox="0 0 151 14" id="break"><path d="M54.5 11.3c.5-.2.7-.7.5-1.2-.3-.7-1.2-1.1-1.9-.8-1.2.5-1.7 1.8-1.2 3 .7 1.8 3.1 2.1 4.3.6 1.9-2.4 5.5-8.4 9.1-10 2-.9 4.6 0 5.6 2s-.1 5-2.7 5.6c-1.7.4-3.4-.8-3.8-2.5-.2-1.1.5-2.1 1.6-2.3.7-.1 1.7.2 1.7 1.1M67.9 6.7H9.1M30.3 4.8C43.2 21.2 56.5-8.3 67.3 6"/><circle cx="2.1" cy="6.7" r="1"/><g><path d="M96.5 11.3c-.5-.2-.7-.8-.5-1.3.3-.7 1.2-1.1 1.9-.8 1.2.5 1.7 1.8 1.2 3-.7 1.8-3.1 2.1-4.3.6-1.9-2.4-5.5-8.4-9.1-10-2-.9-4.6 0-5.6 2s.1 5 2.7 5.6c1.7.4 3.4-.8 3.8-2.5.2-1.1-.5-2.1-1.6-2.3-.7-.1-1.7.2-1.7 1.1M83.1 6.7h58.8M120.7 4.8C107.8 21.2 94.5-8.3 83.7 6"/><circle cx="148.9" cy="6.7" r="1"/></g></symbol><symbol viewBox="0 0 100 42.591" id="car"><path d="M19.525 24.44c-5 0-9.07 4.075-9.07 9.09 0 4.985 4.07 9.06 9.07 9.06 5.013 0 9.088-4.075 9.088-9.06 0-5.015-4.075-9.09-9.088-9.09zm0 13.972c-2.676 0-4.876-2.2-4.876-4.883 0-2.696 2.2-4.897 4.875-4.897 2.695 0 4.89 2.2 4.89 4.896 0 2.68-2.195 4.882-4.89 4.882zM80.632 24.44c-5.007 0-9.076 4.075-9.076 9.09 0 4.985 4.07 9.06 9.076 9.06s9.068-4.075 9.068-9.06c0-5.015-4.062-9.09-9.068-9.09zm0 13.972c-2.695 0-4.89-2.2-4.89-4.883 0-2.696 2.194-4.897 4.89-4.897s4.89 2.2 4.89 4.896c0 2.68-2.195 4.882-4.89 4.882z"/><path d="M98.25 26.732c0-8.815-5.496-9.87-5.496-9.87-8.08-1.133-22-1.72-22-1.72C69.48 12.93 63.582 0 60.15 0H30.005c-4.368 0-11.523 12.604-13.092 15.456 0 0-5.482.938-8.066 1.537-1.432.325-5.41.403-5.41 11.51H0v5.026h8.366c0-6.173 5.007-11.173 11.16-11.173 6.177 0 11.17 5 11.17 11.172H69.46c0-6.173 4.986-11.173 11.172-11.173 6.165 0 11.165 5 11.165 11.172H100V26.73h-1.75zM44.745 14.284H27.344C29.694 6.954 34.056 1.72 35.9 1.72h8.847v12.564zm3.242 0V1.72h11.29c2.323 0 7.42 10.637 8.853 13.358l-20.142-.794z"/></symbol><symbol viewBox="0 0 152.1 96" id="headings_events"><path d="M47.8 58.6c.4.8-.4 2.2-1.7 3.5-2.7 2.8-7.2 4.4-11.7 4.1-3.5 4.7-9 8.2-16.3 8.2-4.1 0-7.8-1.6-11.3-4.7-3.4-3.1-5.1-7.3-5.1-12.6 0-17.3 15.1-28.2 27.6-29.3-3.9-6.3-2.3-18.6 7.8-22.9 8-3.5 18-.7 18 7.8 0 2.7-.9 4.9-2.8 6.5-1.8 1.6-3.4 2.4-4.7 2.5-2.3.1-2.3-2.2-.3-2.3 3.2-.3 5.5-3.4 5.5-6.3 0-4.4-3.1-6.7-6.8-6.7-10.2 0-17.4 12.1-13.1 20.7.7-.1 1.9.2 3.4.8 1.5.5 2.1 1.4 1.8 2.7-.3 1.1-1.2 1.6-2.8 1.5-1.6-.2-2.9-.8-3.8-1.9C19.5 31 6.9 43.3 6.9 58c0 3.9 1 7.3 2.9 10.2 1.9 2.9 4.8 4.4 8.5 4.4 5.3 0 9.6-3 12.3-7.1-2.5-.9-5.1-2.7-6.6-5.4-4.6-7.8-.3-17.2 6.3-17.2 9 0 10.7 12.2 5.3 21.4 3.9 0 8.1-1.7 11-5.4.5-.7.9-.8 1.2-.3zm-20.4 2.6c1.1 1.2 2.6 2 4.3 2.5 4.5-8 4.1-18.7-1.4-18.7-6.3 0-8.3 11.3-2.9 16.2z"/><path d="M72.3 56.6c1.1-1.2 2.3.1.8 1.6-2.9 2.9-6.6 3.3-9.4 2.4-5.6 9.3-9.9 14.1-15.8 14.1-5.6 0-7.4-5.1-4.5-10.4 2.7-4.8 2.6-4.8 6.4-11.3.4-.7.8-1.1 1.9-1.1h2.6c1.1 0 1.4.6.7 1.8-.3.7-1.3 2.3-2.9 5-1.5 2.7-3 5.1-4.3 7.4-2.4 4.1-.8 6.2 1.6 6.2 3.2 0 7.6-3.8 12.3-12.6-.7-.5-1.3-1.1-1.7-1.8-1.7-2.9-.1-6.3 2.6-6.3 2.9-.1 4.1 2.7 2.1 7.2 2 .8 5.1.5 7.6-2.2zm-9.6 1.2c.3-.4.6-1.2 1-2.4.4-1.3.1-1.9-.9-2-1.1-.1-1.8 1.7-1 3.3.1.4.5.8.9 1.1z"/><path d="M65.3 67.1c0-3.7 1.6-7.2 4.7-10.6 3.2-3.4 6.7-5.1 10.6-5.1 3.7 0 4.8 2.6 3.9 4.9-.9 2.1-2.9 3.9-6.9 5.2-2.3.7-4.5 1.2-6.2 1.3-.7 1.5-1.3 3.2-1.3 5.3 0 2.5 1 4.6 4.5 4.6 4.9 0 10.1-5.2 16.1-13.7.5-.8.9-.8 1.2-.4.4.5-.1 2-1.2 3.6-1.9 2.9-4.2 5.7-7.1 8.5-2.9 2.7-6.1 4.1-9.7 4.1-5.7 0-8.6-3.6-8.6-7.7zm7.2-6.5c2.1-.4 4.8-1 6.7-1.9 4.1-2.1 3.9-5.2 1.8-5.2-2.9 0-6.4 3.2-8.5 7.1z"/><path d="M116.9 59c.5-.9 1.1-.9 1.2-.4.4.5-.1 2-1.2 3.6-1.9 2.9-4 5.7-6.4 8.4-2.4 2.7-5 4.1-7.8 4.1-3.2 0-5.1-2.2-5.1-4.7 0-5.3 7.1-9.9 7.1-13.7 0-.9-.7-1.7-1.6-1.7-4.5 0-10.6 11.2-15.4 18.7-.4.7-.8 1.1-1.9 1.1h-1.7c-1.1 0-1.2-.6-.7-1.8 2.8-4.9 6.4-13.1 10.1-19.6.4-.7.8-1.1 1.9-1.1h2.2c.9 0 1.3.6.6 1.8l-2 3.9c2.4-2.9 5.3-5.5 8.4-5.5 2.9 0 4.5 1.8 4.5 4.3 0 5-7 10.6-7 14.6 0 .9.6 1.5 1.4 1.5 2.9 0 7.5-5 13.4-13.5z"/><path d="M132.6 59c.5-.9.9-.9 1.2-.4.4.5-.1 2-1.2 3.6-1.9 2.9-4 5.7-6.5 8.4-2.4 2.7-5 4.1-7.7 4.1-3.2 0-5.1-1.1-5.8-3.3-.7-2.2-.5-4.5.8-6.9 1.6-2.9 3.4-6.3 5.9-10.7h-1.6c-1.2 0-1.5-.4-1.2-1.1.4-.8.9-.7 2.2-.7h1.7l3.3-5.8c.4-.5.8-1 1.9-1h2.7c.9 0 1.3.5.6 1.8l-2.8 5h3.1c.9 0 1.6 0 1.3 1.1-.3.9-1.3.8-2.2.8H125l-7.2 12.8c-1.7 2.9-1.7 5.8 1.2 5.8 3.3 0 7.6-5 13.6-13.5z"/><path d="M150.1 65.7c.4.7-.1 1.9-1.2 3.5-2.5 3.3-7.1 6-13.5 6-4.8 0-8.3-1.7-8.8-5.3-.3-1.3.3-3 1.6-4.7 3.2-4.1 5.5-7.6 9-13.2 2.4-3.7 3.3-4.7 4.4-4.7.5 0 1.3.5.4 1.8-.4.5-.7.9-1.2 1.8-.9 1.7 1.2 4.9 2.9 9.4 1.6 4.1 1.1 7.9-.9 10.8-.3.5-.7.9-1.1 1.2 3.6-1.3 5.6-3.7 7.3-6.2.5-.8 1-.8 1.1-.4zm-16.5 1.2c.3 1.2.2 2-.3 2.5s-1.1.5-1.6.4c-.5-.3-.7-.9-.3-1.6.9-1.3-.9-2.1-2.1-1-.9.9-1 2-.5 3.5s1.7 2.2 3.8 2.2c3.3 0 5-2.3 6.3-5.1 1.1-2.5 1.3-4.9.6-7.3l-1.5-6.2c-1.6 2.1-4.1 6.9-7.3 10.6 1.7.1 2.6.7 2.9 2z"/></symbol><symbol viewBox="0 0 174.4 96" id="headings_photos"><path d="M65.1 7.6c2.3-2.1 4.3-3.5 5.9-3.9 1.1-.1 1.7 1.1 0 2.3-.9.7-2.1 1.7-3.3 2.8 5.7 3.1 10.8 9.1 10.8 16.8 0 13.1-10.2 20.9-19.5 20.9-4 0-6.6-.8-7.8-2.5-1.1-1.7-1.1-2.6.1-2.8 1.1-.1 1.8.4 2.2 1.5.4 1.1 2 1.6 4.9 1.6 6.8 0 15.1-8.2 15.1-20.2 0-5.5-2.7-11.1-7.4-13.6-3.5 3.7-7.6 9.7-11.3 17.3-12.6 24.9-20.4 47.6-40.4 47.6-4.8 0-8.2-1.3-10.3-3.8C2 69.1 1 66.6 1 64.2c0-5.6 4.2-9.4 9.1-9.4 3.5 0 5.3 2.5 5.4 4.2.4 2.8-1.9 2.8-2 .9-.1-1.3-1.1-3.2-3.6-3.2-3.7 0-6.7 3.2-6.8 7.3-.1 5.3 4.5 9.3 10.6 9.3 13 0 21.2-17.8 30.5-35.4 7.1-12.8 13.9-23 19.2-28.7-2.1-.5-4.7-1-7.2-1-5.5 0-10.8 1.9-15.9 5.6-5.1 3.7-8.7 7.7-10.9 12-3.2 6.1-2.5 10.5.7 10.5 2.9 0 6.3-2.2 10-8.7.7-1.2 1.1-2.2 1.9-2.1s1.2 1.2.3 2.8c-4.1 7.9-8.5 10.1-12.4 10.1-2.9 0-4.7-1.3-5.6-3.8-.8-2.6-.5-5.6 1-8.9 2.4-5.3 6.5-9.9 12.3-13.8C43.4 8 49.7 6.1 56.4 6.1c3.2 0 6.2.6 8.7 1.5zM92 59c.5-.9.9-.9 1.2-.4.4.5-.1 2-1.2 3.6-1.9 2.9-4 5.7-6.4 8.4-2.4 2.7-5 4-7.8 4.1-3.2 0-5.1-2.2-5.1-4.7 0-5.2 7-9.7 7-13.5 0-1.1-.8-1.8-1.9-1.7-2 .3-6.1 3.3-10.2 9.8-2.1 3.3-3.4 5.8-5 8.7-.4.7-1 1.1-1.9 1.1H59c-1.1 0-1.2-.7-.7-1.9 6.4-11.3 12-22.9 19.1-35.3.4-.5.8-1 1.9-1h2.2c.9 0 1.3.5.6 1.8-.6 1.2-7 11.9-11 19.4 2.3-2.8 5.3-5.1 8.2-5.1 3.2 0 4.9 2 4.9 4.5 0 5.2-7.1 10.6-7.1 14 0 1.1.6 1.7 1.5 1.7 2.9 0 7.4-5 13.4-13.5z"/><path d="M116.8 59.5c.1.3 0 1.1-.5 2-1.2 2-3.7 4.2-6.6 4.5-.8.1-1.7 0-2.6-.1-2.8 4.5-7.3 8.8-12 8.8-3.7 0-6-1.5-6.8-4.6-.9-3.1-.4-6.2 1.5-9.4 4.1-6.8 10.2-9.3 14.2-9.3 3.7 0 6.1 2 6.1 6.1 0 1.9-.8 4.3-2 6.7.5.1 1.1.2 1.8.1 2.5-.1 4.6-2.5 5.7-4.5.4-.8 1.1-.7 1.2-.3zm-9-2.3c.4-2.7-1.3-3.7-3.2-3.7s-3.8 1-5.7 3c-1.9 2-3.5 4.2-4.6 6.6-1.1 2.3-1.7 4.5-1.7 6.5.1 2 1.1 3 3.1 3 3.2 0 7-3.7 9.5-7.7-.7-.4-1.2-1-1.6-1.7-.9-1.3-1-2.7-.4-4.1.6-1.5 1.6-2.2 2.9-2.3.7 0 1.3.2 1.7.4zm-.7 3.9c.4-1.5 0-2.5-.9-2.6-1.1-.1-2 1.8-1.1 3.5.1.5.5 1 1 1.3.3-.8.7-1.4 1-2.2z"/><path d="M132 59c.5-.9.9-.9 1.2-.4.4.5-.1 2-1.2 3.6-1.9 2.9-4 5.7-6.5 8.4-2.4 2.7-5 4.1-7.7 4.1-3.2 0-5.1-1.1-5.8-3.3-.7-2.2-.5-4.5.8-6.9 1.6-2.9 3.4-6.3 5.9-10.7h-1.6c-1.2 0-1.5-.4-1.2-1.1.4-.8.9-.7 2.2-.7h1.7l3.3-5.8c.4-.5.8-1 1.9-1h2.7c.9 0 1.3.5.6 1.8l-2.8 5h3.1c.9 0 1.6 0 1.3 1.1-.3.9-1.3.8-2.2.8h-3.3l-7.2 12.8c-1.7 2.9-1.7 5.8 1.2 5.8 3.3 0 7.6-5 13.6-13.5z"/><path d="M171.8 66.1c.5-.8.9-.8 1.2-.4.4.7-.1 1.9-1.3 3.5-2.5 3.3-7.1 6-13.5 6-4.8 0-8.9-2.1-8.9-6.2 0-1.7 1.8-4.2 4.2-4.2 1.9 0 2.9.7 3.1 2s.1 2.1-.4 2.6-1.1.5-1.6.4c-.5-.3-.8-.9-.4-1.6.9-1.3-.9-2.1-2-1-.9.9-1.2 2-.7 3.5s1.8 2.2 3.9 2.2c3.3 0 5.1-2.3 6.3-5.1 1.1-2.5 1.3-4.9.6-7.4-.6-2.5-1.1-4.7-1.6-6.4-3.3 5.1-7.6 9.2-12.5 9.3-1.3 2.9-3.1 5.5-5.5 7.9-2.4 2.3-4.9 3.5-7.6 3.5-3.7 0-6.1-1.5-7-4.6-1-3.1-.6-6.2 1.3-9.4 4.1-6.8 10.2-9.3 14.2-9.3 3.7 0 5.9 2 5.9 6.1 0 1.2-.3 2.7-.7 4 4-.7 8-5 10.9-9.5 2.4-3.6 3.6-4.7 4.7-4.7.7 0 1.3.5.4 1.8-.3.5-.7.9-1.2 1.8-.9 1.7 1.3 4.9 3 9.4 1.5 4.1 1.3 8.7-2 12 3.5-1.3 5.5-3.7 7.2-6.2zm-24.4-10.4c-.5-1.6-1.7-2.2-3.2-2.2-3.7 0-8 4.8-10.1 9.6-1.1 2.3-1.6 4.5-1.5 6.5.1 2 1.1 3 3.2 3 4 0 8.2-4.7 10.3-9.6-2.3-.5-3.7-2.4-3.7-4 0-1.9 1.4-3.7 3.7-3.7.5 0 1 .3 1.3.4zm-3.1 3.3c-.1 1.3.7 2.2 2.4 2.5.3-.7.4-1.6.5-2.8s-.2-1.8-1.1-1.8c-1.1 0-1.7.7-1.8 2.1z"/></symbol><symbol viewBox="0 0 217.7 96" id="headings_registry"><path d="M65.3 7.9c2.4-2.4 4.6-3.9 6.3-4.2 1.1-.1 1.7 1.1 0 2.3-1.2.7-2.4 1.8-3.7 3.1 3.7 2.2 6.1 5.2 7.4 8.9 1.3 3.7 1.3 7.1.2 10.2-1.3 3.5-3.3 6-6 7.4-2.6 1.4-5 2.3-7.3 2.6 1.2.9 2.1 2.5 2.6 4.8 1.6 8-4.4 16-7.7 22.6-2 3.9-1.1 6.6 1.3 6.6 2.9 0 8.1-4.6 13.2-13.3.5-.8.9-.8 1.2-.3.4.8-.1 1.9-1 3.5-1.9 3.2-4.1 6.1-6.6 8.7-2.4 2.5-5 3.8-7.8 3.7-6 0-8.2-5-4.6-12.5 1.9-3.8 3.4-6.7 4.6-8.7 1.2-2.1 2.2-4.4 3.1-7.1.9-3.2.6-6.6-2.2-7.9-2.3-.3-3.4-1-3.3-2.2.1-1.3.8-1.9 2.1-1.8 1.5 0 1.9 1.4 2.8 1.5 4 .5 8.8-3 10.8-8.6 2.1-6.1.7-12.6-4.6-16.2-3.3 3.9-7.1 9.5-10.7 16.8-12.6 24.9-21.1 49.9-41 49.9-4.8 0-8.2-1.3-10.3-3.8S1 68.9 1 66.5c0-5.6 4.3-9.4 9.2-9.4 3.5 0 5.1 2.5 5.4 4.2.3 2.8-2 2.8-2.1.9-.1-1.3-.9-3.2-3.6-3.2-3.6 0-6.7 3.2-6.8 7.3-.1 5.3 4.6 9.3 10.7 9.3 12.9 0 21.4-20.1 31-37.7 6.8-12.7 13.5-22.6 18.8-28.3-2.1-.9-5-1.5-8.2-1.5-5.9 0-11.5 1.8-16.8 5.5-5.3 3.7-9.1 7.7-11.4 12.2-1.6 3.1-2 5.6-1.3 7.6.7 1.9 1.9 2.9 3.4 2.9 2.9 0 6.3-2.2 10-8.7.8-1.3 1.1-2.2 1.9-2.1.9.1 1.2 1.2.4 2.8-4.1 7.9-8.6 10-12.5 10-2.9 0-4.7-1.3-5.6-3.8-.8-2.6-.5-5.5 1-8.8 2.4-5.4 6.5-10 12.3-13.9C42.6 7.9 48.9 6 55.6 6c3.7 0 6.9.7 9.7 1.9z"/><path d="M67.1 67.1c0-3.7 1.6-7.2 4.7-10.6 3.2-3.4 6.7-5.1 10.6-5.1 3.7 0 4.8 2.6 3.9 4.9-.9 2.1-2.9 3.9-6.9 5.2-2.3.7-4.5 1.2-6.2 1.3-.7 1.5-1.3 3.2-1.3 5.3 0 2.5 1 4.6 4.5 4.6 4.9 0 10.1-5.2 16.1-13.7.5-.8.9-.8 1.2-.4.4.5-.1 2-1.2 3.6-1.9 2.9-4.2 5.7-7.1 8.5-2.9 2.7-6.1 4.1-9.7 4.1-5.7 0-8.6-3.6-8.6-7.7zm7.2-6.5c2.1-.4 4.8-1 6.7-1.9 4.1-2.1 3.9-5.2 1.8-5.2-2.9 0-6.4 3.2-8.5 7.1z"/><path d="M99.9 70.7c-2.1 2.5-4.1 3.9-6.6 3.9-2.9 0-4.7-1.5-5.3-4.5-.6-3.1 0-6.2 1.9-9.4 4-6.8 9.5-9.2 13.5-9.2 2.3 0 4 1.2 4.5 2.8l.7-1.4c.3-.5.8-1 1.9-1h2.7c.9 0 1.3.5.6 1.8l-11.6 20.9 1.6-.8c3.3-1.7 5.9-3.7 8-5.8 2.1-2.1 4.4-5.2 6.8-9.2.5-.9.7-.9 1-.4.5.9 0 1.9-.9 3.6-1.8 3.1-3.8 5.7-6 8-2.1 2.2-5.4 4.3-9.7 6.4l-2.6 1.2c-2.9 4.7-5.9 8.8-9.1 12.1-3.3 3.4-6.9 5.1-10.9 5.1-6.6 0-8.8-8.1 2.4-12.9 3.5-1.5 9-3.4 13.4-5 1.1-1.7 2.6-4.1 3.7-6.2zM87.1 88.8c2.7-2.6 5.2-5.7 7.5-9.2-6.4 2.1-12.4 4.2-15.3 6.7-3.3 2.8-2.5 6.4.7 6.4 2.1 0 4.4-1.3 7.1-3.9zM106 57.7c1.2-2.4 0-4-1.9-4-1.8 0-3.7 1-5.6 3-1.9 1.9-3.4 4.1-4.6 6.4-1.2 2.3-1.9 4.5-2 6.5-.1 1.9.7 2.9 2.4 2.9 4.2 0 8-8.2 11.7-14.8z"/><path d="M133.3 59c.5-.9.9-.9 1.2-.4.4.5-.1 2-1.2 3.6-1.9 2.9-4 5.7-6.5 8.4-2.4 2.7-5 4-7.7 4.1-4.9 0-6.7-4.4-4.2-9.2 1.3-2.5 2.4-4.4 3.1-5.7l3.9-6.9c.4-.7.8-1.1 1.9-1.1h2.7c1.1 0 1.3.6.6 1.8l-7.8 13.9c-1.6 2.9-1.3 5 .6 5 2.9 0 7.4-5 13.4-13.5zm-2.7-19.8c1.3 0 2.4 1.1 2.4 2.4 0 1.3-1.1 2.5-2.4 2.5-1.3 0-2.5-1.2-2.5-2.5s1.2-2.4 2.5-2.4z"/><path d="M156 58.6c.3.7 0 2-1.1 3.6-6.4 9.6-12.6 13-19 13-4.8 0-8.3-1.7-8.8-5.3-.3-1.3.3-3 1.6-4.7 3.2-4.1 5.5-7.6 9-13.2 2.4-3.7 3.3-4.7 4.4-4.7.5 0 1.3.5.4 1.8-.4.5-.7.9-1.2 1.8-.9 1.7 1.2 4.9 2.9 9.4 1.6 4.1 1.1 7.9-.9 10.8-.1.3-.3.6-.6.7 4.4-2.3 8.5-7.1 12.2-12.8.5-.9 1-.9 1.1-.4zm-21.9 8.3c.3 1.2.2 2-.3 2.5s-1.1.5-1.6.4c-.5-.3-.7-.9-.3-1.6.9-1.3-.9-2.1-2.1-1-.9.9-1 2-.5 3.5s1.7 2.2 3.8 2.2c3.3 0 5.1-2.4 6.3-5.1 2-4.5.4-8.7-.9-13.5-1.6 2.1-4.1 6.9-7.3 10.6 1.7.1 2.6.7 2.9 2z"/><path d="M171.4 59c.5-.9.9-.9 1.2-.4.4.5-.1 2-1.2 3.6-1.9 2.9-4 5.7-6.5 8.4-2.4 2.7-5 4.1-7.7 4.1-3.2 0-5.1-1.1-5.8-3.3s-.5-4.5.8-6.9c1.6-2.9 3.4-6.3 5.9-10.7h-1.6c-1.2 0-1.5-.4-1.2-1.1.4-.8.9-.7 2.2-.7h1.7l3.3-5.8c.4-.5.8-1 1.9-1h2.7c.9 0 1.3.5.6 1.8l-2.8 5h3.1c.9 0 1.6 0 1.3 1.1-.3.9-1.3.8-2.2.8h-3.3l-7.2 12.8c-1.7 2.9-1.7 5.8 1.2 5.8 3.3 0 7.6-5 13.6-13.5z"/><path d="M173.4 69.8c0-5.3 8-12.5 8-15.8 0-.9-.5-1.2-1.6-1-1 .1-2 .2-2.9.1-2.4 4.1-3.8 6-5.7 9.1-.5.9-1.1 1.5-1.6 1.1-.9-.7.2-2.1 1.1-3.6 1.5-2.3 2.6-4.1 4.2-7.2-2.9-1.3-3.1-5-.6-6.7 1.3-.9 2.4-.7 3.5.4s1.1 2.8 0 5.1c.3 0 1.1 0 3.9-.3 2.8-.4 4.8.5 4.8 2.9 0 4.5-8.9 12.7-8.9 16.8 0 1.1.7 1.9 2 1.9 2.9 0 7.6-5.2 13.3-13.7.5-.8.9-.8 1.2-.4.4.7-.1 2-1.2 3.7-1.9 2.9-4 5.7-6.4 8.4-2.4 2.6-5 3.9-7.7 4-3.3 0-5.4-2-5.4-4.8zm2.4-18.9c1.7-3.3.1-4.3-.8-3.4-.9.8-.8 2.5.8 3.4z"/><path d="M208.6 71.6c2.8-1.7 5-3.5 6.7-5.6.5-.8 1-.6 1.1-.2.1.5.1 1.8-1.2 3.1-3.6 3.9-10 6.9-14.9 8.6-2.9 4.8-5.9 8.9-9 12.2-3.1 3.4-6.8 5.1-10.9 5.1-3.3 0-5.4-2.2-5.4-4.7s2.2-5.8 7.7-8.2c3.9-1.7 8.5-3.2 12.6-4.7.9-1.3 2.8-3.8 3.7-5.5-1.1.8-3.6 3-6.5 3-4.8 0-6.6-4.5-4.1-9.2 1.3-2.5 2.4-4.4 3.2-5.7l3.9-6.9c.5-.5.9-1 2-1h2.6c1.1 0 1.4.5.7 1.8-.8 1.1-5.4 9.3-8 13.8-1.7 2.9-.8 4.7.8 4.7 2.5 0 5.9-3.1 11.2-12l2.1-3.8c.3-.7 1-1.8 2-3.5.4-.5.8-1 1.9-1h2.9c.9 0 1 .6.5 1.8-.8 1.1-5.3 9.3-8 13.8l-4.2 7.2c1.7-.5 3.9-1.5 6.6-3.1zm-15 8.2c-6.5 2.3-11.4 3.9-14.3 6.4-3.1 2.8-2.4 6.6.9 6.6 4.4 0 8.7-5.7 13.4-13z"/></symbol><symbol viewBox="0 0 237.8 96" id="headings_story"><path d="M39 4.6c5 0 8.1 2.1 9.4 6.2 1.3 4.1 1.3 9.2 0 15.4 4.9-.5 9.4-4.2 12.2-8.3 1.3-2 2.7-.8 1.5 1.1-3.1 4.9-7.9 9-14.2 9.3-.9 3.6-2.2 7.4-3.5 11.1-7.5 19.5-19.6 35.9-32.3 35.9C-1 75.3-1.1 58 6.4 39.9 14.2 20.6 27.3 4.6 39 4.6zM12.3 73.3c8.5 0 18.8-14.9 26.5-33.1 1.7-4.3 3.3-8.5 4.4-12.5-5.3-1.7-7.3-7.2-5.2-11.3 1.7-3.5 5.3-3.8 7.4-1.9-.1-4.7-1.7-7.7-5.4-7.7-8.8 0-21 16.2-27.9 33.5-7.7 18.9-8.4 33 .2 33zm32.5-52.4c.7-3.1.2-4.8-1.4-5.3-1.6-.5-2.8.1-3.6 1.7-1.5 2.8.2 6.9 3.9 8.4.5-2 .7-2.8 1.1-4.8zM77.9 72.5c2.5 0 5.4-2.5 8.3-6.5.5-.8 1-.5 1.1-.1.1.5 0 1.5-1.2 3.1-.9 1.1-2.1 2.3-3.7 3.6-1.5 1.3-3.3 2-5.3 1.9-3.2 0-5.5-2-5.5-4.8 0-5.2 8.2-12.4 8.2-15.7 0-.9-.5-1.3-1.6-1.1-1.1.1-2.1.2-3 .2-2.3 3.9-3.8 6.6-6.2 10.3-1.8 2.8-3.7 5.4-5.7 7.8-2 2.3-4.2 3.5-6.7 3.5-3.2 0-4.8-2-4.9-4.8-2.5 2.9-5.3 4.8-8.1 4.8-4.9 0-6.7-4.4-4.2-9.2 1.3-2.5 2.4-4.3 3.2-5.6l4-6.9c.4-.7.8-1.1 1.9-1.1h2.6c1.1 0 1.4.6.7 1.8l-8 13.8c-1.6 2.9-.8 4.7.8 4.7 2.7 0 6.2-3.1 11.7-13 .8-1.6 1.9-3.4 3.6-6.3.4-.7.8-1.1 1.9-1.1h2.7c.9 0 1.3.6.6 1.8l-7.8 13.9c-1.7 2.9-1.3 5 .6 5 1.5 0 3.2-1.4 5.3-4.2 2.1-2.8 4-5.5 5.7-8.2.8-1.3 2.6-4.3 4.3-7.6-2.9-1.3-3.1-5.1-.6-6.8 1.3-.8 2.5-.6 3.6.5s1 2.7-.1 5c.3 0 1.1 0 3.9-.3s4.8.5 4.8 2.9c0 4.5-8.9 12.7-8.9 16.8 0 1.1.7 1.9 2 1.9zm-3.8-21.7c1.7-3.3.2-4.2-.7-3.4-.9.8-.9 2.6.7 3.4zM161.1 20.5c0 2 1.6 4.3 5.7 4.3 4.9 0 8.2-4.6 8.2-9 0-5.3-3.8-9.1-9.9-9.1-2.9 0-5.7 1.1-8.6 3.2-2.9 2.1-4.8 5.1-5.8 9-4.3 17.3-.5 30-5.6 43.1-3.3 8.4-10.9 14-20.6 14-1.9 0-3.8-.2-6.5-1.1-1.7-.7-3.7-1.9-5.8-3.7-2.1-1.8-3.5-4.7-4.2-8.7-1.9-10.6 7-21.5 16.9-21.5 6.5 0 9.6 4.8 9.6 9.6 0 2.9-1 5.6-2.9 8.3-1.9 2.6-4.2 3.9-7.1 3.9-.5 0-1.2-.3-1.3-.8-.1-.5.4-1.1.9-1.1 2.8 0 5.6-2 7.3-5.6 1.5-3.3 1.5-6 .2-8.1-1.3-2.2-3.1-3.3-5.5-3.3-4.4 0-10 3.2-12.9 10.4-3.5 8.4-.1 19.7 11.2 19.7 6.8 0 12.4-3.5 15.6-12.3 4.8-13 .7-27.4 5.8-42.2 2.9-8.4 10-14.9 19.3-14.9 8 0 12.1 5.1 12.1 11.1 0 2.6-1 5.1-2.9 7.5-1.9 2.3-4.4 3.5-7.5 3.5-5.2 0-8-3.2-8-6.5 0-2.9 2.6-6.1 5.8-6.1.5 0 1.3.4 1.3.9s-.4.9-1.3 1c-2.3.4-3.5 2.4-3.5 4.5zM170.8 59c.5-.9.9-.9 1.2-.4.4.5-.1 2-1.2 3.6-1.9 2.9-4 5.7-6.5 8.4-2.4 2.7-5 4.1-7.7 4.1-3.2 0-5.1-1.1-5.8-3.3s-.5-4.5.8-6.9c1.6-2.9 3.4-6.3 5.9-10.7h-1.6c-1.2 0-1.5-.4-1.2-1.1.4-.8.9-.7 2.2-.7h1.7l3.3-5.8c.4-.5.8-1 1.9-1h2.7c.9 0 1.3.5.6 1.8l-2.8 5h3.1c.9 0 1.6 0 1.3 1.1-.3.9-1.3.8-2.2.8h-3.3L156 66.7c-1.7 2.9-1.7 5.8 1.2 5.8 3.3 0 7.6-5 13.6-13.5z"/><path d="M193.1 59.3c-1.7 2.4-3.7 3.7-6.2 4-1.3 2.9-3.2 5.5-5.7 7.9-2.5 2.3-5 3.5-7.7 3.5-3.7 0-6-1.5-6.8-4.6-.9-3.1-.4-6.2 1.5-9.4 4.1-6.8 10.2-9.3 14.2-9.3 3.7 0 5.9 2 5.9 6.1 0 1.2-.3 2.6-.7 3.9 1.9-.5 3.6-1.9 4.9-4.2 1.3-2.3 2.2-3.9 2.7-4.6-2.9-1.5-3.2-5.2-.7-6.9 1.3-.8 2.4-.6 3.5.5s1.1 2.7-.1 5c.4 0 1.1 0 4-.3 2.8-.3 4.8.5 4.8 2.9 0 4.5-8.9 12.7-8.9 16.8 0 1.1.7 1.9 2 1.9 2.9 0 7.4-5 13.4-13.5.5-.9.9-.8 1.2-.3.3.7-.1 1.9-1.2 3.5-1.9 2.9-4 5.6-6.5 8.3-2.4 2.7-5 4-7.8 4-3.2 0-5.4-2-5.4-4.8 0-5.2 8.1-12.4 8.1-15.7 0-.9-.5-1.3-1.6-1.1-1.1.1-2.1.2-3 .2-.9 1.7-2.2 3.7-3.9 6.2zm-8.4 3.8c-2.1-.5-3.6-2.4-3.6-4.1 0-1.9 1.6-3.7 3.7-3.7.5 0 1.1.4 1.4.5-.4-1.6-1.7-2.3-3.2-2.3-1.9 0-3.8 1-5.7 3-1.9 2-3.5 4.2-4.6 6.6-1.1 2.3-1.7 4.5-1.7 6.5.1 2 1.1 3 3.1 3 4.1 0 8.5-4.7 10.6-9.5zM183 59c-.1 1.3.7 2.2 2.4 2.5.3-.7.4-1.6.5-2.8.1-1.2-.2-1.8-1.1-1.8-1.1 0-1.7.7-1.8 2.1zm13-8.2c1.7-3.3.1-4.2-.8-3.4-.9.8-.8 2.6.8 3.4z"/><path d="M228.3 71.6c2.8-1.7 5-3.5 6.7-5.6.5-.8 1-.6 1.1-.2.1.5.1 1.8-1.2 3.1-3.6 3.9-10 6.9-14.9 8.6-2.9 4.8-5.9 8.9-9 12.2-3.1 3.4-6.8 5.1-10.9 5.1-3.3 0-5.4-2.2-5.4-4.7s2.2-5.8 7.7-8.2c3.9-1.7 8.5-3.2 12.6-4.7.9-1.3 2.8-3.8 3.7-5.5-1.1.8-3.6 3-6.5 3-4.8 0-6.6-4.5-4.1-9.2 1.3-2.5 2.4-4.4 3.2-5.7l3.9-6.9c.5-.5.9-1 2-1h2.6c1.1 0 1.4.5.7 1.8-.8 1.1-5.4 9.3-8 13.8-1.7 2.9-.8 4.7.8 4.7 2.5 0 5.9-3.1 11.2-12l2.1-3.8c.3-.7 1-1.8 2-3.5.4-.5.8-1 1.9-1h2.9c.9 0 1 .6.5 1.8-.8 1.1-5.3 9.3-8 13.8l-4.2 7.2c1.7-.5 3.9-1.5 6.6-3.1zm-15 8.2c-6.5 2.3-11.4 3.9-14.3 6.4-3.1 2.8-2.4 6.6.9 6.6 4.4 0 8.7-5.7 13.4-13z"/></symbol><symbol viewBox="0 0 476.5 96" id="headings_travel"><path d="M57.4 15.6C45.6 14.5 39 4 29.6 3.7c-5.7-.1-12.8 2.9-16.5 9.4-1.9 3.6-2.3 7-1.2 10.1s3.6 4.7 7.4 4.6c5.2-.1 8.5-4.7 9-9.2.1-2.1 2.3-1.9 2.2.4-.3 3.8-3.6 10.9-12.1 10.9-2.3-.1-4.4-1-6.5-2.8-2-1.8-3-4.1-3-7C8.9 9.3 20 .9 30.9.9 43.5.9 48.2 12 59 13.1c4.5-6.7 8.7-10.9 12.8-10.9 3.3 0 4 3 1.9 6.2-1.7 2.4-6 6.1-11.6 7-2 3.3-4.1 7.3-6.1 11.2-13.9 26.5-20.8 48.8-40.6 48.8-5 0-8.6-1.3-10.7-3.8-2.1-2.5-3.2-5-3.1-7.4.4-6.4 5-9.4 9.5-9.4 3.5 0 5.3 2.5 5.4 4.2.4 2.8-2 2.8-2.1.9-.1-1.3-1-3.1-3.5-3.1-3.7 0-6.8 3.3-6.9 7.4-.1 5.3 4.7 9 10.8 9 12 0 20.7-17.7 30-35.3 4.5-8.4 8.7-16.2 12.6-22.3zM71.6 4.3c-2 0-4.8 3.5-8 8.6 4.5-1.1 7.9-4.7 8.8-6.3.5-1.3.4-2.3-.8-2.3zM48.5 62.8c2.9-3.9 5-7.4 6.3-10.3-2.9-1.3-3.1-5-.6-6.7 1.3-.9 2.5-.7 3.6.4s1.1 2.8-.1 5.1c.4 0 1.1 0 3.9-.3 2.9-.4 4.9.5 4.9 2.9 0 4.5-8.9 12.7-8.9 16.8 0 1.1.5 1.9 2 1.9 2.9 0 7.4-4.9 13.4-13.6.5-.8 1-.8 1.1-.4.4.7-.2 2-1.1 3.7-1.9 2.8-4 5.6-6.5 8.3-2.4 2.7-5 4-7.8 4-3.2 0-5.4-2-5.4-4.8 0-5.3 8.1-12.5 8.1-15.8 0-.9-.5-1.2-1.6-1-1.1.1-2.1.2-3 .1-2.2 4.6-8.5 15.2-15.7 20.8-.9.7-2.2.7-2.9.4-1.2-.7.1-1.4 1-2.1 3.3-2.3 6.4-5.5 9.3-9.4zm7.2-11.9c1.9-3.3.2-4.3-.7-3.4-.9.8-.9 2.5.7 3.4z"/><path d="M100.8 59c.5-.9.9-.9 1.2-.4.4.5-.1 2-1.2 3.6-1.9 2.9-4 5.7-6.5 8.4-2.4 2.7-5 4-7.8 4.1-2.9 0-4.8-1.4-5.3-4.3-1.9 2.1-4.1 4.2-6.9 4.2-3.3 0-5.2-1.5-5.8-4.5-.6-3.1 0-6.2 1.9-9.4 4.1-6.8 9.9-9.3 13.9-9.3 2.5 0 3.8 1.2 4.3 2.7l.8-1.2c.4-.7.8-1.1 1.9-1.1H94c.9 0 1.3.6.6 1.8l-8 14.3c-1.6 2.9-.9 4.6.8 4.6 2.9 0 7.4-5 13.4-13.5zm-14.2-1.4c1.3-2.7-.4-4.1-1.9-4.1-1.7 0-3.5 1-5.4 3-1.9 2-3.4 4.2-4.7 6.5-1.2 2.3-1.9 4.5-2.1 6.5-.1 2 .6 3 2.3 3 4.9 0 9.9-11.4 11.8-14.9z"/><path d="M126.2 56.6c1.1-1.2 2.3.1.8 1.6-2.9 2.9-6.6 3.3-9.4 2.4-5.6 9.3-9.9 14.1-15.8 14.1-5.6 0-7.4-5.1-4.5-10.4 2.7-4.8 2.6-4.8 6.4-11.3.4-.7.8-1.1 1.9-1.1h2.6c1.1 0 1.4.6.7 1.8-.3.7-1.3 2.3-2.9 5-1.5 2.7-3 5.1-4.3 7.4-2.4 4.1-.8 6.2 1.6 6.2 3.2 0 7.6-3.8 12.3-12.6-.7-.5-1.3-1.1-1.7-1.8-1.7-2.9-.1-6.3 2.6-6.3 2.9-.1 4.1 2.7 2.1 7.2 2 .8 5.1.5 7.6-2.2zm-9.6 1.2c.3-.4.6-1.2 1-2.4.4-1.3.1-1.9-.9-2-1.1-.1-1.8 1.7-1 3.3.1.4.5.8.9 1.1z"/><path d="M119.2 67.1c0-3.7 1.6-7.2 4.7-10.6 3.2-3.4 6.7-5.1 10.6-5.1 3.7 0 4.8 2.6 3.9 4.9-.9 2.1-2.9 3.9-6.9 5.2-2.3.7-4.5 1.2-6.2 1.3-.7 1.5-1.3 3.2-1.3 5.3 0 2.5 1 4.6 4.5 4.6 4.9 0 10.1-5.2 16.1-13.7.5-.8.9-.8 1.2-.4.4.5-.1 2-1.2 3.6-1.9 2.9-4.2 5.7-7.1 8.5-2.9 2.7-6.1 4.1-9.7 4.1-5.7 0-8.6-3.6-8.6-7.7zm7.2-6.5c2.1-.4 4.8-1 6.7-1.9 4.1-2.1 3.9-5.2 1.8-5.2-2.9 0-6.4 3.2-8.5 7.1z"/><path d="M155 66c.5-.8 1-.6 1.1-.1s0 1.5-1.1 3c-1.7 2.3-5 5.8-9.3 5.7-4.9 0-6.4-4.8-3.9-10 1.9-3.8 7.2-14.6 11-21.1 5.6-9.6 10.4-15.8 15.1-15.8 3.9 0 4.8 4.5-.3 10.6-3.3 4.1-7.9 8.4-13 12.1-3.6 6.8-7.2 13.6-8.9 17.1-1.5 3.1-.7 4.9 1 4.9 2.5 0 5.5-2.4 8.3-6.4zm1.5-19.1l4.9-4.7c4.4-4.2 6.8-7.4 7.3-9.6s.2-3.3-.8-3.3c-2.5 0-5.4 5.7-9.5 13.7l-1.9 3.9zM205.4 59c.5-.9.9-.9 1.2-.4.4.5-.1 2-1.2 3.6-1.9 2.9-4 5.7-6.5 8.4-2.4 2.7-5 4-7.8 4.1-2.9 0-4.8-1.4-5.3-4.3-1.9 2.1-4.1 4.2-6.9 4.2-3.3 0-5.2-1.5-5.8-4.5-.6-3.1 0-6.2 1.9-9.4 4.1-6.8 9.9-9.3 13.9-9.3 2.5 0 3.8 1.2 4.3 2.7l.8-1.2c.4-.7.8-1.1 1.9-1.1h2.7c.9 0 1.3.6.6 1.8l-8 14.3c-1.6 2.9-.9 4.6.8 4.6 2.9 0 7.4-5 13.4-13.5zm-14.2-1.4c1.3-2.7-.4-4.1-1.9-4.1-1.7 0-3.5 1-5.4 3-1.9 2-3.4 4.2-4.7 6.5-1.2 2.3-1.9 4.5-2.1 6.5-.1 2 .6 3 2.3 3 4.9 0 9.9-11.4 11.8-14.9z"/><path d="M230.9 59c.5-.9 1.1-.9 1.2-.4.4.5-.1 2-1.2 3.6-1.9 2.9-4 5.7-6.4 8.4-2.4 2.7-5 4.1-7.8 4.1-3.2 0-5.1-2.2-5.1-4.7 0-5.3 7.1-9.9 7.1-13.7 0-.9-.7-1.7-1.6-1.7-4.5 0-10.6 11.2-15.4 18.7-.4.7-.8 1.1-1.9 1.1h-1.7c-1.1 0-1.2-.6-.7-1.8 2.8-4.9 6.4-13.1 10.1-19.6.4-.7.8-1.1 1.9-1.1h2.2c.9 0 1.3.6.6 1.8l-2 3.9c2.4-2.9 5.3-5.5 8.4-5.5 2.9 0 4.5 1.8 4.5 4.3 0 5-7 10.6-7 14.6 0 .9.6 1.5 1.4 1.5 2.9 0 7.5-5 13.4-13.5z"/><path d="M253.3 66c.5-.8 1-.6 1.1-.1.3.5 0 1.5-1.2 3-1.6 2.3-5 5.7-9 5.7-2.9 0-4.9-1.6-5.4-4.1-1.9 2.3-4.3 4.1-7 4.1-3.7 0-5.9-2.6-5.9-6.2 0-7.2 7.8-17 16.2-17 2.5 0 3.8 1.2 4.3 2.7 3.6-6.1 7.6-13.2 9.7-16.9.4-.5.8-1.1 1.9-1.1h2.2c1.1 0 1.4.6.7 1.9l-16.7 29.9c-1.6 2.9-.8 4.6.9 4.6 2.5 0 5.4-2.5 8.2-6.5zm-10.8-12.5c-3.3 0-7.6 4.8-10.1 9.6-1.2 2.3-1.9 4.5-2.1 6.5-.2 2 .5 3 2.2 3 2.1 0 4.1-1.5 6-4.6 2-3.1 4-6.6 5.9-10.3 1.5-2.8-.4-4.2-1.9-4.2zM324 58.7c2.5-5.6 1.9-9.5-1.3-9.5-2.9 0-6.2 3.3-9.9 10.9-.7 1.3-1.5 2.6-2.3 2.5-.8-.3-.9-1.5-.1-3.1 4.1-8.8 8.6-12.8 12.5-12.8 2.5 0 4.4 1.3 5.7 3.8 1.3 2.5 1.1 5.9-.6 10.1-4.1 9.9-11.9 15.6-22.6 15.6-3.6 0-6.7-.8-9.2-2.3l-6.9-4.2c-3.6 3.7-7.1 6-10.2 6-7.2 0-3.5-10 4.7-10 1.3 0 2.5.3 3.8.8C295.4 55.5 305 34 316 19c-3.7-1.8-7.2-3.7-10.5-5.6-3.3-1.9-6.7-2.9-10.4-2.9-10.5 0-11.8 13.5-1.4 13.5 4.9 0 8.5-2.5 10.1-3.2 1.6-.8 2.2.5 1 1.6-.3.3-1.6 1.1-3.8 2.2-2.1 1.1-4.8 1.7-8.1 1.7-15.3 0-13.4-18 2.2-18 4.2 0 8 1.1 11.4 3.2 3.4 2.1 7 4 10.7 5.8 6.8-9.2 14.5-15.6 21.3-15.6 7.1 0 8.8 5.2 6.7 10.4-2 5.2-8.1 10.4-16.5 10.4-2.9 0-5.8-.6-8.3-1.5-3.6 5.3-7.2 11.7-10.9 18.2-7.3 12.8-12.7 22.2-18.7 28.9 4.1 2.4 8.3 5.9 14.6 5.9 7.6 0 14.1-5.3 18.6-15.3zm-37.8 9.5c-.7-.3-1.5-.5-2.2-.5-6 0-8.6 6.3-5.1 6.3 2.1 0 4.6-2.2 7.3-5.8zm35.4-49c2.3.8 4.8 1.2 7.3 1.2 13.9 0 19.5-16.5 10.3-16.5-4.9 0-11.1 6.1-17.6 15.3zM359.8 59.5c.1.3 0 1.1-.5 2-1.2 2-3.7 4.2-6.6 4.5-.8.1-1.7 0-2.6-.1-2.8 4.5-7.3 8.8-12 8.8-3.7 0-6-1.5-6.8-4.6-.9-3.1-.4-6.2 1.5-9.4 4.1-6.8 10.2-9.3 14.2-9.3 3.7 0 6.1 2 6.1 6.1 0 1.9-.8 4.3-2 6.7.5.1 1.1.2 1.8.1 2.5-.1 4.6-2.5 5.7-4.5.4-.8 1.1-.7 1.2-.3zm-9-2.3c.4-2.7-1.3-3.7-3.2-3.7-1.9 0-3.8 1-5.7 3-1.9 2-3.5 4.2-4.6 6.6-1.1 2.3-1.7 4.5-1.7 6.5.1 2 1.1 3 3.1 3 3.2 0 7-3.7 9.5-7.7-.7-.4-1.2-1-1.6-1.7-.9-1.3-1-2.7-.4-4.1.6-1.5 1.6-2.2 2.9-2.3.7 0 1.3.2 1.7.5v-.1zm-.7 3.9c.4-1.5 0-2.5-.9-2.6-1.1-.1-2 1.8-1.1 3.5.1.5.5 1 1 1.3.3-.8.7-1.4 1-2.2z"/><path d="M366.2 70.5c-1.9 2.3-4.3 4.1-7 4.1-3.7 0-5.9-2.6-5.9-6.2 0-7.2 7.8-17 16.2-17 2.5 0 3.8 1.2 4.3 2.7 3.6-6.1 7.6-13.2 9.7-16.9.4-.5.8-1.1 1.9-1.1h2.2c1.1 0 1.4.6.7 1.9l-16.7 29.9c-1.6 2.9-.8 4.6.9 4.6 2.9 0 7.4-5 13.4-13.5.5-.9 1-.9 1.1-.5.5.7 0 2-1.1 3.7-1.9 2.9-4 5.6-6.5 8.3-2.4 2.6-5 3.9-7.8 4-2.9 0-4.9-1.5-5.4-4zm5.6-12.8c1.3-2.9-.4-4.2-1.9-4.2-3.3 0-7.6 4.8-10.1 9.6-1.2 2.3-1.9 4.5-2.1 6.5-.2 2 .5 3 2.2 3 4 0 7.7-7.9 11.2-13.5l.7-1.4z"/><path d="M393.2 70.7c-2.1 2.5-4.1 3.9-6.6 3.9-2.9 0-4.7-1.5-5.3-4.5-.6-3.1 0-6.2 1.9-9.4 4-6.8 9.5-9.2 13.5-9.2 2.3 0 4 1.2 4.5 2.8l.7-1.4c.3-.5.8-1 1.9-1h2.7c.9 0 1.3.5.6 1.8l-11.6 20.9 1.6-.8c3.3-1.7 5.9-3.7 8-5.8s4.4-5.2 6.8-9.2c.5-.9.7-.9 1-.4.5.9 0 1.9-.9 3.6-1.8 3.1-3.8 5.7-6 8-2.1 2.2-5.4 4.3-9.7 6.4l-2.6 1.2c-2.9 4.7-5.9 8.8-9.1 12.1-3.3 3.4-6.9 5.1-10.9 5.1-6.6 0-8.8-8.1 2.4-12.9 3.5-1.5 9-3.4 13.4-5 1.1-1.7 2.6-4.1 3.7-6.2zm-12.8 18.1c2.7-2.6 5.2-5.7 7.5-9.2-6.4 2.1-12.4 4.2-15.3 6.7-3.3 2.8-2.5 6.4.7 6.4 2.1 0 4.4-1.3 7.1-3.9zm18.9-31.1c1.2-2.4 0-4-1.9-4-1.8 0-3.7 1-5.6 3-1.9 1.9-3.4 4.1-4.6 6.4-1.2 2.3-1.9 4.5-2 6.5-.1 1.9.7 2.9 2.4 2.9 4.2 0 8-8.2 11.7-14.8z"/><path d="M426.1 59c.5-.9.9-.9 1.2-.4.4.5-.1 2-1.2 3.6-1.9 2.9-4 5.7-6.5 8.4-2.4 2.7-5 4-7.7 4.1-4.9 0-6.7-4.4-4.2-9.2 1.3-2.5 2.4-4.4 3.1-5.7l3.9-6.9c.4-.7.8-1.1 1.9-1.1h2.7c1.1 0 1.3.6.6 1.8L412 67.5c-1.6 2.9-1.3 5 .6 5 3 0 7.5-5 13.5-13.5zm-2.7-19.8c1.3 0 2.4 1.1 2.4 2.4 0 1.3-1.1 2.5-2.4 2.5-1.3 0-2.5-1.2-2.5-2.5s1.2-2.4 2.5-2.4z"/><path d="M451.7 59c.5-.9 1.1-.9 1.2-.4.4.5-.1 2-1.2 3.6-1.9 2.9-4 5.7-6.4 8.4-2.4 2.7-5 4.1-7.8 4.1-3.2 0-5.1-2.2-5.1-4.7 0-5.3 7.1-9.9 7.1-13.7 0-.9-.7-1.7-1.6-1.7-4.5 0-10.6 11.2-15.4 18.7-.4.7-.8 1.1-1.9 1.1h-1.7c-1.1 0-1.2-.6-.7-1.8 2.8-4.9 6.4-13.1 10.1-19.6.4-.7.8-1.1 1.9-1.1h2.2c.9 0 1.3.6.6 1.8l-2 3.9c2.4-2.9 5.3-5.5 8.4-5.5 2.9 0 4.5 1.8 4.5 4.3 0 5-7 10.6-7 14.6 0 .9.6 1.5 1.4 1.5 2.9 0 7.5-5 13.4-13.5z"/><path d="M467.4 71.8c2.8-1.6 5.2-3.5 7.3-5.8.7-.8 1-.6 1.1-.2.1.5.1 1.8-1.2 3.1-3.9 4.1-10.1 7-15 8.7-2.9 4.7-5.9 8.8-9.1 12.1-3.3 3.4-6.9 5.1-10.9 5.1-6.6 0-8.8-8.1 2.4-12.9 3.5-1.5 9-3.4 13.4-5 1.1-1.7 2.6-4.1 3.7-6.2-2.1 2.5-4.1 3.9-6.6 3.9-2.9 0-4.7-1.5-5.3-4.5-.6-3.1 0-6.2 1.9-9.4 4-6.8 9.5-9.2 13.5-9.2 2.3 0 4 1.2 4.5 2.8l.7-1.4c.3-.5.8-1 1.9-1h2.7c.9 0 1.3.5.6 1.8l-11.7 21c1.3-.3 3.3-1.3 6.1-2.9zm-21.1 17c2.7-2.6 5.2-5.7 7.5-9.2-6.4 2.1-12.4 4.2-15.3 6.7-3.3 2.8-2.5 6.4.7 6.4 2.1 0 4.4-1.3 7.1-3.9zm18.9-31.1c1.2-2.4 0-4-1.9-4-1.8 0-3.7 1-5.6 3-1.9 1.9-3.4 4.1-4.6 6.4-1.2 2.3-1.9 4.5-2 6.5-.1 1.9.7 2.9 2.4 2.9 4.2 0 8-8.2 11.7-14.8z"/></symbol><symbol viewBox="0 0 15 13" id="lucy"><path d="M13.2 1.3c1.1-.8 1-.5.5 1.1 0 .2-.5.6-.5.6-.2.1-.2.3-.3.6 0 .4-.3.3-.4 1.2-.1.7-.9 1.1-1 1.3-.3.6.3.4-.7 1.1-.6.4-.7 2.4-.7 2.7.1.9.2.5.5.7.5.3.1.4-.2.4-.6.1-.5-.3-.6-.5-.2-.4-.3-1-.3-1-.2.7-.4 1.7.1 2 .7.2.5.5 0 .6-.7.1-.7-.5-.8-.7 0-.4-.3-.3-.2-.8.3-1.7 0-1.9.2-2.2-.2-.6.1-.2.2-1-2-.3-.5-.8-3.9-.8-.1.4.1.6-.3 1.1-.2.3-.1.6-.4 1-.2.6-.2 1.5.1 1.5.3-.1.8.3.1.4-.6.1-.5-.2-.6-.3-.2-.5-.2-1.3-.3-1.2-.5.6-1 2.1-.6 2.2.4.1.5.5-.1.6-.4 0-.4-.1-.6-.4-.1-.3.1-.2.1-1.5-.2-.8.9-.9 0-2.9-.8-1.8.2-2 0-2.1-1.2-.7-1.2-.9-1.3-1-.6-.5-.4-1.9.9-2.2.8-.1 1.3.9 1.8 1 0 .1-.6 0-.7 0-2-.9-1.8 1.6-.2 1.1 0 0 1.5-1 5-.4.1 0 1.7-.2 1.7-.2.2 0 .8.1.5-.3-.2-.2-.4-.5-.4-.7C9 .3 9.6.8 11 2.1c0 .1.6-.2 1.5 0 .2-.4.5-.7.7-.8z"/></symbol><symbol viewBox="1.5 117.7 465 106.6" id="names"><path d="M285.8 188.4c5-12.4 19.9-31.9 26.2-45.1 5.5-11.5 4.4-16.8-.2-16.8-3.2 0-6.7 2.3-9.9 6.9-3.2 4.4-6.5 9.6-9.6 15.3-3.6 7.1-9.9 18.3-15.5 28.5l-7.6 13.9-4.8 8.4c-.4.8-1 1.3-2.1 1.3h-3.1c-1.3 0-1.5-.8-.8-2.1 1.1-2.5 3.2-6.1 6.1-11.7 2.9-5.3 5.9-11.1 9.4-17l9.4-17c3.1-5.5 5.3-9.6 6.7-12.2 5.9-11.1 3.4-17-.8-17-8 0-14.3 13.8-21.4 26.7 0 0-1.3 2.3-3.6 6.9l-8.4 15.3-9.4 16.4-5.7 10.3c-.4.8-1 1.3-2.1 1.3h-3.1c-1.3 0-1.5-.8-.8-2.1.2-.4 1.9-3.4 5-9.4l10.5-19.5 11.1-20.2c3.4-6.3 5.5-10.1 6.1-11.7 5.9-11.7 3.1-18-3.8-18-3.6 0-7.4 1.7-11.7 5.2-4.2 3.2-7.4 7.6-9.9 12.8-2.9 5.9-3.1 11.3 1.3 11.3 3.2 0 7.1-4.2 11.3-12.8.8-1.5 1.3-3.1 2.1-3.1 1 .4 1 1.5.2 3.6-4.8 9.9-9.4 14.5-13.8 14.5-5.3 0-8.6-5.3-5.9-12.8 3.6-10.1 14.9-21 26-21 7.6 0 13 5.2 12.4 13 4.2-6.1 8.4-9.6 13.6-9.6 6.5 0 9.6 5.7 7.8 14.5 4.6-7.4 10.1-11.8 15.5-11.8 8.8 0 10.7 9.6 3.2 24.6-6.1 12.4-20.6 32.3-24.6 41.6-2.1 5-1.7 7.6 1.5 7.6s7.8-5.2 14.7-15.3c.6-1 1.3-1 1.3-.4.4.6-.4 2.5-1.5 4.4-2.7 4.6-9.2 13.8-15.7 13.8-5.3.5-8.5-4.6-5.6-11.5z"/><path d="M324 183c.6-1 1-1 1.3-.4.4.6-.2 2.3-1.3 4.2-2.1 3.2-4.6 6.5-7.4 9.6-2.7 3.1-5.7 4.6-8.8 4.8-5.5 0-7.6-5-4.8-10.5 1.5-2.9 2.7-5 3.6-6.5l4.4-7.8c.4-.8 1-1.3 2.1-1.3h3.1c1.3 0 1.5.8.8 2.1l-9 15.9c-1.9 3.2-1.5 5.7.8 5.7 3.1-.3 8.3-6 15.2-15.8zm-3.1-22.7c1.5 0 2.7 1.3 2.7 2.7s-1.3 2.9-2.7 2.9c-1.5 0-2.9-1.3-2.9-2.9s1.4-2.7 2.9-2.7z"/><path d="M320.2 192.6c0-7.6 9-18.1 17.6-18.1 4.2 0 5.5 3.1 4.4 5.5-1 2.5-3.2 4.2-5 4.2-1.5.2-1.9-1.3-.4-2.1 4.2-2.3 3.8-5.3 1.3-5.3s-5.3 1.9-8.2 5.3c-2.9 3.6-4.4 7.3-4.4 11.3 0 3.6 1.7 5.3 4.6 5.3 5.5 0 11.1-5.9 18-15.7.6-1 1-1 1.3-.4.4.6-.2 2.3-1.3 4.2-2.1 3.2-4.8 6.5-8 9.7-3.1 3.1-6.7 4.8-10.9 4.8-6.4-.1-9-4.1-9-8.7z"/><path d="M354.3 181.1c2.7-3.2 6.1-5.9 9.4-5.9 3.6 0 5.5 2.3 5.5 5.2 0 5.9-8.2 12.2-8.2 16 0 1.3.8 1.9 1.7 1.9 4 0 9.6-6.7 15.3-15.5.6-1 1.1-1 1.5-.4.4.6-.2 2.3-1.3 4.2-2.1 3.2-4.6 6.5-7.3 9.6-2.7 3.1-5.7 4.6-9 4.8-3.6 0-5.9-2.5-5.9-5.3 0-5.9 8-11.1 8-15.5 0-1.3-1-2.1-2.1-1.9-2.3.4-7.1 3.8-11.7 11.3-2.5 3.8-3.8 6.7-5.7 9.9-.4.8-1.1 1.3-2.1 1.3h-1.9c-1.3 0-1.3-1.1-.8-2.1 4.2-7.3 9.9-18 17.8-33.2 6.5-11.5 11.8-18.1 17.2-18.1 4.4 0 5.5 5.2-.4 12.2-3.8 4.8-9.6 9.9-15.5 14.1-.6.7-2.5 4-4.5 7.4zm6.3-11.6c1.9-1.9 5-4.2 6.5-5.7 5-4.8 7.8-8.4 8.4-11.1.6-2.5.2-3.8-1-3.8-2.9 0-6.7 7.1-11.3 15.9l-2.6 4.7z"/><path d="M410.5 183c.6-1 1-1 1.3-.4.4.6-.2 2.3-1.3 4.2-2.1 3.2-4.6 6.5-7.4 9.6-2.7 3.1-5.7 4.6-9 4.8-3.2 0-5.5-1.5-6.1-5-2.1 2.5-4.8 4.8-7.8 4.8-3.8 0-5.9-1.7-6.7-5.2-.8-3.6 0-7.1 2.1-10.7 4.8-7.8 11.3-10.7 15.9-10.7 2.9 0 4.4 1.3 5 3.1l1-1.3c.4-.8 1-1.3 2.1-1.3h3.1c1 0 1.5.8.8 2.1l-9.2 16.4c-1.9 3.2-1 5.3 1 5.3 3.2-.2 8.3-5.9 15.2-15.7zm-16.2-1.5c1.5-3.1-.4-4.8-2.1-4.8-1.9 0-4 1.1-6.1 3.4-2.1 2.3-3.8 4.8-5.3 7.4-1.3 2.7-2.1 5.2-2.5 7.4-.2 2.3.8 3.4 2.7 3.4 5.4.2 11.2-12.8 13.3-16.8z"/><path d="M406.9 192.4c0-4.2 1.9-8.2 5.3-12.2 3.6-3.8 7.6-5.9 12.2-5.9 4.2 0 5.5 3.1 4.4 5.5-1 2.5-3.2 4.4-7.8 5.9-2.7.8-5.2 1.3-7.1 1.5-.8 1.7-1.5 3.6-1.5 6.1 0 2.9 1.1 5.3 5.2 5.3 5.5 0 11.7-5.9 18.5-15.7.6-1 1-1 1.3-.4.4.6-.2 2.3-1.3 4.2-2.1 3.2-4.8 6.5-8.2 9.7-3.2 3.1-7.1 4.8-11.1 4.8-6.7 0-9.9-4.2-9.9-8.8zm8.2-7.5c2.5-.4 5.5-1.1 7.6-2.1 4.8-2.5 4.4-5.9 2.1-5.9-3.2-.2-7.2 3.5-9.7 8z"/><path d="M447.9 191.1c.6-1 1.1-.8 1.3-.2s0 1.7-1.3 3.4c-1.9 2.7-5.7 6.7-10.7 6.5-5.5 0-7.3-5.5-4.4-11.5 2.1-4.4 8.2-16.8 12.6-24.3 6.5-11.1 11.8-18.1 17.4-18.1 4.4 0 5.5 5.2-.4 12.2-3.8 4.8-9 9.6-14.9 13.9-4.2 7.8-8.2 15.7-10.1 19.7-1.7 3.6-.8 5.5 1.1 5.5 2.8.1 6.2-2.6 9.4-7.1zm1.8-22l5.5-5.3c5-4.8 7.8-8.4 8.4-11.1.6-2.7.2-3.8-1-3.8-2.9 0-6.1 6.5-10.9 15.7l-2 4.5z"/><g><path d="M54.4 182.7c.4 1-.4 2.5-1.9 4-3.1 3.2-8.2 5-13.4 4.8-4 5.3-10.3 9.4-18.7 9.4-4.8 0-9-1.9-13-5.3-3.8-3.6-5.9-8.4-5.9-14.5 0-19.9 17.4-32.3 31.7-33.6-4.4-7.3-2.7-21.4 9-26.4 9.2-4 20.6-.8 20.6 9 0 3.1-1 5.5-3.2 7.4-2.1 1.9-3.8 2.7-5.3 2.9-2.7.2-2.7-2.5-.4-2.7 3.6-.4 6.3-3.8 6.3-7.3 0-5-3.6-7.6-7.8-7.6-11.7 0-19.9 13.9-15.1 23.7.8-.2 2.1.2 3.8 1 1.7.6 2.5 1.5 2.1 3.1-.4 1.3-1.3 1.9-3.2 1.7-1.9-.2-3.2-1-4.4-2.1-13.6 1-27.9 15.1-27.9 31.9 0 4.4 1.1 8.4 3.2 11.7s5.5 5 9.7 5c6.1 0 11.1-3.4 14.1-8.2-2.9-1-5.9-3.1-7.6-6.1-5.2-8.8-.4-19.7 7.3-19.7 10.3 0 12.2 13.9 6.1 24.5 4.4 0 9.4-1.9 12.6-6.1.6-1.1 1-1.1 1.3-.5zm-23.3 2.8c1.3 1.3 3.1 2.3 5 2.9 5.2-9.2 4.8-21.4-1.5-21.4-7.5 0-9.8 13-3.5 18.5z"/><path d="M100.9 183c.6-1 1.1-1 1.3-.4.4.6-.2 2.3-1.3 4.2-2.1 3.2-4.6 6.5-7.4 9.6-2.7 3.1-5.7 4.8-9 4.8-3.6 0-5.7-2.5-5.7-5.3 0-5.9 7.8-11.1 7.8-15.5 0-1.3-.6-1.9-1.9-1.9-6.1 0-14.7 15.9-18 21.2-.4.8-1 1.3-2.1 1.3h-2.9c-1.3 0-1.5-.8-.8-2.1.4-.8 1.5-2.7 3.6-6.1l5.3-9.2c1.9-3.2.8-5.2-1.5-5-2.1.2-6.7 3.8-12.2 11.7-3.2 4.8-5 7.6-6.3 9.6-.4.2-1 .8-2.1.8h-1.9c-1 0-1.3-.8-.8-2.1 3.2-6.3 7.6-15.1 11.7-22.5.4-.8 1.1-1.3 2.1-1.3h2.7c1.3 0 1.5.8.8 2.1l-4.2 7.3c4.4-5.5 8.4-8.8 12.2-8.8 4.6-.2 6.5 3.2 5.3 7.4 3.6-4.8 7.3-7.4 10.7-7.4 3.6 0 5.5 2.3 5.5 5.2 0 5.9-8 11.7-8 16.2 0 1 .8 1.7 1.7 1.7 3.3 0 8.5-5.7 15.4-15.5z"/><path d="M117.9 183c.6-1 1-1 1.3-.4s-.2 2.3-1.3 4.2c-2.1 3.2-4.6 6.5-7.4 9.6-2.7 3.1-5.7 4.6-8.8 4.8-5.5 0-7.6-5-4.8-10.5 1.5-2.9 2.7-5 3.6-6.5l4.4-7.8c.4-.8 1-1.3 2.1-1.3h3.1c1.3 0 1.5.8.8 2.1l-9 15.9c-1.9 3.2-1.5 5.7.8 5.7 3.1-.3 8.3-6 15.2-15.8zm-3.1-22.7c1.5 0 2.7 1.3 2.7 2.7s-1.3 2.9-2.7 2.9c-1.5 0-2.9-1.3-2.9-2.9s1.4-2.7 2.9-2.7z"/><path d="M127.2 165.3c6.5-11.1 11.8-18.1 17.4-18.1 4.4 0 5.5 5.2-.4 12.2-3.8 4.8-9 9.6-14.9 13.9-4.2 7.8-8.2 15.7-10.1 19.7-1.7 3.6-.8 5.5 1.1 5.5 3.2 0 9.9-5.3 16.4-15.5.6-1 1-1 1.3-.4.4 1-.2 2.5-1.3 4.2-2.1 3.2-5 6.5-8.2 9.6-3.1 3.1-6.3 4.6-9.6 4.6-5.5 0-7.3-5.5-4.4-11.5 2.2-4.4 8.3-16.8 12.7-24.2zm4.2 3.8l5.5-5.3c5-4.8 7.8-8.4 8.4-11.1.6-2.5.2-3.8-1-3.8-2.9 0-6.1 6.5-10.9 15.7l-2 4.5z"/><path d="M154.9 197.6c3.2-1.9 5.7-4 7.6-6.5.6-1 1.1-.8 1.3-.2.2.6.2 2.1-1.3 3.6-4.2 4.4-11.5 7.8-17 9.9-3.2 5.5-6.7 10.1-10.3 13.9-3.6 3.8-7.8 5.9-12.4 5.9-3.8 0-6.1-2.5-6.1-5.3 0-2.9 2.5-6.7 8.8-9.4 4.4-1.9 9.7-3.6 14.5-5.3 1-1.5 3.2-4.4 4.2-6.3-1.3 1-4.2 3.4-7.4 3.4-5.5 0-7.6-5.2-4.8-10.5 1.5-2.9 2.7-5 3.6-6.5l4.4-7.8c.6-.6 1-1.1 2.3-1.1h2.9c1.3 0 1.5.6.8 2.1-1 1.3-6.1 10.7-9.2 15.9-1.9 3.2-1 5.3 1 5.3 2.9 0 6.7-3.6 12.8-13.8l2.5-4.4c.4-.8 1.1-2.1 2.3-4 .4-.6 1-1.1 2.1-1.1h3.2c1 0 1.1.8.6 2.1-1 1.3-6.1 10.7-9.2 15.9l-4.8 8.2c2.1-1.2 4.6-2.3 7.6-4zm-17.2 9.3c-7.4 2.7-13 4.4-16.4 7.3-3.6 3.2-2.7 7.6 1 7.6 5.1 0 10.1-6.5 15.4-14.9z"/></g><g><path d="M186.8 181.1c0-2.3 1.7-3.6 4.2-3.4 1.1 0 2.1.2 3.1.6v-.8c0-1.9-1.1-3.1-3.1-3.1-1.1 0-2.1.4-2.9.8l-.4-1c1-.4 2.1-.8 3.2-.8s2.3.4 2.9 1.1c.6.6 1 1.5 1 2.9l-.2 7.1h-1v-1.7c-.6 1-1.7 1.9-3.4 1.9-1.7-.1-3.4-1.5-3.4-3.6zm7.1-.5V179c-.8-.2-1.7-.6-3.1-.6-1.9 0-3.1 1-3.1 2.5s1.1 2.5 2.7 2.5c2 .2 3.5-1.1 3.5-2.8zM198.3 167.9h1v1.9c.6-1.1 1.7-2.1 3.4-2.1 2.3 0 3.6 1.7 3.6 4l-.2 7.1h-1l.2-6.7c0-2.1-1-3.4-2.9-3.4-1.7 0-3.2 1.3-3.2 3.4v6.7h-1l.1-10.9zM208.6 167.8c0-3.6 2.3-5.7 4.4-5.7 1.9 0 3.1 1.1 3.6 2.5v-6.7h1l-.2 15.1h-1v-2.3c-.8 1.3-1.9 2.5-3.8 2.5-1.9.1-4-1.8-4-5.4zm8.2 0v-.2c0-2.9-1.7-4.6-3.6-4.6s-3.4 1.5-3.4 4.6v.2c0 2.9 1.5 4.8 3.4 4.8 1.7-.3 3.6-2 3.6-4.8z"/></g></symbol><symbol viewBox="53.6 3 361 335.9" id="names2"><path d="M191.2 290.1c-1.1-20 6.8-55.6 7.1-77.5.3-19.1-4.6-25.7-10.8-22.5-4.6 2-7.4 7.4-9.1 15.7-1.7 8.3-2.8 17.1-3.4 26.8-.6 11.7-1.7 31.1-3.1 48.2l-1.7 23.7-1.1 14.5c0 1.4-.6 2.3-2.3 3.1l-4 2c-1.7.9-2.6 0-2.3-2.3 0-4 .6-10.3.9-19.4.6-9.1 1.1-18.5 2-28.8l2-29.1c.9-9.4 1.1-16.2 1.4-20.5.9-18.8-6-25.4-12-22.5-10.8 5.1-10.8 27.6-12.3 49.6 0 0-.3 4-.6 11.7l-1.7 25.9-2 27.9-1.1 16.8c0 1.4-.6 2.3-2.3 3.1l-4.3 2c-1.7.9-2.6 0-2.3-2.3 0-.6.3-5.7.9-15.7l2-33.1 2.3-34.2c.6-10.8 1.1-17.4 1.1-19.7.9-19.4-7.1-26.2-16.2-21.7-4.8 2.3-9.1 7.1-12.5 14.2s-5.4 14.8-5.4 23.4c0 10 3.1 17.1 8.8 14.2 4.6-2 7.1-10 7.1-24.5.3-2.6-.3-4.8 1.1-5.4 1.4 0 2.3 1.4 2.3 4.8 0 16.5-3.4 25.6-9.4 28.2-7.4 3.4-14.8-1.7-16-13.4-1.4-16.2 6.8-37.6 21.9-44.7 10.3-4.8 20.8-1.1 24.8 9.7 1.7-10.8 5.4-18.2 12.3-21.4 8.8-4 16.5 1.7 19.7 14.8 1.4-12.8 6-22.5 13.4-25.9 11.7-5.4 20.5 6.3 19.9 31.4-.6 20.8-7.7 56.4-7.1 71.8.3 8.3 2.6 11.4 6.8 9.4 4.6-2 7.4-12 10.3-29.9 0-1.7 1.1-2.3 1.7-1.4.9.6.9 3.7.9 7.1-.9 8-3.7 24.5-12.5 28.5-7.2 3.4-14.6-1.5-15.2-12.6z"/><path d="M239.4 258.8c0-1.7.9-2 1.7-1.4.9.6 1.4 3.1.9 6.6-.9 6-2 11.7-4 17.7-1.7 6-4.8 9.7-8.8 12-7.7 3.4-13.7-2-13.1-11.1.3-4.8.6-8.6.6-11.1l1.1-13.4c0-1.4.6-2.3 2.3-3.1l4.3-2c1.7-.9 2.6 0 2.3 2.3l-2.6 27.1c-.3 5.7 1.7 8.5 4.6 7.4 4.2-2.5 7.6-13.4 10.7-31zM220.9 230c2-.9 4.6 0 5.4 2 .9 2 0 4.6-2 5.7-2 .9-4.8 0-5.7-2-.6-2 .3-4.6 2.3-5.7z"/><path d="M240.3 274.2c-4.8-10.3.6-30.2 12.3-35.9 5.7-2.6 9.4.6 9.7 4.8 0 4-1.7 7.7-4.3 8.8-2 1.1-3.1-.6-1.7-2.6 4.3-5.7 1.7-9.7-1.4-8.3-3.4 1.7-6 5.7-7.7 12.5-1.7 6.6-1.1 12.5 1.1 18 2.3 4.8 5.7 6 9.4 4.3 7.7-3.4 11.1-14.8 14.2-32.5.3-1.7.9-2 1.7-1.4.9.6 1.4 3.1.9 6.6-.9 6-2.3 12-4.8 18.2-2.3 6.3-6.3 10.5-11.7 13.1-8.6 4.3-14.6.6-17.7-5.6z"/><path d="M279.3 237.1c1.4-6 4.6-11.7 9.1-14 4.8-2.3 9.1-.6 10.8 3.4 3.7 8-3.4 21.7-.9 26.8.9 1.7 2.3 2.3 3.4 1.4 5.4-2.6 8.8-15.1 10.8-30.5 0-1.7.9-2 1.7-1.4.9.6 1.4 3.1.9 6.6-.9 6-2 11.7-4 17.7-1.7 6-4.8 9.7-9.1 12-4.8 2.3-9.4.3-11.4-3.7-3.7-8 3.7-19.9 1.1-25.9-.9-1.7-2.6-2.3-4.3-1.1-2.8 2-7.1 9.4-8.8 22.5-.9 6.6-1.1 11.4-1.4 17.1 0 1.4-.9 2.6-2.3 3.1l-2.6 1.1c-1.7.9-2.6-.6-2.6-2.6 1.1-12.5 2-30.5 3.1-56.1 1.7-19.7 4.6-31.9 12-35.3 6-2.8 10.8 3.4 7.1 16.5-2.3 8.8-6.8 19.4-12 28.8.3 2.2-.3 7.6-.6 13.6zm1.2-19.6c1.4-3.7 4-8.8 5.1-11.7 3.7-9.7 5.1-16.2 4.3-20.2-.9-3.7-2-5.1-3.7-4.6-4 1.7-4.6 13.7-5.4 28.5l-.3 8z"/><path d="M356.5 204.3c0-1.7.9-2 1.7-1.4.9.6 1.4 3.1.9 6.6-.9 6-2 11.7-4 17.7-1.7 6-4.8 9.7-9.1 12-4.6 2-8.6 1.4-11.4-2.9-1.4 4.6-3.4 9.4-7.7 11.4-5.1 2.3-9.1 1.4-12.3-2.9-3.1-4.3-4.6-9.7-3.7-16 1.4-13.4 8.6-21.7 14.8-24.5 4-1.7 6.8-.9 8.5 1.1l.3-2.6c0-1.4.6-2.3 2.3-3.1l4.3-2c1.4-.6 2.6 0 2.3 2.3l-2 27.9c-.3 5.7 2 7.7 4.6 6.6 4-1.7 7.4-12.8 10.5-30.2zm-23 8c0-5.1-3.7-6-6-4.8-2.6 1.1-4.6 4-6.3 8.6-1.4 4.6-2.3 8.8-2.6 13.4-.3 4.6.3 8.3 1.4 11.7 1.4 3.1 3.1 4.3 5.7 2.9 7.8-3.6 7.5-24.9 7.8-31.8z"/><path d="M357.4 219.2c-2.6-5.7-2.9-12.3-.3-19.9s6.6-12.8 12.8-15.7c5.7-2.6 9.4.6 9.7 4.8 0 4-1.7 8.3-6.8 13.1-3.1 2.9-6 5.1-8.6 6.6 0 2.9.3 6 1.7 9.1 1.7 4 4.8 6.3 10.3 4 7.7-3.4 12-15.4 15.1-32.8.3-1.7.9-2 1.7-1.4.9.6 1.4 3.1.9 6.6-.9 6-2.3 12-4.8 18.2-2.6 6.3-6.6 10.8-12 13.4-9.7 3.7-16.8.2-19.7-6zm6.6-15.4c2.9-2 6.8-5.1 9.1-7.7 4.8-6.3 2.3-10.8-.9-9.4-4.8 2-8 9.7-8.2 17.1z"/><path d="M412.1 191.5c.3-1.7 1.1-1.7 1.7-.9.6.6 1.1 2.3.6 5.4-.9 4.8-3.4 12.5-10.3 15.7-7.7 3.4-13.4-2.8-13.4-12.5.3-7.1.6-27.9 1.7-40.8 1.7-18.8 4.6-31.9 12-35.3 6-2.8 10.8 3.4 7.1 16.5-2.3 8.8-6.3 18.8-11.4 28.2-.6 13.1-1.4 26.2-1.4 33.1 0 6 2.6 8 5.1 6.8 4-1.9 6.9-7.9 8.3-16.2zm-11.4-30.8l4.3-10.8c3.7-9.7 5.1-16.2 4.3-20.2-.9-3.7-2-5.1-3.7-4.6-4 1.7-4.3 12.8-4.8 28.2v7.4z"/><g><path d="M130.5 108.6c1.1.9.9 3.7 0 6.6-2.3 6.3-8 12-15.1 14.8-2 9.7-8 19.1-19.4 24.5-6.3 2.9-13.1 3.1-20.8.9-7.4-2.3-13.1-7.7-17.1-16-12.5-26.8 3.1-54.7 21.7-65.3-10.5-6.8-17.1-27.1-4.6-41 10-11.1 27.4-14 33.6-.9 2 4.3 2.3 8.3.3 12-1.7 3.7-3.4 6.3-5.4 7.4-3.4 1.7-5.1-1.7-2-3.4 4.8-2.9 6-9.1 4-13.7-3.1-6.8-9.7-8.3-15.4-5.4-15.7 7.4-18.2 31.3-5.4 41.6 1.1-.6 3.1-1.1 6-1.1 2.6-.3 4.3.6 4.8 2.9.3 2-.6 3.4-3.1 4.3-2.6.9-5.1.9-7.1-.3-18.8 9.7-29.4 37.9-18.8 60.7 2.8 6 6.8 10.5 12 13.7 5.1 3.1 10.5 3.4 16.2.6 8.3-3.7 12.8-11.7 14-19.9-4.6.3-10-.6-14.2-3.7-12.8-8.8-12.8-26.5-2.6-31.3 14-6.6 25.4 11.1 23.7 29.4 6-2.8 11.4-8.5 13.1-16.2.2-1.5.8-1.8 1.6-1.2zm-29.6 18.8c2.6 1.1 5.4 1.1 8.5.9 1.1-15.7-7.1-31.9-15.7-27.9-9.9 4.2-4.8 23.3 7.2 27z"/><path d="M193.5 79.8c0-1.7.9-2 1.4-1.4.9.6 1.1 3.1.9 6.3-.9 6-2 11.7-4 17.7-1.7 6-4.8 10-9.1 12-4.8 2.3-9.4.3-11.1-3.7-3.7-8 3.7-19.9.9-25.9-.9-1.7-2-2.3-3.7-1.4-8.3 3.7-10 30.5-10.8 39.9 0 1.4-.6 2.3-2.3 3.1l-3.7 2c-1.7.9-2.6 0-2.3-2.6 0-1.1.3-4.6.9-10.5l1.4-15.7c.6-5.7-2.3-7.4-5.1-6-2.8 1.4-6.6 9.4-9.1 23.7-1.4 8.5-2 13.7-2.6 17.1-.3 1.1-.6 2.3-2.3 3.1l-2.6 1.1c-1.4.6-2.3-.3-2.3-2.3.3-10.5.6-25.4 1.4-37.6 0-1.4.9-2.6 2.3-3.1l3.7-1.7c1.7-.9 2.6 0 2.3 2.3l-1.1 12.3c2.6-10.5 5.7-17.1 10.8-19.7 6.3-3.1 10.8.6 12 6.6 1.7-8.6 5.1-14.8 9.7-16.8 4.8-2.3 9.1-.6 10.8 3.4 3.7 8-3.4 20.8-.6 27.1.6 1.4 2 2 3.4 1.1 4.3-1.9 7.7-12.7 10.8-30.4z"/><path d="M216.6 69.3c0-1.7.9-2 1.7-1.4.9.6 1.4 3.1.9 6.6-.9 6-2 11.7-4 17.7-1.7 6-4.8 9.7-8.8 12-7.7 3.4-13.7-2-13.1-11.1.3-4.8.6-8.6.6-11.1l1.1-13.4c0-1.4.6-2.3 2.3-3.1l4.3-2c1.7-.9 2.6 0 2.3 2.3l-2 27.1c-.3 5.7 1.7 8.5 4.6 7.4 3.6-2.5 7-13.7 10.1-31zm-18.5-28.8c2-.9 4.6 0 5.4 2 .9 2 0 4.6-2 5.7-2 .9-4.8 0-5.7-2-.8-2.3.3-4.9 2.3-5.7z"/><path d="M218 39.3c1.7-19.1 4.8-32.2 12-35.6 6-2.8 10.8 3.4 7.1 16.5-2.3 8.8-6.3 18.8-11.4 28.2-.6 13.1-1.4 26.2-1.4 33.1 0 6 2.6 8 5.1 6.8 4.6-2 10-13.7 12.5-31.3 0-1.7.9-2 1.7-1.4 1.1 1.1 1.4 3.4.9 6.6-.9 6-2.6 12-4.8 18.2-2.3 6.3-5.7 10.3-10 12.3-7.7 3.4-13.4-2.9-13.4-12.5 0-7.5.6-28 1.7-40.9zm8.3 2.6l4.3-10.8c3.7-9.7 5.1-16.2 4.3-20.2-.9-3.7-2-5.1-3.7-4.6-4 1.7-4.3 12.8-4.8 28.2v7.4z"/><path d="M267.3 80.4c-1.1 9.4-2.8 18-5.1 25.4-2.3 7.4-6.8 12.8-13.1 15.7-5.1 2.3-10 .6-11.7-3.4s-.9-10.5 6-18.2c4.8-5.4 10.8-11.1 16.2-16.5.6-2.6 1.7-8 1.7-11.1-1.1 2-3.4 7.1-8 9.4-7.4 3.4-13.4-2.3-13.1-11.4.3-4.8.6-8.5.9-11.1l1.1-13.4c.3-1.1.6-2.3 2.3-3.1l4-2c1.7-.9 2.6-.3 2.3 2.3-.6 2.3-1.7 18.2-2.6 27.1-.6 5.7 2.3 8 4.6 6.8 4-1.7 6.8-9.1 8.6-26.8l.6-7.4c0-1.4.3-3.4.6-6.8.3-1.1.6-2 2.3-2.9l4.6-2c1.4-.6 2 .3 2 2.6-.6 2.3-1.4 18.2-2.6 27.1l-1.4 14.2v5.5zm-8.8 8.5c-8.5 8.3-14.8 14.2-17.7 20.2-2.9 6.6 1.1 12 6.3 9.7 6.8-3.4 9.4-15.3 11.4-29.9z"/></g><g><path d="M256.5 86.4s2.6-2.3 7.7-6.6 12.8-10.3 23.4-17.1c5.4-3.4 11.4-6.8 18.2-9.7 3.4-1.4 7.4-2.8 11.4-3.7 4-.9 8.6-1.4 13.1-.3 2.3.6 4.6 1.7 6.3 3.7 1.7 1.7 2.9 4.3 3.7 6.6.3 1.1.6 2.6.6 3.7v3.7c-.3 2.6-.9 5.1-1.7 7.4-1.7 4.8-4.6 9.1-7.4 13.4-3.1 4.3-6.6 8-10.5 12-7.7 7.4-16.5 14.5-25.6 21.4-9.4 6.6-19.1 13.4-29.9 19.4-21.4 12-44.7 22.8-69.8 32.2-12.5 4.6-25.6 8.5-39.3 10.3-3.4.3-7.1.6-10.5.3-3.4-.3-7.4-.9-10.5-2.9-1.7-.9-3.1-2.3-4.3-4-.6-.9-1.1-1.7-1.4-2.6-.3-1.1-.6-1.7-.9-2.6-1.1-3.7-.9-8 .6-11.4 1.4-3.7 4.3-6.6 7.1-8.8 2.8-2.6 6-4.3 9.1-6 6.6-3.4 13.4-6 20.2-7.7 7.1-2 14.2-3.1 21.4-4 7.1-.9 14.2-1.4 21.4-2 14.2-.9 28.8-.9 43 0 7.1.3 14.2.9 21.4 2 3.4.6 7.1.9 10.5 1.7 3.4.6 6.8 1.1 10.3 1.7 27.4 4.3 54.7 6.8 80.9 5.7 6.6-.3 13.1-.6 19.1-2 3.1-.9 6-2 8.3-3.7s4-4 4.3-6.8c.3-1.4 0-2.8-.3-4-.3-1.1-1.1-2-2-2.6-2.3-1.4-5.4-1.7-8.3-2-6-.3-12.3.6-18 1.4-12 2-23.4 5.4-34.2 8.8-10.8 3.7-21.1 7.7-30.8 11.7-19.4 8.6-36.5 17.7-51 27.4-14.2 9.7-25.7 19.4-33.1 29.4-3.7 4.8-6.3 9.7-7.7 14-1.4 4.3-2 8.3-1.7 11.4.3 3.1.9 5.4 1.4 7.1.6 1.4.9 2.3.9 2.3L219 236s-.3-.9-1.1-2.6c-.6-1.7-1.4-4.3-1.7-8-.3-3.4.3-8 1.7-12.5 1.7-4.8 4.3-10 8.3-14.8 7.7-10.3 19.4-20.2 33.6-29.9 14.5-9.7 31.9-19.1 51.3-27.4 9.7-4.3 20.2-8.3 31.1-12 10.8-3.7 22.5-6.8 34.5-9.1 6-1.1 12.3-2 18.8-1.7 3.1.3 6.6.6 10 2.3 1.7.9 3.1 2.6 3.7 4.6.6 2 .6 3.7.6 5.4-.3 3.7-2.6 7.1-5.4 9.4s-6 3.7-9.1 4.8c-6.3 2.6-13.1 3.7-20 4.8-6.8.9-13.7 1.1-20.5 1.1s-13.7-.3-20.5-.9c-13.7-.9-27.6-2.3-41.6-4.3-3.4-.6-6.8-1.1-10.5-1.7-3.4-.6-6.8-1.1-10.3-1.7-6.8-.9-13.7-1.4-20.8-2-14-.9-27.9-.9-41.9-.3-14 .6-27.9 2.3-41.6 4.8-6.8 1.1-13.7 2.6-20 5.1-6.3 2.3-12.5 6-15.1 11.7-1.4 2.9-1.4 6-.6 9.1 0 .6.6 1.7.6 2.3.3.6.6 1.4 1.1 2 .9 1.1 2 2.3 3.1 3.1 2.6 1.4 6 2.3 9.1 2.6 3.4.3 6.6 0 10-.3 13.4-1.7 26.2-5.7 38.8-10.3 13.1-5.1 25.4-10.3 36.8-15.7 11.7-5.4 22.8-11.1 33.3-17.1 10.5-6 20.2-12.5 29.6-19.4 9.1-6.6 18-13.7 25.4-21.1 7.4-7.4 14-15.4 17.4-23.9.9-2.3 1.4-4.3 1.4-6.6v-3.1c0-1.1-.3-2-.6-3.1-.6-2-1.4-3.7-2.9-5.1-1.4-1.4-3.1-2.3-4.8-2.8-3.7-1.1-8-.6-11.7.3-3.7.9-7.4 2-10.8 3.4-6.8 2.9-12.8 6.3-18 9.4-10.5 6.6-18 12.5-23.1 16.8-5.1 4.3-7.7 6.6-7.7 6.6l-2.4-1.8z"/></g></symbol><symbol viewBox="0 0 100 49.349" id="shuttle"><path d="M23.848 33c-4.55 0-8.184 3.64-8.184 8.178 0 4.512 3.633 8.17 8.184 8.17 4.505 0 8.15-3.658 8.15-8.17C32 36.64 28.354 33 23.85 33zm-.02 12.26c-2.246 0-4.095-1.83-4.095-4.09 0-2.25 1.85-4.094 4.095-4.094 2.266 0 4.088 1.843 4.088 4.095 0 2.26-1.822 4.09-4.088 4.09zM76.18 33c-4.526 0-8.185 3.64-8.185 8.178 0 4.512 3.658 8.17 8.184 8.17 4.504 0 8.17-3.658 8.17-8.17 0-4.538-3.666-8.177-8.17-8.177zm0 12.26c-2.267 0-4.103-1.83-4.103-4.09 0-2.25 1.836-4.094 4.102-4.094 2.245 0 4.08 1.843 4.08 4.095 0 2.26-1.835 4.09-4.08 4.09z"/><path d="M87.46 19.212L80.145 4.668C78.854 2.103 75.442 0 72.564 0H5.23C2.358 0 0 2.356 0 5.228v38.497h14.056c-.208-.82-.365-1.667-.365-2.546 0-5.6 4.552-10.15 10.157-10.15 5.573 0 10.124 4.55 10.124 10.15 0 .878-.155 1.725-.363 2.545H66.4c-.216-.82-.365-1.667-.365-2.546 0-5.6 4.538-10.15 10.144-10.15 5.585 0 10.136 4.55 10.136 10.15 0 .878-.15 1.725-.365 2.545H100V32.39c0-2.88-4.31-12.208-12.54-13.178zm-66.132 0H3.998V3.874h17.33v15.338zm19.994 0h-17.33V3.874h17.33v15.338zm19.987 0H43.983V3.874h17.324v15.338zm4.953 0V3.874h5.176c1.835 0 4.01 1.34 4.83 2.975l6.218 12.362H66.263z"/></symbol><symbol viewBox="0 0 74.844 100" id="train"><path d="M65.378 100h9.466L58.02 75.046c3.23-.508 5.9-2 8.022-4.447 2.135-2.448 3.203-5.353 3.203-8.705v-48.75c0-3.607-1.29-6.7-3.867-9.284C62.786 1.284 59.622 0 55.898 0H18.945c-3.75 0-6.9 1.283-9.48 3.86C6.89 6.446 5.6 9.54 5.6 13.146v48.75c0 3.353 1.093 6.29 3.293 8.802 2.188 2.514 4.83 3.96 7.93 4.35L0 100h9.466l1.614-2.402h52.682L65.378 100zm-5.625-33.08c-1.146 1.16-2.644 1.745-4.44 1.745-1.68 0-3.1-.586-4.258-1.744-1.16-1.165-1.745-2.636-1.745-4.446 0-1.673.586-3.118 1.745-4.35 1.16-1.223 2.578-1.842 4.258-1.842 1.797 0 3.294.62 4.44 1.843 1.158 1.23 1.744 2.676 1.744 4.35 0 1.81-.586 3.28-1.744 4.446zm-46.03-52.545c0-1.803.587-3.288 1.746-4.453 1.145-1.16 2.63-1.738 4.44-1.738H54.92c1.81 0 3.32.58 4.544 1.738 1.237 1.166 1.85 2.65 1.85 4.453v15.6c0 1.81-.612 3.293-1.85 4.452-1.224 1.16-2.734 1.73-4.544 1.73H19.91c-1.81 0-3.295-.572-4.44-1.73-1.16-1.16-1.746-2.644-1.746-4.453v-15.6zM15.08 66.92c-1.172-1.165-1.745-2.636-1.745-4.446 0-1.673.573-3.118 1.745-4.35 1.172-1.223 2.643-1.842 4.453-1.842 1.668 0 3.087.62 4.26 1.843 1.158 1.23 1.744 2.676 1.744 4.35 0 1.81-.586 3.28-1.745 4.446-1.173 1.16-2.592 1.745-4.26 1.745-1.81 0-3.28-.586-4.452-1.744zm1.42 22.618l4.388-6.557H53.96l4.4 6.558H16.498z"/></symbol></svg>