<?xml version="1.0" encoding="utf-8"?>
<!-- Generator: Adobe Illustrator 18.1.1, SVG Export Plug-In . SVG Version: 6.00 Build 0)  -->
<svg version="1.1" id="Layer_1" xmlns="http://www.w3.org/2000/svg" xmlns:xlink="http://www.w3.org/1999/xlink" x="0px" y="0px"
	 width="28px" height="28px" viewBox="0 0 28 28" enable-background="new 0 0 28 28" xml:space="preserve">
<g>
	<g>
		<path fill="#86754D" d="M18.5,8.2c-1.8,0-2.9,1.6-4,3c-0.2,0.2-0.4,0.5-0.5,0.7c-0.2-0.2-0.3-0.4-0.5-0.7c-1-1.4-2.2-2.9-4-3
			c-1.6-0.1-2.9,1-2.9,2.3c0,0.5,0.2,1,0.5,1.3c0.3,0.3,0.6,0.4,1.1,0.4c0,0,0,0,0,0c0.7,0,1.1-0.4,1.4-0.7c0.2-0.2,0.4-0.4,0.4-0.7
			c0-0.5-0.4-0.9-0.9-0.9c-0.5,0-0.9,0.4-0.9,0.9c0,0.3,0.2,0.6,0.4,0.8c-0.1,0-0.2,0.1-0.3,0.1c0,0,0,0,0,0c-0.2,0-0.4-0.1-0.6-0.2
			c-0.2-0.2-0.3-0.5-0.3-0.9c0-0.9,1-1.7,2.2-1.7c0,0,0,0,0.1,0c1.4,0,2.5,1.4,3.5,2.7c0.3,0.3,0.5,0.7,0.8,1h0.2h0.2
			c0.3-0.3,0.5-0.7,0.8-1c1-1.3,2-2.7,3.5-2.7c0,0,0,0,0.1,0c1.2,0,2.2,0.7,2.2,1.7c0,0.3-0.1,0.7-0.3,0.9c-0.2,0.2-0.4,0.2-0.6,0.2
			c0,0,0,0,0,0c-0.1,0-0.2,0-0.3-0.1c0.3-0.2,0.4-0.4,0.4-0.8c0-0.5-0.4-0.9-0.9-0.9c-0.5,0-0.9,0.4-0.9,0.9c0,0.3,0.1,0.6,0.4,0.7
			c0.2,0.3,0.7,0.7,1.4,0.7c0,0,0,0,0,0c0.4,0,0.8-0.2,1.1-0.4c0.3-0.3,0.5-0.8,0.5-1.3C21.4,9.2,20.1,8.2,18.5,8.2z"/>
	</g>
	<g>
		<g>
			<path fill="#86754D" d="M12.9,20.3c-0.4,0-1.2,0-1.7,0c-0.4,0-1.3,0-1.6,0c0,0,0,0,0-0.1s0-0.1,0-0.1c0.6-0.1,0.6-0.2,0.6-0.5
				v-2.9c0-0.3,0-0.4-0.6-0.5c0,0,0,0,0-0.1c0,0,0-0.1,0-0.1c0.4,0,1.2,0,1.6,0c0.4,0,1.2,0,1.6,0c0,0.3,0.1,0.6,0.2,0.9
				c0,0,0,0.1-0.1,0.1c0,0-0.1,0-0.1,0c-0.2-0.6-0.6-0.7-1-0.7h-0.6c-0.2,0-0.4,0.1-0.4,0.4V18h0.8c0.3,0,0.5,0,0.6-0.6
				c0,0,0,0,0.1,0c0,0,0.1,0,0.1,0c0,0.3,0,0.5,0,0.8c0,0.3,0,0.5,0,0.8c0,0,0,0-0.1,0c0,0-0.1,0-0.1,0c-0.1-0.6-0.3-0.7-0.6-0.7
				h-0.8v1.5c0,0.3,0.2,0.4,0.4,0.4h0.7c0.5,0,1-0.3,1.3-0.8c0,0,0,0,0.1,0c0.1,0,0.1,0,0.1,0.1C13.1,19.6,13,19.9,12.9,20.3z"/>
		</g>
		<g>
			<path fill="#86754D" d="M18.4,23.5c-0.4,0-0.6,0-1,0s-0.5,0-0.9,0c0,0-0.1,0-0.1-0.1s0-0.1,0-0.1c0.6-0.1,0.6-0.2,0.6-0.5l-0.1-3
				l-1.5,3.7c0,0,0,0-0.1,0c0,0-0.1,0-0.1,0L14,20l-0.2,2.8c0,0.3,0,0.4,0.6,0.5c0,0,0,0,0,0.1s0,0.1-0.1,0.1c-0.3,0-0.5,0-0.8,0
				c-0.3,0-0.5,0-0.8,0c0,0,0,0,0-0.1s0-0.1,0.1-0.1c0.6-0.1,0.7-0.2,0.7-0.5l0.3-2.9c0-0.3-0.1-0.4-0.7-0.5c0,0,0,0,0-0.1
				c0,0,0-0.1,0.1-0.1c0.2,0,0.4,0,0.6,0c0.2,0,0.4,0,0.6,0l1.3,3.4l1.4-3.4c0.2,0,0.4,0,0.6,0c0.3,0,0.4,0,0.6,0c0,0,0.1,0,0.1,0.1
				c0,0,0,0.1,0,0.1c-0.6,0.1-0.6,0.2-0.6,0.5l0.1,2.9c0,0.3,0.1,0.4,0.7,0.5C18.5,23.3,18.5,23.4,18.4,23.5
				C18.5,23.5,18.5,23.5,18.4,23.5z"/>
		</g>
	</g>
	<g>
		<g>
			<polygon fill="#86754D" points="9.2,3.5 11.7,1 16.3,1 18.8,3.5 14,8.3 			"/>
			<path fill="#86754D" d="M16.2,1.2l2.3,2.3L14,8L9.5,3.5l2.3-2.3H16.2 M16.4,0.7h-4.8L8.8,3.5L14,8.7l5.1-5.2L16.4,0.7L16.4,0.7z"
				/>
		</g>
		<polyline fill="#86754D" stroke="#86754D" stroke-width="0.5" stroke-miterlimit="10" points="9.2,3.5 12.4,3.8 15.5,3.8 
			18.8,3.5 		"/>
		<polyline fill="#86754D" stroke="#86754D" stroke-width="0.5" stroke-linejoin="bevel" stroke-miterlimit="10" points="12.4,3.8 
			14,8.3 15.5,3.8 		"/>
		<line fill="#86754D" stroke="#86754D" stroke-width="0.5" stroke-miterlimit="10" x1="12.1" y1="3.7" x2="13.3" y2="0.9"/>
		<line fill="#86754D" stroke="#86754D" stroke-width="0.5" stroke-miterlimit="10" x1="14.7" y1="0.9" x2="15.9" y2="3.7"/>
	</g>
	<g>
		<path fill="#86754D" d="M14,13.1c3.7,0,6.8,3,6.8,6.8s-3,6.8-6.8,6.8s-6.8-3-6.8-6.8S10.3,13.1,14,13.1 M14,12.4
			c-4.1,0-7.5,3.3-7.5,7.5s3.3,7.5,7.5,7.5c4.1,0,7.5-3.3,7.5-7.5S18.1,12.4,14,12.4L14,12.4z"/>
	</g>
</g>
<g>
</g>
<g>
</g>
<g>
</g>
<g>
</g>
<g>
</g>
<g>
</g>
</svg>
