<?xml version="1.0" encoding="utf-8"?>
<!-- Generator: Adobe Illustrator 18.1.1, SVG Export Plug-In . SVG Version: 6.00 Build 0)  -->
<svg version="1.1" id="Layer_1" xmlns="http://www.w3.org/2000/svg" xmlns:xlink="http://www.w3.org/1999/xlink" x="0px" y="0px"
	 viewBox="0 0 266 22" enable-background="new 0 0 266 22" xml:space="preserve">
<g>
	<g>
		<path stroke-width="0.5" stroke-miterlimit="10" d="M98,16.7c0.8-0.3,1.2-1.2,0.9-2
			c-0.5-1.2-1.9-1.8-3.2-1.3c-1.9,0.8-2.9,3-2.1,5c1.2,3,5.1,3.5,7.1,1c3.1-3.9,9.2-14,15.2-16.6c3.3-1.5,7.6,0,9.3,3.3
			c1.6,3.3-0.1,8.3-4.6,9.3c-2.9,0.6-5.7-1.3-6.3-4.1c-0.4-1.8,0.8-3.6,2.7-3.8c1.1-0.2,2.8,0.3,2.8,1.8"/>
		<line fill="none" stroke-width="0.5" stroke-miterlimit="10" x1="120.1" y1="9.1" x2="8.1" y2="9.1"/>
		<path fill="none" stroke-width="0.5" stroke-miterlimit="10" d="M57.6,6c21.5,27.2,43.7-21.8,61.8,1.9"/>
		<circle fill="none" stroke-width="0.5" stroke-miterlimit="10" cx="2.1" cy="9.1" r="1"/>
	</g>
	<g>
		<path stroke-width="0.5" stroke-miterlimit="10" d="M168,16.7c-0.8-0.3-1.2-1.2-0.9-2
			c0.5-1.2,1.9-1.8,3.2-1.3c1.9,0.8,2.9,3,2.1,5c-1.2,3-5.1,3.5-7.1,1c-3.1-3.9-9.2-14-15.2-16.6c-3.3-1.5-7.6,0-9.3,3.3
			c-1.6,3.3,0.1,8.3,4.6,9.3c2.9,0.6,5.7-1.3,6.3-4.1c0.4-1.8-0.8-3.6-2.7-3.8c-1.1-0.2-2.8,0.3-2.8,1.8"/>
		<line fill="none" stroke-width="0.5" stroke-miterlimit="10" x1="145.9" y1="9.1" x2="257.9" y2="9.1"/>
		<path fill="none" stroke-width="0.5" stroke-miterlimit="10" d="M208.4,6c-21.5,27.2-43.7-21.8-61.8,1.9"/>
		<circle fill="none" stroke-width="0.5" stroke-miterlimit="10" cx="263.9" cy="9.1" r="1"/>
	</g>
</g>
</svg>
