<?xml version="1.0" encoding="utf-8"?>
<!-- Generator: Adobe Illustrator 18.1.1, SVG Export Plug-In . SVG Version: 6.00 Build 0)  -->
<svg version="1.1" id="Layer_1" xmlns="http://www.w3.org/2000/svg" xmlns:xlink="http://www.w3.org/1999/xlink" x="0px" y="0px"
	 width="151px" height="14px" viewBox="0 0 151 14" enable-background="new 0 0 151 14" xml:space="preserve">
<g>
	<g>
		<path stroke-miterlimit="10" d="M54.5,11.3c0.5-0.2,0.7-0.7,0.5-1.2
			c-0.3-0.7-1.2-1.1-1.9-0.8c-1.2,0.5-1.7,1.8-1.2,3c0.7,1.8,3.1,2.1,4.3,0.6c1.9-2.4,5.5-8.4,9.1-10c2-0.9,4.6,0,5.6,2
			c1,2-0.1,5-2.7,5.6c-1.7,0.4-3.4-0.8-3.8-2.5c-0.2-1.1,0.5-2.1,1.6-2.3c0.7-0.1,1.7,0.2,1.7,1.1"/>
		<line stroke-miterlimit="10" x1="67.9" y1="6.7" x2="9.1" y2="6.7"/>
		<path stroke-miterlimit="10" d="M30.3,4.8C43.2,21.2,56.5-8.3,67.3,6"/>
		<circle stroke-miterlimit="10" cx="2.1" cy="6.7" r="1"/>
	</g>
	<g>
		<path stroke-miterlimit="10" d="M96.5,11.3C96,11.1,95.8,10.5,96,10
			c0.3-0.7,1.2-1.1,1.9-0.8c1.2,0.5,1.7,1.8,1.2,3c-0.7,1.8-3.1,2.1-4.3,0.6c-1.9-2.4-5.5-8.4-9.1-10c-2-0.9-4.6,0-5.6,2
			c-1,2,0.1,5,2.7,5.6c1.7,0.4,3.4-0.8,3.8-2.5c0.2-1.1-0.5-2.1-1.6-2.3c-0.7-0.1-1.7,0.2-1.7,1.1"/>
		<line stroke-miterlimit="10" x1="83.1" y1="6.7" x2="141.9" y2="6.7"/>
		<path stroke-miterlimit="10" d="M120.7,4.8C107.8,21.2,94.5-8.3,83.7,6"/>
		<circle stroke-miterlimit="10" cx="148.9" cy="6.7" r="1"/>
	</g>
</g>
</svg>
