<?xml version="1.0" encoding="utf-8"?>
<!-- Generator: Adobe Illustrator 18.1.1, SVG Export Plug-In . SVG Version: 6.00 Build 0)  -->
<svg version="1.1" id="Layer_1" xmlns="http://www.w3.org/2000/svg" xmlns:xlink="http://www.w3.org/1999/xlink" x="0px" y="0px"
	 width="177px" height="27px" viewBox="0 0 177 27" enable-background="new 0 0 177 27" xml:space="preserve">
<path fill-rule="evenodd" clip-rule="evenodd" fill="#939598" d="M93,25.4l-1.7-2.2c-1.4,1.4-4.5,2.8-6.8,2.8
	c-3.9,0-7.2-2.8-7.2-6.5c0-4.5,4.3-7,5.6-7.4C82,11.1,80.5,9.2,80.5,7c0.1-3,1.9-5.4,5.9-5.4c3.4,0,6,2.3,6,5.6
	c0,3.8-2.9,5.1-3.8,5.8l2.8,4c0.8-1,1.5-3.3,1.4-3.8h3.8c0,0-0.5,4.7-2.7,7l4,5.2H93L93,25.4z M86.5,5.2c-1.2,0-2.2,1-2,1.9
	c0.1,1.3,1.2,2.2,1.8,3c0.9-0.6,2.4-1.5,2.4-2.9C88.7,6.1,87.8,5.2,86.5,5.2L86.5,5.2z M85.1,15.2c-3.7,2.5-3.4,4.2-3.4,4.2
	c0,1.7,1.6,2.7,2.8,2.8c1.4,0,3.4-1.2,4.4-2L85.1,15.2L85.1,15.2z"/>
<path fill-rule="evenodd" clip-rule="evenodd" d="M20.8,11.7c-0.9-3.4-4-6.2-7.6-6.2c-4.6,0-8.1,3.7-8,8.1c0.1,4.3,3.4,7.6,8,7.6
	c4.3,0,6.8-3.1,7.3-5.2h4.5c-1,6.3-7.1,9.7-11.9,9.7c-5.5,0-12.4-4.5-12.4-12.2C0.6,6.3,6.1,1,13.1,1C19,1,24.4,5.5,25.2,11.7H20.8
	L20.8,11.7z"/>
<path fill-rule="evenodd" clip-rule="evenodd" d="M57.3,25.5c-3.6,0-4.2-2.6-4.2-4V11.1h-2.3V7.7h2.3V2.6h4.5V8h2.9v3.1h-2.9v9.4
	c0,2.4,2.9,1.6,3.3,1.7v3.3H57.3L57.3,25.5z"/>
<path fill-rule="evenodd" clip-rule="evenodd" d="M30.4,17.5c0,0.2,0,7.9,0,7.9H26V8.3h4.3V10c0.6-0.9,1.9-1.8,3.3-2.3
	c1-0.1,1.9,0,1.9,0v4.2C33.3,11.3,30.2,12.3,30.4,17.5L30.4,17.5z"/>
<path fill-rule="evenodd" clip-rule="evenodd" d="M64.3,17.9c0,2.3,2.2,4,4.4,4c1.6,0,2.6-0.6,3.4-1.9h4.6c-0.6,3-3.8,5.8-7.9,5.8
	c-5.3,0-9-4-9-9.6c0-4.3,3.2-8.7,8.5-8.6c6,0.1,8.7,5.3,8.6,10.3H64.3L64.3,17.9z M68.3,11.1c-1.9-0.1-3.8,1.4-3.8,3.6h7.5
	C72.1,12.5,70.4,11.1,68.3,11.1L68.3,11.1z"/>
<path fill-rule="evenodd" clip-rule="evenodd" d="M47,25.4c0,0.1-0.1-0.6-0.3-1.4c-0.8,0.6-2.5,1.9-5.2,1.9c-3,0-6.5-1.8-6.5-5.4
	c0-2.2,1.4-5,6.2-5.6c2.8-0.4,5-0.2,5.1-1.7c0.1-0.5-0.4-2.4-3.2-2.4c-1.3,0-2.9,0.4-3.2,2.5H36c0-3,1.8-5.6,7.5-5.6
	c3.6,0,7.1,1.5,7.1,5.4c0,0,0,9.1,0,9.5c0.1,1,0.4,2.3,0.8,2.8H47L47,25.4z M39,20.4c0.1,1.8,2.5,2.2,2.9,1.9c0,0,2.4,0,3.4-1.2
	c0.6-0.9,1-1.9,0.6-4.3C41.7,17.9,39,18.3,39,20.4L39,20.4z"/>
<polygon fill-rule="evenodd" clip-rule="evenodd" points="172.1,2.4 176.4,2.4 176.4,25.4 172.1,25.4 172.1,2.4 "/>
<path fill-rule="evenodd" clip-rule="evenodd" d="M149.4,17.6c0,0.2,0,7.7,0,7.7h-4.4v-17h4.3v1.7c0.8-0.9,1.9-1.9,3.3-2.3
	c1.1-0.2,2,0,2,0V12C152.2,11.4,149.1,12.4,149.4,17.6L149.4,17.6z"/>
<path fill-rule="evenodd" clip-rule="evenodd" d="M138.7,17.6c0,0.2,0,7.7,0,7.7h-4.5v-17h4.4v1.7c0.8-0.9,1.9-1.9,3.3-2.3
	c1-0.2,1.9,0,1.9,0V12C141.6,11.4,138.5,12.4,138.7,17.6L138.7,17.6z"/>
<path fill-rule="evenodd" clip-rule="evenodd" d="M158.6,18c0,2.2,2.2,3.9,4.4,3.9c1.5,0,2.6-0.5,3.4-1.9h4.5
	c-0.5,3-3.7,5.8-7.7,5.8c-5.2,0-9-4-9-9.5c0-4.3,3.2-8.7,8.5-8.6c5.9,0,8.7,5.3,8.5,10.3H158.6L158.6,18z M162.7,11.1
	c-2,0-3.9,1.4-3.9,3.6h7.5C166.4,12.6,164.8,11.1,162.7,11.1L162.7,11.1z"/>
<path fill-rule="evenodd" clip-rule="evenodd" d="M110.2,25.4c-4.8,0-12.1,0-12.1,0V2.3h10.4c3.6,0,7.2,1.6,7.2,5.9
	c0,3.6-2.8,4.3-3.4,4.8c2,0.6,4.3,2.6,4.3,6.3C116.6,23.5,112.7,25.4,110.2,25.4L110.2,25.4z M107.6,5.9h-5.2v5.7h5
	c1.1,0,3.7-0.4,3.7-3.1C111,6.7,109.2,5.9,107.6,5.9L107.6,5.9z M107.6,15.1h-5.2v6.8h5.5c0.8,0,3.7-0.6,3.7-3.1
	C111.6,17.3,111.3,15.1,107.6,15.1L107.6,15.1z"/>
<path fill-rule="evenodd" clip-rule="evenodd" d="M129.2,25.4c0,0.1-0.2-0.6-0.3-1.4c-0.8,0.6-2.5,1.9-5.2,1.9c-3,0-6.5-1.8-6.5-5.4
	c0-2.2,1.4-4.8,6.3-5.6c2.6-0.4,4.8-0.2,5-1.7c0.1-0.4-0.4-2.3-3.2-2.3c-1.3,0-2.8,0.3-3.1,2.5h-4c0-3,2-5.6,7.5-5.6
	c3.4,0,7,1.5,7.1,5.4c0,3.2,0,8.8,0,8.8c0,0.8,0.3,2.7,0.6,3.3H129.2L129.2,25.4z M121.8,20.4c0,1.8,2.5,2.2,2.9,1.9
	c0,0,2.4,0,3.3-1.2c0.6-0.9,0.9-1.8,0.6-4.3C124.5,18,121.8,18.3,121.8,20.4L121.8,20.4z"/>
</svg>
