<?xml version="1.0" encoding="utf-8"?>
<!-- Generator: Adobe Illustrator 18.1.1, SVG Export Plug-In . SVG Version: 6.00 Build 0)  -->
<svg version="1.1" id="Layer_1" xmlns="http://www.w3.org/2000/svg" xmlns:xlink="http://www.w3.org/1999/xlink" x="0px" y="0px"
	 viewBox="0 0 148.5 71.8" enable-background="new 0 0 148.5 71.8" xml:space="preserve">
<g>
	<path d="M46.1,55.2c0.4,0.8-0.4,2.2-1.7,3.5c-2.7,2.8-7.2,4.4-11.7,4.1c-3.5,4.7-9,8.2-16.3,8.2c-4.1,0-7.8-1.6-11.3-4.7
		C1.7,63.2,0,59,0,53.7c0-17.3,15.1-28.2,27.6-29.3c-3.9-6.3-2.3-18.6,7.8-22.9c8-3.5,18-0.7,18,7.8c0,2.7-0.9,4.9-2.8,6.5
		c-1.8,1.6-3.4,2.4-4.7,2.5c-2.3,0.1-2.3-2.2-0.3-2.3c3.2-0.3,5.5-3.4,5.5-6.3C51.1,5.3,48,3,44.3,3C34.1,3,26.9,15.1,31.2,23.7
		c0.7-0.1,1.9,0.2,3.4,0.8c1.5,0.5,2.1,1.4,1.8,2.7c-0.3,1.1-1.2,1.6-2.8,1.5c-1.6-0.2-2.9-0.8-3.8-1.9c-12,0.8-24.6,13.1-24.6,27.8
		c0,3.9,1,7.3,2.9,10.2c1.9,2.9,4.8,4.4,8.5,4.4c5.3,0,9.6-3,12.3-7.1c-2.5-0.9-5.1-2.7-6.6-5.4c-4.6-7.8-0.3-17.2,6.3-17.2
		c9,0,10.7,12.2,5.3,21.4c3.9,0,8.1-1.7,11-5.4C45.4,54.8,45.8,54.7,46.1,55.2z M25.7,57.8c1.1,1.2,2.6,2,4.3,2.5
		c4.5-8,4.1-18.7-1.4-18.7C22.3,41.6,20.3,52.9,25.7,57.8z"/>
	<path d="M70.6,53.2c1.1-1.2,2.3,0.1,0.8,1.6c-2.9,2.9-6.6,3.3-9.4,2.4c-5.6,9.3-9.9,14.1-15.8,14.1c-5.6,0-7.4-5.1-4.5-10.4
		c2.7-4.8,2.6-4.8,6.4-11.3c0.4-0.7,0.8-1.1,1.9-1.1h2.6c1.1,0,1.4,0.6,0.7,1.8c-0.3,0.7-1.3,2.3-2.9,5c-1.5,2.7-3,5.1-4.3,7.4
		c-2.4,4.1-0.8,6.2,1.6,6.2c3.2,0,7.6-3.8,12.3-12.6c-0.7-0.5-1.3-1.1-1.7-1.8c-1.7-2.9-0.1-6.3,2.6-6.3c2.9-0.1,4.1,2.7,2.1,7.2
		C65,56.2,68.1,55.9,70.6,53.2z M61,54.4c0.3-0.4,0.6-1.2,1-2.4c0.4-1.3,0.1-1.9-0.9-2c-1.1-0.1-1.8,1.7-1,3.3
		C60.2,53.7,60.6,54.1,61,54.4z"/>
	<path d="M63.6,63.7c0-3.7,1.6-7.2,4.7-10.6C71.5,49.7,75,48,78.9,48c3.7,0,4.8,2.6,3.9,4.9c-0.9,2.1-2.9,3.9-6.9,5.2
		c-2.3,0.7-4.5,1.2-6.2,1.3c-0.7,1.5-1.3,3.2-1.3,5.3c0,2.5,1,4.6,4.5,4.6c4.9,0,10.1-5.2,16.1-13.7c0.5-0.8,0.9-0.8,1.2-0.4
		c0.4,0.5-0.1,2-1.2,3.6c-1.9,2.9-4.2,5.7-7.1,8.5c-2.9,2.7-6.1,4.1-9.7,4.1C66.5,71.4,63.6,67.8,63.6,63.7z M70.8,57.2
		c2.1-0.4,4.8-1,6.7-1.9c4.1-2.1,3.9-5.2,1.8-5.2C76.4,50.1,72.9,53.3,70.8,57.2z"/>
	<path d="M115.2,55.6c0.5-0.9,1.1-0.9,1.2-0.4c0.4,0.5-0.1,2-1.2,3.6c-1.9,2.9-4,5.7-6.4,8.4c-2.4,2.7-5,4.1-7.8,4.1
		c-3.2,0-5.1-2.2-5.1-4.7c0-5.3,7.1-9.9,7.1-13.7c0-0.9-0.7-1.7-1.6-1.7c-4.5,0-10.6,11.2-15.4,18.7c-0.4,0.7-0.8,1.1-1.9,1.1h-1.7
		c-1.1,0-1.2-0.6-0.7-1.8c2.8-4.9,6.4-13.1,10.1-19.6c0.4-0.7,0.8-1.1,1.9-1.1h2.2c0.9,0,1.3,0.6,0.6,1.8l-2,3.9
		c2.4-2.9,5.3-5.5,8.4-5.5c2.9,0,4.5,1.8,4.5,4.3c0,5-7,10.6-7,14.6c0,0.9,0.6,1.5,1.4,1.5C104.7,69.1,109.3,64.1,115.2,55.6z"/>
	<path d="M130.9,55.6c0.5-0.9,0.9-0.9,1.2-0.4c0.4,0.5-0.1,2-1.2,3.6c-1.9,2.9-4,5.7-6.5,8.4c-2.4,2.7-5,4.1-7.7,4.1
		c-3.2,0-5.1-1.1-5.8-3.3c-0.7-2.2-0.5-4.5,0.8-6.9c1.6-2.9,3.4-6.3,5.9-10.7H116c-1.2,0-1.5-0.4-1.2-1.1c0.4-0.8,0.9-0.7,2.2-0.7
		h1.7l3.3-5.8c0.4-0.5,0.8-1,1.9-1h2.7c0.9,0,1.3,0.5,0.6,1.8l-2.8,5h3.1c0.9,0,1.6,0,1.3,1.1c-0.3,0.9-1.3,0.8-2.2,0.8h-3.3
		l-7.2,12.8c-1.7,2.9-1.7,5.8,1.2,5.8C120.6,69.1,124.9,64.1,130.9,55.6z"/>
	<path d="M148.4,62.3c0.4,0.7-0.1,1.9-1.2,3.5c-2.5,3.3-7.1,6-13.5,6c-4.8,0-8.3-1.7-8.8-5.3c-0.3-1.3,0.3-3,1.6-4.7
		c3.2-4.1,5.5-7.6,9-13.2c2.4-3.7,3.3-4.7,4.4-4.7c0.5,0,1.3,0.5,0.4,1.8c-0.4,0.5-0.7,0.9-1.2,1.8c-0.9,1.7,1.2,4.9,2.9,9.4
		c1.6,4.1,1.1,7.9-0.9,10.8c-0.3,0.5-0.7,0.9-1.1,1.2c3.6-1.3,5.6-3.7,7.3-6.2C147.8,61.9,148.3,61.9,148.4,62.3z M131.9,63.5
		c0.3,1.2,0.2,2-0.3,2.5s-1.1,0.5-1.6,0.4c-0.5-0.3-0.7-0.9-0.3-1.6c0.9-1.3-0.9-2.1-2.1-1c-0.9,0.9-1,2-0.5,3.5s1.7,2.2,3.8,2.2
		c3.3,0,5-2.3,6.3-5.1c1.1-2.5,1.3-4.9,0.6-7.3l-1.5-6.2c-1.6,2.1-4.1,6.9-7.3,10.6C130.7,61.6,131.6,62.2,131.9,63.5z"/>
</g>
</svg>
