<?xml version="1.0" encoding="utf-8"?>
<!-- Generator: Adobe Illustrator 18.1.1, SVG Export Plug-In . SVG Version: 6.00 Build 0)  -->
<svg version="1.1" id="Layer_1" xmlns="http://www.w3.org/2000/svg" xmlns:xlink="http://www.w3.org/1999/xlink" x="0px" y="0px"
	 width="476.5px" height="96px" viewBox="0 0 476.5 96" enable-background="new 0 0 476.5 96" xml:space="preserve">
<g>
	<path d="M57.4,15.6C45.6,14.5,39,4,29.6,3.7c-5.7-0.1-12.8,2.9-16.5,9.4c-1.9,3.6-2.3,7-1.2,10.1s3.6,4.7,7.4,4.6
		c5.2-0.1,8.5-4.7,9-9.2c0.1-2.1,2.3-1.9,2.2,0.4c-0.3,3.8-3.6,10.9-12.1,10.9c-2.3-0.1-4.4-1-6.5-2.8c-2-1.8-3-4.1-3-7
		C8.9,9.3,20,0.9,30.9,0.9C43.5,0.9,48.2,12,59,13.1c4.5-6.7,8.7-10.9,12.8-10.9c3.3,0,4,3,1.9,6.2c-1.7,2.4-6,6.1-11.6,7
		c-2,3.3-4.1,7.3-6.1,11.2C42.1,53.1,35.2,75.4,15.4,75.4c-5,0-8.6-1.3-10.7-3.8c-2.1-2.5-3.2-5-3.1-7.4c0.4-6.4,5-9.4,9.5-9.4
		c3.5,0,5.3,2.5,5.4,4.2c0.4,2.8-2,2.8-2.1,0.9c-0.1-1.3-1-3.1-3.5-3.1c-3.7,0-6.8,3.3-6.9,7.4c-0.1,5.3,4.7,9,10.8,9
		c12,0,20.7-17.7,30-35.3C49.3,29.5,53.5,21.7,57.4,15.6z M71.6,4.3c-2,0-4.8,3.5-8,8.6c4.5-1.1,7.9-4.7,8.8-6.3
		C72.9,5.3,72.8,4.3,71.6,4.3z"/>
	<path d="M48.5,62.8c2.9-3.9,5-7.4,6.3-10.3c-2.9-1.3-3.1-5-0.6-6.7c1.3-0.9,2.5-0.7,3.6,0.4s1.1,2.8-0.1,5.1c0.4,0,1.1,0,3.9-0.3
		c2.9-0.4,4.9,0.5,4.9,2.9c0,4.5-8.9,12.7-8.9,16.8c0,1.1,0.5,1.9,2,1.9c2.9,0,7.4-4.9,13.4-13.6c0.5-0.8,1-0.8,1.1-0.4
		c0.4,0.7-0.2,2-1.1,3.7c-1.9,2.8-4,5.6-6.5,8.3c-2.4,2.7-5,4-7.8,4c-3.2,0-5.4-2-5.4-4.8c0-5.3,8.1-12.5,8.1-15.8
		c0-0.9-0.5-1.2-1.6-1c-1.1,0.1-2.1,0.2-3,0.1c-2.2,4.6-8.5,15.2-15.7,20.8c-0.9,0.7-2.2,0.7-2.9,0.4c-1.2-0.7,0.1-1.4,1-2.1
		C42.5,69.9,45.6,66.7,48.5,62.8z M55.7,50.9c1.9-3.3,0.2-4.3-0.7-3.4C54.1,48.3,54.1,50,55.7,50.9z"/>
	<path d="M100.8,59c0.5-0.9,0.9-0.9,1.2-0.4c0.4,0.5-0.1,2-1.2,3.6c-1.9,2.9-4,5.7-6.5,8.4c-2.4,2.7-5,4-7.8,4.1
		c-2.9,0-4.8-1.4-5.3-4.3c-1.9,2.1-4.1,4.2-6.9,4.2c-3.3,0-5.2-1.5-5.8-4.5c-0.6-3.1,0-6.2,1.9-9.4c4.1-6.8,9.9-9.3,13.9-9.3
		c2.5,0,3.8,1.2,4.3,2.7l0.8-1.2c0.4-0.7,0.8-1.1,1.9-1.1H94c0.9,0,1.3,0.6,0.6,1.8l-8,14.3c-1.6,2.9-0.9,4.6,0.8,4.6
		C90.3,72.5,94.8,67.5,100.8,59z M86.6,57.6c1.3-2.7-0.4-4.1-1.9-4.1c-1.7,0-3.5,1-5.4,3c-1.9,2-3.4,4.2-4.7,6.5
		c-1.2,2.3-1.9,4.5-2.1,6.5c-0.1,2,0.6,3,2.3,3C79.7,72.5,84.7,61.1,86.6,57.6z"/>
	<path d="M126.2,56.6c1.1-1.2,2.3,0.1,0.8,1.6c-2.9,2.9-6.6,3.3-9.4,2.4c-5.6,9.3-9.9,14.1-15.8,14.1c-5.6,0-7.4-5.1-4.5-10.4
		c2.7-4.8,2.6-4.8,6.4-11.3c0.4-0.7,0.8-1.1,1.9-1.1h2.6c1.1,0,1.4,0.6,0.7,1.8c-0.3,0.7-1.3,2.3-2.9,5c-1.5,2.7-3,5.1-4.3,7.4
		c-2.4,4.1-0.8,6.2,1.6,6.2c3.2,0,7.6-3.8,12.3-12.6c-0.7-0.5-1.3-1.1-1.7-1.8c-1.7-2.9-0.1-6.3,2.6-6.3c2.9-0.1,4.1,2.7,2.1,7.2
		C120.6,59.6,123.7,59.3,126.2,56.6z M116.6,57.8c0.3-0.4,0.6-1.2,1-2.4c0.4-1.3,0.1-1.9-0.9-2c-1.1-0.1-1.8,1.7-1,3.3
		C115.8,57.1,116.2,57.5,116.6,57.8z"/>
	<path d="M119.2,67.1c0-3.7,1.6-7.2,4.7-10.6c3.2-3.4,6.7-5.1,10.6-5.1c3.7,0,4.8,2.6,3.9,4.9c-0.9,2.1-2.9,3.9-6.9,5.2
		c-2.3,0.7-4.5,1.2-6.2,1.3c-0.7,1.5-1.3,3.2-1.3,5.3c0,2.5,1,4.6,4.5,4.6c4.9,0,10.1-5.2,16.1-13.7c0.5-0.8,0.9-0.8,1.2-0.4
		c0.4,0.5-0.1,2-1.2,3.6c-1.9,2.9-4.2,5.7-7.1,8.5c-2.9,2.7-6.1,4.1-9.7,4.1C122.1,74.8,119.2,71.2,119.2,67.1z M126.4,60.6
		c2.1-0.4,4.8-1,6.7-1.9c4.1-2.1,3.9-5.2,1.8-5.2C132,53.5,128.5,56.7,126.4,60.6z"/>
	<path d="M155,66c0.5-0.8,1-0.6,1.1-0.1s0,1.5-1.1,3c-1.7,2.3-5,5.8-9.3,5.7c-4.9,0-6.4-4.8-3.9-10c1.9-3.8,7.2-14.6,11-21.1
		c5.6-9.6,10.4-15.8,15.1-15.8c3.9,0,4.8,4.5-0.3,10.6c-3.3,4.1-7.9,8.4-13,12.1c-3.6,6.8-7.2,13.6-8.9,17.1c-1.5,3.1-0.7,4.9,1,4.9
		C149.2,72.4,152.2,70,155,66z M156.5,46.9l4.9-4.7c4.4-4.2,6.8-7.4,7.3-9.6s0.2-3.3-0.8-3.3c-2.5,0-5.4,5.7-9.5,13.7L156.5,46.9z"
		/>
	<path d="M205.4,59c0.5-0.9,0.9-0.9,1.2-0.4c0.4,0.5-0.1,2-1.2,3.6c-1.9,2.9-4,5.7-6.5,8.4c-2.4,2.7-5,4-7.8,4.1
		c-2.9,0-4.8-1.4-5.3-4.3c-1.9,2.1-4.1,4.2-6.9,4.2c-3.3,0-5.2-1.5-5.8-4.5c-0.6-3.1,0-6.2,1.9-9.4c4.1-6.8,9.9-9.3,13.9-9.3
		c2.5,0,3.8,1.2,4.3,2.7l0.8-1.2c0.4-0.7,0.8-1.1,1.9-1.1h2.7c0.9,0,1.3,0.6,0.6,1.8l-8,14.3c-1.6,2.9-0.9,4.6,0.8,4.6
		C194.9,72.5,199.4,67.5,205.4,59z M191.2,57.6c1.3-2.7-0.4-4.1-1.9-4.1c-1.7,0-3.5,1-5.4,3c-1.9,2-3.4,4.2-4.7,6.5
		c-1.2,2.3-1.9,4.5-2.1,6.5c-0.1,2,0.6,3,2.3,3C184.3,72.5,189.3,61.1,191.2,57.6z"/>
	<path d="M230.9,59c0.5-0.9,1.1-0.9,1.2-0.4c0.4,0.5-0.1,2-1.2,3.6c-1.9,2.9-4,5.7-6.4,8.4c-2.4,2.7-5,4.1-7.8,4.1
		c-3.2,0-5.1-2.2-5.1-4.7c0-5.3,7.1-9.9,7.1-13.7c0-0.9-0.7-1.7-1.6-1.7c-4.5,0-10.6,11.2-15.4,18.7c-0.4,0.7-0.8,1.1-1.9,1.1h-1.7
		c-1.1,0-1.2-0.6-0.7-1.8c2.8-4.9,6.4-13.1,10.1-19.6c0.4-0.7,0.8-1.1,1.9-1.1h2.2c0.9,0,1.3,0.6,0.6,1.8l-2,3.9
		c2.4-2.9,5.3-5.5,8.4-5.5c2.9,0,4.5,1.8,4.5,4.3c0,5-7,10.6-7,14.6c0,0.9,0.6,1.5,1.4,1.5C220.4,72.5,225,67.5,230.9,59z"/>
	<path d="M253.3,66c0.5-0.8,1-0.6,1.1-0.1c0.3,0.5,0,1.5-1.2,3c-1.6,2.3-5,5.7-9,5.7c-2.9,0-4.9-1.6-5.4-4.1c-1.9,2.3-4.3,4.1-7,4.1
		c-3.7,0-5.9-2.6-5.9-6.2c0-7.2,7.8-17,16.2-17c2.5,0,3.8,1.2,4.3,2.7c3.6-6.1,7.6-13.2,9.7-16.9c0.4-0.5,0.8-1.1,1.9-1.1h2.2
		c1.1,0,1.4,0.6,0.7,1.9l-16.7,29.9c-1.6,2.9-0.8,4.6,0.9,4.6C247.6,72.5,250.5,70,253.3,66z M242.5,53.5c-3.3,0-7.6,4.8-10.1,9.6
		c-1.2,2.3-1.9,4.5-2.1,6.5c-0.2,2,0.5,3,2.2,3c2.1,0,4.1-1.5,6-4.6c2-3.1,4-6.6,5.9-10.3C245.9,54.9,244,53.5,242.5,53.5z"/>
	<path d="M324,58.7c2.5-5.6,1.9-9.5-1.3-9.5c-2.9,0-6.2,3.3-9.9,10.9c-0.7,1.3-1.5,2.6-2.3,2.5c-0.8-0.3-0.9-1.5-0.1-3.1
		c4.1-8.8,8.6-12.8,12.5-12.8c2.5,0,4.4,1.3,5.7,3.8c1.3,2.5,1.1,5.9-0.6,10.1c-4.1,9.9-11.9,15.6-22.6,15.6c-3.6,0-6.7-0.8-9.2-2.3
		l-6.9-4.2c-3.6,3.7-7.1,6-10.2,6c-7.2,0-3.5-10,4.7-10c1.3,0,2.5,0.3,3.8,0.8C295.4,55.5,305,34,316,19c-3.7-1.8-7.2-3.7-10.5-5.6
		c-3.3-1.9-6.7-2.9-10.4-2.9c-10.5,0-11.8,13.5-1.4,13.5c4.9,0,8.5-2.5,10.1-3.2c1.6-0.8,2.2,0.5,1,1.6c-0.3,0.3-1.6,1.1-3.8,2.2
		c-2.1,1.1-4.8,1.7-8.1,1.7c-15.3,0-13.4-18,2.2-18c4.2,0,8,1.1,11.4,3.2c3.4,2.1,7,4,10.7,5.8c6.8-9.2,14.5-15.6,21.3-15.6
		c7.1,0,8.8,5.2,6.7,10.4c-2,5.2-8.1,10.4-16.5,10.4c-2.9,0-5.8-0.6-8.3-1.5c-3.6,5.3-7.2,11.7-10.9,18.2
		c-7.3,12.8-12.7,22.2-18.7,28.9c4.1,2.4,8.3,5.9,14.6,5.9C313,74,319.5,68.7,324,58.7z M286.2,68.2c-0.7-0.3-1.5-0.5-2.2-0.5
		c-6,0-8.6,6.3-5.1,6.3C281,74,283.5,71.8,286.2,68.2z M321.6,19.2c2.3,0.8,4.8,1.2,7.3,1.2c13.9,0,19.5-16.5,10.3-16.5
		C334.3,3.9,328.1,10,321.6,19.2z"/>
	<path d="M359.8,59.5c0.1,0.3,0,1.1-0.5,2c-1.2,2-3.7,4.2-6.6,4.5c-0.8,0.1-1.7,0-2.6-0.1c-2.8,4.5-7.3,8.8-12,8.8
		c-3.7,0-6-1.5-6.8-4.6c-0.9-3.1-0.4-6.2,1.5-9.4c4.1-6.8,10.2-9.3,14.2-9.3c3.7,0,6.1,2,6.1,6.1c0,1.9-0.8,4.3-2,6.7
		c0.5,0.1,1.1,0.2,1.8,0.1c2.5-0.1,4.6-2.5,5.7-4.5C359,59,359.7,59.1,359.8,59.5z M350.8,57.2c0.4-2.7-1.3-3.7-3.2-3.7
		c-1.9,0-3.8,1-5.7,3c-1.9,2-3.5,4.2-4.6,6.6c-1.1,2.3-1.7,4.5-1.7,6.5c0.1,2,1.1,3,3.1,3c3.2,0,7-3.7,9.5-7.7
		c-0.7-0.4-1.2-1-1.6-1.7c-0.9-1.3-1-2.7-0.4-4.1c0.6-1.5,1.6-2.2,2.9-2.3c0.7,0,1.3,0.2,1.7,0.5V57.2z M350.1,61.1
		c0.4-1.5,0-2.5-0.9-2.6c-1.1-0.1-2,1.8-1.1,3.5c0.1,0.5,0.5,1,1,1.3C349.4,62.5,349.8,61.9,350.1,61.1z"/>
	<path d="M366.2,70.5c-1.9,2.3-4.3,4.1-7,4.1c-3.7,0-5.9-2.6-5.9-6.2c0-7.2,7.8-17,16.2-17c2.5,0,3.8,1.2,4.3,2.7
		c3.6-6.1,7.6-13.2,9.7-16.9c0.4-0.5,0.8-1.1,1.9-1.1h2.2c1.1,0,1.4,0.6,0.7,1.9l-16.7,29.9c-1.6,2.9-0.8,4.6,0.9,4.6
		c2.9,0,7.4-5,13.4-13.5c0.5-0.9,1-0.9,1.1-0.5c0.5,0.7,0,2-1.1,3.7c-1.9,2.9-4,5.6-6.5,8.3c-2.4,2.6-5,3.9-7.8,4
		C368.7,74.5,366.7,73,366.2,70.5z M371.8,57.7c1.3-2.9-0.4-4.2-1.9-4.2c-3.3,0-7.6,4.8-10.1,9.6c-1.2,2.3-1.9,4.5-2.1,6.5
		c-0.2,2,0.5,3,2.2,3c4,0,7.7-7.9,11.2-13.5L371.8,57.7z"/>
	<path d="M393.2,70.7c-2.1,2.5-4.1,3.9-6.6,3.9c-2.9,0-4.7-1.5-5.3-4.5c-0.6-3.1,0-6.2,1.9-9.4c4-6.8,9.5-9.2,13.5-9.2
		c2.3,0,4,1.2,4.5,2.8l0.7-1.4c0.3-0.5,0.8-1,1.9-1h2.7c0.9,0,1.3,0.5,0.6,1.8l-11.6,20.9l1.6-0.8c3.3-1.7,5.9-3.7,8-5.8
		s4.4-5.2,6.8-9.2c0.5-0.9,0.7-0.9,1-0.4c0.5,0.9,0,1.9-0.9,3.6c-1.8,3.1-3.8,5.7-6,8c-2.1,2.2-5.4,4.3-9.7,6.4l-2.6,1.2
		c-2.9,4.7-5.9,8.8-9.1,12.1c-3.3,3.4-6.9,5.1-10.9,5.1c-6.6,0-8.8-8.1,2.4-12.9c3.5-1.5,9-3.4,13.4-5
		C390.6,75.2,392.1,72.8,393.2,70.7z M380.4,88.8c2.7-2.6,5.2-5.7,7.5-9.2c-6.4,2.1-12.4,4.2-15.3,6.7c-3.3,2.8-2.5,6.4,0.7,6.4
		C375.4,92.7,377.7,91.4,380.4,88.8z M399.3,57.7c1.2-2.4,0-4-1.9-4c-1.8,0-3.7,1-5.6,3c-1.9,1.9-3.4,4.1-4.6,6.4
		c-1.2,2.3-1.9,4.5-2,6.5c-0.1,1.9,0.7,2.9,2.4,2.9C391.8,72.5,395.6,64.3,399.3,57.7z"/>
	<path d="M426.1,59c0.5-0.9,0.9-0.9,1.2-0.4c0.4,0.5-0.1,2-1.2,3.6c-1.9,2.9-4,5.7-6.5,8.4c-2.4,2.7-5,4-7.7,4.1
		c-4.9,0-6.7-4.4-4.2-9.2c1.3-2.5,2.4-4.4,3.1-5.7l3.9-6.9c0.4-0.7,0.8-1.1,1.9-1.1h2.7c1.1,0,1.3,0.6,0.6,1.8L412,67.5
		c-1.6,2.9-1.3,5,0.6,5C415.6,72.5,420.1,67.5,426.1,59z M423.4,39.2c1.3,0,2.4,1.1,2.4,2.4c0,1.3-1.1,2.5-2.4,2.5
		c-1.3,0-2.5-1.2-2.5-2.5C420.9,40.3,422.1,39.2,423.4,39.2z"/>
	<path d="M451.7,59c0.5-0.9,1.1-0.9,1.2-0.4c0.4,0.5-0.1,2-1.2,3.6c-1.9,2.9-4,5.7-6.4,8.4c-2.4,2.7-5,4.1-7.8,4.1
		c-3.2,0-5.1-2.2-5.1-4.7c0-5.3,7.1-9.9,7.1-13.7c0-0.9-0.7-1.7-1.6-1.7c-4.5,0-10.6,11.2-15.4,18.7c-0.4,0.7-0.8,1.1-1.9,1.1h-1.7
		c-1.1,0-1.2-0.6-0.7-1.8c2.8-4.9,6.4-13.1,10.1-19.6c0.4-0.7,0.8-1.1,1.9-1.1h2.2c0.9,0,1.3,0.6,0.6,1.8l-2,3.9
		c2.4-2.9,5.3-5.5,8.4-5.5c2.9,0,4.5,1.8,4.5,4.3c0,5-7,10.6-7,14.6c0,0.9,0.6,1.5,1.4,1.5C441.2,72.5,445.8,67.5,451.7,59z"/>
	<path d="M467.4,71.8c2.8-1.6,5.2-3.5,7.3-5.8c0.7-0.8,1-0.6,1.1-0.2c0.1,0.5,0.1,1.8-1.2,3.1c-3.9,4.1-10.1,7-15,8.7
		c-2.9,4.7-5.9,8.8-9.1,12.1c-3.3,3.4-6.9,5.1-10.9,5.1c-6.6,0-8.8-8.1,2.4-12.9c3.5-1.5,9-3.4,13.4-5c1.1-1.7,2.6-4.1,3.7-6.2
		c-2.1,2.5-4.1,3.9-6.6,3.9c-2.9,0-4.7-1.5-5.3-4.5c-0.6-3.1,0-6.2,1.9-9.4c4-6.8,9.5-9.2,13.5-9.2c2.3,0,4,1.2,4.5,2.8l0.7-1.4
		c0.3-0.5,0.8-1,1.9-1h2.7c0.9,0,1.3,0.5,0.6,1.8l-11.7,21C462.6,74.4,464.6,73.4,467.4,71.8z M446.3,88.8c2.7-2.6,5.2-5.7,7.5-9.2
		c-6.4,2.1-12.4,4.2-15.3,6.7c-3.3,2.8-2.5,6.4,0.7,6.4C441.3,92.7,443.6,91.4,446.3,88.8z M465.2,57.7c1.2-2.4,0-4-1.9-4
		c-1.8,0-3.7,1-5.6,3c-1.9,1.9-3.4,4.1-4.6,6.4c-1.2,2.3-1.9,4.5-2,6.5c-0.1,1.9,0.7,2.9,2.4,2.9C457.7,72.5,461.5,64.3,465.2,57.7z
		"/>
</g>
</svg>
