<?xml version="1.0" encoding="utf-8"?>
<!-- Generator: Adobe Illustrator 19.1.0, SVG Export Plug-In . SVG Version: 6.00 Build 0)  -->
<svg version="1.1" id="Layer_1" xmlns="http://www.w3.org/2000/svg" xmlns:xlink="http://www.w3.org/1999/xlink" x="0px" y="0px"
	 width="204px" height="96px" viewBox="0 0 204 96" enable-background="new 0 0 204 96" xml:space="preserve">
<g>
	<path d="M65.1,7.6c2.3-2.1,4.3-3.5,5.9-3.9c1.1-0.1,1.7,1.1,0,2.3c-0.9,0.7-2.1,1.7-3.3,2.8c5.7,3.1,10.8,9.1,10.8,16.8
		c0,13.1-10.2,20.9-19.5,20.9c-4,0-6.6-0.8-7.8-2.5c-1.1-1.7-1.1-2.6,0.1-2.8c1.1-0.1,1.8,0.4,2.2,1.5c0.4,1.1,2,1.6,4.9,1.6
		c6.8,0,15.1-8.2,15.1-20.2c0-5.5-2.7-11.1-7.4-13.6c-3.5,3.7-7.6,9.7-11.3,17.3C42.2,52.7,34.4,75.4,14.4,75.4
		c-4.8,0-8.2-1.3-10.3-3.8C2,69.1,1,66.6,1,64.2c0-5.6,4.2-9.4,9.1-9.4c3.5,0,5.3,2.5,5.4,4.2c0.4,2.8-1.9,2.8-2,0.9
		c-0.1-1.3-1.1-3.2-3.6-3.2c-3.7,0-6.7,3.2-6.8,7.3c-0.1,5.3,4.5,9.3,10.6,9.3c13,0,21.2-17.8,30.5-35.4c7.1-12.8,13.9-23,19.2-28.7
		c-2.1-0.5-4.7-1-7.2-1c-5.5,0-10.8,1.9-15.9,5.6c-5.1,3.7-8.7,7.7-10.9,12c-3.2,6.1-2.5,10.5,0.7,10.5c2.9,0,6.3-2.2,10-8.7
		c0.7-1.2,1.1-2.2,1.9-2.1s1.2,1.2,0.3,2.8c-4.1,7.9-8.5,10.1-12.4,10.1c-2.9,0-4.7-1.3-5.6-3.8c-0.8-2.6-0.5-5.6,1-8.9
		c2.4-5.3,6.5-9.9,12.3-13.8C43.4,8,49.7,6.1,56.4,6.1C59.6,6.1,62.6,6.7,65.1,7.6z"/>
	<path d="M74.2,43.5c5.6-9.6,10.4-15.8,15.1-15.8c3.9,0,4.8,4.5-0.3,10.6c-3.3,4.1-7.9,8.4-13,12.1c-3.6,6.8-7.2,13.6-8.9,17.1
		c-1.5,3.1-0.7,4.9,1,4.9c2.9,0,8.7-4.7,14.4-13.5c0.5-0.9,0.9-0.9,1.2-0.4c0.4,0.9-0.1,2.1-1.2,3.7c-1.9,2.9-4.3,5.7-7.1,8.4
		c-2.7,2.7-5.5,4-8.3,4c-4.9,0-6.4-4.8-3.9-10C65.1,60.8,70.4,50,74.2,43.5z M77.9,46.9l4.9-4.7c4.4-4.2,6.8-7.4,7.3-9.6
		s0.2-3.3-0.8-3.3c-2.5,0-5.4,5.7-9.5,13.7L77.9,46.9z"/>
	<path d="M110.2,59c0.5-0.9,0.9-0.9,1.2-0.4c0.4,0.5-0.1,2-1.2,3.6c-1.9,2.9-4,5.7-6.5,8.4c-2.4,2.7-5,4-7.8,4.1
		c-2.9,0-4.8-1.4-5.3-4.3c-1.9,2.1-4.1,4.2-6.9,4.2c-3.3,0-5.2-1.5-5.8-4.5c-0.6-3.1,0-6.2,1.9-9.4c4.1-6.8,9.9-9.3,13.9-9.3
		c2.5,0,3.8,1.2,4.3,2.7l0.8-1.2c0.4-0.7,0.8-1.1,1.9-1.1h2.7c0.9,0,1.3,0.6,0.6,1.8l-8,14.3c-1.6,2.9-0.9,4.6,0.8,4.6
		C99.7,72.5,104.2,67.5,110.2,59z M96,57.6c1.3-2.7-0.4-4.1-1.9-4.1c-1.7,0-3.5,1-5.4,3c-1.9,2-3.4,4.2-4.7,6.5
		c-1.2,2.3-1.9,4.5-2.1,6.5c-0.1,2,0.6,3,2.3,3C89.1,72.5,94.1,61.1,96,57.6z"/>
	<path d="M117.4,77.2c-2.9,4.8-5.9,8.9-9.1,12.4c-3.3,3.5-7,5.2-11.1,5.2c-3.3,0-5.4-2.2-5.4-4.7c0-2.5,2.2-5.8,7.7-8.2
		c3.9-1.7,8.5-3.2,12.6-4.7c0.9-1.3,2.8-3.8,3.7-5.5c-1.1,0.8-3.6,3-6.5,3c-4.8,0-6.6-4.5-4.1-9.2c1.3-2.5,2.4-4.4,3.2-5.7l3.9-6.9
		c0.5-0.5,0.9-1,2-1h2.6c1.1,0,1.4,0.5,0.7,1.8c-0.8,1.1-5.4,9.3-8,13.8c-1.7,2.9-0.8,4.7,0.8,4.7c2.5,0,5.9-3.1,11.2-12l2.1-3.8
		c0.3-0.7,1-1.8,2-3.5c0.4-0.5,0.8-1,1.9-1h2.9c0.9,0,1,0.6,0.5,1.8c-0.8,1.1-5.3,9.3-8,13.8c-1.3,2.3-2.6,4.8-3.9,6.9
		c6.9-3.2,12.4-7.2,17.3-15.6c0.5-0.9,0.9-0.9,1.2-0.4c0.4,0.9-0.1,1.9-1,3.6c-3.9,6.4-9.2,11.3-17.6,14.6
		C118.7,76.7,117.9,77.1,117.4,77.2z M110.4,79.8c-6.5,2.3-11.4,3.9-14.3,6.4C93,89,93.7,92.8,97,92.8
		C101.4,92.8,105.7,87.1,110.4,79.8z"/>
	<path d="M144.3,43.5c5.6-9.6,10.4-15.8,15.1-15.8c3.9,0,4.8,4.5-0.3,10.6c-3.3,4.1-7.9,8.4-13,12.1c-3.6,6.8-7.2,13.6-8.9,17.1
		c-1.5,3.1-0.7,4.9,1,4.9c2.9,0,8.7-4.7,14.4-13.5c0.5-0.9,0.9-0.9,1.2-0.4c0.4,0.9-0.1,2.1-1.2,3.7c-1.9,2.9-4.3,5.7-7.1,8.4
		c-2.7,2.7-5.5,4-8.3,4c-4.9,0-6.4-4.8-3.9-10C135.2,60.8,140.5,50,144.3,43.5z M148,46.9l4.9-4.7c4.4-4.2,6.8-7.4,7.3-9.6
		s0.2-3.3-0.8-3.3c-2.5,0-5.4,5.7-9.5,13.7L148,46.9z"/>
	<path d="M167.3,59c0.5-0.9,0.9-0.9,1.2-0.4c0.4,0.5-0.1,2-1.2,3.6c-1.9,2.9-4,5.7-6.5,8.4c-2.4,2.7-5,4-7.7,4.1
		c-4.9,0-6.7-4.4-4.2-9.2c1.3-2.5,2.4-4.4,3.1-5.7l3.9-6.9c0.4-0.7,0.8-1.1,1.9-1.1h2.7c1.1,0,1.3,0.6,0.6,1.8l-7.8,13.9
		c-1.6,2.9-1.3,5,0.6,5C156.8,72.5,161.3,67.5,167.3,59z M164.6,39.2c1.3,0,2.4,1.1,2.4,2.4c0,1.3-1.1,2.5-2.4,2.5
		c-1.3,0-2.5-1.2-2.5-2.5C162.1,40.3,163.3,39.2,164.6,39.2z"/>
	<path d="M190,58.6c0.3,0.7,0,2-1.1,3.6c-6.4,9.6-12.6,13-19,13c-4.8,0-8.3-1.7-8.8-5.3c-0.3-1.3,0.3-3,1.6-4.7
		c3.2-4.1,5.5-7.6,9-13.2c2.4-3.7,3.3-4.7,4.4-4.7c0.5,0,1.3,0.5,0.4,1.8c-0.4,0.5-0.7,0.9-1.2,1.8c-0.9,1.7,1.2,4.9,2.9,9.4
		c1.6,4.1,1.1,7.9-0.9,10.8c-0.1,0.3-0.3,0.6-0.6,0.7c4.4-2.3,8.5-7.1,12.2-12.8C189.4,58.1,189.9,58.1,190,58.6z M168.1,66.9
		c0.3,1.2,0.2,2-0.3,2.5s-1.1,0.5-1.6,0.4c-0.5-0.3-0.7-0.9-0.3-1.6c0.9-1.3-0.9-2.1-2.1-1c-0.9,0.9-1,2-0.5,3.5s1.7,2.2,3.8,2.2
		c3.3,0,5.1-2.4,6.3-5.1c2-4.5,0.4-8.7-0.9-13.5c-1.6,2.1-4.1,6.9-7.3,10.6C166.9,65,167.8,65.6,168.1,66.9z"/>
	<path d="M199.6,66c0.5-0.8,1-0.5,1.1-0.1c0.1,0.5,0,1.5-1.2,3.1c-1.7,2.1-5.1,5.7-8.8,5.7c-3.2,0-5.1-1.1-5.8-3.3s-0.5-4.5,0.8-6.9
		c1.6-2.9,3.4-6.3,5.9-10.7H190c-1.2,0-1.5-0.4-1.2-1.1c0.4-0.8,0.9-0.7,2.2-0.7h1.7l3.3-5.8c0.4-0.5,0.8-1,1.9-1h2.7
		c0.9,0,1.3,0.5,0.6,1.8l-2.8,5h3.1c0.9,0,1.6,0,1.3,1.1c-0.3,0.9-1.3,0.8-2.2,0.8h-3.3l-7.2,12.8c-1.7,2.9-1.7,5.8,1.2,5.8
		C193.8,72.5,196.7,70,199.6,66z"/>
</g>
</svg>
