<?xml version="1.0" encoding="utf-8"?>
<!-- Generator: Adobe Illustrator 18.1.1, SVG Export Plug-In . SVG Version: 6.00 Build 0)  -->
<svg version="1.1" id="Layer_1" xmlns="http://www.w3.org/2000/svg" xmlns:xlink="http://www.w3.org/1999/xlink" x="0px" y="0px"
	 width="217.7px" height="96px" viewBox="0 0 217.7 96" enable-background="new 0 0 217.7 96" xml:space="preserve">
<g>
	<path d="M65.3,7.9c2.4-2.4,4.6-3.9,6.3-4.2c1.1-0.1,1.7,1.1,0,2.3c-1.2,0.7-2.4,1.8-3.7,3.1c3.7,2.2,6.1,5.2,7.4,8.9
		c1.3,3.7,1.3,7.1,0.2,10.2c-1.3,3.5-3.3,6-6,7.4c-2.6,1.4-5,2.3-7.3,2.6c1.2,0.9,2.1,2.5,2.6,4.8c1.6,8-4.4,16-7.7,22.6
		c-2,3.9-1.1,6.6,1.3,6.6c2.9,0,8.1-4.6,13.2-13.3c0.5-0.8,0.9-0.8,1.2-0.3c0.4,0.8-0.1,1.9-1,3.5c-1.9,3.2-4.1,6.1-6.6,8.7
		c-2.4,2.5-5,3.8-7.8,3.7c-6,0-8.2-5-4.6-12.5c1.9-3.8,3.4-6.7,4.6-8.7c1.2-2.1,2.2-4.4,3.1-7.1c0.9-3.2,0.6-6.6-2.2-7.9
		c-2.3-0.3-3.4-1-3.3-2.2c0.1-1.3,0.8-1.9,2.1-1.8c1.5,0,1.9,1.4,2.8,1.5c4,0.5,8.8-3,10.8-8.6c2.1-6.1,0.7-12.6-4.6-16.2
		c-3.3,3.9-7.1,9.5-10.7,16.8c-12.6,24.9-21.1,49.9-41,49.9c-4.8,0-8.2-1.3-10.3-3.8S1,68.9,1,66.5c0-5.6,4.3-9.4,9.2-9.4
		c3.5,0,5.1,2.5,5.4,4.2c0.3,2.8-2,2.8-2.1,0.9c-0.1-1.3-0.9-3.2-3.6-3.2c-3.6,0-6.7,3.2-6.8,7.3c-0.1,5.3,4.6,9.3,10.7,9.3
		c12.9,0,21.4-20.1,31-37.7c6.8-12.7,13.5-22.6,18.8-28.3c-2.1-0.9-5-1.5-8.2-1.5c-5.9,0-11.5,1.8-16.8,5.5
		c-5.3,3.7-9.1,7.7-11.4,12.2c-1.6,3.1-2,5.6-1.3,7.6c0.7,1.9,1.9,2.9,3.4,2.9c2.9,0,6.3-2.2,10-8.7c0.8-1.3,1.1-2.2,1.9-2.1
		c0.9,0.1,1.2,1.2,0.4,2.8c-4.1,7.9-8.6,10-12.5,10c-2.9,0-4.7-1.3-5.6-3.8c-0.8-2.6-0.5-5.5,1-8.8c2.4-5.4,6.5-10,12.3-13.9
		C42.6,7.9,48.9,6,55.6,6C59.3,6,62.5,6.7,65.3,7.9z"/>
	<path d="M67.1,67.1c0-3.7,1.6-7.2,4.7-10.6c3.2-3.4,6.7-5.1,10.6-5.1c3.7,0,4.8,2.6,3.9,4.9c-0.9,2.1-2.9,3.9-6.9,5.2
		c-2.3,0.7-4.5,1.2-6.2,1.3c-0.7,1.5-1.3,3.2-1.3,5.3c0,2.5,1,4.6,4.5,4.6c4.9,0,10.1-5.2,16.1-13.7c0.5-0.8,0.9-0.8,1.2-0.4
		c0.4,0.5-0.1,2-1.2,3.6c-1.9,2.9-4.2,5.7-7.1,8.5c-2.9,2.7-6.1,4.1-9.7,4.1C70,74.8,67.1,71.2,67.1,67.1z M74.3,60.6
		c2.1-0.4,4.8-1,6.7-1.9c4.1-2.1,3.9-5.2,1.8-5.2C79.9,53.5,76.4,56.7,74.3,60.6z"/>
	<path d="M99.9,70.7c-2.1,2.5-4.1,3.9-6.6,3.9c-2.9,0-4.7-1.5-5.3-4.5c-0.6-3.1,0-6.2,1.9-9.4c4-6.8,9.5-9.2,13.5-9.2
		c2.3,0,4,1.2,4.5,2.8l0.7-1.4c0.3-0.5,0.8-1,1.9-1h2.7c0.9,0,1.3,0.5,0.6,1.8l-11.6,20.9l1.6-0.8c3.3-1.7,5.9-3.7,8-5.8
		c2.1-2.1,4.4-5.2,6.8-9.2c0.5-0.9,0.7-0.9,1-0.4c0.5,0.9,0,1.9-0.9,3.6c-1.8,3.1-3.8,5.7-6,8c-2.1,2.2-5.4,4.3-9.7,6.4l-2.6,1.2
		c-2.9,4.7-5.9,8.8-9.1,12.1c-3.3,3.4-6.9,5.1-10.9,5.1c-6.6,0-8.8-8.1,2.4-12.9c3.5-1.5,9-3.4,13.4-5
		C97.3,75.2,98.8,72.8,99.9,70.7z M87.1,88.8c2.7-2.6,5.2-5.7,7.5-9.2c-6.4,2.1-12.4,4.2-15.3,6.7c-3.3,2.8-2.5,6.4,0.7,6.4
		C82.1,92.7,84.4,91.4,87.1,88.8z M106,57.7c1.2-2.4,0-4-1.9-4c-1.8,0-3.7,1-5.6,3c-1.9,1.9-3.4,4.1-4.6,6.4c-1.2,2.3-1.9,4.5-2,6.5
		c-0.1,1.9,0.7,2.9,2.4,2.9C98.5,72.5,102.3,64.3,106,57.7z"/>
	<path d="M133.3,59c0.5-0.9,0.9-0.9,1.2-0.4c0.4,0.5-0.1,2-1.2,3.6c-1.9,2.9-4,5.7-6.5,8.4c-2.4,2.7-5,4-7.7,4.1
		c-4.9,0-6.7-4.4-4.2-9.2c1.3-2.5,2.4-4.4,3.1-5.7l3.9-6.9c0.4-0.7,0.8-1.1,1.9-1.1h2.7c1.1,0,1.3,0.6,0.6,1.8l-7.8,13.9
		c-1.6,2.9-1.3,5,0.6,5C122.8,72.5,127.3,67.5,133.3,59z M130.6,39.2c1.3,0,2.4,1.1,2.4,2.4c0,1.3-1.1,2.5-2.4,2.5
		c-1.3,0-2.5-1.2-2.5-2.5C128.1,40.3,129.3,39.2,130.6,39.2z"/>
	<path d="M156,58.6c0.3,0.7,0,2-1.1,3.6c-6.4,9.6-12.6,13-19,13c-4.8,0-8.3-1.7-8.8-5.3c-0.3-1.3,0.3-3,1.6-4.7
		c3.2-4.1,5.5-7.6,9-13.2c2.4-3.7,3.3-4.7,4.4-4.7c0.5,0,1.3,0.5,0.4,1.8c-0.4,0.5-0.7,0.9-1.2,1.8c-0.9,1.7,1.2,4.9,2.9,9.4
		c1.6,4.1,1.1,7.9-0.9,10.8c-0.1,0.3-0.3,0.6-0.6,0.7c4.4-2.3,8.5-7.1,12.2-12.8C155.4,58.1,155.9,58.1,156,58.6z M134.1,66.9
		c0.3,1.2,0.2,2-0.3,2.5s-1.1,0.5-1.6,0.4c-0.5-0.3-0.7-0.9-0.3-1.6c0.9-1.3-0.9-2.1-2.1-1c-0.9,0.9-1,2-0.5,3.5s1.7,2.2,3.8,2.2
		c3.3,0,5.1-2.4,6.3-5.1c2-4.5,0.4-8.7-0.9-13.5c-1.6,2.1-4.1,6.9-7.3,10.6C132.9,65,133.8,65.6,134.1,66.9z"/>
	<path d="M171.4,59c0.5-0.9,0.9-0.9,1.2-0.4c0.4,0.5-0.1,2-1.2,3.6c-1.9,2.9-4,5.7-6.5,8.4c-2.4,2.7-5,4.1-7.7,4.1
		c-3.2,0-5.1-1.1-5.8-3.3s-0.5-4.5,0.8-6.9c1.6-2.9,3.4-6.3,5.9-10.7h-1.6c-1.2,0-1.5-0.4-1.2-1.1c0.4-0.8,0.9-0.7,2.2-0.7h1.7
		l3.3-5.8c0.4-0.5,0.8-1,1.9-1h2.7c0.9,0,1.3,0.5,0.6,1.8l-2.8,5h3.1c0.9,0,1.6,0,1.3,1.1c-0.3,0.9-1.3,0.8-2.2,0.8h-3.3l-7.2,12.8
		c-1.7,2.9-1.7,5.8,1.2,5.8C161.1,72.5,165.4,67.5,171.4,59z"/>
	<path d="M173.4,69.8c0-5.3,8-12.5,8-15.8c0-0.9-0.5-1.2-1.6-1c-1,0.1-2,0.2-2.9,0.1c-2.4,4.1-3.8,6-5.7,9.1
		c-0.5,0.9-1.1,1.5-1.6,1.1c-0.9-0.7,0.2-2.1,1.1-3.6c1.5-2.3,2.6-4.1,4.2-7.2c-2.9-1.3-3.1-5-0.6-6.7c1.3-0.9,2.4-0.7,3.5,0.4
		c1.1,1.1,1.1,2.8,0,5.1c0.3,0,1.1,0,3.9-0.3c2.8-0.4,4.8,0.5,4.8,2.9c0,4.5-8.9,12.7-8.9,16.8c0,1.1,0.7,1.9,2,1.9
		c2.9,0,7.6-5.2,13.3-13.7c0.5-0.8,0.9-0.8,1.2-0.4c0.4,0.7-0.1,2-1.2,3.7c-1.9,2.9-4,5.7-6.4,8.4c-2.4,2.6-5,3.9-7.7,4
		C175.5,74.6,173.4,72.6,173.4,69.8z M175.8,50.9c1.7-3.3,0.1-4.3-0.8-3.4C174.1,48.3,174.2,50,175.8,50.9z"/>
	<path d="M208.6,71.6c2.8-1.7,5-3.5,6.7-5.6c0.5-0.8,1-0.6,1.1-0.2c0.1,0.5,0.1,1.8-1.2,3.1c-3.6,3.9-10,6.9-14.9,8.6
		c-2.9,4.8-5.9,8.9-9,12.2c-3.1,3.4-6.8,5.1-10.9,5.1c-3.3,0-5.4-2.2-5.4-4.7c0-2.5,2.2-5.8,7.7-8.2c3.9-1.7,8.5-3.2,12.6-4.7
		c0.9-1.3,2.8-3.8,3.7-5.5c-1.1,0.8-3.6,3-6.5,3c-4.8,0-6.6-4.5-4.1-9.2c1.3-2.5,2.4-4.4,3.2-5.7l3.9-6.9c0.5-0.5,0.9-1,2-1h2.6
		c1.1,0,1.4,0.5,0.7,1.8c-0.8,1.1-5.4,9.3-8,13.8c-1.7,2.9-0.8,4.7,0.8,4.7c2.5,0,5.9-3.1,11.2-12l2.1-3.8c0.3-0.7,1-1.8,2-3.5
		c0.4-0.5,0.8-1,1.9-1h2.9c0.9,0,1,0.6,0.5,1.8c-0.8,1.1-5.3,9.3-8,13.8l-4.2,7.2C203.7,74.2,205.9,73.2,208.6,71.6z M193.6,79.8
		c-6.5,2.3-11.4,3.9-14.3,6.4c-3.1,2.8-2.4,6.6,0.9,6.6C184.6,92.8,188.9,87.1,193.6,79.8z"/>
</g>
</svg>
