<?xml version="1.0" encoding="utf-8"?>
<!-- Generator: Adobe Illustrator 18.1.1, SVG Export Plug-In . SVG Version: 6.00 Build 0)  -->
<svg version="1.1" id="Layer_1" xmlns="http://www.w3.org/2000/svg" xmlns:xlink="http://www.w3.org/1999/xlink" x="0px" y="0px"
	 width="237.8px" height="96px" viewBox="0 0 237.8 96" enable-background="new 0 0 237.8 96" xml:space="preserve">
<g>
	<path d="M39,4.6c5,0,8.1,2.1,9.4,6.2c1.3,4.1,1.3,9.2,0,15.4c4.9-0.5,9.4-4.2,12.2-8.3c1.3-2,2.7-0.8,1.5,1.1
		c-3.1,4.9-7.9,9-14.2,9.3c-0.9,3.6-2.2,7.4-3.5,11.1c-7.5,19.5-19.6,35.9-32.3,35.9C-1,75.3-1.1,58,6.4,39.9
		C14.2,20.6,27.3,4.6,39,4.6z M12.3,73.3c8.5,0,18.8-14.9,26.5-33.1c1.7-4.3,3.3-8.5,4.4-12.5c-5.3-1.7-7.3-7.2-5.2-11.3
		c1.7-3.5,5.3-3.8,7.4-1.9c-0.1-4.7-1.7-7.7-5.4-7.7c-8.8,0-21,16.2-27.9,33.5C4.4,59.2,3.7,73.3,12.3,73.3z M44.8,20.9
		c0.7-3.1,0.2-4.8-1.4-5.3c-1.6-0.5-2.8,0.1-3.6,1.7c-1.5,2.8,0.2,6.9,3.9,8.4C44.2,23.7,44.4,22.9,44.8,20.9z"/>
	<path d="M77.9,72.5c2.5,0,5.4-2.5,8.3-6.5c0.5-0.8,1-0.5,1.1-0.1c0.1,0.5,0,1.5-1.2,3.1c-0.9,1.1-2.1,2.3-3.7,3.6
		c-1.5,1.3-3.3,2-5.3,1.9c-3.2,0-5.5-2-5.5-4.8c0-5.2,8.2-12.4,8.2-15.7c0-0.9-0.5-1.3-1.6-1.1c-1.1,0.1-2.1,0.2-3,0.2
		c-2.3,3.9-3.8,6.6-6.2,10.3c-1.8,2.8-3.7,5.4-5.7,7.8c-2,2.3-4.2,3.5-6.7,3.5c-3.2,0-4.8-2-4.9-4.8c-2.5,2.9-5.3,4.8-8.1,4.8
		c-4.9,0-6.7-4.4-4.2-9.2c1.3-2.5,2.4-4.3,3.2-5.6l4-6.9c0.4-0.7,0.8-1.1,1.9-1.1h2.6c1.1,0,1.4,0.6,0.7,1.8l-8,13.8
		c-1.6,2.9-0.8,4.7,0.8,4.7c2.7,0,6.2-3.1,11.7-13c0.8-1.6,1.9-3.4,3.6-6.3c0.4-0.7,0.8-1.1,1.9-1.1h2.7c0.9,0,1.3,0.6,0.6,1.8
		l-7.8,13.9c-1.7,2.9-1.3,5,0.6,5c1.5,0,3.2-1.4,5.3-4.2c2.1-2.8,4-5.5,5.7-8.2c0.8-1.3,2.6-4.3,4.3-7.6c-2.9-1.3-3.1-5.1-0.6-6.8
		c1.3-0.8,2.5-0.6,3.6,0.5c1.1,1.1,1,2.7-0.1,5c0.3,0,1.1,0,3.9-0.3c2.8-0.3,4.8,0.5,4.8,2.9c0,4.5-8.9,12.7-8.9,16.8
		C75.9,71.7,76.6,72.5,77.9,72.5z M74.1,50.8c1.7-3.3,0.2-4.2-0.7-3.4C72.5,48.2,72.5,50,74.1,50.8z"/>
	<path d="M161.1,20.5c0,2,1.6,4.3,5.7,4.3c4.9,0,8.2-4.6,8.2-9c0-5.3-3.8-9.1-9.9-9.1c-2.9,0-5.7,1.1-8.6,3.2
		c-2.9,2.1-4.8,5.1-5.8,9c-4.3,17.3-0.5,30-5.6,43.1c-3.3,8.4-10.9,14-20.6,14c-1.9,0-3.8-0.2-6.5-1.1c-1.7-0.7-3.7-1.9-5.8-3.7
		c-2.1-1.8-3.5-4.7-4.2-8.7c-1.9-10.6,7-21.5,16.9-21.5c6.5,0,9.6,4.8,9.6,9.6c0,2.9-1,5.6-2.9,8.3c-1.9,2.6-4.2,3.9-7.1,3.9
		c-0.5,0-1.2-0.3-1.3-0.8c-0.1-0.5,0.4-1.1,0.9-1.1c2.8,0,5.6-2,7.3-5.6c1.5-3.3,1.5-6,0.2-8.1c-1.3-2.2-3.1-3.3-5.5-3.3
		c-4.4,0-10,3.2-12.9,10.4c-3.5,8.4-0.1,19.7,11.2,19.7c6.8,0,12.4-3.5,15.6-12.3c4.8-13,0.7-27.4,5.8-42.2
		c2.9-8.4,10-14.9,19.3-14.9c8,0,12.1,5.1,12.1,11.1c0,2.6-1,5.1-2.9,7.5c-1.9,2.3-4.4,3.5-7.5,3.5c-5.2,0-8-3.2-8-6.5
		c0-2.9,2.6-6.1,5.8-6.1c0.5,0,1.3,0.4,1.3,0.9s-0.4,0.9-1.3,1C162.3,16.4,161.1,18.4,161.1,20.5z"/>
	<path d="M170.8,59c0.5-0.9,0.9-0.9,1.2-0.4c0.4,0.5-0.1,2-1.2,3.6c-1.9,2.9-4,5.7-6.5,8.4c-2.4,2.7-5,4.1-7.7,4.1
		c-3.2,0-5.1-1.1-5.8-3.3s-0.5-4.5,0.8-6.9c1.6-2.9,3.4-6.3,5.9-10.7h-1.6c-1.2,0-1.5-0.4-1.2-1.1c0.4-0.8,0.9-0.7,2.2-0.7h1.7
		l3.3-5.8c0.4-0.5,0.8-1,1.9-1h2.7c0.9,0,1.3,0.5,0.6,1.8l-2.8,5h3.1c0.9,0,1.6,0,1.3,1.1c-0.3,0.9-1.3,0.8-2.2,0.8h-3.3L156,66.7
		c-1.7,2.9-1.7,5.8,1.2,5.8C160.5,72.5,164.8,67.5,170.8,59z"/>
	<path d="M193.1,59.3c-1.7,2.4-3.7,3.7-6.2,4c-1.3,2.9-3.2,5.5-5.7,7.9c-2.5,2.3-5,3.5-7.7,3.5c-3.7,0-6-1.5-6.8-4.6
		c-0.9-3.1-0.4-6.2,1.5-9.4c4.1-6.8,10.2-9.3,14.2-9.3c3.7,0,5.9,2,5.9,6.1c0,1.2-0.3,2.6-0.7,3.9c1.9-0.5,3.6-1.9,4.9-4.2
		c1.3-2.3,2.2-3.9,2.7-4.6c-2.9-1.5-3.2-5.2-0.7-6.9c1.3-0.8,2.4-0.6,3.5,0.5c1.1,1.1,1.1,2.7-0.1,5c0.4,0,1.1,0,4-0.3
		c2.8-0.3,4.8,0.5,4.8,2.9c0,4.5-8.9,12.7-8.9,16.8c0,1.1,0.7,1.9,2,1.9c2.9,0,7.4-5,13.4-13.5c0.5-0.9,0.9-0.8,1.2-0.3
		c0.3,0.7-0.1,1.9-1.2,3.5c-1.9,2.9-4,5.6-6.5,8.3c-2.4,2.7-5,4-7.8,4c-3.2,0-5.4-2-5.4-4.8c0-5.2,8.1-12.4,8.1-15.7
		c0-0.9-0.5-1.3-1.6-1.1c-1.1,0.1-2.1,0.2-3,0.2C196.1,54.8,194.8,56.8,193.1,59.3z M184.7,63.1c-2.1-0.5-3.6-2.4-3.6-4.1
		c0-1.9,1.6-3.7,3.7-3.7c0.5,0,1.1,0.4,1.4,0.5c-0.4-1.6-1.7-2.3-3.2-2.3c-1.9,0-3.8,1-5.7,3c-1.9,2-3.5,4.2-4.6,6.6
		c-1.1,2.3-1.7,4.5-1.7,6.5c0.1,2,1.1,3,3.1,3C178.2,72.6,182.6,67.9,184.7,63.1z M183,59c-0.1,1.3,0.7,2.2,2.4,2.5
		c0.3-0.7,0.4-1.6,0.5-2.8c0.1-1.2-0.2-1.8-1.1-1.8C183.7,56.9,183.1,57.6,183,59z M196,50.8c1.7-3.3,0.1-4.2-0.8-3.4
		C194.3,48.2,194.4,50,196,50.8z"/>
	<path d="M228.3,71.6c2.8-1.7,5-3.5,6.7-5.6c0.5-0.8,1-0.6,1.1-0.2c0.1,0.5,0.1,1.8-1.2,3.1c-3.6,3.9-10,6.9-14.9,8.6
		c-2.9,4.8-5.9,8.9-9,12.2c-3.1,3.4-6.8,5.1-10.9,5.1c-3.3,0-5.4-2.2-5.4-4.7c0-2.5,2.2-5.8,7.7-8.2c3.9-1.7,8.5-3.2,12.6-4.7
		c0.9-1.3,2.8-3.8,3.7-5.5c-1.1,0.8-3.6,3-6.5,3c-4.8,0-6.6-4.5-4.1-9.2c1.3-2.5,2.4-4.4,3.2-5.7l3.9-6.9c0.5-0.5,0.9-1,2-1h2.6
		c1.1,0,1.4,0.5,0.7,1.8c-0.8,1.1-5.4,9.3-8,13.8c-1.7,2.9-0.8,4.7,0.8,4.7c2.5,0,5.9-3.1,11.2-12l2.1-3.8c0.3-0.7,1-1.8,2-3.5
		c0.4-0.5,0.8-1,1.9-1h2.9c0.9,0,1,0.6,0.5,1.8c-0.8,1.1-5.3,9.3-8,13.8l-4.2,7.2C223.4,74.2,225.6,73.2,228.3,71.6z M213.3,79.8
		c-6.5,2.3-11.4,3.9-14.3,6.4c-3.1,2.8-2.4,6.6,0.9,6.6C204.3,92.8,208.6,87.1,213.3,79.8z"/>
</g>
</svg>
