<?xml version="1.0" encoding="utf-8"?>
<!-- Generator: Adobe Illustrator 18.1.1, SVG Export Plug-In . SVG Version: 6.00 Build 0)  -->
<svg version="1.1" id="Layer_1" xmlns="http://www.w3.org/2000/svg" xmlns:xlink="http://www.w3.org/1999/xlink" x="0px" y="0px"
	 width="152.1px" height="96px" viewBox="0 0 152.1 96" enable-background="new 0 0 152.1 96" xml:space="preserve">
<g>
	<path d="M47.8,58.6c0.4,0.8-0.4,2.2-1.7,3.5c-2.7,2.8-7.2,4.4-11.7,4.1c-3.5,4.7-9,8.2-16.3,8.2c-4.1,0-7.8-1.6-11.3-4.7
		c-3.4-3.1-5.1-7.3-5.1-12.6c0-17.3,15.1-28.2,27.6-29.3C25.4,21.5,27,9.2,37.1,4.9c8-3.5,18-0.7,18,7.8c0,2.7-0.9,4.9-2.8,6.5
		c-1.8,1.6-3.4,2.4-4.7,2.5c-2.3,0.1-2.3-2.2-0.3-2.3c3.2-0.3,5.5-3.4,5.5-6.3c0-4.4-3.1-6.7-6.8-6.7c-10.2,0-17.4,12.1-13.1,20.7
		c0.7-0.1,1.9,0.2,3.4,0.8c1.5,0.5,2.1,1.4,1.8,2.7c-0.3,1.1-1.2,1.6-2.8,1.5c-1.6-0.2-2.9-0.8-3.8-1.9C19.5,31,6.9,43.3,6.9,58
		c0,3.9,1,7.3,2.9,10.2c1.9,2.9,4.8,4.4,8.5,4.4c5.3,0,9.6-3,12.3-7.1c-2.5-0.9-5.1-2.7-6.6-5.4c-4.6-7.8-0.3-17.2,6.3-17.2
		c9,0,10.7,12.2,5.3,21.4c3.9,0,8.1-1.7,11-5.4C47.1,58.2,47.5,58.1,47.8,58.6z M27.4,61.2c1.1,1.2,2.6,2,4.3,2.5
		c4.5-8,4.1-18.7-1.4-18.7C24,45,22,56.3,27.4,61.2z"/>
	<path d="M72.3,56.6c1.1-1.2,2.3,0.1,0.8,1.6c-2.9,2.9-6.6,3.3-9.4,2.4c-5.6,9.3-9.9,14.1-15.8,14.1c-5.6,0-7.4-5.1-4.5-10.4
		c2.7-4.8,2.6-4.8,6.4-11.3c0.4-0.7,0.8-1.1,1.9-1.1h2.6c1.1,0,1.4,0.6,0.7,1.8c-0.3,0.7-1.3,2.3-2.9,5c-1.5,2.7-3,5.1-4.3,7.4
		c-2.4,4.1-0.8,6.2,1.6,6.2c3.2,0,7.6-3.8,12.3-12.6c-0.7-0.5-1.3-1.1-1.7-1.8c-1.7-2.9-0.1-6.3,2.6-6.3c2.9-0.1,4.1,2.7,2.1,7.2
		C66.7,59.6,69.8,59.3,72.3,56.6z M62.7,57.8c0.3-0.4,0.6-1.2,1-2.4c0.4-1.3,0.1-1.9-0.9-2c-1.1-0.1-1.8,1.7-1,3.3
		C61.9,57.1,62.3,57.5,62.7,57.8z"/>
	<path d="M65.3,67.1c0-3.7,1.6-7.2,4.7-10.6c3.2-3.4,6.7-5.1,10.6-5.1c3.7,0,4.8,2.6,3.9,4.9c-0.9,2.1-2.9,3.9-6.9,5.2
		c-2.3,0.7-4.5,1.2-6.2,1.3c-0.7,1.5-1.3,3.2-1.3,5.3c0,2.5,1,4.6,4.5,4.6c4.9,0,10.1-5.2,16.1-13.7c0.5-0.8,0.9-0.8,1.2-0.4
		c0.4,0.5-0.1,2-1.2,3.6c-1.9,2.9-4.2,5.7-7.1,8.5c-2.9,2.7-6.1,4.1-9.7,4.1C68.2,74.8,65.3,71.2,65.3,67.1z M72.5,60.6
		c2.1-0.4,4.8-1,6.7-1.9c4.1-2.1,3.9-5.2,1.8-5.2C78.1,53.5,74.6,56.7,72.5,60.6z"/>
	<path d="M116.9,59c0.5-0.9,1.1-0.9,1.2-0.4c0.4,0.5-0.1,2-1.2,3.6c-1.9,2.9-4,5.7-6.4,8.4c-2.4,2.7-5,4.1-7.8,4.1
		c-3.2,0-5.1-2.2-5.1-4.7c0-5.3,7.1-9.9,7.1-13.7c0-0.9-0.7-1.7-1.6-1.7c-4.5,0-10.6,11.2-15.4,18.7c-0.4,0.7-0.8,1.1-1.9,1.1h-1.7
		c-1.1,0-1.2-0.6-0.7-1.8c2.8-4.9,6.4-13.1,10.1-19.6c0.4-0.7,0.8-1.1,1.9-1.1h2.2c0.9,0,1.3,0.6,0.6,1.8l-2,3.9
		c2.4-2.9,5.3-5.5,8.4-5.5c2.9,0,4.5,1.8,4.5,4.3c0,5-7,10.6-7,14.6c0,0.9,0.6,1.5,1.4,1.5C106.4,72.5,111,67.5,116.9,59z"/>
	<path d="M132.6,59c0.5-0.9,0.9-0.9,1.2-0.4c0.4,0.5-0.1,2-1.2,3.6c-1.9,2.9-4,5.7-6.5,8.4c-2.4,2.7-5,4.1-7.7,4.1
		c-3.2,0-5.1-1.1-5.8-3.3c-0.7-2.2-0.5-4.5,0.8-6.9c1.6-2.9,3.4-6.3,5.9-10.7h-1.6c-1.2,0-1.5-0.4-1.2-1.1c0.4-0.8,0.9-0.7,2.2-0.7
		h1.7l3.3-5.8c0.4-0.5,0.8-1,1.9-1h2.7c0.9,0,1.3,0.5,0.6,1.8l-2.8,5h3.1c0.9,0,1.6,0,1.3,1.1c-0.3,0.9-1.3,0.8-2.2,0.8H125
		l-7.2,12.8c-1.7,2.9-1.7,5.8,1.2,5.8C122.3,72.5,126.6,67.5,132.6,59z"/>
	<path d="M150.1,65.7c0.4,0.7-0.1,1.9-1.2,3.5c-2.5,3.3-7.1,6-13.5,6c-4.8,0-8.3-1.7-8.8-5.3c-0.3-1.3,0.3-3,1.6-4.7
		c3.2-4.1,5.5-7.6,9-13.2c2.4-3.7,3.3-4.7,4.4-4.7c0.5,0,1.3,0.5,0.4,1.8c-0.4,0.5-0.7,0.9-1.2,1.8c-0.9,1.7,1.2,4.9,2.9,9.4
		c1.6,4.1,1.1,7.9-0.9,10.8c-0.3,0.5-0.7,0.9-1.1,1.2c3.6-1.3,5.6-3.7,7.3-6.2C149.5,65.3,150,65.3,150.1,65.7z M133.6,66.9
		c0.3,1.2,0.2,2-0.3,2.5s-1.1,0.5-1.6,0.4c-0.5-0.3-0.7-0.9-0.3-1.6c0.9-1.3-0.9-2.1-2.1-1c-0.9,0.9-1,2-0.5,3.5s1.7,2.2,3.8,2.2
		c3.3,0,5-2.3,6.3-5.1c1.1-2.5,1.3-4.9,0.6-7.3l-1.5-6.2c-1.6,2.1-4.1,6.9-7.3,10.6C132.4,65,133.3,65.6,133.6,66.9z"/>
</g>
</svg>
