<?xml version="1.0" encoding="utf-8"?>
<!-- Generator: Adobe Illustrator 18.1.1, SVG Export Plug-In . SVG Version: 6.00 Build 0)  -->
<svg version="1.1" id="Layer_1" xmlns="http://www.w3.org/2000/svg" xmlns:xlink="http://www.w3.org/1999/xlink" x="0px" y="0px"
	 width="174.4px" height="96px" viewBox="0 0 174.4 96" enable-background="new 0 0 174.4 96" xml:space="preserve">
<g>
	<path d="M65.1,7.6c2.3-2.1,4.3-3.5,5.9-3.9c1.1-0.1,1.7,1.1,0,2.3c-0.9,0.7-2.1,1.7-3.3,2.8c5.7,3.1,10.8,9.1,10.8,16.8
		c0,13.1-10.2,20.9-19.5,20.9c-4,0-6.6-0.8-7.8-2.5c-1.1-1.7-1.1-2.6,0.1-2.8c1.1-0.1,1.8,0.4,2.2,1.5c0.4,1.1,2,1.6,4.9,1.6
		c6.8,0,15.1-8.2,15.1-20.2c0-5.5-2.7-11.1-7.4-13.6c-3.5,3.7-7.6,9.7-11.3,17.3C42.2,52.7,34.4,75.4,14.4,75.4
		c-4.8,0-8.2-1.3-10.3-3.8C2,69.1,1,66.6,1,64.2c0-5.6,4.2-9.4,9.1-9.4c3.5,0,5.3,2.5,5.4,4.2c0.4,2.8-1.9,2.8-2,0.9
		c-0.1-1.3-1.1-3.2-3.6-3.2c-3.7,0-6.7,3.2-6.8,7.3c-0.1,5.3,4.5,9.3,10.6,9.3c13,0,21.2-17.8,30.5-35.4c7.1-12.8,13.9-23,19.2-28.7
		c-2.1-0.5-4.7-1-7.2-1c-5.5,0-10.8,1.9-15.9,5.6c-5.1,3.7-8.7,7.7-10.9,12c-3.2,6.1-2.5,10.5,0.7,10.5c2.9,0,6.3-2.2,10-8.7
		c0.7-1.2,1.1-2.2,1.9-2.1s1.2,1.2,0.3,2.8c-4.1,7.9-8.5,10.1-12.4,10.1c-2.9,0-4.7-1.3-5.6-3.8c-0.8-2.6-0.5-5.6,1-8.9
		c2.4-5.3,6.5-9.9,12.3-13.8C43.4,8,49.7,6.1,56.4,6.1C59.6,6.1,62.6,6.7,65.1,7.6z"/>
	<path d="M92,59c0.5-0.9,0.9-0.9,1.2-0.4c0.4,0.5-0.1,2-1.2,3.6c-1.9,2.9-4,5.7-6.4,8.4c-2.4,2.7-5,4-7.8,4.1
		c-3.2,0-5.1-2.2-5.1-4.7c0-5.2,7-9.7,7-13.5c0-1.1-0.8-1.8-1.9-1.7c-2,0.3-6.1,3.3-10.2,9.8c-2.1,3.3-3.4,5.8-5,8.7
		c-0.4,0.7-1,1.1-1.9,1.1H59c-1.1,0-1.2-0.7-0.7-1.9c6.4-11.3,12-22.9,19.1-35.3c0.4-0.5,0.8-1,1.9-1h2.2c0.9,0,1.3,0.5,0.6,1.8
		c-0.6,1.2-7,11.9-11,19.4c2.3-2.8,5.3-5.1,8.2-5.1c3.2,0,4.9,2,4.9,4.5c0,5.2-7.1,10.6-7.1,14c0,1.1,0.6,1.7,1.5,1.7
		C81.5,72.5,86,67.5,92,59z"/>
	<path d="M116.8,59.5c0.1,0.3,0,1.1-0.5,2c-1.2,2-3.7,4.2-6.6,4.5c-0.8,0.1-1.7,0-2.6-0.1c-2.8,4.5-7.3,8.8-12,8.8
		c-3.7,0-6-1.5-6.8-4.6c-0.9-3.1-0.4-6.2,1.5-9.4c4.1-6.8,10.2-9.3,14.2-9.3c3.7,0,6.1,2,6.1,6.1c0,1.9-0.8,4.3-2,6.7
		c0.5,0.1,1.1,0.2,1.8,0.1c2.5-0.1,4.6-2.5,5.7-4.5C116,59,116.7,59.1,116.8,59.5z M107.8,57.2c0.4-2.7-1.3-3.7-3.2-3.7
		s-3.8,1-5.7,3c-1.9,2-3.5,4.2-4.6,6.6c-1.1,2.3-1.7,4.5-1.7,6.5c0.1,2,1.1,3,3.1,3c3.2,0,7-3.7,9.5-7.7c-0.7-0.4-1.2-1-1.6-1.7
		c-0.9-1.3-1-2.7-0.4-4.1c0.6-1.5,1.6-2.2,2.9-2.3C106.8,56.8,107.4,57,107.8,57.2L107.8,57.2z M107.1,61.1c0.4-1.5,0-2.5-0.9-2.6
		c-1.1-0.1-2,1.8-1.1,3.5c0.1,0.5,0.5,1,1,1.3C106.4,62.5,106.8,61.9,107.1,61.1z"/>
	<path d="M132,59c0.5-0.9,0.9-0.9,1.2-0.4c0.4,0.5-0.1,2-1.2,3.6c-1.9,2.9-4,5.7-6.5,8.4c-2.4,2.7-5,4.1-7.7,4.1
		c-3.2,0-5.1-1.1-5.8-3.3c-0.7-2.2-0.5-4.5,0.8-6.9c1.6-2.9,3.4-6.3,5.9-10.7h-1.6c-1.2,0-1.5-0.4-1.2-1.1c0.4-0.8,0.9-0.7,2.2-0.7
		h1.7l3.3-5.8c0.4-0.5,0.8-1,1.9-1h2.7c0.9,0,1.3,0.5,0.6,1.8l-2.8,5h3.1c0.9,0,1.6,0,1.3,1.1c-0.3,0.9-1.3,0.8-2.2,0.8h-3.3
		l-7.2,12.8c-1.7,2.9-1.7,5.8,1.2,5.8C121.7,72.5,126,67.5,132,59z"/>
	<path d="M171.8,66.1c0.5-0.8,0.9-0.8,1.2-0.4c0.4,0.7-0.1,1.9-1.3,3.5c-2.5,3.3-7.1,6-13.5,6c-4.8,0-8.9-2.1-8.9-6.2
		c0-1.7,1.8-4.2,4.2-4.2c1.9,0,2.9,0.7,3.1,2s0.1,2.1-0.4,2.6s-1.1,0.5-1.6,0.4c-0.5-0.3-0.8-0.9-0.4-1.6c0.9-1.3-0.9-2.1-2-1
		c-0.9,0.9-1.2,2-0.7,3.5c0.5,1.5,1.8,2.2,3.9,2.2c3.3,0,5.1-2.3,6.3-5.1c1.1-2.5,1.3-4.9,0.6-7.4c-0.6-2.5-1.1-4.7-1.6-6.4
		c-3.3,5.1-7.6,9.2-12.5,9.3c-1.3,2.9-3.1,5.5-5.5,7.9c-2.4,2.3-4.9,3.5-7.6,3.5c-3.7,0-6.1-1.5-7-4.6c-1-3.1-0.6-6.2,1.3-9.4
		c4.1-6.8,10.2-9.3,14.2-9.3c3.7,0,5.9,2,5.9,6.1c0,1.2-0.3,2.7-0.7,4c4-0.7,8-5,10.9-9.5c2.4-3.6,3.6-4.7,4.7-4.7
		c0.7,0,1.3,0.5,0.4,1.8c-0.3,0.5-0.7,0.9-1.2,1.8c-0.9,1.7,1.3,4.9,3,9.4c1.5,4.1,1.3,8.7-2,12C168.1,71,170.1,68.6,171.8,66.1z
		 M147.4,55.7c-0.5-1.6-1.7-2.2-3.2-2.2c-3.7,0-8,4.8-10.1,9.6c-1.1,2.3-1.6,4.5-1.5,6.5c0.1,2,1.1,3,3.2,3c4,0,8.2-4.7,10.3-9.6
		c-2.3-0.5-3.7-2.4-3.7-4c0-1.9,1.4-3.7,3.7-3.7C146.6,55.3,147.1,55.6,147.4,55.7z M144.3,59c-0.1,1.3,0.7,2.2,2.4,2.5
		c0.3-0.7,0.4-1.6,0.5-2.8s-0.2-1.8-1.1-1.8C145,56.9,144.4,57.6,144.3,59z"/>
</g>
</svg>
