<?xml version="1.0" encoding="utf-8"?>
<!-- Generator: Adobe Illustrator 18.1.1, SVG Export Plug-In . SVG Version: 6.00 Build 0)  -->
<svg version="1.1" id="Layer_1" xmlns="http://www.w3.org/2000/svg" xmlns:xlink="http://www.w3.org/1999/xlink" x="0px" y="0px"
	 viewBox="0 0 96 46" enable-background="new 0 0 96 46" xml:space="preserve">
  	 <title>Hotel</title>
<g>
	<path d="M34.1,9.5c-7.1-0.7-11-7-16.7-7.1C14,2.3,9.7,4.1,7.5,8c-1.1,2.2-1.4,4.2-0.7,6.1c0.7,1.9,2.2,2.8,4.4,2.8
		c3.1-0.1,5.1-2.8,5.4-5.5c0.1-1.3,1.4-1.1,1.3,0.2c-0.2,2.3-2.2,6.5-7.3,6.5c-1.4-0.1-2.6-0.6-3.9-1.7C5.6,15.3,5,13.9,5,12.2
		C5,5.7,11.7,0.7,18.2,0.7c7.6,0,10.4,6.7,16.9,7.3c2.7-4,5.2-6.5,7.7-6.5c2,0,2.4,1.8,1.1,3.7c-1,1.4-3.6,3.7-7,4.2
		c-1.2,2-2.5,4.4-3.7,6.7c-1.5,2.9-2.9,5.6-4.2,8.3c1.3,0.3,2.6,1.2,3.7,2.5c0.8-0.4,3-1.4,6.4-1.4C46.9,11.3,51.9,0.7,62.6,0.7
		c3,0,5.2,0.8,6.4,2.3c1.3,1.5,1.9,3,1.8,4.4c-0.2,3.8-3,5.7-5.6,5.7c-2.1,0-3.1-1.6-3.3-2.6c-0.2-1.6,1.2-1.6,1.3-0.5
		c0.1,0.8,0.5,1.9,2.2,1.9c2.2,0,4-2,4.1-4.4C69.4,4.2,66.6,2,63,2c-8.1,0-12.7,9.4-19.4,21.3c-3.7,6.6-8.8,17-11.3,21.1
		c-0.2,0.3-0.5,0.6-1.1,0.6h-1.6c-0.5,0-0.8-0.3-0.4-1.1l7.2-13.3c0.7-1.3,1.6-2.6,2.1-3.8c-1.2,0-3.4,0.2-5.4,1.4
		c-0.5,0.3-0.9,0.2-1.2-0.1c-0.8-1-1.5-2-3.2-2.5C22.9,36.9,18.4,45.3,8.9,45.3c-3,0-5.2-0.8-6.4-2.3c-1.3-1.5-1.9-3-1.9-4.4
		c0.2-3.8,3-5.6,5.7-5.6c2.1,0,3.2,1.5,3.2,2.5c0.2,1.7-1.2,1.7-1.3,0.5c-0.1-0.8-0.6-1.9-2.1-1.9c-2.2,0-4.1,2-4.1,4.4
		C2,41.8,4.9,44,8.5,44c7.2,0,12.4-10.6,18-21.2C29.2,17.8,31.8,13.1,34.1,9.5z M42.6,2.7c-1.2,0-2.9,2.1-4.8,5.2
		c2.7-0.7,4.7-2.8,5.3-3.8C43.4,3.3,43.3,2.7,42.6,2.7z"/>
	<path d="M57.7,35.8c0.1,0.2,0,0.7-0.3,1.2c-0.7,1.2-2.2,2.5-4,2.7c-0.5,0.1-1,0-1.6-0.1c-1.7,2.7-4.4,5.3-7.2,5.3
		c-2.2,0-3.6-0.9-4.1-2.8c-0.5-1.9-0.2-3.7,0.9-5.6c2.5-4.1,6.1-5.6,8.5-5.6c2.2,0,3.7,1.2,3.7,3.7c0,1.1-0.5,2.6-1.2,4
		c0.3,0.1,0.7,0.1,1.1,0.1c1.5-0.1,2.8-1.5,3.4-2.7C57.3,35.5,57.7,35.6,57.7,35.8z M52.3,34.4c0.2-1.6-0.8-2.2-1.9-2.2
		S48.1,32.8,47,34c-1.1,1.2-2.1,2.5-2.8,4c-0.7,1.4-1,2.7-1,3.9c0.1,1.2,0.7,1.8,1.9,1.8c1.9,0,4.2-2.2,5.7-4.6
		c-0.4-0.2-0.7-0.6-1-1c-0.5-0.8-0.6-1.6-0.2-2.5c0.4-0.9,1-1.3,1.7-1.4C51.7,34.2,52.1,34.3,52.3,34.4L52.3,34.4z M51.9,36.8
		c0.2-0.9,0-1.5-0.5-1.6c-0.7-0.1-1.2,1.1-0.7,2.1c0.1,0.3,0.3,0.6,0.6,0.8C51.5,37.6,51.7,37.2,51.9,36.8z"/>
	<path d="M66.9,35.5c0.3-0.5,0.5-0.5,0.7-0.2c0.2,0.3-0.1,1.2-0.7,2.2c-1.1,1.7-2.4,3.4-3.9,5c-1.4,1.6-3,2.5-4.6,2.5
		c-1.9,0-3.1-0.7-3.5-2c-0.4-1.3-0.3-2.7,0.5-4.1c1-1.7,2-3.8,3.5-6.4h-1c-0.7,0-0.9-0.2-0.7-0.7c0.2-0.5,0.5-0.4,1.3-0.4h1l2-3.5
		c0.2-0.3,0.5-0.6,1.1-0.6h1.6c0.5,0,0.8,0.3,0.4,1.1l-1.7,3h1.9c0.5,0,1,0,0.8,0.7c-0.2,0.5-0.8,0.5-1.3,0.5h-2L58,40.1
		c-1,1.7-1,3.5,0.7,3.5C60.7,43.6,63.3,40.6,66.9,35.5z"/>
	<path d="M64.5,40.4c0-2.2,1-4.3,2.8-6.4c1.9-2,4-3.1,6.4-3.1c2.2,0,2.9,1.6,2.3,2.9c-0.5,1.3-1.7,2.3-4.1,3.1
		c-1.4,0.4-2.7,0.7-3.7,0.8c-0.4,0.9-0.8,1.9-0.8,3.2c0,1.5,0.6,2.8,2.7,2.8c2.9,0,6.1-3.1,9.7-8.2c0.3-0.5,0.5-0.5,0.7-0.2
		c0.2,0.3-0.1,1.2-0.7,2.2c-1.1,1.7-2.5,3.4-4.3,5.1c-1.7,1.6-3.7,2.5-5.8,2.5C66.3,45,64.5,42.8,64.5,40.4z M68.8,36.5
		c1.3-0.2,2.9-0.6,4-1.1c2.5-1.3,2.3-3.1,1.1-3.1C72.2,32.2,70.1,34.1,68.8,36.5z"/>
	<path d="M85.7,39.7c0.3-0.5,0.6-0.4,0.7-0.1c0.1,0.3,0,0.9-0.7,1.8c-1,1.4-3,3.5-5.6,3.4c-2.9,0-3.8-2.9-2.3-6
		c1.1-2.3,4.3-8.8,6.6-12.7c3.4-5.8,6.2-9.5,9.1-9.5c2.3,0,2.9,2.7-0.2,6.4c-2,2.5-4.7,5-7.8,7.3c-2.2,4.1-4.3,8.2-5.3,10.3
		c-0.9,1.9-0.4,2.9,0.6,2.9C82.2,43.5,84,42.1,85.7,39.7z M86.6,28.2l2.9-2.8c2.6-2.5,4.1-4.4,4.4-5.8c0.3-1.3,0.1-2-0.5-2
		c-1.5,0-3.2,3.4-5.7,8.2L86.6,28.2z"/>
</g>
</svg>
