<?xml version="1.0" encoding="utf-8"?>
<!-- Generator: Adobe Illustrator 18.1.1, SVG Export Plug-In . SVG Version: 6.00 Build 0)  -->
<svg version="1.1" id="Layer_1" xmlns="http://www.w3.org/2000/svg" xmlns:xlink="http://www.w3.org/1999/xlink" x="0px" y="0px"
	 width="15px" height="13px" viewBox="0 0 15 13" enable-background="new 0 0 15 13" xml:space="preserve">
<path d="M13.2,1.3c1.1-0.8,1-0.5,0.5,1.1C13.7,2.6,13.2,3,13.2,3c-0.2,0.1-0.2,0.3-0.3,0.6c0,0.4-0.3,0.3-0.4,1.2
	c-0.1,0.7-0.9,1.1-1,1.3c-0.3,0.6,0.3,0.4-0.7,1.1c-0.6,0.4-0.7,2.4-0.7,2.7c0.1,0.9,0.2,0.5,0.5,0.7c0.5,0.3,0.1,0.4-0.2,0.4
	c-0.6,0.1-0.5-0.3-0.6-0.5c-0.2-0.4-0.3-1-0.3-1c-0.2,0.7-0.4,1.7,0.1,2c0.7,0.2,0.5,0.5,0,0.6c-0.7,0.1-0.7-0.5-0.8-0.7
	c0-0.4-0.3-0.3-0.2-0.8c0.3-1.7,0-1.9,0.2-2.2c-0.2-0.6,0.1-0.2,0.2-1C7,7.1,8.5,6.6,5.1,6.6C5,7,5.2,7.2,4.8,7.7
	C4.6,8,4.7,8.3,4.4,8.7c-0.2,0.6-0.2,1.5,0.1,1.5c0.3-0.1,0.8,0.3,0.1,0.4c-0.6,0.1-0.5-0.2-0.6-0.3C3.8,9.8,3.8,9,3.7,9.1
	c-0.5,0.6-1,2.1-0.6,2.2c0.4,0.1,0.5,0.5-0.1,0.6c-0.4,0-0.4-0.1-0.6-0.4c-0.1-0.3,0.1-0.2,0.1-1.5c-0.2-0.8,0.9-0.9,0-2.9
	C1.7,5.3,2.7,5.1,2.5,5C1.3,4.3,1.3,4.1,1.2,4C0.6,3.5,0.8,2.1,2.1,1.8c0.8-0.1,1.3,0.9,1.8,1c0,0.1-0.6,0-0.7,0
	C1.2,1.9,1.4,4.4,3,3.9c0,0,1.5-1,5-0.4c0.1,0,1.7-0.2,1.7-0.2c0.2,0,0.8,0.1,0.5-0.3C10,2.8,9.8,2.5,9.8,2.3
	c-0.8-2-0.2-1.5,1.2-0.2c0,0.1,0.6-0.2,1.5,0C12.7,1.7,13,1.4,13.2,1.3L13.2,1.3z"/>
<g>
</g>
<g>
</g>
<g>
</g>
<g>
</g>
<g>
</g>
<g>
</g>
</svg>
