<?xml version="1.0" encoding="utf-8"?>
<!-- Generator: Adobe Illustrator 18.1.1, SVG Export Plug-In . SVG Version: 6.00 Build 0)  -->
<svg version="1.1" id="Layer_1" xmlns="http://www.w3.org/2000/svg" xmlns:xlink="http://www.w3.org/1999/xlink" x="0px" y="0px"
	 width="361px" height="335.9px" viewBox="53.6 3 361 335.9" enable-background="new 53.6 3 361 335.9" xml:space="preserve">
<g>
	<g>
		<path d="M191.2,290.1c-1.1-20,6.8-55.6,7.1-77.5c0.3-19.1-4.6-25.7-10.8-22.5c-4.6,2-7.4,7.4-9.1,15.7c-1.7,8.3-2.8,17.1-3.4,26.8
			c-0.6,11.7-1.7,31.1-3.1,48.2l-1.7,23.7l-1.1,14.5c0,1.4-0.6,2.3-2.3,3.1l-4,2c-1.7,0.9-2.6,0-2.3-2.3c0-4,0.6-10.3,0.9-19.4
			c0.6-9.1,1.1-18.5,2-28.8l2-29.1c0.9-9.4,1.1-16.2,1.4-20.5c0.9-18.8-6-25.4-12-22.5c-10.8,5.1-10.8,27.6-12.3,49.6
			c0,0-0.3,4-0.6,11.7l-1.7,25.9l-2,27.9l-1.1,16.8c0,1.4-0.6,2.3-2.3,3.1l-4.3,2c-1.7,0.9-2.6,0-2.3-2.3c0-0.6,0.3-5.7,0.9-15.7
			l2-33.1l2.3-34.2c0.6-10.8,1.1-17.4,1.1-19.7c0.9-19.4-7.1-26.2-16.2-21.7c-4.8,2.3-9.1,7.1-12.5,14.2s-5.4,14.8-5.4,23.4
			c0,10,3.1,17.1,8.8,14.2c4.6-2,7.1-10,7.1-24.5c0.3-2.6-0.3-4.8,1.1-5.4c1.4,0,2.3,1.4,2.3,4.8c0,16.5-3.4,25.6-9.4,28.2
			c-7.4,3.4-14.8-1.7-16-13.4c-1.4-16.2,6.8-37.6,21.9-44.7c10.3-4.8,20.8-1.1,24.8,9.7c1.7-10.8,5.4-18.2,12.3-21.4
			c8.8-4,16.5,1.7,19.7,14.8c1.4-12.8,6-22.5,13.4-25.9c11.7-5.4,20.5,6.3,19.9,31.4c-0.6,20.8-7.7,56.4-7.1,71.8
			c0.3,8.3,2.6,11.4,6.8,9.4c4.6-2,7.4-12,10.3-29.9c0-1.7,1.1-2.3,1.7-1.4c0.9,0.6,0.9,3.7,0.9,7.1c-0.9,8-3.7,24.5-12.5,28.5
			C199.2,306.1,191.8,301.2,191.2,290.1z"/>
		<path d="M239.4,258.8c0-1.7,0.9-2,1.7-1.4c0.9,0.6,1.4,3.1,0.9,6.6c-0.9,6-2,11.7-4,17.7c-1.7,6-4.8,9.7-8.8,12
			c-7.7,3.4-13.7-2-13.1-11.1c0.3-4.8,0.6-8.6,0.6-11.1l1.1-13.4c0-1.4,0.6-2.3,2.3-3.1l4.3-2c1.7-0.9,2.6,0,2.3,2.3l-2.6,27.1
			c-0.3,5.7,1.7,8.5,4.6,7.4C232.9,287.3,236.3,276.4,239.4,258.8z M220.9,230c2-0.9,4.6,0,5.4,2c0.9,2,0,4.6-2,5.7
			c-2,0.9-4.8,0-5.7-2C218,233.7,218.9,231.1,220.9,230z"/>
		<path d="M240.3,274.2c-4.8-10.3,0.6-30.2,12.3-35.9c5.7-2.6,9.4,0.6,9.7,4.8c0,4-1.7,7.7-4.3,8.8c-2,1.1-3.1-0.6-1.7-2.6
			c4.3-5.7,1.7-9.7-1.4-8.3c-3.4,1.7-6,5.7-7.7,12.5c-1.7,6.6-1.1,12.5,1.1,18c2.3,4.8,5.7,6,9.4,4.3c7.7-3.4,11.1-14.8,14.2-32.5
			c0.3-1.7,0.9-2,1.7-1.4c0.9,0.6,1.4,3.1,0.9,6.6c-0.9,6-2.3,12-4.8,18.2c-2.3,6.3-6.3,10.5-11.7,13.1
			C249.4,284.1,243.4,280.4,240.3,274.2z"/>
		<path d="M279.3,237.1c1.4-6,4.6-11.7,9.1-14c4.8-2.3,9.1-0.6,10.8,3.4c3.7,8-3.4,21.7-0.9,26.8c0.9,1.7,2.3,2.3,3.4,1.4
			c5.4-2.6,8.8-15.1,10.8-30.5c0-1.7,0.9-2,1.7-1.4c0.9,0.6,1.4,3.1,0.9,6.6c-0.9,6-2,11.7-4,17.7c-1.7,6-4.8,9.7-9.1,12
			c-4.8,2.3-9.4,0.3-11.4-3.7c-3.7-8,3.7-19.9,1.1-25.9c-0.9-1.7-2.6-2.3-4.3-1.1c-2.8,2-7.1,9.4-8.8,22.5
			c-0.9,6.6-1.1,11.4-1.4,17.1c0,1.4-0.9,2.6-2.3,3.1l-2.6,1.1c-1.7,0.9-2.6-0.6-2.6-2.6c1.1-12.5,2-30.5,3.1-56.1
			c1.7-19.7,4.6-31.9,12-35.3c6-2.8,10.8,3.4,7.1,16.5c-2.3,8.8-6.8,19.4-12,28.8C280.2,225.7,279.6,231.1,279.3,237.1z
			 M280.5,217.5c1.4-3.7,4-8.8,5.1-11.7c3.7-9.7,5.1-16.2,4.3-20.2c-0.9-3.7-2-5.1-3.7-4.6c-4,1.7-4.6,13.7-5.4,28.5L280.5,217.5z"
			/>
		<path d="M356.5,204.3c0-1.7,0.9-2,1.7-1.4c0.9,0.6,1.4,3.1,0.9,6.6c-0.9,6-2,11.7-4,17.7c-1.7,6-4.8,9.7-9.1,12
			c-4.6,2-8.6,1.4-11.4-2.9c-1.4,4.6-3.4,9.4-7.7,11.4c-5.1,2.3-9.1,1.4-12.3-2.9c-3.1-4.3-4.6-9.7-3.7-16
			c1.4-13.4,8.6-21.7,14.8-24.5c4-1.7,6.8-0.9,8.5,1.1l0.3-2.6c0-1.4,0.6-2.3,2.3-3.1l4.3-2c1.4-0.6,2.6,0,2.3,2.3l-2,27.9
			c-0.3,5.7,2,7.7,4.6,6.6C350,232.8,353.4,221.7,356.5,204.3z M333.5,212.3c0-5.1-3.7-6-6-4.8c-2.6,1.1-4.6,4-6.3,8.6
			c-1.4,4.6-2.3,8.8-2.6,13.4c-0.3,4.6,0.3,8.3,1.4,11.7c1.4,3.1,3.1,4.3,5.7,2.9C333.5,240.5,333.2,219.2,333.5,212.3z"/>
		<path d="M357.4,219.2c-2.6-5.7-2.9-12.3-0.3-19.9s6.6-12.8,12.8-15.7c5.7-2.6,9.4,0.6,9.7,4.8c0,4-1.7,8.3-6.8,13.1
			c-3.1,2.9-6,5.1-8.6,6.6c0,2.9,0.3,6,1.7,9.1c1.7,4,4.8,6.3,10.3,4c7.7-3.4,12-15.4,15.1-32.8c0.3-1.7,0.9-2,1.7-1.4
			c0.9,0.6,1.4,3.1,0.9,6.6c-0.9,6-2.3,12-4.8,18.2c-2.6,6.3-6.6,10.8-12,13.4C367.4,228.9,360.3,225.4,357.4,219.2z M364,203.8
			c2.9-2,6.8-5.1,9.1-7.7c4.8-6.3,2.3-10.8-0.9-9.4C367.4,188.7,364.2,196.4,364,203.8z"/>
		<path d="M412.1,191.5c0.3-1.7,1.1-1.7,1.7-0.9c0.6,0.6,1.1,2.3,0.6,5.4c-0.9,4.8-3.4,12.5-10.3,15.7c-7.7,3.4-13.4-2.8-13.4-12.5
			c0.3-7.1,0.6-27.9,1.7-40.8c1.7-18.8,4.6-31.9,12-35.3c6-2.8,10.8,3.4,7.1,16.5c-2.3,8.8-6.3,18.8-11.4,28.2
			c-0.6,13.1-1.4,26.2-1.4,33.1c0,6,2.6,8,5.1,6.8C407.8,205.8,410.7,199.8,412.1,191.5z M400.7,160.7l4.3-10.8
			c3.7-9.7,5.1-16.2,4.3-20.2c-0.9-3.7-2-5.1-3.7-4.6c-4,1.7-4.3,12.8-4.8,28.2V160.7z"/>
	</g>
	<g>
		<path d="M130.5,108.6c1.1,0.9,0.9,3.7,0,6.6c-2.3,6.3-8,12-15.1,14.8c-2,9.7-8,19.1-19.4,24.5c-6.3,2.9-13.1,3.1-20.8,0.9
			c-7.4-2.3-13.1-7.7-17.1-16c-12.5-26.8,3.1-54.7,21.7-65.3c-10.5-6.8-17.1-27.1-4.6-41c10-11.1,27.4-14,33.6-0.9
			c2,4.3,2.3,8.3,0.3,12c-1.7,3.7-3.4,6.3-5.4,7.4c-3.4,1.7-5.1-1.7-2-3.4c4.8-2.9,6-9.1,4-13.7c-3.1-6.8-9.7-8.3-15.4-5.4
			c-15.7,7.4-18.2,31.3-5.4,41.6c1.1-0.6,3.1-1.1,6-1.1c2.6-0.3,4.3,0.6,4.8,2.9c0.3,2-0.6,3.4-3.1,4.3c-2.6,0.9-5.1,0.9-7.1-0.3
			c-18.8,9.7-29.4,37.9-18.8,60.7c2.8,6,6.8,10.5,12,13.7c5.1,3.1,10.5,3.4,16.2,0.6c8.3-3.7,12.8-11.7,14-19.9
			c-4.6,0.3-10-0.6-14.2-3.7c-12.8-8.8-12.8-26.5-2.6-31.3c14-6.6,25.4,11.1,23.7,29.4c6-2.8,11.4-8.5,13.1-16.2
			C129.1,108.3,129.7,108,130.5,108.6z M100.9,127.4c2.6,1.1,5.4,1.1,8.5,0.9c1.1-15.7-7.1-31.9-15.7-27.9
			C83.8,104.6,88.9,123.7,100.9,127.4z"/>
		<path d="M193.5,79.8c0-1.7,0.9-2,1.4-1.4c0.9,0.6,1.1,3.1,0.9,6.3c-0.9,6-2,11.7-4,17.7c-1.7,6-4.8,10-9.1,12
			c-4.8,2.3-9.4,0.3-11.1-3.7c-3.7-8,3.7-19.9,0.9-25.9c-0.9-1.7-2-2.3-3.7-1.4c-8.3,3.7-10,30.5-10.8,39.9c0,1.4-0.6,2.3-2.3,3.1
			l-3.7,2c-1.7,0.9-2.6,0-2.3-2.6c0-1.1,0.3-4.6,0.9-10.5l1.4-15.7c0.6-5.7-2.3-7.4-5.1-6c-2.8,1.4-6.6,9.4-9.1,23.7
			c-1.4,8.5-2,13.7-2.6,17.1c-0.3,1.1-0.6,2.3-2.3,3.1l-2.6,1.1c-1.4,0.6-2.3-0.3-2.3-2.3c0.3-10.5,0.6-25.4,1.4-37.6
			c0-1.4,0.9-2.6,2.3-3.1l3.7-1.7c1.7-0.9,2.6,0,2.3,2.3l-1.1,12.3c2.6-10.5,5.7-17.1,10.8-19.7c6.3-3.1,10.8,0.6,12,6.6
			c1.7-8.6,5.1-14.8,9.7-16.8c4.8-2.3,9.1-0.6,10.8,3.4c3.7,8-3.4,20.8-0.6,27.1c0.6,1.4,2,2,3.4,1.1
			C187,108.3,190.4,97.5,193.5,79.8z"/>
		<path d="M216.6,69.3c0-1.7,0.9-2,1.7-1.4c0.9,0.6,1.4,3.1,0.9,6.6c-0.9,6-2,11.7-4,17.7c-1.7,6-4.8,9.7-8.8,12
			c-7.7,3.4-13.7-2-13.1-11.1c0.3-4.8,0.6-8.6,0.6-11.1l1.1-13.4c0-1.4,0.6-2.3,2.3-3.1l4.3-2c1.7-0.9,2.6,0,2.3,2.3l-2,27.1
			c-0.3,5.7,1.7,8.5,4.6,7.4C210.1,97.8,213.5,86.6,216.6,69.3z M198.1,40.5c2-0.9,4.6,0,5.4,2c0.9,2,0,4.6-2,5.7
			c-2,0.9-4.8,0-5.7-2C195,43.9,196.1,41.3,198.1,40.5z"/>
		<path d="M218,39.3c1.7-19.1,4.8-32.2,12-35.6c6-2.8,10.8,3.4,7.1,16.5c-2.3,8.8-6.3,18.8-11.4,28.2c-0.6,13.1-1.4,26.2-1.4,33.1
			c0,6,2.6,8,5.1,6.8c4.6-2,10-13.7,12.5-31.3c0-1.7,0.9-2,1.7-1.4c1.1,1.1,1.4,3.4,0.9,6.6c-0.9,6-2.6,12-4.8,18.2
			c-2.3,6.3-5.7,10.3-10,12.3c-7.7,3.4-13.4-2.9-13.4-12.5C216.3,72.7,216.9,52.2,218,39.3z M226.3,41.9l4.3-10.8
			c3.7-9.7,5.1-16.2,4.3-20.2c-0.9-3.7-2-5.1-3.7-4.6c-4,1.7-4.3,12.8-4.8,28.2V41.9z"/>
		<path d="M267.3,80.4c-1.1,9.4-2.8,18-5.1,25.4c-2.3,7.4-6.8,12.8-13.1,15.7c-5.1,2.3-10,0.6-11.7-3.4s-0.9-10.5,6-18.2
			c4.8-5.4,10.8-11.1,16.2-16.5c0.6-2.6,1.7-8,1.7-11.1c-1.1,2-3.4,7.1-8,9.4c-7.4,3.4-13.4-2.3-13.1-11.4c0.3-4.8,0.6-8.5,0.9-11.1
			l1.1-13.4c0.3-1.1,0.6-2.3,2.3-3.1l4-2c1.7-0.9,2.6-0.3,2.3,2.3c-0.6,2.3-1.7,18.2-2.6,27.1c-0.6,5.7,2.3,8,4.6,6.8
			c4-1.7,6.8-9.1,8.6-26.8l0.6-7.4c0-1.4,0.3-3.4,0.6-6.8c0.3-1.1,0.6-2,2.3-2.9l4.6-2c1.4-0.6,2,0.3,2,2.6
			c-0.6,2.3-1.4,18.2-2.6,27.1l-1.4,14.2V80.4z M258.5,88.9c-8.5,8.3-14.8,14.2-17.7,20.2c-2.9,6.6,1.1,12,6.3,9.7
			C253.9,115.4,256.5,103.5,258.5,88.9z"/>
	</g>
	<g>
		<path d="M256.5,86.4c0,0,2.6-2.3,7.7-6.6s12.8-10.3,23.4-17.1c5.4-3.4,11.4-6.8,18.2-9.7c3.4-1.4,7.4-2.8,11.4-3.7
			c4-0.9,8.6-1.4,13.1-0.3c2.3,0.6,4.6,1.7,6.3,3.7c1.7,1.7,2.9,4.3,3.7,6.6c0.3,1.1,0.6,2.6,0.6,3.7c0,1.4,0,2.6,0,3.7
			c-0.3,2.6-0.9,5.1-1.7,7.4c-1.7,4.8-4.6,9.1-7.4,13.4c-3.1,4.3-6.6,8-10.5,12c-7.7,7.4-16.5,14.5-25.6,21.4
			c-9.4,6.6-19.1,13.4-29.9,19.4c-21.4,12-44.7,22.8-69.8,32.2c-12.5,4.6-25.6,8.5-39.3,10.3c-3.4,0.3-7.1,0.6-10.5,0.3
			c-3.4-0.3-7.4-0.9-10.5-2.9c-1.7-0.9-3.1-2.3-4.3-4c-0.6-0.9-1.1-1.7-1.4-2.6c-0.3-1.1-0.6-1.7-0.9-2.6c-1.1-3.7-0.9-8,0.6-11.4
			c1.4-3.7,4.3-6.6,7.1-8.8c2.8-2.6,6-4.3,9.1-6c6.6-3.4,13.4-6,20.2-7.7c7.1-2,14.2-3.1,21.4-4c7.1-0.9,14.2-1.4,21.4-2
			c14.2-0.9,28.8-0.9,43,0c7.1,0.3,14.2,0.9,21.4,2c3.4,0.6,7.1,0.9,10.5,1.7c3.4,0.6,6.8,1.1,10.3,1.7c27.4,4.3,54.7,6.8,80.9,5.7
			c6.6-0.3,13.1-0.6,19.1-2c3.1-0.9,6-2,8.3-3.7s4-4,4.3-6.8c0.3-1.4,0-2.8-0.3-4c-0.3-1.1-1.1-2-2-2.6c-2.3-1.4-5.4-1.7-8.3-2
			c-6-0.3-12.3,0.6-18,1.4c-12,2-23.4,5.4-34.2,8.8c-10.8,3.7-21.1,7.7-30.8,11.7c-19.4,8.6-36.5,17.7-51,27.4
			c-14.2,9.7-25.7,19.4-33.1,29.4c-3.7,4.8-6.3,9.7-7.7,14c-1.4,4.3-2,8.3-1.7,11.4c0.3,3.1,0.9,5.4,1.4,7.1
			c0.6,1.4,0.9,2.3,0.9,2.3l-2.9,1.4c0,0-0.3-0.9-1.1-2.6c-0.6-1.7-1.4-4.3-1.7-8c-0.3-3.4,0.3-8,1.7-12.5c1.7-4.8,4.3-10,8.3-14.8
			c7.7-10.3,19.4-20.2,33.6-29.9c14.5-9.7,31.9-19.1,51.3-27.4c9.7-4.3,20.2-8.3,31.1-12c10.8-3.7,22.5-6.8,34.5-9.1
			c6-1.1,12.3-2,18.8-1.7c3.1,0.3,6.6,0.6,10,2.3c1.7,0.9,3.1,2.6,3.7,4.6c0.6,2,0.6,3.7,0.6,5.4c-0.3,3.7-2.6,7.1-5.4,9.4
			s-6,3.7-9.1,4.8c-6.3,2.6-13.1,3.7-20,4.8c-6.8,0.9-13.7,1.1-20.5,1.1s-13.7-0.3-20.5-0.9c-13.7-0.9-27.6-2.3-41.6-4.3
			c-3.4-0.6-6.8-1.1-10.5-1.7c-3.4-0.6-6.8-1.1-10.3-1.7c-6.8-0.9-13.7-1.4-20.8-2c-14-0.9-27.9-0.9-41.9-0.3
			c-14,0.6-27.9,2.3-41.6,4.8c-6.8,1.1-13.7,2.6-20,5.1c-6.3,2.3-12.5,6-15.1,11.7c-1.4,2.9-1.4,6-0.6,9.1c0,0.6,0.6,1.7,0.6,2.3
			c0.3,0.6,0.6,1.4,1.1,2c0.9,1.1,2,2.3,3.1,3.1c2.6,1.4,6,2.3,9.1,2.6c3.4,0.3,6.6,0,10-0.3c13.4-1.7,26.2-5.7,38.8-10.3
			c13.1-5.1,25.4-10.3,36.8-15.7c11.7-5.4,22.8-11.1,33.3-17.1c10.5-6,20.2-12.5,29.6-19.4c9.1-6.6,18-13.7,25.4-21.1
			c7.4-7.4,14-15.4,17.4-23.9c0.9-2.3,1.4-4.3,1.4-6.6c0-1.1,0-2.3,0-3.1c0-1.1-0.3-2-0.6-3.1c-0.6-2-1.4-3.7-2.9-5.1
			c-1.4-1.4-3.1-2.3-4.8-2.8c-3.7-1.1-8-0.6-11.7,0.3c-3.7,0.9-7.4,2-10.8,3.4c-6.8,2.9-12.8,6.3-18,9.4
			c-10.5,6.6-18,12.5-23.1,16.8c-5.1,4.3-7.7,6.6-7.7,6.6L256.5,86.4z"/>
	</g>
</g>
</svg>
