<?xml version="1.0" encoding="utf-8"?>
<!-- Generator: Adobe Illustrator 18.1.1, SVG Export Plug-In . SVG Version: 6.00 Build 0)  -->
<svg version="1.1" id="Layer_1" xmlns="http://www.w3.org/2000/svg" xmlns:xlink="http://www.w3.org/1999/xlink" x="0px" y="0px"
	 viewBox="0 0 130 120" enable-background="new 0 0 130 120" xml:space="preserve">
  	 <title>Emily and Michael</title>
<g>
	<g>
		<path d="M50,101.8c-0.4-7,2.4-19.5,2.5-27.2c0.1-6.7-1.6-9-3.8-7.9c-1.6,0.7-2.6,2.6-3.2,5.5c-0.6,2.9-1,6-1.2,9.4
			c-0.2,4.1-0.6,10.9-1.1,16.9l-0.6,8.3l-0.4,5.1c0,0.5-0.2,0.8-0.8,1.1l-1.4,0.7c-0.6,0.3-0.9,0-0.8-0.8c0-1.4,0.2-3.6,0.3-6.8
			c0.2-3.2,0.4-6.5,0.7-10.1l0.7-10.2c0.3-3.3,0.4-5.7,0.5-7.2c0.3-6.6-2.1-8.9-4.2-7.9c-3.8,1.8-3.8,9.7-4.3,17.4
			c0,0-0.1,1.4-0.2,4.1l-0.6,9.1l-0.7,9.8L31,117c0,0.5-0.2,0.8-0.8,1.1l-1.5,0.7c-0.6,0.3-0.9,0-0.8-0.8c0-0.2,0.1-2,0.3-5.5
			l0.7-11.6l0.8-12c0.2-3.8,0.4-6.1,0.4-6.9c0.3-6.8-2.5-9.2-5.7-7.6c-1.7,0.8-3.2,2.5-4.4,5c-1.2,2.5-1.9,5.2-1.9,8.2
			c0,3.5,1.1,6,3.1,5c1.6-0.7,2.5-3.5,2.5-8.6c0.1-0.9-0.1-1.7,0.4-1.9c0.5,0,0.8,0.5,0.8,1.7c0,5.8-1.2,9-3.3,9.9
			c-2.6,1.2-5.2-0.6-5.6-4.7c-0.5-5.7,2.4-13.2,7.7-15.7c3.6-1.7,7.3-0.4,8.7,3.4c0.6-3.8,1.9-6.4,4.3-7.5c3.1-1.4,5.8,0.6,6.9,5.2
			c0.5-4.5,2.1-7.9,4.7-9.1c4.1-1.9,7.2,2.2,7,11c-0.2,7.3-2.7,19.8-2.5,25.2c0.1,2.9,0.9,4,2.4,3.3c1.6-0.7,2.6-4.2,3.6-10.5
			c0-0.6,0.4-0.8,0.6-0.5c0.3,0.2,0.3,1.3,0.3,2.5c-0.3,2.8-1.3,8.6-4.4,10C52.8,107.4,50.2,105.7,50,101.8z"/>
		<path d="M66.9,90.8c0-0.6,0.3-0.7,0.6-0.5c0.3,0.2,0.5,1.1,0.3,2.3c-0.3,2.1-0.7,4.1-1.4,6.2
			c-0.6,2.1-1.7,3.4-3.1,4.2c-2.7,1.2-4.8-0.7-4.6-3.9c0.1-1.7,0.2-3,0.2-3.9l0.4-4.7c0-0.5,0.2-0.8,0.8-1.1l1.5-0.7
			c0.6-0.3,0.9,0,0.8,0.8L61.5,99c-0.1,2,0.6,3,1.6,2.6C64.6,100.8,65.8,97,66.9,90.8z M60.4,80.7c0.7-0.3,1.6,0,1.9,0.7
			c0.3,0.7,0,1.6-0.7,2c-0.7,0.3-1.7,0-2-0.7C59.4,82,59.7,81.1,60.4,80.7z"/>
		<path d="M67.2,96.2c-1.7-3.6,0.2-10.6,4.3-12.6c2-0.9,3.3,0.2,3.4,1.7c0,1.4-0.6,2.7-1.5,3.1
			c-0.7,0.4-1.1-0.2-0.6-0.9c1.5-2,0.6-3.4-0.5-2.9c-1.2,0.6-2.1,2-2.7,4.4c-0.6,2.3-0.4,4.4,0.4,6.3c0.8,1.7,2,2.1,3.3,1.5
			c2.7-1.2,3.9-5.2,5-11.4c0.1-0.6,0.3-0.7,0.6-0.5c0.3,0.2,0.5,1.1,0.3,2.3c-0.3,2.1-0.8,4.2-1.7,6.4c-0.8,2.2-2.2,3.7-4.1,4.6
			C70.4,99.7,68.3,98.4,67.2,96.2z"/>
		<path d="M80.9,83.2c0.5-2.1,1.6-4.1,3.2-4.9c1.7-0.8,3.2-0.2,3.8,1.2c1.3,2.8-1.2,7.6-0.3,9.4
			c0.3,0.6,0.8,0.8,1.2,0.5c1.9-0.9,3.1-5.3,3.8-10.7c0-0.6,0.3-0.7,0.6-0.5c0.3,0.2,0.5,1.1,0.3,2.3c-0.3,2.1-0.7,4.1-1.4,6.2
			c-0.6,2.1-1.7,3.4-3.2,4.2c-1.7,0.8-3.3,0.1-4-1.3c-1.3-2.8,1.3-7,0.4-9.1c-0.3-0.6-0.9-0.8-1.5-0.4c-1,0.7-2.5,3.3-3.1,7.9
			c-0.3,2.3-0.4,4-0.5,6c0,0.5-0.3,0.9-0.8,1.1l-0.9,0.4c-0.6,0.3-0.9-0.2-0.9-0.9c0.4-4.4,0.7-10.7,1.1-19.7
			c0.6-6.9,1.6-11.2,4.2-12.4c2.1-1,3.8,1.2,2.5,5.8c-0.8,3.1-2.4,6.8-4.2,10.1C81.2,79.2,81,81.1,80.9,83.2z M81.3,76.3
			c0.5-1.3,1.4-3.1,1.8-4.1c1.3-3.4,1.8-5.7,1.5-7.1c-0.3-1.3-0.7-1.8-1.3-1.6c-1.4,0.6-1.6,4.8-1.9,10L81.3,76.3z"/>
		<path d="M108,71.7c0-0.6,0.3-0.7,0.6-0.5c0.3,0.2,0.5,1.1,0.3,2.3c-0.3,2.1-0.7,4.1-1.4,6.2
			c-0.6,2.1-1.7,3.4-3.2,4.2c-1.6,0.7-3,0.5-4-1c-0.5,1.6-1.2,3.3-2.7,4c-1.8,0.8-3.2,0.5-4.3-1c-1.1-1.5-1.6-3.4-1.3-5.6
			c0.5-4.7,3-7.6,5.2-8.6c1.4-0.6,2.4-0.3,3,0.4l0.1-0.9c0-0.5,0.2-0.8,0.8-1.1l1.5-0.7c0.5-0.2,0.9,0,0.8,0.8l-0.7,9.8
			c-0.1,2,0.7,2.7,1.6,2.3C105.7,81.7,106.9,77.8,108,71.7z M99.9,74.5c0-1.8-1.3-2.1-2.1-1.7c-0.9,0.4-1.6,1.4-2.2,3
			c-0.5,1.6-0.8,3.1-0.9,4.7c-0.1,1.6,0.1,2.9,0.5,4.1c0.5,1.1,1.1,1.5,2,1C99.9,84.4,99.8,76.9,99.9,74.5z"/>
		<path d="M108.3,76.9c-0.9-2-1-4.3-0.1-7c0.9-2.7,2.3-4.5,4.5-5.5c2-0.9,3.3,0.2,3.4,1.7c0,1.4-0.6,2.9-2.4,4.6
			c-1.1,1-2.1,1.8-3,2.3c0,1,0.1,2.1,0.6,3.2c0.6,1.4,1.7,2.2,3.6,1.4c2.7-1.2,4.2-5.4,5.3-11.5c0.1-0.6,0.3-0.7,0.6-0.5
			c0.3,0.2,0.5,1.1,0.3,2.3c-0.3,2.1-0.8,4.2-1.7,6.4c-0.9,2.2-2.3,3.8-4.2,4.7C111.8,80.3,109.3,79.1,108.3,76.9z M110.6,71.5
			c1-0.7,2.4-1.8,3.2-2.7c1.7-2.2,0.8-3.8-0.3-3.3C111.8,66.2,110.7,68.9,110.6,71.5z"/>
		<path d="M127.5,67.2c0.1-0.6,0.4-0.6,0.6-0.3c0.2,0.2,0.4,0.8,0.2,1.9c-0.3,1.7-1.2,4.4-3.6,5.5
			c-2.7,1.2-4.7-1-4.7-4.4c0.1-2.5,0.2-9.8,0.6-14.3c0.6-6.6,1.6-11.2,4.2-12.4c2.1-1,3.8,1.2,2.5,5.8c-0.8,3.1-2.2,6.6-4,9.9
			c-0.2,4.6-0.5,9.2-0.5,11.6c0,2.1,0.9,2.8,1.8,2.4C126,72.2,127,70.1,127.5,67.2z M123.5,56.4l1.5-3.8c1.3-3.4,1.8-5.7,1.5-7.1
			c-0.3-1.3-0.7-1.8-1.3-1.6c-1.4,0.6-1.5,4.5-1.7,9.9L123.5,56.4z"/>
	</g>
	<g>
		<path d="M28.7,38.1c0.4,0.3,0.3,1.3,0,2.3c-0.8,2.2-2.8,4.2-5.3,5.2c-0.7,3.4-2.8,6.7-6.8,8.6
			c-2.2,1-4.6,1.1-7.3,0.3c-2.6-0.8-4.6-2.7-6-5.6c-4.4-9.4,1.1-19.2,7.6-22.9c-3.7-2.4-6-9.5-1.6-14.4c3.5-3.9,9.6-4.9,11.8-0.3
			c0.7,1.5,0.8,2.9,0.1,4.2c-0.6,1.3-1.2,2.2-1.9,2.6c-1.2,0.6-1.8-0.6-0.7-1.2c1.7-1,2.1-3.2,1.4-4.8c-1.1-2.4-3.4-2.9-5.4-1.9
			c-5.5,2.6-6.4,11-1.9,14.6c0.4-0.2,1.1-0.4,2.1-0.4c0.9-0.1,1.5,0.2,1.7,1c0.1,0.7-0.2,1.2-1.1,1.5c-0.9,0.3-1.8,0.3-2.5-0.1
			C6.3,30.2,2.6,40.1,6.3,48.1c1,2.1,2.4,3.7,4.2,4.8c1.8,1.1,3.7,1.2,5.7,0.2c2.9-1.3,4.5-4.1,4.9-7c-1.6,0.1-3.5-0.2-5-1.3
			c-4.5-3.1-4.5-9.3-0.9-11c4.9-2.3,8.9,3.9,8.3,10.3c2.1-1,4-3,4.6-5.7C28.2,38,28.4,37.9,28.7,38.1z M18.3,44.7
			c0.9,0.4,1.9,0.4,3,0.3c0.4-5.5-2.5-11.2-5.5-9.8C12.3,36.7,14.1,43.4,18.3,44.7z"/>
		<path d="M50.8,28c0-0.6,0.3-0.7,0.5-0.5c0.3,0.2,0.4,1.1,0.3,2.2c-0.3,2.1-0.7,4.1-1.4,6.2
			c-0.6,2.1-1.7,3.5-3.2,4.2c-1.7,0.8-3.3,0.1-3.9-1.3c-1.3-2.8,1.3-7,0.3-9.1c-0.3-0.6-0.7-0.8-1.3-0.5c-2.9,1.3-3.5,10.7-3.8,14
			c0,0.5-0.2,0.8-0.8,1.1L36.2,45c-0.6,0.3-0.9,0-0.8-0.9c0-0.4,0.1-1.6,0.3-3.7l0.5-5.5c0.2-2-0.8-2.6-1.8-2.1
			c-1,0.5-2.3,3.3-3.2,8.3c-0.5,3-0.7,4.8-0.9,6c-0.1,0.4-0.2,0.8-0.8,1.1l-0.9,0.4c-0.5,0.2-0.8-0.1-0.8-0.8
			c0.1-3.7,0.2-8.9,0.5-13.2c0-0.5,0.3-0.9,0.8-1.1l1.3-0.6c0.6-0.3,0.9,0,0.8,0.8L30.8,38c0.9-3.7,2-6,3.8-6.9
			c2.2-1.1,3.8,0.2,4.2,2.3c0.6-3,1.8-5.2,3.4-5.9c1.7-0.8,3.2-0.2,3.8,1.2c1.3,2.8-1.2,7.3-0.2,9.5c0.2,0.5,0.7,0.7,1.2,0.4
			C48.5,38,49.7,34.2,50.8,28z"/>
		<path d="M58.9,24.3c0-0.6,0.3-0.7,0.6-0.5c0.3,0.2,0.5,1.1,0.3,2.3c-0.3,2.1-0.7,4.1-1.4,6.2
			c-0.6,2.1-1.7,3.4-3.1,4.2c-2.7,1.2-4.8-0.7-4.6-3.9c0.1-1.7,0.2-3,0.2-3.9l0.4-4.7c0-0.5,0.2-0.8,0.8-1.1l1.5-0.7
			c0.6-0.3,0.9,0,0.8,0.8l-0.7,9.5c-0.1,2,0.6,3,1.6,2.6C56.6,34.3,57.8,30.4,58.9,24.3z M52.4,14.2c0.7-0.3,1.6,0,1.9,0.7
			c0.3,0.7,0,1.6-0.7,2c-0.7,0.3-1.7,0-2-0.7C51.3,15.4,51.7,14.5,52.4,14.2z"/>
		<path d="M59.4,13.8C60,7.1,61.1,2.5,63.6,1.3c2.1-1,3.8,1.2,2.5,5.8c-0.8,3.1-2.2,6.6-4,9.9
			c-0.2,4.6-0.5,9.2-0.5,11.6c0,2.1,0.9,2.8,1.8,2.4c1.6-0.7,3.5-4.8,4.4-11c0-0.6,0.3-0.7,0.6-0.5c0.4,0.4,0.5,1.2,0.3,2.3
			c-0.3,2.1-0.9,4.2-1.7,6.4c-0.8,2.2-2,3.6-3.5,4.3c-2.7,1.2-4.7-1-4.7-4.4C58.8,25.5,59,18.3,59.4,13.8z M62.3,14.7l1.5-3.8
			c1.3-3.4,1.8-5.7,1.5-7.1C65,2.5,64.6,2,64,2.2c-1.4,0.6-1.5,4.5-1.7,9.9L62.3,14.7z"/>
		<path d="M76.7,28.2c-0.4,3.3-1,6.3-1.8,8.9c-0.8,2.6-2.4,4.5-4.6,5.5c-1.8,0.8-3.5,0.2-4.1-1.2
			c-0.6-1.4-0.3-3.7,2.1-6.4c1.7-1.9,3.8-3.9,5.7-5.8c0.2-0.9,0.6-2.8,0.6-3.9c-0.4,0.7-1.2,2.5-2.8,3.3c-2.6,1.2-4.7-0.8-4.6-4
			c0.1-1.7,0.2-3,0.3-3.9l0.4-4.7c0.1-0.4,0.2-0.8,0.8-1.1l1.4-0.7c0.6-0.3,0.9-0.1,0.8,0.8c-0.2,0.8-0.6,6.4-0.9,9.5
			c-0.2,2,0.8,2.8,1.6,2.4c1.4-0.6,2.4-3.2,3-9.4l0.2-2.6c0-0.5,0.1-1.2,0.2-2.4c0.1-0.4,0.2-0.7,0.8-1l1.6-0.7
			c0.5-0.2,0.7,0.1,0.7,0.9c-0.2,0.8-0.5,6.4-0.9,9.5l-0.5,5L76.7,28.2z M73.6,31.2c-3,2.9-5.2,5-6.2,7.1c-1,2.3,0.4,4.2,2.2,3.4
			C72,40.5,72.9,36.3,73.6,31.2z"/>
	</g>
	<g>
		<path d="M72.9,30.3c0,0,0.9-0.8,2.7-2.3c1.8-1.5,4.5-3.6,8.2-6c1.9-1.2,4-2.4,6.4-3.4c1.2-0.5,2.6-1,4-1.3
			c1.4-0.3,3-0.5,4.6-0.1c0.8,0.2,1.6,0.6,2.2,1.3c0.6,0.6,1,1.5,1.3,2.3c0.1,0.4,0.2,0.9,0.2,1.3c0,0.5,0,0.9,0,1.3
			c-0.1,0.9-0.3,1.8-0.6,2.6c-0.6,1.7-1.6,3.2-2.6,4.7c-1.1,1.5-2.3,2.8-3.7,4.2c-2.7,2.6-5.8,5.1-9,7.5c-3.3,2.3-6.7,4.7-10.5,6.8
			c-7.5,4.2-15.7,8-24.5,11.3c-4.4,1.6-9,3-13.8,3.6c-1.2,0.1-2.5,0.2-3.7,0.1c-1.2-0.1-2.6-0.3-3.7-1c-0.6-0.3-1.1-0.8-1.5-1.4
			c-0.2-0.3-0.4-0.6-0.5-0.9c-0.1-0.4-0.2-0.6-0.3-0.9c-0.4-1.3-0.3-2.8,0.2-4c0.5-1.3,1.5-2.3,2.5-3.1c1-0.9,2.1-1.5,3.2-2.1
			c2.3-1.2,4.7-2.1,7.1-2.7c2.5-0.7,5-1.1,7.5-1.4c2.5-0.3,5-0.5,7.5-0.7c5-0.3,10.1-0.3,15.1,0c2.5,0.1,5,0.3,7.5,0.7
			c1.2,0.2,2.5,0.3,3.7,0.6c1.2,0.2,2.4,0.4,3.6,0.6c9.6,1.5,19.2,2.4,28.4,2c2.3-0.1,4.6-0.2,6.7-0.7c1.1-0.3,2.1-0.7,2.9-1.3
			c0.8-0.6,1.4-1.4,1.5-2.4c0.1-0.5,0-1-0.1-1.4c-0.1-0.4-0.4-0.7-0.7-0.9c-0.8-0.5-1.9-0.6-2.9-0.7c-2.1-0.1-4.3,0.2-6.3,0.5
			c-4.2,0.7-8.2,1.9-12,3.1c-3.8,1.3-7.4,2.7-10.8,4.1c-6.8,3-12.8,6.2-17.9,9.6c-5,3.4-9,6.8-11.6,10.3c-1.3,1.7-2.2,3.4-2.7,4.9
			c-0.5,1.5-0.7,2.9-0.6,4c0.1,1.1,0.3,1.9,0.5,2.5c0.2,0.5,0.3,0.8,0.3,0.8l-1,0.5c0,0-0.1-0.3-0.4-0.9c-0.2-0.6-0.5-1.5-0.6-2.8
			c-0.1-1.2,0.1-2.8,0.6-4.4c0.6-1.7,1.5-3.5,2.9-5.2c2.7-3.6,6.8-7.1,11.8-10.5c5.1-3.4,11.2-6.7,18-9.6c3.4-1.5,7.1-2.9,10.9-4.2
			c3.8-1.3,7.9-2.4,12.1-3.2c2.1-0.4,4.3-0.7,6.6-0.6c1.1,0.1,2.3,0.2,3.5,0.8c0.6,0.3,1.1,0.9,1.3,1.6c0.2,0.7,0.2,1.3,0.2,1.9
			c-0.1,1.3-0.9,2.5-1.9,3.3c-1,0.8-2.1,1.3-3.2,1.7c-2.2,0.9-4.6,1.3-7,1.7c-2.4,0.3-4.8,0.4-7.2,0.4c-2.4,0-4.8-0.1-7.2-0.3
			c-4.8-0.3-9.7-0.8-14.6-1.5c-1.2-0.2-2.4-0.4-3.7-0.6c-1.2-0.2-2.4-0.4-3.6-0.6c-2.4-0.3-4.8-0.5-7.3-0.7
			c-4.9-0.3-9.8-0.3-14.7-0.1c-4.9,0.2-9.8,0.8-14.6,1.7c-2.4,0.4-4.8,0.9-7,1.8c-2.2,0.8-4.4,2.1-5.3,4.1c-0.5,1-0.5,2.1-0.2,3.2
			c0,0.2,0.2,0.6,0.2,0.8c0.1,0.2,0.2,0.5,0.4,0.7c0.3,0.4,0.7,0.8,1.1,1.1c0.9,0.5,2.1,0.8,3.2,0.9c1.2,0.1,2.3,0,3.5-0.1
			c4.7-0.6,9.2-2,13.6-3.6C55.7,57.8,60,56,64,54.1c4.1-1.9,8-3.9,11.7-6c3.7-2.1,7.1-4.4,10.4-6.8c3.2-2.3,6.3-4.8,8.9-7.4
			c2.6-2.6,4.9-5.4,6.1-8.4c0.3-0.8,0.5-1.5,0.5-2.3c0-0.4,0-0.8,0-1.1c0-0.4-0.1-0.7-0.2-1.1c-0.2-0.7-0.5-1.3-1-1.8
			c-0.5-0.5-1.1-0.8-1.7-1c-1.3-0.4-2.8-0.2-4.1,0.1c-1.3,0.3-2.6,0.7-3.8,1.2c-2.4,1-4.5,2.2-6.3,3.3c-3.7,2.3-6.3,4.4-8.1,5.9
			c-1.8,1.5-2.7,2.3-2.7,2.3L72.9,30.3z"/>
	</g>
</g>
</svg>
