<?xml version="1.0" encoding="utf-8"?>
<!-- Generator: Adobe Illustrator 18.1.1, SVG Export Plug-In . SVG Version: 6.00 Build 0)  -->
<svg version="1.1" id="Layer_1" xmlns="http://www.w3.org/2000/svg" xmlns:xlink="http://www.w3.org/1999/xlink" x="0px" y="0px"
	 width="465px" height="106.6px" viewBox="1.5 117.7 465 106.6" enable-background="new 1.5 117.7 465 106.6" xml:space="preserve">
<g>
	<g>
		<path d="M285.8,188.4c5-12.4,19.9-31.9,26.2-45.1c5.5-11.5,4.4-16.8-0.2-16.8c-3.2,0-6.7,2.3-9.9,6.9c-3.2,4.4-6.5,9.6-9.6,15.3
			c-3.6,7.1-9.9,18.3-15.5,28.5l-7.6,13.9l-4.8,8.4c-0.4,0.8-1,1.3-2.1,1.3h-3.1c-1.3,0-1.5-0.8-0.8-2.1c1.1-2.5,3.2-6.1,6.1-11.7
			c2.9-5.3,5.9-11.1,9.4-17l9.4-17c3.1-5.5,5.3-9.6,6.7-12.2c5.9-11.1,3.4-17-0.8-17c-8,0-14.3,13.8-21.4,26.7c0,0-1.3,2.3-3.6,6.9
			l-8.4,15.3l-9.4,16.4l-5.7,10.3c-0.4,0.8-1,1.3-2.1,1.3h-3.1c-1.3,0-1.5-0.8-0.8-2.1c0.2-0.4,1.9-3.4,5-9.4l10.5-19.5l11.1-20.2
			c3.4-6.3,5.5-10.1,6.1-11.7c5.9-11.7,3.1-18-3.8-18c-3.6,0-7.4,1.7-11.7,5.2c-4.2,3.2-7.4,7.6-9.9,12.8
			c-2.9,5.9-3.1,11.3,1.3,11.3c3.2,0,7.1-4.2,11.3-12.8c0.8-1.5,1.3-3.1,2.1-3.1c1,0.4,1,1.5,0.2,3.6c-4.8,9.9-9.4,14.5-13.8,14.5
			c-5.3,0-8.6-5.3-5.9-12.8c3.6-10.1,14.9-21,26-21c7.6,0,13,5.2,12.4,13c4.2-6.1,8.4-9.6,13.6-9.6c6.5,0,9.6,5.7,7.8,14.5
			c4.6-7.4,10.1-11.8,15.5-11.8c8.8,0,10.7,9.6,3.2,24.6c-6.1,12.4-20.6,32.3-24.6,41.6c-2.1,5-1.7,7.6,1.5,7.6s7.8-5.2,14.7-15.3
			c0.6-1,1.3-1,1.3-0.4c0.4,0.6-0.4,2.5-1.5,4.4c-2.7,4.6-9.2,13.8-15.7,13.8C286.1,200.4,282.9,195.3,285.8,188.4z"/>
		<path d="M324,183c0.6-1,1-1,1.3-0.4c0.4,0.6-0.2,2.3-1.3,4.2c-2.1,3.2-4.6,6.5-7.4,9.6c-2.7,3.1-5.7,4.6-8.8,4.8
			c-5.5,0-7.6-5-4.8-10.5c1.5-2.9,2.7-5,3.6-6.5l4.4-7.8c0.4-0.8,1-1.3,2.1-1.3h3.1c1.3,0,1.5,0.8,0.8,2.1l-9,15.9
			c-1.9,3.2-1.5,5.7,0.8,5.7C311.9,198.5,317.1,192.8,324,183z M320.9,160.3c1.5,0,2.7,1.3,2.7,2.7s-1.3,2.9-2.7,2.9
			c-1.5,0-2.9-1.3-2.9-2.9S319.4,160.3,320.9,160.3z"/>
		<path d="M320.2,192.6c0-7.6,9-18.1,17.6-18.1c4.2,0,5.5,3.1,4.4,5.5c-1,2.5-3.2,4.2-5,4.2c-1.5,0.2-1.9-1.3-0.4-2.1
			c4.2-2.3,3.8-5.3,1.3-5.3s-5.3,1.9-8.2,5.3c-2.9,3.6-4.4,7.3-4.4,11.3c0,3.6,1.7,5.3,4.6,5.3c5.5,0,11.1-5.9,18-15.7
			c0.6-1,1-1,1.3-0.4c0.4,0.6-0.2,2.3-1.3,4.2c-2.1,3.2-4.8,6.5-8,9.7c-3.1,3.1-6.7,4.8-10.9,4.8
			C322.8,201.2,320.2,197.2,320.2,192.6z"/>
		<path d="M354.3,181.1c2.7-3.2,6.1-5.9,9.4-5.9c3.6,0,5.5,2.3,5.5,5.2c0,5.9-8.2,12.2-8.2,16c0,1.3,0.8,1.9,1.7,1.9
			c4,0,9.6-6.7,15.3-15.5c0.6-1,1.1-1,1.5-0.4c0.4,0.6-0.2,2.3-1.3,4.2c-2.1,3.2-4.6,6.5-7.3,9.6c-2.7,3.1-5.7,4.6-9,4.8
			c-3.6,0-5.9-2.5-5.9-5.3c0-5.9,8-11.1,8-15.5c0-1.3-1-2.1-2.1-1.9c-2.3,0.4-7.1,3.8-11.7,11.3c-2.5,3.8-3.8,6.7-5.7,9.9
			c-0.4,0.8-1.1,1.3-2.1,1.3h-1.9c-1.3,0-1.3-1.1-0.8-2.1c4.2-7.3,9.9-18,17.8-33.2c6.5-11.5,11.8-18.1,17.2-18.1
			c4.4,0,5.5,5.2-0.4,12.2c-3.8,4.8-9.6,9.9-15.5,14.1C358.2,174.4,356.3,177.7,354.3,181.1z M360.6,169.5c1.9-1.9,5-4.2,6.5-5.7
			c5-4.8,7.8-8.4,8.4-11.1c0.6-2.5,0.2-3.8-1-3.8c-2.9,0-6.7,7.1-11.3,15.9L360.6,169.5z"/>
		<path d="M410.5,183c0.6-1,1-1,1.3-0.4c0.4,0.6-0.2,2.3-1.3,4.2c-2.1,3.2-4.6,6.5-7.4,9.6c-2.7,3.1-5.7,4.6-9,4.8
			c-3.2,0-5.5-1.5-6.1-5c-2.1,2.5-4.8,4.8-7.8,4.8c-3.8,0-5.9-1.7-6.7-5.2c-0.8-3.6,0-7.1,2.1-10.7c4.8-7.8,11.3-10.7,15.9-10.7
			c2.9,0,4.4,1.3,5,3.1l1-1.3c0.4-0.8,1-1.3,2.1-1.3h3.1c1,0,1.5,0.8,0.8,2.1l-9.2,16.4c-1.9,3.2-1,5.3,1,5.3
			C398.5,198.5,403.6,192.8,410.5,183z M394.3,181.5c1.5-3.1-0.4-4.8-2.1-4.8c-1.9,0-4,1.1-6.1,3.4c-2.1,2.3-3.8,4.8-5.3,7.4
			c-1.3,2.7-2.1,5.2-2.5,7.4c-0.2,2.3,0.8,3.4,2.7,3.4C386.4,198.5,392.2,185.5,394.3,181.5z"/>
		<path d="M406.9,192.4c0-4.2,1.9-8.2,5.3-12.2c3.6-3.8,7.6-5.9,12.2-5.9c4.2,0,5.5,3.1,4.4,5.5c-1,2.5-3.2,4.4-7.8,5.9
			c-2.7,0.8-5.2,1.3-7.1,1.5c-0.8,1.7-1.5,3.6-1.5,6.1c0,2.9,1.1,5.3,5.2,5.3c5.5,0,11.7-5.9,18.5-15.7c0.6-1,1-1,1.3-0.4
			c0.4,0.6-0.2,2.3-1.3,4.2c-2.1,3.2-4.8,6.5-8.2,9.7c-3.2,3.1-7.1,4.8-11.1,4.8C410.1,201.2,406.9,197,406.9,192.4z M415.1,184.9
			c2.5-0.4,5.5-1.1,7.6-2.1c4.8-2.5,4.4-5.9,2.1-5.9C421.6,176.7,417.6,180.4,415.1,184.9z"/>
		<path d="M447.9,191.1c0.6-1,1.1-0.8,1.3-0.2s0,1.7-1.3,3.4c-1.9,2.7-5.7,6.7-10.7,6.5c-5.5,0-7.3-5.5-4.4-11.5
			c2.1-4.4,8.2-16.8,12.6-24.3c6.5-11.1,11.8-18.1,17.4-18.1c4.4,0,5.5,5.2-0.4,12.2c-3.8,4.8-9,9.6-14.9,13.9
			c-4.2,7.8-8.2,15.7-10.1,19.7c-1.7,3.6-0.8,5.5,1.1,5.5C441.3,198.3,444.7,195.6,447.9,191.1z M449.7,169.1l5.5-5.3
			c5-4.8,7.8-8.4,8.4-11.1c0.6-2.7,0.2-3.8-1-3.8c-2.9,0-6.1,6.5-10.9,15.7L449.7,169.1z"/>
	</g>
	<g>
		<path d="M54.4,182.7c0.4,1-0.4,2.5-1.9,4c-3.1,3.2-8.2,5-13.4,4.8c-4,5.3-10.3,9.4-18.7,9.4c-4.8,0-9-1.9-13-5.3
			c-3.8-3.6-5.9-8.4-5.9-14.5c0-19.9,17.4-32.3,31.7-33.6c-4.4-7.3-2.7-21.4,9-26.4c9.2-4,20.6-0.8,20.6,9c0,3.1-1,5.5-3.2,7.4
			c-2.1,1.9-3.8,2.7-5.3,2.9c-2.7,0.2-2.7-2.5-0.4-2.7c3.6-0.4,6.3-3.8,6.3-7.3c0-5-3.6-7.6-7.8-7.6c-11.7,0-19.9,13.9-15.1,23.7
			c0.8-0.2,2.1,0.2,3.8,1c1.7,0.6,2.5,1.5,2.1,3.1c-0.4,1.3-1.3,1.9-3.2,1.7c-1.9-0.2-3.2-1-4.4-2.1c-13.6,1-27.9,15.1-27.9,31.9
			c0,4.4,1.1,8.4,3.2,11.7s5.5,5,9.7,5c6.1,0,11.1-3.4,14.1-8.2c-2.9-1-5.9-3.1-7.6-6.1c-5.2-8.8-0.4-19.7,7.3-19.7
			c10.3,0,12.2,13.9,6.1,24.5c4.4,0,9.4-1.9,12.6-6.1C53.7,182.1,54.1,182.1,54.4,182.7z M31.1,185.5c1.3,1.3,3.1,2.3,5,2.9
			c5.2-9.2,4.8-21.4-1.5-21.4C27.1,167,24.8,180,31.1,185.5z"/>
		<path d="M100.9,183c0.6-1,1.1-1,1.3-0.4c0.4,0.6-0.2,2.3-1.3,4.2c-2.1,3.2-4.6,6.5-7.4,9.6c-2.7,3.1-5.7,4.8-9,4.8
			c-3.6,0-5.7-2.5-5.7-5.3c0-5.9,7.8-11.1,7.8-15.5c0-1.3-0.6-1.9-1.9-1.9c-6.1,0-14.7,15.9-18,21.2c-0.4,0.8-1,1.3-2.1,1.3h-2.9
			c-1.3,0-1.5-0.8-0.8-2.1c0.4-0.8,1.5-2.7,3.6-6.1l5.3-9.2c1.9-3.2,0.8-5.2-1.5-5c-2.1,0.2-6.7,3.8-12.2,11.7
			c-3.2,4.8-5,7.6-6.3,9.6c-0.4,0.2-1,0.8-2.1,0.8h-1.9c-1,0-1.3-0.8-0.8-2.1c3.2-6.3,7.6-15.1,11.7-22.5c0.4-0.8,1.1-1.3,2.1-1.3
			h2.7c1.3,0,1.5,0.8,0.8,2.1l-4.2,7.3c4.4-5.5,8.4-8.8,12.2-8.8c4.6-0.2,6.5,3.2,5.3,7.4c3.6-4.8,7.3-7.4,10.7-7.4
			c3.6,0,5.5,2.3,5.5,5.2c0,5.9-8,11.7-8,16.2c0,1,0.8,1.7,1.7,1.7C88.8,198.5,94,192.8,100.9,183z"/>
		<path d="M117.9,183c0.6-1,1-1,1.3-0.4s-0.2,2.3-1.3,4.2c-2.1,3.2-4.6,6.5-7.4,9.6c-2.7,3.1-5.7,4.6-8.8,4.8c-5.5,0-7.6-5-4.8-10.5
			c1.5-2.9,2.7-5,3.6-6.5l4.4-7.8c0.4-0.8,1-1.3,2.1-1.3h3.1c1.3,0,1.5,0.8,0.8,2.1l-9,15.9c-1.9,3.2-1.5,5.7,0.8,5.7
			C105.8,198.5,111,192.8,117.9,183z M114.8,160.3c1.5,0,2.7,1.3,2.7,2.7s-1.3,2.9-2.7,2.9c-1.5,0-2.9-1.3-2.9-2.9
			S113.3,160.3,114.8,160.3z"/>
		<path d="M127.2,165.3c6.5-11.1,11.8-18.1,17.4-18.1c4.4,0,5.5,5.2-0.4,12.2c-3.8,4.8-9,9.6-14.9,13.9c-4.2,7.8-8.2,15.7-10.1,19.7
			c-1.7,3.6-0.8,5.5,1.1,5.5c3.2,0,9.9-5.3,16.4-15.5c0.6-1,1-1,1.3-0.4c0.4,1-0.2,2.5-1.3,4.2c-2.1,3.2-5,6.5-8.2,9.6
			c-3.1,3.1-6.3,4.6-9.6,4.6c-5.5,0-7.3-5.5-4.4-11.5C116.7,185.1,122.8,172.7,127.2,165.3z M131.4,169.1l5.5-5.3
			c5-4.8,7.8-8.4,8.4-11.1c0.6-2.5,0.2-3.8-1-3.8c-2.9,0-6.1,6.5-10.9,15.7L131.4,169.1z"/>
		<path d="M154.9,197.6c3.2-1.9,5.7-4,7.6-6.5c0.6-1,1.1-0.8,1.3-0.2c0.2,0.6,0.2,2.1-1.3,3.6c-4.2,4.4-11.5,7.8-17,9.9
			c-3.2,5.5-6.7,10.1-10.3,13.9c-3.6,3.8-7.8,5.9-12.4,5.9c-3.8,0-6.1-2.5-6.1-5.3c0-2.9,2.5-6.7,8.8-9.4c4.4-1.9,9.7-3.6,14.5-5.3
			c1-1.5,3.2-4.4,4.2-6.3c-1.3,1-4.2,3.4-7.4,3.4c-5.5,0-7.6-5.2-4.8-10.5c1.5-2.9,2.7-5,3.6-6.5l4.4-7.8c0.6-0.6,1-1.1,2.3-1.1h2.9
			c1.3,0,1.5,0.6,0.8,2.1c-1,1.3-6.1,10.7-9.2,15.9c-1.9,3.2-1,5.3,1,5.3c2.9,0,6.7-3.6,12.8-13.8l2.5-4.4c0.4-0.8,1.1-2.1,2.3-4
			c0.4-0.6,1-1.1,2.1-1.1h3.2c1,0,1.1,0.8,0.6,2.1c-1,1.3-6.1,10.7-9.2,15.9l-4.8,8.2C149.4,200.4,151.9,199.3,154.9,197.6z
			 M137.7,206.9c-7.4,2.7-13,4.4-16.4,7.3c-3.6,3.2-2.7,7.6,1,7.6C127.4,221.8,132.4,215.3,137.7,206.9z"/>
	</g>
	<g>
		<path d="M186.8,181.1L186.8,181.1c0-2.3,1.7-3.6,4.2-3.4c1.1,0,2.1,0.2,3.1,0.6v-0.8c0-1.9-1.1-3.1-3.1-3.1
			c-1.1,0-2.1,0.4-2.9,0.8l-0.4-1c1-0.4,2.1-0.8,3.2-0.8s2.3,0.4,2.9,1.1c0.6,0.6,1,1.5,1,2.9l-0.2,7.1h-1v-1.7
			c-0.6,1-1.7,1.9-3.4,1.9C188.5,184.6,186.8,183.2,186.8,181.1z M193.9,180.6V179c-0.8-0.2-1.7-0.6-3.1-0.6c-1.9,0-3.1,1-3.1,2.5
			l0,0c0,1.5,1.1,2.5,2.7,2.5C192.4,183.6,193.9,182.3,193.9,180.6z"/>
		<path d="M198.3,167.9h1v1.9c0.6-1.1,1.7-2.1,3.4-2.1c2.3,0,3.6,1.7,3.6,4l-0.2,7.1h-1l0.2-6.7c0-2.1-1-3.4-2.9-3.4
			c-1.7,0-3.2,1.3-3.2,3.4v6.7h-1L198.3,167.9z"/>
		<path d="M208.6,167.8L208.6,167.8c0-3.6,2.3-5.7,4.4-5.7c1.9,0,3.1,1.1,3.6,2.5v-6.7h1l-0.2,15.1h-1v-2.3
			c-0.8,1.3-1.9,2.5-3.8,2.5C210.7,173.3,208.6,171.4,208.6,167.8z M216.8,167.8v-0.2c0-2.9-1.7-4.6-3.6-4.6s-3.4,1.5-3.4,4.6v0.2
			c0,2.9,1.5,4.8,3.4,4.8C214.9,172.3,216.8,170.6,216.8,167.8z"/>
	</g>
</g>
</svg>
