<?xml version="1.0" encoding="utf-8"?>
<!-- Generator: Adobe Illustrator 18.1.1, SVG Export Plug-In . SVG Version: 6.00 Build 0)  -->
<svg version="1.1" id="Layer_1" xmlns="http://www.w3.org/2000/svg" xmlns:xlink="http://www.w3.org/1999/xlink" x="0px" y="0px"
	 viewBox="0 0 245 57" enable-background="new 0 0 245 57" xml:space="preserve">
<g>
	<g>
		<path d="M149.6,37.6c2.6-6.5,10.4-16.7,13.7-23.6c2.9-6,2.3-8.8-0.1-8.8c-1.7,0-3.5,1.2-5.2,3.6
			c-1.7,2.3-3.4,5-5,8c-1.9,3.7-5.2,9.6-8.1,14.9l-4,7.3l-2.5,4.4c-0.2,0.4-0.5,0.7-1.1,0.7h-1.6c-0.7,0-0.8-0.4-0.4-1.1
			c0.6-1.3,1.7-3.2,3.2-6.1c1.5-2.8,3.1-5.8,4.9-8.9l4.9-8.9c1.6-2.9,2.8-5,3.5-6.4c3.1-5.8,1.8-8.9-0.4-8.9c-4.2,0-7.5,7.2-11.2,14
			c0,0-0.7,1.2-1.9,3.6l-4.4,8L129,38l-3,5.4c-0.2,0.4-0.5,0.7-1.1,0.7h-1.6c-0.7,0-0.8-0.4-0.4-1.1c0.1-0.2,1-1.8,2.6-4.9l5.5-10.2
			l5.8-10.6c1.8-3.3,2.9-5.3,3.2-6.1c3.1-6.1,1.6-9.4-2-9.4c-1.9,0-3.9,0.9-6.1,2.7c-2.2,1.7-3.9,4-5.2,6.7
			c-1.5,3.1-1.6,5.9,0.7,5.9c1.7,0,3.7-2.2,5.9-6.7c0.4-0.8,0.7-1.6,1.1-1.6c0.5,0.2,0.5,0.8,0.1,1.9c-2.5,5.2-4.9,7.6-7.2,7.6
			c-2.8,0-4.5-2.8-3.1-6.7c1.9-5.3,7.8-11,13.6-11c4,0,6.8,2.7,6.5,6.8c2.2-3.2,4.4-5,7.1-5c3.4,0,5,3,4.1,7.6
			c2.4-3.9,5.3-6.2,8.1-6.2c4.6,0,5.6,5,1.7,12.9c-3.2,6.5-10.8,16.9-12.9,21.8c-1.1,2.6-0.9,4,0.8,4c1.7,0,4.1-2.7,7.7-8
			c0.3-0.5,0.7-0.5,0.7-0.2c0.2,0.3-0.2,1.3-0.8,2.3c-1.4,2.4-4.8,7.2-8.2,7.2C149.8,43.9,148.1,41.2,149.6,37.6z"/>
		<path d="M169.6,34.8c0.3-0.5,0.5-0.5,0.7-0.2c0.2,0.3-0.1,1.2-0.7,2.2c-1.1,1.7-2.4,3.4-3.9,5
			c-1.4,1.6-3,2.4-4.6,2.5c-2.9,0-4-2.6-2.5-5.5c0.8-1.5,1.4-2.6,1.9-3.4l2.3-4.1c0.2-0.4,0.5-0.7,1.1-0.7h1.6
			c0.7,0,0.8,0.4,0.4,1.1l-4.7,8.3c-1,1.7-0.8,3,0.4,3C163.3,42.9,166,39.9,169.6,34.8z M168,22.9c0.8,0,1.4,0.7,1.4,1.4
			s-0.7,1.5-1.4,1.5c-0.8,0-1.5-0.7-1.5-1.5S167.2,22.9,168,22.9z"/>
		<path d="M167.6,39.8c0-4,4.7-9.5,9.2-9.5c2.2,0,2.9,1.6,2.3,2.9c-0.5,1.3-1.7,2.2-2.6,2.2c-0.8,0.1-1-0.7-0.2-1.1
			c2.2-1.2,2-2.8,0.7-2.8c-1.3,0-2.8,1-4.3,2.8c-1.5,1.9-2.3,3.8-2.3,5.9c0,1.9,0.9,2.8,2.4,2.8c2.9,0,5.8-3.1,9.4-8.2
			c0.3-0.5,0.5-0.5,0.7-0.2c0.2,0.3-0.1,1.2-0.7,2.2c-1.1,1.7-2.5,3.4-4.2,5.1c-1.6,1.6-3.5,2.5-5.7,2.5
			C169,44.3,167.6,42.2,167.6,39.8z"/>
		<path d="M185.5,33.8c1.4-1.7,3.2-3.1,4.9-3.1c1.9,0,2.9,1.2,2.9,2.7c0,3.1-4.3,6.4-4.3,8.4c0,0.7,0.4,1,0.9,1
			c2.1,0,5-3.5,8-8.1c0.3-0.5,0.6-0.5,0.8-0.2c0.2,0.3-0.1,1.2-0.7,2.2c-1.1,1.7-2.4,3.4-3.8,5c-1.4,1.6-3,2.4-4.7,2.5
			c-1.9,0-3.1-1.3-3.1-2.8c0-3.1,4.2-5.8,4.2-8.1c0-0.7-0.5-1.1-1.1-1c-1.2,0.2-3.7,2-6.1,5.9c-1.3,2-2,3.5-3,5.2
			c-0.2,0.4-0.6,0.7-1.1,0.7h-1c-0.7,0-0.7-0.6-0.4-1.1c2.2-3.8,5.2-9.4,9.3-17.4c3.4-6,6.2-9.5,9-9.5c2.3,0,2.9,2.7-0.2,6.4
			c-2,2.5-5,5.2-8.1,7.4C187.5,30.3,186.5,32,185.5,33.8z M188.8,27.7c1-1,2.6-2.2,3.4-3c2.6-2.5,4.1-4.4,4.4-5.8
			c0.3-1.3,0.1-2-0.5-2c-1.5,0-3.5,3.7-5.9,8.3L188.8,27.7z"/>
		<path d="M214.9,34.8c0.3-0.5,0.5-0.5,0.7-0.2c0.2,0.3-0.1,1.2-0.7,2.2c-1.1,1.7-2.4,3.4-3.9,5
			c-1.4,1.6-3,2.4-4.7,2.5c-1.7,0-2.9-0.8-3.2-2.6c-1.1,1.3-2.5,2.5-4.1,2.5c-2,0-3.1-0.9-3.5-2.7c-0.4-1.9,0-3.7,1.1-5.6
			c2.5-4.1,5.9-5.6,8.3-5.6c1.5,0,2.3,0.7,2.6,1.6l0.5-0.7c0.2-0.4,0.5-0.7,1.1-0.7h1.6c0.5,0,0.8,0.4,0.4,1.1l-4.8,8.6
			c-1,1.7-0.5,2.8,0.5,2.8C208.6,42.9,211.3,39.9,214.9,34.8z M206.4,34c0.8-1.6-0.2-2.5-1.1-2.5c-1,0-2.1,0.6-3.2,1.8
			c-1.1,1.2-2,2.5-2.8,3.9c-0.7,1.4-1.1,2.7-1.3,3.9c-0.1,1.2,0.4,1.8,1.4,1.8C202.3,42.9,205.3,36.1,206.4,34z"/>
		<path d="M213,39.7c0-2.2,1-4.3,2.8-6.4c1.9-2,4-3.1,6.4-3.1c2.2,0,2.9,1.6,2.3,2.9c-0.5,1.3-1.7,2.3-4.1,3.1
			c-1.4,0.4-2.7,0.7-3.7,0.8c-0.4,0.9-0.8,1.9-0.8,3.2c0,1.5,0.6,2.8,2.7,2.8c2.9,0,6.1-3.1,9.7-8.2c0.3-0.5,0.5-0.5,0.7-0.2
			c0.2,0.3-0.1,1.2-0.7,2.2c-1.1,1.7-2.5,3.4-4.3,5.1c-1.7,1.6-3.7,2.5-5.8,2.5C214.7,44.3,213,42.1,213,39.7z M217.3,35.8
			c1.3-0.2,2.9-0.6,4-1.1c2.5-1.3,2.3-3.1,1.1-3.1C220.7,31.5,218.6,33.4,217.3,35.8z"/>
		<path d="M234.5,39c0.3-0.5,0.6-0.4,0.7-0.1c0.1,0.3,0,0.9-0.7,1.8c-1,1.4-3,3.5-5.6,3.4c-2.9,0-3.8-2.9-2.3-6
			c1.1-2.3,4.3-8.8,6.6-12.7c3.4-5.8,6.2-9.5,9.1-9.5c2.3,0,2.9,2.7-0.2,6.4c-2,2.5-4.7,5-7.8,7.3c-2.2,4.1-4.3,8.2-5.3,10.3
			c-0.9,1.9-0.4,2.9,0.6,2.9C231,42.8,232.8,41.4,234.5,39z M235.4,27.5l2.9-2.8c2.6-2.5,4.1-4.4,4.4-5.8s0.1-2-0.5-2
			c-1.5,0-3.2,3.4-5.7,8.2L235.4,27.5z"/>
	</g>
	<g>
		<path d="M28.5,34.6c0.2,0.5-0.2,1.3-1,2.1c-1.6,1.7-4.3,2.6-7,2.5c-2.1,2.8-5.4,4.9-9.8,4.9c-2.5,0-4.7-1-6.8-2.8
			c-2-1.9-3.1-4.4-3.1-7.6c0-10.4,9.1-16.9,16.6-17.6C15.1,12.3,16,4.9,22.1,2.3C26.9,0.2,32.9,1.9,32.9,7c0,1.6-0.5,2.9-1.7,3.9
			c-1.1,1-2,1.4-2.8,1.5C27,12.5,27,11.1,28.2,11c1.9-0.2,3.3-2,3.3-3.8c0-2.6-1.9-4-4.1-4c-6.1,0-10.4,7.3-7.9,12.4
			c0.4-0.1,1.1,0.1,2,0.5c0.9,0.3,1.3,0.8,1.1,1.6c-0.2,0.7-0.7,1-1.7,0.9c-1-0.1-1.7-0.5-2.3-1.1C11.5,18,4,25.4,4,34.2
			c0,2.3,0.6,4.4,1.7,6.1c1.1,1.7,2.9,2.6,5.1,2.6c3.2,0,5.8-1.8,7.4-4.3c-1.5-0.5-3.1-1.6-4-3.2C11.5,30.8,14,25.1,18,25.1
			c5.4,0,6.4,7.3,3.2,12.8c2.3,0,4.9-1,6.6-3.2C28.1,34.3,28.3,34.3,28.5,34.6z M16.3,36.1c0.7,0.7,1.6,1.2,2.6,1.5
			c2.7-4.8,2.5-11.2-0.8-11.2C14.2,26.4,13,33.2,16.3,36.1z"/>
		<path d="M52.8,34.8c0.3-0.5,0.6-0.5,0.7-0.2c0.2,0.3-0.1,1.2-0.7,2.2c-1.1,1.7-2.4,3.4-3.9,5
			c-1.4,1.6-3,2.5-4.7,2.5c-1.9,0-3-1.3-3-2.8c0-3.1,4.1-5.8,4.1-8.1c0-0.7-0.3-1-1-1c-3.2,0-7.7,8.3-9.4,11.1
			c-0.2,0.4-0.5,0.7-1.1,0.7h-1.5c-0.7,0-0.8-0.4-0.4-1.1c0.2-0.4,0.8-1.4,1.9-3.2l2.8-4.8c1-1.7,0.4-2.7-0.8-2.6
			c-1.1,0.1-3.5,2-6.4,6.1c-1.7,2.5-2.6,4-3.3,5C25.9,43.7,25.6,44,25,44h-1c-0.5,0-0.7-0.4-0.4-1.1c1.7-3.3,4-7.9,6.1-11.8
			c0.2-0.4,0.6-0.7,1.1-0.7h1.4c0.7,0,0.8,0.4,0.4,1.1l-2.2,3.8c2.3-2.9,4.4-4.6,6.4-4.6c2.4-0.1,3.4,1.7,2.8,3.9
			c1.9-2.5,3.8-3.9,5.6-3.9c1.9,0,2.9,1.2,2.9,2.7c0,3.1-4.2,6.1-4.2,8.5c0,0.5,0.4,0.9,0.9,0.9C46.5,42.9,49.2,39.9,52.8,34.8z"/>
		<path d="M61.7,34.8c0.3-0.5,0.5-0.5,0.7-0.2c0.2,0.3-0.1,1.2-0.7,2.2c-1.1,1.7-2.4,3.4-3.9,5
			c-1.4,1.6-3,2.4-4.6,2.5c-2.9,0-4-2.6-2.5-5.5c0.8-1.5,1.4-2.6,1.9-3.4l2.3-4.1c0.2-0.4,0.5-0.7,1.1-0.7h1.6
			c0.7,0,0.8,0.4,0.4,1.1l-4.7,8.3c-1,1.7-0.8,3,0.4,3C55.4,42.9,58.1,39.9,61.7,34.8z M60.1,22.9c0.8,0,1.4,0.7,1.4,1.4
			s-0.7,1.5-1.4,1.5c-0.8,0-1.5-0.7-1.5-1.5S59.3,22.9,60.1,22.9z"/>
		<path d="M66.6,25.5c3.4-5.8,6.2-9.5,9.1-9.5c2.3,0,2.9,2.7-0.2,6.4c-2,2.5-4.7,5-7.8,7.3
			c-2.2,4.1-4.3,8.2-5.3,10.3c-0.9,1.9-0.4,2.9,0.6,2.9c1.7,0,5.2-2.8,8.6-8.1c0.3-0.5,0.5-0.5,0.7-0.2c0.2,0.5-0.1,1.3-0.7,2.2
			c-1.1,1.7-2.6,3.4-4.3,5c-1.6,1.6-3.3,2.4-5,2.4c-2.9,0-3.8-2.9-2.3-6C61.1,35.9,64.3,29.4,66.6,25.5z M68.8,27.5l2.9-2.8
			c2.6-2.5,4.1-4.4,4.4-5.8c0.3-1.3,0.1-2-0.5-2c-1.5,0-3.2,3.4-5.7,8.2L68.8,27.5z"/>
		<path d="M81.1,42.4c1.7-1,3-2.1,4-3.4c0.3-0.5,0.6-0.4,0.7-0.1c0.1,0.3,0.1,1.1-0.7,1.9c-2.2,2.3-6,4.1-8.9,5.2
			c-1.7,2.9-3.5,5.3-5.4,7.3c-1.9,2-4.1,3.1-6.5,3.1c-2,0-3.2-1.3-3.2-2.8s1.3-3.5,4.6-4.9c2.3-1,5.1-1.9,7.6-2.8
			c0.5-0.8,1.7-2.3,2.2-3.3c-0.7,0.5-2.2,1.8-3.9,1.8c-2.9,0-4-2.7-2.5-5.5c0.8-1.5,1.4-2.6,1.9-3.4l2.3-4.1
			c0.3-0.3,0.5-0.6,1.2-0.6H76c0.7,0,0.8,0.3,0.4,1.1c-0.5,0.7-3.2,5.6-4.8,8.3c-1,1.7-0.5,2.8,0.5,2.8c1.5,0,3.5-1.9,6.7-7.2
			l1.3-2.3c0.2-0.4,0.6-1.1,1.2-2.1c0.2-0.3,0.5-0.6,1.1-0.6h1.7c0.5,0,0.6,0.4,0.3,1.1c-0.5,0.7-3.2,5.6-4.8,8.3l-2.5,4.3
			C78.2,43.9,79.5,43.3,81.1,42.4z M72.1,47.3c-3.9,1.4-6.8,2.3-8.6,3.8c-1.9,1.7-1.4,4,0.5,4C66.7,55.1,69.3,51.7,72.1,47.3z"/>
	</g>
	<g>
		<path d="M97.8,33.8L97.8,33.8c0-1.2,0.9-1.9,2.2-1.8c0.6,0,1.1,0.1,1.6,0.3l0-0.4c0-1-0.6-1.6-1.6-1.6
			c-0.6,0-1.1,0.2-1.5,0.4l-0.2-0.5c0.5-0.2,1.1-0.4,1.7-0.4c0.6,0,1.2,0.2,1.5,0.6c0.3,0.3,0.5,0.8,0.5,1.5l-0.1,3.7l-0.5,0l0-0.9
			c-0.3,0.5-0.9,1-1.8,1C98.7,35.6,97.8,34.9,97.8,33.8z M101.5,33.5l0-0.8c-0.4-0.1-0.9-0.3-1.6-0.3c-1,0-1.6,0.5-1.6,1.3l0,0
			c0,0.8,0.6,1.3,1.4,1.3C100.7,35.1,101.5,34.4,101.5,33.5z"/>
		<path d="M103.8,26.9l0.5,0l0,1c0.3-0.6,0.9-1.1,1.8-1.1c1.2,0,1.9,0.9,1.9,2.1l-0.1,3.7l-0.5,0l0.1-3.5
			c0-1.1-0.5-1.8-1.5-1.8c-0.9,0-1.7,0.7-1.7,1.8l0,3.5l-0.5,0L103.8,26.9z"/>
		<path d="M109.2,26.8L109.2,26.8c0-1.9,1.2-3,2.3-3c1,0,1.6,0.6,1.9,1.3l0-3.5l0.5,0l-0.1,7.9l-0.5,0l0-1.2
			c-0.4,0.7-1,1.3-2,1.3C110.3,29.7,109.2,28.7,109.2,26.8z M113.5,26.8l0-0.1c0-1.5-0.9-2.4-1.9-2.4c-1,0-1.8,0.8-1.8,2.4l0,0.1
			c0,1.5,0.8,2.5,1.8,2.5C112.5,29.2,113.5,28.3,113.5,26.8z"/>
	</g>
</g>
</svg>
