<?xml version="1.0" encoding="utf-8"?>
<!-- Generator: Adobe Illustrator 18.1.1, SVG Export Plug-In . SVG Version: 6.00 Build 0)  -->
<svg version="1.1" id="Layer_1" xmlns="http://www.w3.org/2000/svg" xmlns:xlink="http://www.w3.org/1999/xlink" x="0px" y="0px"
	 viewBox="0 0 106 45" enable-background="new 0 0 106 45" xml:space="preserve">
  	 <title>Photos</title>
<g>
	<path d="M39.1,3.3c1.4-1.3,2.6-2.1,3.5-2.3c0.7-0.1,1,0.7,0,1.4c-0.5,0.4-1.3,1-2,1.7c3.4,1.9,6.5,5.5,6.5,10.1
		c0,7.9-6.1,12.5-11.7,12.5c-2.4,0-4-0.5-4.7-1.5c-0.7-1-0.7-1.6,0.1-1.7c0.7-0.1,1.1,0.2,1.3,0.9c0.2,0.7,1.2,1,2.9,1
		c4.1,0,9.1-4.9,9.1-12.1c0-3.3-1.6-6.7-4.4-8.2c-2.1,2.2-4.6,5.8-6.8,10.4C25.3,30.4,20.7,44,8.7,44c-2.9,0-4.9-0.8-6.2-2.3
		c-1.3-1.5-1.9-3-1.9-4.4c0-3.4,2.5-5.6,5.5-5.6c2.1,0,3.2,1.5,3.2,2.5c0.2,1.7-1.1,1.7-1.2,0.5c-0.1-0.8-0.7-1.9-2.2-1.9
		c-2.2,0-4,1.9-4.1,4.4c-0.1,3.2,2.7,5.6,6.4,5.6c7.8,0,12.7-10.7,18.3-21.2C30.8,13.8,34.9,7.7,38,4.3c-1.3-0.3-2.8-0.6-4.3-0.6
		c-3.3,0-6.5,1.1-9.5,3.4c-3.1,2.2-5.2,4.6-6.5,7.2c-1.9,3.7-1.5,6.3,0.4,6.3c1.7,0,3.8-1.3,6-5.2c0.4-0.7,0.7-1.3,1.1-1.3
		s0.7,0.7,0.2,1.7c-2.5,4.7-5.1,6.1-7.4,6.1c-1.7,0-2.8-0.8-3.4-2.3c-0.5-1.6-0.3-3.4,0.6-5.3c1.4-3.2,3.9-5.9,7.4-8.3
		s7.3-3.5,11.3-3.5C35.8,2.4,37.6,2.8,39.1,3.3z"/>
	<path d="M56.4,34.2c0.3-0.5,0.5-0.5,0.7-0.2c0.2,0.3-0.1,1.2-0.7,2.2c-1.1,1.7-2.4,3.4-3.8,5c-1.4,1.6-3,2.4-4.7,2.5
		c-1.9,0-3.1-1.3-3.1-2.8c0-3.1,4.2-5.8,4.2-8.1c0-0.7-0.5-1.1-1.1-1c-1.2,0.2-3.7,2-6.1,5.9c-1.3,2-2,3.5-3,5.2
		c-0.2,0.4-0.6,0.7-1.1,0.7h-1c-0.7,0-0.7-0.4-0.4-1.1c3.8-6.8,7.2-13.7,11.5-21.2c0.2-0.3,0.5-0.6,1.1-0.6h1.3
		c0.5,0,0.8,0.3,0.4,1.1c-0.4,0.7-4.2,7.1-6.6,11.6c1.4-1.7,3.2-3.1,4.9-3.1c1.9,0,2.9,1.2,2.9,2.7c0,3.1-4.3,6.4-4.3,8.4
		c0,0.7,0.4,1,0.9,1C50.1,42.3,52.8,39.3,56.4,34.2z"/>
	<path d="M71.3,34.5c0.1,0.2,0,0.7-0.3,1.2c-0.7,1.2-2.2,2.5-4,2.7c-0.5,0.1-1,0-1.6-0.1c-1.7,2.7-4.4,5.3-7.2,5.3
		c-2.2,0-3.6-0.9-4.1-2.8c-0.5-1.9-0.2-3.7,0.9-5.6c2.5-4.1,6.1-5.6,8.5-5.6c2.2,0,3.7,1.2,3.7,3.7c0,1.1-0.5,2.6-1.2,4
		c0.3,0.1,0.7,0.1,1.1,0.1c1.5-0.1,2.8-1.5,3.4-2.7C70.8,34.2,71.2,34.2,71.3,34.5z M65.9,33.1c0.2-1.6-0.8-2.2-1.9-2.2
		c-1.1,0-2.3,0.6-3.4,1.8c-1.1,1.2-2.1,2.5-2.8,4c-0.7,1.4-1,2.7-1,3.9c0.1,1.2,0.7,1.8,1.9,1.8c1.9,0,4.2-2.2,5.7-4.6
		c-0.4-0.2-0.7-0.6-1-1c-0.5-0.8-0.6-1.6-0.2-2.5c0.4-0.9,1-1.3,1.7-1.4C65.3,32.9,65.6,33,65.9,33.1L65.9,33.1z M65.5,35.4
		c0.2-0.9,0-1.5-0.5-1.6c-0.7-0.1-1.2,1.1-0.7,2.1c0.1,0.3,0.3,0.6,0.6,0.8C65,36.3,65.3,35.9,65.5,35.4z"/>
	<path d="M80.4,34.2c0.3-0.5,0.5-0.5,0.7-0.2c0.2,0.3-0.1,1.2-0.7,2.2c-1.1,1.7-2.4,3.4-3.9,5c-1.4,1.6-3,2.5-4.6,2.5
		c-1.9,0-3.1-0.7-3.5-2c-0.4-1.3-0.3-2.7,0.5-4.1c1-1.7,2-3.8,3.5-6.4h-1c-0.7,0-0.9-0.2-0.7-0.7c0.2-0.5,0.5-0.4,1.3-0.4h1l2-3.5
		c0.2-0.3,0.5-0.6,1.1-0.6h1.6c0.5,0,0.8,0.3,0.4,1.1l-1.7,3h1.9c0.5,0,1,0,0.8,0.7c-0.2,0.5-0.8,0.5-1.3,0.5h-2l-4.3,7.7
		c-1,1.7-1,3.5,0.7,3.5C74.2,42.3,76.8,39.3,80.4,34.2z"/>
	<path d="M104.6,38.4c0.3-0.5,0.5-0.5,0.7-0.2c0.2,0.4-0.1,1.1-0.8,2.1c-1.5,2-4.3,3.6-8.1,3.6c-2.9,0-5.3-1.3-5.3-3.7
		c0-1,1.1-2.5,2.5-2.5c1.1,0,1.7,0.4,1.9,1.2c0.1,0.8,0.1,1.3-0.2,1.6c-0.3,0.3-0.7,0.3-1,0.2c-0.3-0.2-0.5-0.5-0.2-1
		c0.5-0.8-0.5-1.3-1.2-0.6c-0.5,0.5-0.7,1.2-0.4,2.1c0.3,0.9,1.1,1.3,2.3,1.3c2,0,3.1-1.4,3.8-3.1c0.7-1.5,0.8-2.9,0.4-4.4
		c-0.4-1.5-0.7-2.8-1-3.8c-2,3.1-4.6,5.5-7.5,5.6c-0.8,1.7-1.9,3.3-3.3,4.7c-1.4,1.4-2.9,2.1-4.6,2.1c-2.2,0-3.7-0.9-4.2-2.8
		c-0.6-1.9-0.4-3.7,0.8-5.6c2.5-4.1,6.1-5.6,8.5-5.6c2.2,0,3.5,1.2,3.5,3.7c0,0.7-0.2,1.6-0.4,2.4c2.4-0.4,4.8-3,6.5-5.7
		c1.4-2.2,2.2-2.8,2.8-2.8c0.4,0,0.8,0.3,0.2,1.1c-0.2,0.3-0.4,0.5-0.7,1.1c-0.5,1,0.8,2.9,1.8,5.6c0.9,2.5,0.8,5.2-1.2,7.2
		C102.4,41.4,103.6,39.9,104.6,38.4z M89.9,32.2c-0.3-1-1-1.3-1.9-1.3c-2.2,0-4.8,2.9-6.1,5.8c-0.7,1.4-1,2.7-0.9,3.9
		s0.7,1.8,1.9,1.8c2.4,0,4.9-2.8,6.2-5.8c-1.4-0.3-2.2-1.4-2.2-2.4c0-1.1,0.8-2.2,2.2-2.2C89.5,32,89.8,32.1,89.9,32.2z M88.1,34.2
		c-0.1,0.8,0.4,1.3,1.4,1.5c0.2-0.4,0.2-1,0.3-1.7c0.1-0.7-0.1-1.1-0.7-1.1C88.5,32.9,88.1,33.3,88.1,34.2z"/>
</g>
</svg>
