<?xml version="1.0" encoding="utf-8"?>
<!-- Generator: Adobe Illustrator 18.1.1, SVG Export Plug-In . SVG Version: 6.00 Build 0)  -->
<svg version="1.1" id="Layer_1" xmlns="http://www.w3.org/2000/svg" xmlns:xlink="http://www.w3.org/1999/xlink" x="0px" y="0px"
	 width="508px" height="37px" viewBox="0 0 508 37" enable-background="new 0 0 508 37" xml:space="preserve">
<g>
	<path d="M8.2,19.1v16h1.5v0.8h-9V35h1.5V1.7H0.7V0.9h10.6c0.8,0,3.5-0.2,5,0.8C18,2.8,18.4,4.2,18.4,6v8.3c0,0.9-0.2,2.4-1.9,3.5
		c-1.6,1-4.2,1.3-6.3,1.3H8.2z M12.4,4c0-0.7,0-1.2-0.4-1.7c-0.4-0.5-1.1-0.6-2-0.6H8.2v16.6h2.2c0.7,0,1.2-0.2,1.6-0.7
		c0.4-0.5,0.3-1.3,0.3-1.8V4z"/>
	<path d="M64,31c0,3.2-2.1,5.2-7.6,5.2c-6,0-7.6-2-7.6-5.2V9.8c0-3.7,2.6-5.7,7.7-5.7c4.9,0,7.5,2.4,7.5,5.7V31z M58.5,7.2
		c0-1.8-0.7-2.5-2-2.4c-1.5,0-2.3,0.6-2.3,2.4v26c0,1.3,0.4,2.3,2.1,2.3c1.6,0,2.2-0.6,2.2-2.3V7.2z"/>
	<polygon points="112.5,4.4 112.5,10.7 111.7,10.7 111.7,5.8 107.1,5.8 107.1,35.1 108.4,35.1 108.4,35.8 100.3,35.8 100.3,35.1 
		101.6,35.1 101.6,5.8 97,5.8 97,10.7 96.2,10.7 96.2,4.4 	"/>
	<polygon points="161.1,4.4 161.1,10.7 160.3,10.7 160.3,5.8 155.6,5.8 155.6,35.1 157,35.1 157,35.8 148.8,35.8 148.8,35.1 
		150.1,35.1 150.1,5.8 145.5,5.8 145.5,10.7 144.7,10.7 144.7,4.4 	"/>
	<polygon points="199.9,19.1 205.9,19.1 205.9,16.4 206.8,16.4 206.8,23.3 205.9,23.3 205.9,20.5 199.9,20.5 199.9,34.4 205.9,34.4 
		205.9,29.7 206.8,29.7 206.8,35.8 193.1,35.8 193.1,35.1 194.4,35.1 194.4,5.1 193.1,5.1 193.1,4.4 206.8,4.4 206.8,10.5 
		205.9,10.5 205.9,5.8 199.9,5.8 	"/>
	<path d="M250.9,19.7c0,0.2,2,0.4,3.4,1.3c1.4,1,1.6,2,1.6,3.4v10.7h1.3v0.7h-6.8V23.3c0-1,0.2-1.9-0.7-2.5
		c-0.6-0.4-1.7-0.3-2.3-0.3h-1.8v14.7h1.3v0.7h-8.1v-0.7h1.3v-30h-1.3V4.4h9.5c0.7,0,3.1-0.2,4.5,0.7c1.5,1,1.9,2.2,1.9,3.8v6.7
		c0,0.3,0.1,1.8-1.1,2.9C252.4,19.5,250.9,19.6,250.9,19.7 M249.2,7.2c0-0.6,0.1-1-0.3-1.5c-0.5-0.5-1.1-0.5-1.7-0.5h-1.7v14.7h2
		c0.6,0,1.1-0.2,1.5-0.6c0.4-0.5,0.3-1.2,0.3-1.6V7.2z"/>
	<polygon points="292.3,24.6 286.6,5.1 285.3,5.1 285.3,4.4 293.4,4.4 293.4,5.1 292.1,5.1 296.9,21.6 301.2,5.1 299.8,5.1 
		299.8,4.4 304.2,4.4 304.2,5.1 302.9,5.1 297.8,24.7 297.8,35.1 299.1,35.1 299.1,35.8 291,35.8 291,35.1 292.3,35.1 	"/>
	<path d="M355.2,22.9v7.9c0,1.4-0.1,2.3-1,3.4c-1.3,1.4-4.1,1.7-5.3,1.7h-13.2V35h1.5V1.7h-1.5V0.9h12.6c1.6,0,2.7,0.3,3.9,1.2
		c1.9,1.5,1.7,3.3,1.7,3.3v8.4c0,0,0.1,1.7-1.2,2.7c-1.6,1.3-2.9,1.4-2.8,1.6c0,0.2,2.2,0.2,3.8,1.6
		C354.8,20.4,355.2,21.3,355.2,22.9 M343.3,35h3.3c0.1,0,1.2,0,1.8-0.4c0.6-0.5,0.8-1,0.8-1.7V20.6c0-0.5,0-1-0.4-1.3
		c-0.4-0.4-1-0.5-1.7-0.5h-3.8V35z M343.3,1.7v16h3.2c0.1,0,0.8,0,1.2-0.4c0.4-0.4,0.3-1,0.3-1.3V3.7c0-0.1,0.1-1.3-0.3-1.7
		c-0.3-0.4-1.7-0.4-1.8-0.4H343.3z"/>
	<path d="M395.8,5.1h-1.4V4.4h8.4v0.7h-1.5l5.5,30h1.3v0.7h-8.2v-0.7h1.1l-1.3-8.8H393l-1.8,8.8h1.3v0.7h-4.3v-0.7h1.2L395.8,5.1z
		 M393.2,25.1h6.2L396.5,8L393.2,25.1z"/>
	<path d="M452.3,19.7c0,0.2,2,0.4,3.4,1.3c1.4,1,1.5,2,1.5,3.4v10.7h1.3v0.7h-6.8V23.3c0-1,0.2-1.9-0.7-2.5
		c-0.6-0.4-1.7-0.3-2.3-0.3h-1.8v14.7h1.3v0.7H440v-0.7h1.3v-30H440V4.4h9.5c0.7,0,3.1-0.2,4.5,0.7c1.5,1,1.9,2.2,1.9,3.8v6.7
		c0,0.3,0.1,1.8-1.1,2.9C453.8,19.5,452.3,19.6,452.3,19.7 M450.6,7.2c0-0.6,0.1-1-0.3-1.5c-0.5-0.5-1.1-0.5-1.7-0.5h-1.7v14.7h2
		c0.6,0,1.1-0.2,1.5-0.6c0.4-0.5,0.3-1.2,0.3-1.6V7.2z"/>
	<polygon points="500.2,35.8 493.6,9.7 493.6,35.1 494.9,35.1 494.9,35.8 490.6,35.8 490.6,35.1 492,35.1 492,5.1 490.6,5.1 
		490.6,4.4 497.5,4.4 504.4,31.6 504.4,5.1 503,5.1 503,4.4 507.3,4.4 507.3,5.1 506,5.1 506,35.8 	"/>
</g>
<g>
</g>
<g>
</g>
<g>
</g>
<g>
</g>
<g>
</g>
<g>
</g>
</svg>
