<?xml version="1.0" encoding="utf-8"?>
<!-- Generator: Adobe Illustrator 18.1.1, SVG Export Plug-In . SVG Version: 6.00 Build 0)  -->
<svg version="1.1" id="Layer_1" xmlns="http://www.w3.org/2000/svg" xmlns:xlink="http://www.w3.org/1999/xlink" x="0px" y="0px"
	 viewBox="0 0 134 56" enable-background="new 0 0 134 56" xml:space="preserve">
  	 <title>Registry</title>
<g>
	<path d="M39.4,3.2c1.4-1.4,2.8-2.3,3.8-2.5c0.7-0.1,1,0.7,0,1.4c-0.7,0.4-1.4,1.1-2.2,1.9c2.2,1.3,3.7,3.1,4.4,5.3
		c0.8,2.2,0.8,4.3,0.1,6.1c-0.8,2.1-2,3.6-3.6,4.4c-1.6,0.8-3,1.4-4.4,1.6c0.7,0.5,1.3,1.5,1.6,2.9c1,4.8-2.6,9.6-4.6,13.6
		c-1.2,2.3-0.7,4,0.8,4c1.7,0,4.9-2.8,7.9-8c0.3-0.5,0.5-0.5,0.7-0.2c0.2,0.5-0.1,1.1-0.6,2.1c-1.1,1.9-2.5,3.7-4,5.2
		c-1.4,1.5-3,2.3-4.7,2.2c-3.6,0-4.9-3-2.8-7.5c1.1-2.3,2-4,2.8-5.2c0.7-1.3,1.3-2.6,1.9-4.3c0.5-1.9,0.4-4-1.3-4.7
		c-1.4-0.2-2-0.6-2-1.3c0.1-0.8,0.5-1.1,1.3-1.1c0.9,0,1.1,0.8,1.7,0.9c2.4,0.3,5.3-1.8,6.5-5.2c1.3-3.7,0.4-7.6-2.8-9.7
		c-2,2.3-4.3,5.7-6.4,10.1C25.9,30.1,20.8,45.1,8.9,45.1c-2.9,0-4.9-0.8-6.2-2.3c-1.3-1.5-1.9-3-1.9-4.4c0-3.4,2.6-5.6,5.5-5.6
		c2.1,0,3.1,1.5,3.2,2.5c0.2,1.7-1.2,1.7-1.3,0.5c-0.1-0.8-0.5-1.9-2.2-1.9c-2.2,0-4,1.9-4.1,4.4c-0.1,3.2,2.8,5.6,6.4,5.6
		c7.7,0,12.8-12.1,18.6-22.6c4.1-7.6,8.1-13.6,11.3-17c-1.3-0.5-3-0.9-4.9-0.9c-3.5,0-6.9,1.1-10.1,3.3c-3.2,2.2-5.5,4.6-6.8,7.3
		c-1,1.9-1.2,3.4-0.8,4.6c0.4,1.1,1.1,1.7,2,1.7c1.7,0,3.8-1.3,6-5.2c0.5-0.8,0.7-1.3,1.1-1.3c0.5,0.1,0.7,0.7,0.2,1.7
		c-2.5,4.7-5.2,6-7.5,6c-1.7,0-2.8-0.8-3.4-2.3c-0.5-1.6-0.3-3.3,0.6-5.3c1.4-3.2,3.9-6,7.4-8.3s7.3-3.5,11.3-3.5
		C35.8,2.1,37.7,2.5,39.4,3.2z"/>
	<path d="M41.1,38.7c0-2.2,1-4.3,2.8-6.4c1.9-2,4-3.1,6.4-3.1c2.2,0,2.9,1.6,2.3,2.9c-0.5,1.3-1.7,2.3-4.1,3.1
		c-1.4,0.4-2.7,0.7-3.7,0.8C44.3,37,44,38.1,44,39.3c0,1.5,0.6,2.8,2.7,2.8c2.9,0,6.1-3.1,9.7-8.2c0.3-0.5,0.5-0.5,0.7-0.2
		c0.2,0.3-0.1,1.2-0.7,2.2c-1.1,1.7-2.5,3.4-4.3,5.1c-1.7,1.6-3.7,2.5-5.8,2.5C42.8,43.3,41.1,41.2,41.1,38.7z M45.4,34.8
		c1.3-0.2,2.9-0.6,4-1.1c2.5-1.3,2.3-3.1,1.1-3.1C48.8,30.6,46.7,32.5,45.4,34.8z"/>
	<path d="M60.8,40.9c-1.3,1.5-2.5,2.3-4,2.3c-1.7,0-2.8-0.9-3.2-2.7c-0.4-1.9,0-3.7,1.1-5.6c2.4-4.1,5.7-5.5,8.1-5.5
		c1.4,0,2.4,0.7,2.7,1.7l0.4-0.8c0.2-0.3,0.5-0.6,1.1-0.6h1.6c0.5,0,0.8,0.3,0.4,1.1l-7,12.5l1-0.5c2-1,3.5-2.2,4.8-3.5
		c1.3-1.3,2.6-3.1,4.1-5.5c0.3-0.5,0.4-0.5,0.6-0.2c0.3,0.5,0,1.1-0.5,2.2c-1.1,1.9-2.3,3.4-3.6,4.8c-1.3,1.3-3.2,2.6-5.8,3.8L61,45
		c-1.7,2.8-3.5,5.3-5.5,7.3c-2,2-4.1,3.1-6.5,3.1c-4,0-5.3-4.9,1.4-7.7c2.1-0.9,5.4-2,8-3C59.2,43.6,60.1,42.1,60.8,40.9z
		 M53.1,51.7c1.6-1.6,3.1-3.4,4.5-5.5c-3.8,1.3-7.4,2.5-9.2,4c-2,1.7-1.5,3.8,0.4,3.8C50.1,54.1,51.5,53.3,53.1,51.7z M64.4,33.1
		c0.7-1.4,0-2.4-1.1-2.4c-1.1,0-2.2,0.6-3.4,1.8c-1.1,1.1-2,2.5-2.8,3.8C56.4,37.7,56,39,56,40.2c-0.1,1.1,0.4,1.7,1.4,1.7
		C59.9,42,62.2,37,64.4,33.1z"/>
	<path d="M80.8,33.9c0.3-0.5,0.5-0.5,0.7-0.2c0.2,0.3-0.1,1.2-0.7,2.2c-1.1,1.7-2.4,3.4-3.9,5c-1.4,1.6-3,2.4-4.6,2.5
		c-2.9,0-4-2.6-2.5-5.5c0.8-1.5,1.4-2.6,1.9-3.4l2.3-4.1c0.2-0.4,0.5-0.7,1.1-0.7h1.6c0.7,0,0.8,0.4,0.4,1.1L72.4,39
		c-1,1.7-0.8,3,0.4,3C74.5,42,77.2,39,80.8,33.9z M79.2,22c0.8,0,1.4,0.7,1.4,1.4s-0.7,1.5-1.4,1.5c-0.8,0-1.5-0.7-1.5-1.5
		S78.4,22,79.2,22z"/>
	<path d="M94.4,33.6c0.2,0.4,0,1.2-0.7,2.2c-3.8,5.8-7.6,7.8-11.4,7.8c-2.9,0-5-1-5.3-3.2c-0.2-0.8,0.2-1.8,1-2.8
		c1.9-2.5,3.3-4.6,5.4-7.9c1.4-2.2,2-2.8,2.6-2.8c0.3,0,0.8,0.3,0.2,1.1c-0.2,0.3-0.4,0.5-0.7,1.1c-0.5,1,0.7,2.9,1.7,5.6
		c1,2.5,0.7,4.7-0.5,6.5c-0.1,0.2-0.2,0.4-0.4,0.4c2.6-1.4,5.1-4.3,7.3-7.7C94,33.3,94.3,33.3,94.4,33.6z M81.3,38.6
		c0.2,0.7,0.1,1.2-0.2,1.5c-0.3,0.3-0.7,0.3-1,0.2c-0.3-0.2-0.4-0.5-0.2-1c0.5-0.8-0.5-1.3-1.3-0.6c-0.5,0.5-0.6,1.2-0.3,2.1
		c0.3,0.9,1,1.3,2.3,1.3c2,0,3.1-1.4,3.8-3.1c1.2-2.7,0.2-5.2-0.5-8.1c-1,1.3-2.5,4.1-4.4,6.4C80.5,37.5,81.1,37.8,81.3,38.6z"/>
	<path d="M103.3,33.9c0.3-0.5,0.5-0.5,0.7-0.2c0.2,0.3-0.1,1.2-0.7,2.2c-1.1,1.7-2.4,3.4-3.9,5c-1.4,1.6-3,2.5-4.6,2.5
		c-1.9,0-3.1-0.7-3.5-2c-0.4-1.3-0.3-2.7,0.5-4.1c1-1.7,2-3.8,3.5-6.4h-1c-0.7,0-0.9-0.2-0.7-0.7c0.2-0.5,0.5-0.4,1.3-0.4h1l2-3.5
		c0.2-0.3,0.5-0.6,1.1-0.6h1.6c0.5,0,0.8,0.3,0.4,1.1l-1.7,3h1.9c0.5,0,1,0,0.8,0.7c-0.2,0.5-0.8,0.5-1.3,0.5h-2l-4.3,7.7
		c-1,1.7-1,3.5,0.7,3.5C97.2,42,99.7,39,103.3,33.9z"/>
	<path d="M104.7,40.3c0-3.2,4.8-7.5,4.8-9.5c0-0.5-0.3-0.7-1-0.6c-0.6,0.1-1.2,0.1-1.7,0.1c-1.4,2.5-2.3,3.6-3.4,5.5
		c-0.3,0.5-0.7,0.9-1,0.7c-0.5-0.4,0.1-1.3,0.7-2.2c0.9-1.4,1.6-2.5,2.5-4.3c-1.7-0.8-1.9-3-0.4-4c0.8-0.5,1.4-0.4,2.1,0.2
		c0.7,0.7,0.7,1.7,0,3.1c0.2,0,0.7,0,2.3-0.2c1.7-0.2,2.9,0.3,2.9,1.7c0,2.7-5.3,7.6-5.3,10.1c0,0.7,0.4,1.1,1.2,1.1
		c1.7,0,4.6-3.1,8-8.2c0.3-0.5,0.5-0.5,0.7-0.2c0.2,0.4-0.1,1.2-0.7,2.2c-1.1,1.7-2.4,3.4-3.8,5c-1.4,1.6-3,2.3-4.6,2.4
		C105.9,43.2,104.7,42,104.7,40.3z M106.1,29c1-2,0.1-2.6-0.5-2C105.1,27.4,105.1,28.5,106.1,29z"/>
	<path d="M121,44.8c-1.7,2.9-3.5,5.3-5.5,7.4c-2,2.1-4.2,3.1-6.7,3.1c-2,0-3.2-1.3-3.2-2.8c0-1.5,1.3-3.5,4.6-4.9
		c2.3-1,5.1-1.9,7.6-2.8c0.5-0.8,1.7-2.3,2.2-3.3c-0.7,0.5-2.2,1.8-3.9,1.8c-2.9,0-4-2.7-2.5-5.5c0.8-1.5,1.4-2.6,1.9-3.4l2.3-4.1
		c0.3-0.3,0.5-0.6,1.2-0.6h1.6c0.7,0,0.8,0.3,0.4,1.1c-0.5,0.7-3.2,5.6-4.8,8.3c-1,1.7-0.5,2.8,0.5,2.8c1.5,0,3.5-1.9,6.7-7.2
		l1.3-2.3c0.2-0.4,0.6-1.1,1.2-2.1c0.2-0.3,0.5-0.6,1.1-0.6h1.7c0.5,0,0.6,0.4,0.3,1.1c-0.5,0.7-3.2,5.6-4.8,8.3
		c-0.8,1.4-1.6,2.9-2.3,4.1c4.1-1.9,7.4-4.3,10.4-9.4c0.3-0.5,0.5-0.5,0.7-0.2c0.2,0.5-0.1,1.1-0.6,2.2c-2.3,3.8-5.5,6.8-10.6,8.8
		C121.8,44.5,121.3,44.7,121,44.8z M116.8,46.3c-3.9,1.4-6.8,2.3-8.6,3.8c-1.9,1.7-1.4,4,0.5,4C111.4,54.1,114,50.7,116.8,46.3z"/>
</g>
</svg>
