<?xml version="1.0" encoding="utf-8"?>
<!-- Generator: Adobe Illustrator 18.1.1, SVG Export Plug-In . SVG Version: 6.00 Build 0)  -->
<svg version="1.1" id="Layer_1" xmlns="http://www.w3.org/2000/svg" xmlns:xlink="http://www.w3.org/1999/xlink" x="0px" y="0px"
	 viewBox="0 0 215.4 91.1" enable-background="new 0 0 215.4 91.1" xml:space="preserve">
  	 <title>Registry</title>
<g>
	<path d="M64.3,4.2c2.4-2.4,4.6-3.9,6.3-4.2c1.1-0.1,1.7,1.1,0,2.3c-1.2,0.7-2.4,1.8-3.7,3.1c3.7,2.2,6.1,5.2,7.4,8.9
		c1.3,3.7,1.3,7.1,0.2,10.2c-1.3,3.5-3.3,6-6,7.4c-2.6,1.4-5,2.3-7.3,2.6c1.2,0.9,2.1,2.5,2.6,4.8c1.6,8-4.4,16-7.7,22.6
		c-2,3.9-1.1,6.6,1.3,6.6c2.9,0,8.1-4.6,13.2-13.3c0.5-0.8,0.9-0.8,1.2-0.3c0.4,0.8-0.1,1.9-1,3.5c-1.9,3.2-4.1,6.1-6.6,8.7
		c-2.4,2.5-5,3.8-7.8,3.7c-6,0-8.2-5-4.6-12.5c1.9-3.8,3.4-6.7,4.6-8.7c1.2-2.1,2.2-4.4,3.1-7.1c0.9-3.2,0.6-6.6-2.2-7.9
		c-2.3-0.3-3.4-1-3.3-2.2c0.1-1.3,0.8-1.9,2.1-1.8c1.5,0,1.9,1.4,2.8,1.5c4,0.5,8.8-3,10.8-8.6c2.1-6.1,0.7-12.6-4.6-16.2
		c-3.3,3.9-7.1,9.5-10.7,16.8C41.8,49,33.3,74,13.4,74c-4.8,0-8.2-1.3-10.3-3.8S0,65.2,0,62.8c0-5.6,4.3-9.4,9.2-9.4
		c3.5,0,5.1,2.5,5.4,4.2c0.3,2.8-2,2.8-2.1,0.9c-0.1-1.3-0.9-3.2-3.6-3.2c-3.6,0-6.7,3.2-6.8,7.3c-0.1,5.3,4.6,9.3,10.7,9.3
		c12.9,0,21.4-20.1,31-37.7c6.8-12.7,13.5-22.6,18.8-28.3c-2.1-0.9-5-1.5-8.2-1.5c-5.9,0-11.5,1.8-16.8,5.5s-9.1,7.7-11.4,12.2
		c-1.6,3.1-2,5.6-1.3,7.6c0.7,1.9,1.9,2.9,3.4,2.9c2.9,0,6.3-2.2,10-8.7c0.8-1.3,1.1-2.2,1.9-2.1c0.9,0.1,1.2,1.2,0.4,2.8
		c-4.1,7.9-8.6,10-12.5,10c-2.9,0-4.7-1.3-5.6-3.8c-0.8-2.6-0.5-5.5,1-8.8c2.4-5.4,6.5-10,12.3-13.9c5.8-3.9,12.1-5.8,18.8-5.8
		C58.3,2.3,61.5,3,64.3,4.2z"/>
	<path d="M66.1,63.4c0-3.7,1.6-7.2,4.7-10.6c3.2-3.4,6.7-5.1,10.6-5.1c3.7,0,4.8,2.6,3.9,4.9c-0.9,2.1-2.9,3.9-6.9,5.2
		c-2.3,0.7-4.5,1.2-6.2,1.3c-0.7,1.5-1.3,3.2-1.3,5.3c0,2.5,1,4.6,4.5,4.6c4.9,0,10.1-5.2,16.1-13.7c0.5-0.8,0.9-0.8,1.2-0.4
		c0.4,0.5-0.1,2-1.2,3.6c-1.9,2.9-4.2,5.7-7.1,8.5c-2.9,2.7-6.1,4.1-9.7,4.1C69,71.1,66.1,67.5,66.1,63.4z M73.3,56.9
		c2.1-0.4,4.8-1,6.7-1.9c4.1-2.1,3.9-5.2,1.8-5.2C78.9,49.8,75.4,53,73.3,56.9z"/>
	<path d="M98.9,67c-2.1,2.5-4.1,3.9-6.6,3.9c-2.9,0-4.7-1.5-5.3-4.5c-0.6-3.1,0-6.2,1.9-9.4c4-6.8,9.5-9.2,13.5-9.2
		c2.3,0,4,1.2,4.5,2.8l0.7-1.4c0.3-0.5,0.8-1,1.9-1h2.7c0.9,0,1.3,0.5,0.6,1.8l-11.6,20.9l1.6-0.8c3.3-1.7,5.9-3.7,8-5.8
		s4.4-5.2,6.8-9.2c0.5-0.9,0.7-0.9,1-0.4c0.5,0.9,0,1.9-0.9,3.6c-1.8,3.1-3.8,5.7-6,8c-2.1,2.2-5.4,4.3-9.7,6.4l-2.6,1.2
		c-2.9,4.7-5.9,8.8-9.1,12.1c-3.3,3.4-6.9,5.1-10.9,5.1c-6.6,0-8.8-8.1,2.4-12.9c3.5-1.5,9-3.4,13.4-5C96.3,71.5,97.8,69.1,98.9,67z
		 M86.1,85.1c2.7-2.6,5.2-5.7,7.5-9.2c-6.4,2.1-12.4,4.2-15.3,6.7C75,85.4,75.8,89,79,89C81.1,89,83.4,87.7,86.1,85.1z M105,54
		c1.2-2.4,0-4-1.9-4c-1.8,0-3.7,1-5.6,3c-1.9,1.9-3.4,4.1-4.6,6.4c-1.2,2.3-1.9,4.5-2,6.5c-0.1,1.9,0.7,2.9,2.4,2.9
		C97.5,68.8,101.3,60.6,105,54z"/>
	<path d="M132.3,55.3c0.5-0.9,0.9-0.9,1.2-0.4c0.4,0.5-0.1,2-1.2,3.6c-1.9,2.9-4,5.7-6.5,8.4c-2.4,2.7-5,4-7.7,4.1
		c-4.9,0-6.7-4.4-4.2-9.2c1.3-2.5,2.4-4.4,3.1-5.7l3.9-6.9c0.4-0.7,0.8-1.1,1.9-1.1h2.7c1.1,0,1.3,0.6,0.6,1.8l-7.8,13.9
		c-1.6,2.9-1.3,5,0.6,5C121.8,68.8,126.3,63.8,132.3,55.3z M129.6,35.5c1.3,0,2.4,1.1,2.4,2.4c0,1.3-1.1,2.5-2.4,2.5
		c-1.3,0-2.5-1.2-2.5-2.5C127.1,36.6,128.3,35.5,129.6,35.5z"/>
	<path d="M155,54.9c0.3,0.7,0,2-1.1,3.6c-6.4,9.6-12.6,13-19,13c-4.8,0-8.3-1.7-8.8-5.3c-0.3-1.3,0.3-3,1.6-4.7
		c3.2-4.1,5.5-7.6,9-13.2c2.4-3.7,3.3-4.7,4.4-4.7c0.5,0,1.3,0.5,0.4,1.8c-0.4,0.5-0.7,0.9-1.2,1.8c-0.9,1.7,1.2,4.9,2.9,9.4
		c1.6,4.1,1.1,7.9-0.9,10.8c-0.1,0.3-0.3,0.6-0.6,0.7c4.4-2.3,8.5-7.1,12.2-12.8C154.4,54.4,154.9,54.4,155,54.9z M133.1,63.2
		c0.3,1.2,0.2,2-0.3,2.5s-1.1,0.5-1.6,0.4c-0.5-0.3-0.7-0.9-0.3-1.6c0.9-1.3-0.9-2.1-2.1-1c-0.9,0.9-1,2-0.5,3.5s1.7,2.2,3.8,2.2
		c3.3,0,5.1-2.4,6.3-5.1c2-4.5,0.4-8.7-0.9-13.5c-1.6,2.1-4.1,6.9-7.3,10.6C131.9,61.3,132.8,61.9,133.1,63.2z"/>
	<path d="M170.4,55.3c0.5-0.9,0.9-0.9,1.2-0.4c0.4,0.5-0.1,2-1.2,3.6c-1.9,2.9-4,5.7-6.5,8.4c-2.4,2.7-5,4.1-7.7,4.1
		c-3.2,0-5.1-1.1-5.8-3.3c-0.7-2.2-0.5-4.5,0.8-6.9c1.6-2.9,3.4-6.3,5.9-10.7h-1.6c-1.2,0-1.5-0.4-1.2-1.1c0.4-0.8,0.9-0.7,2.2-0.7
		h1.7l3.3-5.8c0.4-0.5,0.8-1,1.9-1h2.7c0.9,0,1.3,0.5,0.6,1.8l-2.8,5h3.1c0.9,0,1.6,0,1.3,1.1c-0.3,0.9-1.3,0.8-2.2,0.8h-3.3
		L155.6,63c-1.7,2.9-1.7,5.8,1.2,5.8C160.1,68.8,164.4,63.8,170.4,55.3z"/>
	<path d="M172.4,66.1c0-5.3,8-12.5,8-15.8c0-0.9-0.5-1.2-1.6-1c-1,0.1-2,0.2-2.9,0.1c-2.4,4.1-3.8,6-5.7,9.1
		c-0.5,0.9-1.1,1.5-1.6,1.1c-0.9-0.7,0.2-2.1,1.1-3.6c1.5-2.3,2.6-4.1,4.2-7.2c-2.9-1.3-3.1-5-0.6-6.7c1.3-0.9,2.4-0.7,3.5,0.4
		c1.1,1.1,1.1,2.8,0,5.1c0.3,0,1.1,0,3.9-0.3c2.8-0.4,4.8,0.5,4.8,2.9c0,4.5-8.9,12.7-8.9,16.8c0,1.1,0.7,1.9,2,1.9
		c2.9,0,7.6-5.2,13.3-13.7c0.5-0.8,0.9-0.8,1.2-0.4c0.4,0.7-0.1,2-1.2,3.7c-1.9,2.9-4,5.7-6.4,8.4c-2.4,2.6-5,3.9-7.7,4
		C174.5,70.9,172.4,68.9,172.4,66.1z M174.8,47.2c1.7-3.3,0.1-4.3-0.8-3.4C173.1,44.6,173.2,46.3,174.8,47.2z"/>
	<path d="M207.6,67.9c2.8-1.7,5-3.5,6.7-5.6c0.5-0.8,1-0.6,1.1-0.2c0.1,0.5,0.1,1.8-1.2,3.1c-3.6,3.9-10,6.9-14.9,8.6
		c-2.9,4.8-5.9,8.9-9,12.2c-3.1,3.4-6.8,5.1-10.9,5.1c-3.3,0-5.4-2.2-5.4-4.7s2.2-5.8,7.7-8.2c3.9-1.7,8.5-3.2,12.6-4.7
		c0.9-1.3,2.8-3.8,3.7-5.5c-1.1,0.8-3.6,3-6.5,3c-4.8,0-6.6-4.5-4.1-9.2c1.3-2.5,2.4-4.4,3.2-5.7l3.9-6.9c0.5-0.5,0.9-1,2-1h2.6
		c1.1,0,1.4,0.5,0.7,1.8c-0.8,1.1-5.4,9.3-8,13.8c-1.7,2.9-0.8,4.7,0.8,4.7c2.5,0,5.9-3.1,11.2-12l2.1-3.8c0.3-0.7,1-1.8,2-3.5
		c0.4-0.5,0.8-1,1.9-1h2.9c0.9,0,1,0.6,0.5,1.8c-0.8,1.1-5.3,9.3-8,13.8L201,71C202.7,70.5,204.9,69.5,207.6,67.9z M192.6,76.1
		c-6.5,2.3-11.4,3.9-14.3,6.4c-3.1,2.8-2.4,6.6,0.9,6.6C183.6,89.1,187.9,83.4,192.6,76.1z"/>
</g>
</svg>
