<?xml version="1.0" encoding="utf-8"?>
<!-- Generator: Adobe Illustrator 18.1.1, SVG Export Plug-In . SVG Version: 6.00 Build 0)  -->
<svg version="1.1" id="Layer_1" xmlns="http://www.w3.org/2000/svg" xmlns:xlink="http://www.w3.org/1999/xlink" x="0px" y="0px"
	 viewBox="0 0 123 44" enable-background="new 0 0 123 44" xml:space="preserve">
  	 <title>Schedule</title>
<g>
	<path d="M32.7,10.1c0,1.2,1,2.6,3.4,2.6c2.9,0,4.9-2.8,4.9-5.4c0-3.2-2.3-5.5-5.9-5.5c-1.7,0-3.4,0.7-5.2,1.9
		c-1.7,1.3-2.9,3.1-3.5,5.4c-2.6,10.4-0.3,18-3.4,25.9c-2,5-6.5,8.4-12.4,8.4c-1.1,0-2.3-0.1-3.9-0.7c-1-0.4-2.2-1.1-3.5-2.2
		c-1.3-1.1-2.1-2.8-2.5-5.2C-0.3,29,5.1,22.4,11,22.4c3.9,0,5.8,2.9,5.8,5.8c0,1.7-0.6,3.4-1.7,5c-1.1,1.6-2.5,2.3-4.3,2.3
		c-0.3,0-0.7-0.2-0.8-0.5c-0.1-0.3,0.2-0.7,0.5-0.7c1.7,0,3.4-1.2,4.4-3.4c0.9-2,0.9-3.6,0.1-4.9c-0.8-1.3-1.9-2-3.3-2
		c-2.6,0-6,1.9-7.7,6.2c-2.1,5-0.1,11.8,6.7,11.8c4.1,0,7.4-2.1,9.4-7.4C23,27,20.5,18.4,23.6,9.5c1.7-5,6-8.9,11.6-8.9
		c4.8,0,7.3,3.1,7.3,6.7c0,1.6-0.6,3.1-1.7,4.5c-1.1,1.4-2.6,2.1-4.5,2.1c-3.1,0-4.8-1.9-4.8-3.9c0-1.7,1.6-3.7,3.5-3.7
		c0.3,0,0.8,0.2,0.8,0.5c0,0.3-0.2,0.5-0.8,0.6C33.5,7.7,32.7,8.9,32.7,10.1z"/>
	<path d="M25.5,38.2c0-4,4.7-9.5,9.2-9.5c2.2,0,2.9,1.6,2.3,2.9c-0.5,1.3-1.7,2.2-2.6,2.2c-0.8,0.1-1-0.7-0.2-1.1
		c2.2-1.2,2-2.8,0.7-2.8c-1.3,0-2.8,1-4.3,2.8c-1.5,1.9-2.3,3.8-2.3,5.9c0,1.9,0.9,2.8,2.4,2.8c2.9,0,5.8-3.1,9.4-8.2
		c0.3-0.5,0.5-0.5,0.7-0.2c0.2,0.3-0.1,1.2-0.7,2.2c-1.1,1.7-2.5,3.4-4.2,5.1c-1.6,1.6-3.5,2.5-5.7,2.5
		C26.9,42.7,25.5,40.7,25.5,38.2z"/>
	<path d="M55.8,33.2c0.3-0.5,0.5-0.5,0.7-0.2c0.2,0.3-0.1,1.2-0.7,2.2c-1.1,1.7-2.4,3.4-3.8,5c-1.4,1.6-3,2.4-4.7,2.5
		c-1.9,0-3.1-1.3-3.1-2.8c0-3.1,4.2-5.8,4.2-8.1c0-0.7-0.5-1.1-1.1-1c-1.2,0.2-3.7,2-6.1,5.9c-1.3,2-2,3.5-3,5.2
		c-0.2,0.4-0.6,0.7-1.1,0.7h-1c-0.7,0-0.7-0.4-0.4-1.1c3.8-6.8,7.2-13.7,11.5-21.2c0.2-0.3,0.5-0.6,1.1-0.6h1.3
		c0.5,0,0.8,0.3,0.4,1.1c-0.4,0.7-4.2,7.1-6.6,11.6c1.4-1.7,3.2-3.1,4.9-3.1c1.9,0,2.9,1.2,2.9,2.7c0,3.1-4.3,6.4-4.3,8.4
		c0,0.7,0.4,1,0.9,1C49.5,41.3,52.2,38.3,55.8,33.2z"/>
	<path d="M54,38.1c0-2.2,1-4.3,2.8-6.4c1.9-2,4-3.1,6.4-3.1c2.2,0,2.9,1.6,2.3,2.9c-0.5,1.3-1.7,2.3-4.1,3.1
		c-1.4,0.4-2.7,0.7-3.7,0.8c-0.4,0.9-0.8,1.9-0.8,3.2c0,1.5,0.6,2.8,2.7,2.8c2.9,0,6.1-3.1,9.7-8.2c0.3-0.5,0.5-0.5,0.7-0.2
		c0.2,0.3-0.1,1.2-0.7,2.2c-1.1,1.7-2.5,3.4-4.3,5.1c-1.7,1.6-3.7,2.5-5.8,2.5C55.8,42.7,54,40.5,54,38.1z M58.4,34.2
		c1.3-0.2,2.9-0.6,4-1.1c2.5-1.3,2.3-3.1,1.1-3.1C61.7,29.9,59.6,31.8,58.4,34.2z"/>
	<path d="M74,40.1c-1.1,1.4-2.6,2.5-4.2,2.5c-2.2,0-3.5-1.6-3.5-3.7c0-4.3,4.7-10.2,9.7-10.2c1.5,0,2.3,0.7,2.6,1.6
		c2.2-3.7,4.6-7.9,5.8-10.1c0.2-0.3,0.5-0.7,1.1-0.7h1.3c0.7,0,0.8,0.4,0.4,1.1l-10,17.9c-1,1.7-0.5,2.8,0.5,2.8c1.7,0,4.4-3,8-8.1
		c0.3-0.5,0.6-0.5,0.7-0.3c0.3,0.4,0,1.2-0.7,2.2c-1.1,1.7-2.4,3.4-3.9,5c-1.4,1.6-3,2.3-4.7,2.4C75.5,42.5,74.3,41.6,74,40.1z
		 M77.3,32.4c0.8-1.7-0.2-2.5-1.1-2.5c-2,0-4.6,2.9-6.1,5.8c-0.7,1.4-1.1,2.7-1.3,3.9c-0.1,1.2,0.3,1.8,1.3,1.8
		c2.4,0,4.6-4.7,6.7-8.1L77.3,32.4z"/>
	<path d="M102.6,33.2c0.3-0.5,0.5-0.5,0.7-0.2c0.2,0.4,0,1.2-0.7,2.2c-1.1,1.7-2.4,3.4-3.9,5c-1.4,1.6-3,2.4-4.7,2.5
		c-2,0-3.1-1.2-3.2-2.9c-1.5,1.7-3.2,2.9-4.9,2.9c-2.9,0-4-2.6-2.5-5.5c0.8-1.5,1.4-2.6,1.9-3.4l2.4-4.1c0.2-0.4,0.5-0.7,1.1-0.7
		h1.6c0.7,0,0.8,0.4,0.4,1.1l-4.8,8.3c-1,1.7-0.5,2.8,0.5,2.8c1.6,0,3.6-2,7-7.8c0.5-1,1.1-2,2.2-3.8c0.2-0.4,0.5-0.7,1.1-0.7h1.6
		c0.5,0,0.8,0.4,0.4,1.1l-4.7,8.3c-1,1.7-0.8,3,0.4,3C96.3,41.3,99,38.3,102.6,33.2z"/>
	<path d="M107.5,23.9c3.4-5.8,6.2-9.5,9.1-9.5c2.3,0,2.9,2.7-0.2,6.4c-2,2.5-4.7,5-7.8,7.3c-2.2,4.1-4.3,8.2-5.3,10.3
		c-0.9,1.9-0.4,2.9,0.6,2.9c1.7,0,5.2-2.8,8.6-8.1c0.3-0.5,0.5-0.5,0.7-0.2c0.2,0.5-0.1,1.3-0.7,2.2c-1.1,1.7-2.6,3.4-4.3,5
		c-1.6,1.6-3.3,2.4-5,2.4c-2.9,0-3.8-2.9-2.3-6C102,34.3,105.2,27.8,107.5,23.9z M109.7,26l2.9-2.8c2.6-2.5,4.1-4.4,4.4-5.8
		c0.3-1.3,0.1-2-0.5-2c-1.5,0-3.2,3.4-5.7,8.2L109.7,26z"/>
	<path d="M110.4,38.1c0-2.2,1-4.3,2.8-6.4c1.9-2,4-3.1,6.4-3.1c2.2,0,2.9,1.6,2.3,2.9c-0.5,1.3-1.7,2.3-4.1,3.1
		c-1.4,0.4-2.7,0.7-3.7,0.8c-0.5,1-0.8,2-0.8,3.2c0,1.5,0.7,2.7,2.4,2.7c1.9,0,4.3-1.5,5.9-3.9c0.3-0.5,0.6-0.4,0.7-0.1
		c0.1,0.4,0,0.9-0.7,1.9c-1,1.3-3.3,3.5-6.2,3.5C112.2,42.7,110.4,40.5,110.4,38.1z M114.7,34.2c1.3-0.2,2.9-0.6,4-1.1
		c2.5-1.3,2.3-3.1,1.1-3.1C118.1,29.9,116,31.8,114.7,34.2z"/>
</g>
</svg>
