<?xml version="1.0" encoding="utf-8"?><svg xmlns="http://www.w3.org/2000/svg"><symbol id="login" viewBox="0 0 270 50"><path fill="#648F00" d="M270 25c0 13.8-11.2 25-25 25H25C11.2 50 0 38.8 0 25l0 0C0 11.2 11.2 0 25 0h220C258.8 0 270 11.2 270 25L270 25z"/><path fill="#FFFFFF" d="M40.9 13.1c-6.3 0-11.4 5.1-11.4 11.4 0 6.3 5.1 11.4 11.4 11.4 6.3 0 11.4-5.1 11.4-11.4C52.2 18.2 47.1 13.1 40.9 13.1zM46.1 29.5c-0.2 0.3-0.6 0.4-1 0.2 -2.7-1.6-6-2-10-1.1 -0.4 0.1-0.8-0.2-0.8-0.5 -0.1-0.4 0.2-0.8 0.5-0.8 4.3-1 8-0.6 11 1.3C46.2 28.7 46.3 29.1 46.1 29.5zM47.5 26.4c-0.3 0.4-0.8 0.5-1.2 0.3 -3.1-1.9-7.7-2.4-11.3-1.3 -0.5 0.1-1-0.1-1.1-0.6 -0.1-0.5 0.1-1 0.6-1.1 4.1-1.3 9.3-0.6 12.8 1.5C47.6 25.4 47.7 26 47.5 26.4zM47.6 23.2c-3.7-2.2-9.7-2.4-13.2-1.3 -0.6 0.2-1.2-0.1-1.3-0.7 -0.2-0.6 0.1-1.2 0.7-1.3 4-1.2 10.7-1 14.9 1.5 0.5 0.3 0.7 1 0.4 1.5C48.7 23.3 48.1 23.5 47.6 23.2z"/><path fill="#FFFFFF" d="M63.2 30.6V19.9h1.9v9h4.7v1.6H63.2z"/><path fill="#FFFFFF" d="M71.3 25.3c0-3.2 2.3-5.5 5.5-5.5 3.2 0 5.5 2.3 5.5 5.5s-2.3 5.5-5.5 5.5C73.6 30.8 71.3 28.5 71.3 25.3zM80.3 25.3c0-2.2-1.4-3.9-3.5-3.9 -2.2 0-3.5 1.6-3.5 3.9 0 2.2 1.4 3.9 3.5 3.9C78.9 29.1 80.3 27.5 80.3 25.3z"/><path fill="#FFFFFF" d="M84.4 25.3c0-3.4 2.5-5.5 5.6-5.5 2.1 0 3.4 1 4.3 2.2l-1.5 0.9c-0.6-0.8-1.6-1.4-2.8-1.4 -2.1 0-3.7 1.6-3.7 3.9 0 2.2 1.6 3.9 3.7 3.9 1.1 0 2-0.5 2.5-1v-1.6h-3.2v-1.6h5.1v4c-1 1.2-2.5 2-4.4 2C86.9 30.8 84.4 28.6 84.4 25.3z"/><path fill="#FFFFFF" d="M102 30.6V19.9h1.9v10.7H102z"/><path fill="#FFFFFF" d="M114.4 30.6l-5.6-7.6v7.6H107V19.9h1.9l5.5 7.4v-7.4h1.9v10.7H114.4z"/><path fill="#FFFFFF" d="M132.4 30.6l-2.1-7.9 -2.1 7.9h-2l-3-10.7h2.1l2.1 8.2 2.2-8.2h1.5l2.2 8.2 2.1-8.2h2.1l-3.1 10.7H132.4z"/><path fill="#FFFFFF" d="M139.5 30.6V19.9h1.9v10.7H139.5z"/><path fill="#FFFFFF" d="M147 30.6v-9h-3.2v-1.6h8.3v1.6h-3.2v9H147z"/><path fill="#FFFFFF" d="M161.9 30.6v-4.7h-5.6v4.7h-1.9V19.9h1.9v4.4h5.6v-4.4h1.9v10.7H161.9z"/><path fill="#FFFFFF" d="M171 29.1l1.1-1.5c0.7 0.8 1.9 1.5 3.4 1.5 1.5 0 2.1-0.8 2.1-1.5 0-2.2-6.2-0.8-6.2-4.8 0-1.8 1.5-3.1 3.9-3.1 1.6 0 3 0.5 4 1.5l-1.1 1.4c-0.8-0.8-2-1.2-3.1-1.2 -1.1 0-1.8 0.5-1.8 1.3 0 2 6.2 0.8 6.2 4.7 0 1.8-1.3 3.3-4.1 3.3C173.4 30.8 172 30.1 171 29.1z"/><path fill="#FFFFFF" d="M182 30.6V19.9h4.7c2.2 0 3.5 1.5 3.5 3.3 0 1.8-1.2 3.3-3.5 3.3h-2.8v4H182zM188.3 23.3c0-1-0.8-1.7-1.8-1.7h-2.6V25h2.6C187.5 25 188.3 24.3 188.3 23.3z"/><path fill="#FFFFFF" d="M192.1 25.3c0-3.2 2.3-5.5 5.5-5.5 3.2 0 5.5 2.3 5.5 5.5s-2.3 5.5-5.5 5.5C194.4 30.8 192.1 28.5 192.1 25.3zM201.1 25.3c0-2.2-1.4-3.9-3.5-3.9 -2.2 0-3.5 1.6-3.5 3.9 0 2.2 1.4 3.9 3.5 3.9C199.7 29.1 201.1 27.5 201.1 25.3z"/><path fill="#FFFFFF" d="M207.8 30.6v-9h-3.2v-1.6h8.3v1.6h-3.2v9H207.8z"/><path fill="#FFFFFF" d="M215.3 30.6V19.9h1.9v10.7H215.3z"/><path fill="#FFFFFF" d="M220.2 30.6V19.9h7.3v1.6h-5.4v2.8h5.3V26h-5.3v4.6H220.2z"/><path fill="#FFFFFF" d="M233.1 30.6v-4.4l-4.1-6.2h2.1l2.9 4.6 2.9-4.6h2.1l-4.1 6.2v4.4H233.1z"/></symbol><symbol id="listen" viewBox="0 0 463 88"><path fill="#121314" d="M463 44c0 24.3-19.7 44-44 44H44C19.7 88 0 68.3 0 44l0 0C0 19.7 19.7 0 44 0h375C443.3 0 463 19.7 463 44L463 44z"/><path fill="#84BD00" d="M110 22.2c-12.2 0-22 9.8-22 22 0 12.2 9.8 22 22 22 12.2 0 22-9.8 22-22C132 32.1 122.2 22.2 110 22.2zM120.1 54c-0.4 0.6-1.2 0.9-1.9 0.5 -5.2-3.2-11.7-3.9-19.3-2.1 -0.7 0.2-1.5-0.3-1.6-1 -0.2-0.7 0.3-1.5 1-1.6 8.4-1.9 15.6-1.1 21.4 2.5C120.3 52.5 120.5 53.3 120.1 54zM122.8 48c-0.5 0.8-1.6 1.1-2.4 0.6 -5.9-3.6-14.9-4.7-21.9-2.6 -0.9 0.3-1.9-0.2-2.1-1.1 -0.3-0.9 0.2-1.9 1.1-2.1 8-2.4 17.9-1.3 24.7 2.9C123 46.1 123.3 47.2 122.8 48zM123 41.7c-7.1-4.2-18.8-4.6-25.6-2.5 -1.1 0.3-2.2-0.3-2.6-1.4 -0.3-1.1 0.3-2.2 1.4-2.6 7.8-2.4 20.7-1.9 28.9 2.9 1 0.6 1.3 1.8 0.7 2.8C125.3 42 124 42.3 123 41.7z"/><path fill="#FFFFFF" d="M154 55.1v-20h3.5V52h8.8v3.1H154z"/><path fill="#FFFFFF" d="M169 36.9c0-1.1 0.9-2 2-2s2 0.9 2 2 -0.9 1.9-2 1.9S169 37.9 169 36.9zM169.3 55.1V40.6h3.1v14.5H169.3z"/><path fill="#FFFFFF" d="M175.3 53.2l1.4-2.2c1 1 3 2 4.9 2 1.9 0 2.9-0.8 2.9-1.9 0-2.8-8.8-0.8-8.8-6.4 0-2.4 2-4.4 5.7-4.4 2.5 0 4.3 0.9 5.6 2l-1.3 2.2c-0.9-1-2.5-1.7-4.3-1.7 -1.7 0-2.7 0.8-2.7 1.8 0 2.5 8.8 0.6 8.8 6.4 0 2.6-2.1 4.5-6 4.5C179 55.4 176.8 54.6 175.3 53.2z"/><path fill="#FFFFFF" d="M191.4 51.7v-8.4H189v-2.7h2.4v-4h3.1v4h2.9v2.7h-2.9v7.6c0 1 0.5 1.7 1.4 1.7 0.6 0 1.1-0.3 1.4-0.5l0.7 2.4c-0.6 0.5-1.5 0.9-2.9 0.9C192.6 55.4 191.4 54.1 191.4 51.7z"/><path fill="#FFFFFF" d="M199.4 47.8c0-4.2 3.1-7.6 7.3-7.6 4.3 0 7.1 3.3 7.1 7.9v0.8h-11.2c0.2 2.2 1.9 4 4.6 4 1.4 0 3.1-0.6 4.1-1.6l1.4 2.1c-1.5 1.4-3.6 2.1-5.9 2.1C202.6 55.4 199.4 52.4 199.4 47.8zM206.7 42.8c-2.7 0-3.9 2.1-4.1 3.8h8.2C210.8 44.9 209.6 42.8 206.7 42.8z"/><path fill="#FFFFFF" d="M226.8 55.1V46c0-2.3-1.2-3-2.9-3 -1.6 0-3 1-3.7 1.9v10.1H217V40.6h3.2v2c1-1.1 2.8-2.3 5.1-2.3 3.1 0 4.7 1.7 4.7 4.7v10.2H226.8z"/><path fill="#FFFFFF" d="M240.9 47.8c0-4.2 2.8-7.6 7.4-7.6 4.6 0 7.4 3.4 7.4 7.6 0 4.1-2.8 7.6-7.4 7.6C243.7 55.4 240.9 52 240.9 47.8zM252.5 47.8c0-2.5-1.5-4.8-4.2-4.8 -2.7 0-4.2 2.2-4.2 4.8 0 2.6 1.5 4.8 4.2 4.8C251 52.6 252.5 50.4 252.5 47.8z"/><path fill="#FFFFFF" d="M268.8 55.1V46c0-2.3-1.2-3-2.9-3 -1.6 0-3 1-3.7 1.9v10.1H259V40.6h3.1v2c1-1.1 2.8-2.3 5.1-2.3 3.1 0 4.7 1.7 4.7 4.7v10.2H268.8z"/><path fill="#FFFFFF" d="M282.6 52.3l2-2.7c1.4 1.5 3.5 2.8 6.3 2.8 2.9 0 4-1.4 4-2.8 0-4.2-11.6-1.6-11.6-8.9 0-3.3 2.9-5.9 7.3-5.9 3.1 0 5.6 1 7.5 2.8l-2 2.6c-1.6-1.6-3.7-2.3-5.8-2.3 -2 0-3.4 1-3.4 2.5 0 3.8 11.6 1.4 11.6 8.9 0 3.3-2.4 6.2-7.7 6.2C287 55.4 284.4 54.1 282.6 52.3z"/><path fill="#FFFFFF" d="M304.7 53.1v7.5h-3.1v-20h3.1v2c1.1-1.4 2.8-2.3 4.7-2.3 3.8 0 6.4 2.8 6.4 7.6s-2.7 7.6-6.4 7.6C307.6 55.4 305.9 54.6 304.7 53.1zM312.6 47.8c0-2.8-1.6-4.8-4.1-4.8 -1.5 0-3 0.8-3.7 1.9v5.7c0.7 1.1 2.2 2 3.7 2C311 52.6 312.6 50.6 312.6 47.8z"/><path fill="#FFFFFF" d="M318.1 47.8c0-4.2 2.8-7.6 7.4-7.6 4.6 0 7.4 3.4 7.4 7.6 0 4.1-2.8 7.6-7.4 7.6C320.9 55.4 318.1 52 318.1 47.8zM329.7 47.8c0-2.5-1.5-4.8-4.2-4.8 -2.7 0-4.2 2.2-4.2 4.8 0 2.6 1.5 4.8 4.2 4.8C328.2 52.6 329.7 50.4 329.7 47.8z"/><path fill="#FFFFFF" d="M336.8 51.7v-8.4h-2.4v-2.7h2.4v-4h3.2v4h2.9v2.7H340v7.6c0 1 0.5 1.7 1.4 1.7 0.6 0 1.1-0.3 1.4-0.5l0.8 2.4c-0.6 0.5-1.5 0.9-2.9 0.9C338.1 55.4 336.8 54.1 336.8 51.7z"/><path fill="#FFFFFF" d="M345.4 36.9c0-1.1 0.9-2 2-2s1.9 0.9 1.9 2 -0.9 1.9-1.9 1.9S345.4 37.9 345.4 36.9zM345.8 55.1V40.6h3.2v14.5H345.8z"/><path fill="#FFFFFF" d="M353.8 55.1V43.3h-2.4v-2.7h2.4v-0.8c0-3.1 1.8-5 4.6-5 1.3 0 2.6 0.3 3.5 1.3l-1.2 1.9c-0.4-0.4-1-0.6-1.6-0.6 -1.3 0-2 0.8-2 2.4v0.8h2.9v2.7h-2.9v11.8H353.8z"/><path fill="#FFFFFF" d="M362.1 57.9c0.3 0.2 0.8 0.2 1.2 0.2 1 0 1.7-0.3 2.1-1.3l0.7-1.7 -6-14.7h3.4l4.2 10.9 4.2-10.9h3.4l-7 17.1c-1 2.5-2.7 3.2-4.9 3.3 -0.5 0-1.3-0.1-1.8-0.2L362.1 57.9z"/></symbol></svg>