<?xml version="1.0" encoding="utf-8"?>
<!-- Generator: Adobe Illustrator 18.1.1, SVG Export Plug-In . SVG Version: 6.00 Build 0)  -->
<svg version="1.1" id="Layer_1" xmlns="http://www.w3.org/2000/svg" xmlns:xlink="http://www.w3.org/1999/xlink" x="0px" y="0px"
	 viewBox="0 0 79 56" enable-background="new 0 0 79 56" xml:space="preserve">
  	 <title>Story</title>
<g>
	<path d="M32.7,10.5c0,1.2,1,2.6,3.4,2.6c2.9,0,4.9-2.8,4.9-5.4c0-3.2-2.3-5.5-5.9-5.5c-1.7,0-3.4,0.7-5.2,1.9
		c-1.7,1.3-2.9,3.1-3.5,5.4c-2.6,10.4-0.3,18-3.4,25.9c-2,5-6.5,8.4-12.4,8.4c-1.1,0-2.3-0.1-3.9-0.7c-1-0.4-2.2-1.1-3.5-2.2
		c-1.3-1.1-2.1-2.8-2.5-5.2C-0.3,29.3,5,22.8,11,22.8c3.9,0,5.8,2.9,5.8,5.8c0,1.7-0.6,3.4-1.7,5c-1.1,1.6-2.5,2.3-4.3,2.3
		c-0.3,0-0.7-0.2-0.8-0.5c-0.1-0.3,0.2-0.7,0.5-0.7c1.7,0,3.4-1.2,4.4-3.4c0.9-2,0.9-3.6,0.1-4.9c-0.8-1.3-1.9-2-3.3-2
		c-2.6,0-6,1.9-7.7,6.2c-2.1,5-0.1,11.8,6.7,11.8c4.1,0,7.4-2.1,9.4-7.4c2.9-7.8,0.4-16.4,3.5-25.3c1.7-5,6-8.9,11.6-8.9
		c4.8,0,7.3,3.1,7.3,6.7c0,1.6-0.6,3.1-1.7,4.5c-1.1,1.4-2.6,2.1-4.5,2.1c-3.1,0-4.8-1.9-4.8-3.9c0-1.7,1.6-3.7,3.5-3.7
		c0.3,0,0.8,0.2,0.8,0.5c0,0.3-0.2,0.5-0.8,0.6C33.4,8,32.7,9.2,32.7,10.5z"/>
	<path d="M38.8,33.6c0.3-0.5,0.5-0.5,0.7-0.2c0.2,0.3-0.1,1.2-0.7,2.2c-1.1,1.7-2.4,3.4-3.9,5c-1.4,1.6-3,2.5-4.6,2.5
		c-1.9,0-3.1-0.7-3.5-2c-0.4-1.3-0.3-2.7,0.5-4.1c1-1.7,2-3.8,3.5-6.4h-1c-0.7,0-0.9-0.2-0.7-0.7c0.2-0.5,0.5-0.4,1.3-0.4h1l2-3.5
		c0.2-0.3,0.5-0.6,1.1-0.6h1.6c0.5,0,0.8,0.3,0.4,1.1l-1.7,3h1.9c0.5,0,1,0,0.8,0.7c-0.2,0.5-0.8,0.5-1.3,0.5h-2l-4.3,7.7
		c-1,1.7-1,3.5,0.7,3.5C32.6,41.7,35.2,38.7,38.8,33.6z"/>
	<path d="M52.5,33.8c-1,1.4-2.2,2.2-3.7,2.4c-0.8,1.7-1.9,3.3-3.4,4.7c-1.5,1.4-3,2.1-4.6,2.1c-2.2,0-3.6-0.9-4.1-2.8
		c-0.5-1.9-0.2-3.7,0.9-5.6c2.5-4.1,6.1-5.6,8.5-5.6c2.2,0,3.5,1.2,3.5,3.7c0,0.7-0.2,1.6-0.4,2.3c1.1-0.3,2.2-1.1,2.9-2.5
		c0.8-1.4,1.3-2.3,1.6-2.8c-1.7-0.9-1.9-3.1-0.4-4.1c0.8-0.5,1.4-0.4,2.1,0.3c0.7,0.7,0.7,1.6-0.1,3c0.2,0,0.7,0,2.4-0.2
		c1.7-0.2,2.9,0.3,2.9,1.7c0,2.7-5.3,7.6-5.3,10.1c0,0.7,0.4,1.1,1.2,1.1c1.7,0,4.4-3,8-8.1c0.3-0.5,0.5-0.5,0.7-0.2
		c0.2,0.4-0.1,1.1-0.7,2.1c-1.1,1.7-2.4,3.4-3.9,5c-1.4,1.6-3,2.4-4.7,2.4c-1.9,0-3.2-1.2-3.2-2.9c0-3.1,4.9-7.4,4.9-9.4
		c0-0.5-0.3-0.8-1-0.7C56,30,55.4,30,54.8,30C54.3,31.1,53.5,32.3,52.5,33.8z M47.5,36c-1.3-0.3-2.2-1.4-2.2-2.5
		c0-1.1,1-2.2,2.2-2.2c0.3,0,0.7,0.2,0.8,0.3c-0.2-1-1-1.4-1.9-1.4c-1.1,0-2.3,0.6-3.4,1.8c-1.1,1.2-2.1,2.5-2.8,4
		c-0.7,1.4-1,2.7-1,3.9c0.1,1.2,0.7,1.8,1.9,1.8C43.6,41.7,46.2,38.9,47.5,36z M46.4,33.6c-0.1,0.8,0.4,1.3,1.4,1.5
		c0.2-0.4,0.2-1,0.3-1.7c0.1-0.7-0.1-1.1-0.7-1.1C46.9,32.3,46.5,32.7,46.4,33.6z M54.2,28.7c1-2,0.1-2.5-0.5-2S53.3,28.2,54.2,28.7
		z"/>
	<path d="M73.6,41.1c1.7-1,3-2.1,4-3.4c0.3-0.5,0.6-0.4,0.7-0.1c0.1,0.3,0.1,1.1-0.7,1.9c-2.2,2.3-6,4.1-8.9,5.2
		c-1.7,2.9-3.5,5.3-5.4,7.3c-1.9,2-4.1,3.1-6.5,3.1c-2,0-3.2-1.3-3.2-2.8c0-1.5,1.3-3.5,4.6-4.9c2.3-1,5.1-1.9,7.6-2.8
		c0.5-0.8,1.7-2.3,2.2-3.3C67.2,41.7,65.7,43,64,43c-2.9,0-4-2.7-2.5-5.5c0.8-1.5,1.4-2.6,1.9-3.4l2.3-4.1c0.3-0.3,0.5-0.6,1.2-0.6
		h1.6c0.7,0,0.8,0.3,0.4,1.1c-0.5,0.7-3.2,5.6-4.8,8.3c-1,1.7-0.5,2.8,0.5,2.8c1.5,0,3.5-1.9,6.7-7.2l1.3-2.3
		c0.2-0.4,0.6-1.1,1.2-2.1c0.2-0.3,0.5-0.6,1.1-0.6h1.7c0.5,0,0.6,0.4,0.3,1.1c-0.5,0.7-3.2,5.6-4.8,8.3L69.7,43
		C70.7,42.7,72,42.1,73.6,41.1z M64.6,46.1c-3.9,1.4-6.8,2.3-8.6,3.8c-1.9,1.7-1.4,4,0.5,4C59.2,53.9,61.8,50.4,64.6,46.1z"/>
</g>
</svg>
