<?xml version="1.0" encoding="utf-8"?>
<!-- Generator: Adobe Illustrator 18.1.1, SVG Export Plug-In . SVG Version: 6.00 Build 0)  -->
<svg version="1.1" id="Layer_1" xmlns="http://www.w3.org/2000/svg" xmlns:xlink="http://www.w3.org/1999/xlink" x="0px" y="0px"
	 width="435px" height="32px" viewBox="52.5 107.4 435 32" enable-background="new 52.5 107.4 435 32" xml:space="preserve">
<path fill="#0A0B0B" d="M53.5,110.6l1.4,0c0.6,0,1,0.1,1.2,0.4c0.2,0.2,0.4,0.6,0.6,0.9l9.1,26.7h1.6l6.3-20.5l6.9,20.5h1.6
	l7.3-23.7c0.6-1.7,1.1-2.9,1.7-3.4c0.6-0.5,1.5-0.8,2.7-1v-1.8H83.8v1.8c1.5,0.1,2.5,0.3,3,0.5c0.7,0.3,1,0.9,1,1.7
	c0,0.2,0,0.5-0.1,0.7c-0.1,0.3-0.1,0.6-0.2,0.8l-5,16.7l-5.9-17.8c-0.1-0.4-0.2-0.7-0.3-0.9c-0.1-0.2-0.1-0.4-0.1-0.6
	c0-0.3,0.1-0.5,0.2-0.7c0.2-0.1,0.3-0.2,0.6-0.3c0.2-0.1,0.5-0.1,0.9-0.1c0.4,0,1,0,2-0.1v-1.8H68v1.8l2.6,0.1
	c0.3,0,0.6,0.1,0.7,0.2c0.1,0.1,0.2,0.3,0.3,0.4l1.2,3.7l-5,15.9l-6.1-18.7c-0.1-0.2-0.1-0.4-0.2-0.5c0-0.1,0-0.2,0-0.4
	c0-0.2,0.1-0.4,0.3-0.5c0.2-0.1,0.5-0.2,0.7-0.2c0.3,0,0.6,0,0.8,0c0.2,0,0.9,0,1.9,0v-1.8H53.5L53.5,110.6L53.5,110.6z M96.4,138
	h13.7v-1.8c-0.4,0-0.9,0-1.6,0c-0.7,0-1.1,0-1.4-0.1c-0.5-0.1-1-0.2-1.2-0.5c-0.2-0.2-0.4-0.7-0.4-1.4v-21.7c0-0.9,0.2-1.4,0.6-1.6
	c0.4-0.2,1.1-0.3,2.1-0.4l2,0v-1.8H96.4v1.8c1.2,0,2,0,2.2,0.1c0.2,0,0.5,0,0.8,0.1c0.5,0,0.9,0.2,1.2,0.4c0.3,0.3,0.4,0.7,0.4,1.2
	v21.4c0,1.2-0.2,1.9-0.6,2.1c-0.4,0.2-1.7,0.3-4,0.4V138L96.4,138z M137.7,138l0.8-11l-1.8-0.1c-0.5,4.1-2,6.8-4.3,8.2
	c-1.3,0.8-3.4,1.2-6.1,1.2c-1.9,0-3.1-0.1-3.6-0.4c-0.5-0.3-0.7-1-0.7-2.1v-21.1c0-1,0.2-1.6,0.7-1.8c0.5-0.2,1.8-0.3,4-0.3v-1.8
	H113v1.8c2.1,0.1,3.4,0.2,3.9,0.3c0.5,0.2,0.7,0.7,0.7,1.8v21.5c0,0.6-0.1,1-0.2,1.3c-0.2,0.3-0.5,0.5-0.9,0.6
	c-0.2,0-0.4,0.1-0.7,0.1c-0.3,0-1.2,0-2.7,0.1v1.8L137.7,138C137.7,138,137.7,138,137.7,138z M165.4,138l0.8-11l-1.8-0.1
	c-0.5,4.1-2,6.8-4.3,8.2c-1.3,0.8-3.4,1.2-6,1.2c-1.9,0-3.1-0.1-3.6-0.4c-0.5-0.3-0.7-1-0.7-2.1v-21.1c0-1,0.2-1.6,0.7-1.8
	c0.5-0.2,1.8-0.3,4-0.3v-1.8h-13.8v1.8c2.1,0.1,3.4,0.2,3.9,0.3s0.7,0.7,0.7,1.8v21.5c0,0.6-0.1,1-0.2,1.3c-0.2,0.3-0.5,0.5-0.9,0.6
	c-0.2,0-0.4,0.1-0.7,0.1c-0.3,0-1.2,0-2.7,0.1v1.8L165.4,138L165.4,138L165.4,138z M168.5,138h13.7v-1.8c-0.4,0-0.9,0-1.6,0
	c-0.7,0-1.1,0-1.4-0.1c-0.5-0.1-1-0.2-1.2-0.5c-0.3-0.2-0.4-0.7-0.4-1.4v-21.7c0-0.9,0.2-1.4,0.6-1.6c0.4-0.2,1.1-0.3,2.1-0.4l2,0
	v-1.8h-13.8v1.8c1.2,0,2,0,2.2,0.1c0.3,0,0.5,0,0.8,0.1c0.5,0,0.9,0.2,1.2,0.4c0.3,0.3,0.4,0.7,0.4,1.2v21.4c0,1.2-0.2,1.9-0.6,2.1
	s-1.7,0.3-4,0.4L168.5,138L168.5,138C168.5,138,168.5,138,168.5,138z M198.6,114.6l-4.7,11.8h9.6L198.6,114.6z M199,108.2h1.7
	l11.2,26.7c0.2,0.6,0.7,0.9,1.3,1.1c0.4,0.1,1.1,0.2,2.2,0.2v1.8h-12.8v-1.8c1,0,1.7,0,2.3-0.1c0.6,0,1-0.1,1.2-0.2
	c0.2,0,0.4-0.1,0.6-0.2c0.2-0.1,0.2-0.4,0.2-0.7c0-0.1,0-0.3-0.1-0.4c0-0.1-0.1-0.3-0.1-0.4l-2.4-5.7h-11.3
	c-0.2,0.4-0.4,0.9-0.6,1.5c-0.2,0.5-0.4,0.9-0.4,1.2l-0.4,1.1c-0.1,0.3-0.2,0.5-0.2,0.8c0,0.3-0.1,0.5-0.1,0.9c0,0.9,0.4,1.5,1,1.8
	c0.7,0.3,1.8,0.5,3.2,0.5v1.8h-11v-1.8c1.1-0.1,2-0.3,2.6-0.7c0.6-0.3,1.1-1,1.7-2.1l0.2-0.5L199,108.2z M217.4,138h11.7v-1.8
	c-2-0.1-3.4-0.5-4-1.3c-0.6-0.8-0.9-2.1-0.9-3.9v-20.2l10.1,27.2h1.6l9.5-27.1v21.7c0,0.7,0,1.3,0,1.7c0,0.4,0,0.7-0.1,0.8
	c-0.1,0.4-0.6,0.7-1.5,0.9c-0.6,0.1-1.6,0.2-3,0.2v1.8h13.7v-1.8c-2,0-3.3-0.2-3.8-0.3c-0.5-0.2-0.8-0.6-0.8-1.2l0-0.8v-20.2
	c0-1.5,0.2-2.4,0.6-2.7c0.4-0.3,1.7-0.4,4-0.5v-1.8h-10.5l-7.7,22l-8.1-22h-10.7v1.8l2.8,0c0.6,0,1,0.1,1.4,0.4
	c0.3,0.2,0.5,0.6,0.5,1.1l0.1,1v17.5c0,2.4-0.5,4-1.4,4.7c-0.6,0.5-1.7,0.8-3.5,1L217.4,138L217.4,138z M257.8,127l0.3,11.4h1.5
	l1.8-2.9c1,0.9,2.2,1.6,3.7,2.2c1.5,0.6,3.3,0.9,5.3,0.9c2.9,0,5.3-0.8,7.1-2.5c1.8-1.7,2.7-3.7,2.7-6.3c0-2.3-0.6-4.2-1.8-5.6
	c-1.2-1.4-3.1-2.4-5.6-3l-5.9-1.5c-1.6-0.4-2.8-0.9-3.5-1.4c-1.2-0.9-1.8-2.1-1.8-3.5c0-1.2,0.5-2.2,1.5-3.3c1-1,2.6-1.6,4.6-1.6
	c2.6,0,4.7,0.9,6.3,2.8c1.5,1.9,2.6,4,3.1,6.3l1.8-0.1l-0.5-10.6h-1.5l-1.7,2.6c-0.7-0.7-1.5-1.3-2.7-1.8c-1.5-0.6-3.2-1-5-1
	c-2.7,0-4.9,0.8-6.6,2.5c-1.7,1.6-2.5,3.6-2.5,5.9c0,2.6,1,4.6,2.9,5.9c1.2,0.8,3.3,1.6,6.4,2.4l3.9,1c2.1,0.6,3.5,1.3,4.2,2.2
	c0.7,0.9,1.1,1.9,1.1,3.2c0,1.7-0.6,3-1.7,4c-1.1,1-2.9,1.5-5.2,1.5c-3.1,0-5.5-1-7.2-3c-1.7-2-2.7-4.3-3.2-6.9L257.8,127z
	 M285.3,125.5h10.4v-3.3h-10.4V125.5z M300.1,127l0.3,11.4h1.5l1.8-2.9c1,0.9,2.2,1.6,3.7,2.2c1.5,0.6,3.3,0.9,5.3,0.9
	c2.9,0,5.3-0.8,7.1-2.5c1.8-1.7,2.7-3.7,2.7-6.3c0-2.3-0.6-4.2-1.8-5.6c-1.2-1.4-3.1-2.4-5.6-3l-5.9-1.5c-1.6-0.4-2.8-0.9-3.6-1.4
	c-1.2-0.9-1.8-2.1-1.8-3.5c0-1.2,0.5-2.2,1.5-3.3c1-1,2.5-1.6,4.6-1.6c2.6,0,4.7,0.9,6.3,2.8c1.6,1.9,2.6,4,3.1,6.3l1.8-0.1
	l-0.5-10.6h-1.5l-1.7,2.6c-0.6-0.7-1.5-1.3-2.7-1.8c-1.5-0.6-3.1-1-5-1c-2.7,0-4.9,0.8-6.6,2.5c-1.7,1.6-2.5,3.6-2.5,5.9
	c0,2.6,1,4.6,2.9,5.9c1.2,0.8,3.3,1.6,6.4,2.4l3.9,1c2.1,0.6,3.5,1.3,4.2,2.2c0.7,0.9,1.1,1.9,1.1,3.2c0,1.7-0.6,3-1.7,4
	c-1.1,1-2.9,1.5-5.2,1.5c-3.1,0-5.5-1-7.2-3c-1.7-2-2.7-4.3-3.2-6.9L300.1,127z M331.6,131.1c1.4,3.8,4,5.7,7.7,5.7
	c3.8,0,6.4-1.9,7.8-5.7c0.8-2,1.1-4.8,1.1-8.2c0-3.2-0.5-5.9-1.4-8c-1.5-3.3-3.9-4.9-7.5-4.9c-3.4,0-5.9,1.6-7.6,4.9
	c-0.9,2-1.4,4.8-1.4,8.4C330.5,126.5,330.8,129.1,331.6,131.1z M349.9,113.1c2.5,2.9,3.8,6.3,3.8,10.1c0,3.9-1.2,7.3-3.7,10.3
	c-2.8,3.4-6.3,5.1-10.6,5.1c-3.9,0-7.2-1.5-10.1-4.5c-2.8-2.9-4.2-6.5-4.2-10.6c0-4.1,1.3-7.6,4-10.6c2.8-3.1,6.2-4.7,10.2-4.7
	C343.7,108.2,347.2,109.9,349.9,113.1z M354.1,138h12.1v-1.8c-1.8-0.2-3.1-0.4-3.6-0.9c-0.9-0.7-1.4-2.1-1.4-4.2v-17.3l18.7,24.7
	h1.6v-22.5l0-1.1c0.1-1.8,0.5-3,1.4-3.6c0.6-0.4,1.7-0.7,3.4-0.8v-1.8h-11.7v1.8c1.4,0.1,2.4,0.3,3.1,0.6c1,0.6,1.6,1.6,1.6,3.2
	l0,1.7v14.5l-16.6-21.8h-8.8v1.8c1.8,0,3,0.1,3.5,0.2c0.5,0.1,1,0.5,1.5,1.1v18.5c0,2.4-0.3,3.9-1,4.5c-0.7,0.6-2,1.1-4,1.3V138
	L354.1,138z M393.4,131.1c1.4,3.8,4,5.7,7.7,5.7c3.8,0,6.4-1.9,7.8-5.7c0.7-2,1.1-4.8,1.1-8.2c0-3.2-0.5-5.9-1.4-8
	c-1.4-3.3-3.9-4.9-7.4-4.9c-3.4,0-5.9,1.6-7.6,4.9c-0.9,2-1.4,4.8-1.4,8.4C392.3,126.5,392.7,129.1,393.4,131.1z M411.8,113.1
	c2.5,2.9,3.8,6.3,3.8,10.1c0,3.9-1.2,7.3-3.7,10.3c-2.8,3.4-6.3,5.1-10.6,5.1c-3.9,0-7.2-1.5-10-4.5c-2.8-2.9-4.2-6.5-4.2-10.6
	c0-4.1,1.3-7.6,4-10.6c2.8-3.1,6.2-4.7,10.3-4.7C405.5,108.2,409,109.9,411.8,113.1z M416.2,138h11.7v-1.8c-2-0.1-3.4-0.5-4-1.3
	c-0.6-0.8-0.9-2.1-0.9-3.9v-20.2l10.1,27.2h1.6l9.5-27.1v21.7c0,0.7,0,1.3,0,1.7c0,0.4,0,0.7-0.1,0.8c-0.1,0.4-0.6,0.7-1.5,0.9
	c-0.6,0.1-1.6,0.2-3,0.2v1.8h13.7v-1.8c-2,0-3.3-0.2-3.8-0.3c-0.5-0.2-0.8-0.6-0.8-1.2l0-0.8v-20.2c0-1.5,0.2-2.4,0.6-2.7
	c0.4-0.3,1.7-0.4,4-0.5v-1.8h-10.5l-7.7,22l-8.1-22h-10.7v1.8l2.8,0c0.6,0,1.1,0.1,1.4,0.4c0.3,0.2,0.5,0.6,0.5,1.1l0.1,1v17.5
	c0,2.4-0.4,4-1.4,4.7c-0.5,0.5-1.7,0.8-3.5,1L416.2,138L416.2,138L416.2,138L416.2,138z M469.7,114.6l-4.7,11.8h9.6L469.7,114.6z
	 M470.1,108.2h1.7l11.2,26.7c0.2,0.6,0.7,0.9,1.3,1.1c0.4,0.1,1.1,0.2,2.2,0.2v1.8h-12.9v-1.8c1,0,1.7,0,2.3-0.1
	c0.6,0,1-0.1,1.2-0.2c0.2,0,0.4-0.1,0.6-0.2c0.2-0.1,0.3-0.4,0.3-0.7c0-0.1,0-0.3-0.1-0.4c0-0.1-0.1-0.3-0.1-0.4l-2.4-5.7h-11.3
	c-0.2,0.4-0.4,0.9-0.6,1.5c-0.2,0.5-0.3,0.9-0.4,1.2l-0.4,1.1c-0.1,0.3-0.2,0.5-0.2,0.8c-0.1,0.3-0.1,0.5-0.1,0.9
	c0,0.9,0.4,1.5,1,1.8c0.7,0.3,1.8,0.5,3.2,0.5v1.8h-11v-1.8c1.1-0.1,2-0.3,2.6-0.7c0.6-0.3,1.1-1,1.6-2.1l0.2-0.5L470.1,108.2z"/>
</svg>
