<?xml version="1.0" encoding="utf-8"?><!DOCTYPE svg PUBLIC "-//W3C//DTD SVG 1.1//EN" "http://www.w3.org/Graphics/SVG/1.1/DTD/svg11.dtd"><svg xmlns="http://www.w3.org/2000/svg" xmlns:xlink="http://www.w3.org/1999/xlink"><symbol viewBox="0 0 100 100" id="arrow" xmlns="http://www.w3.org/2000/svg"><path d="M84.9 50H15.1M15.1 50l24.8 24.8M15.1 50l24.8-24.8"/></symbol><symbol viewBox="0 0 151 14" id="break" xmlns="http://www.w3.org/2000/svg"><path d="M54.5 11.3c.5-.2.7-.7.5-1.2-.3-.7-1.2-1.1-1.9-.8-1.2.5-1.7 1.8-1.2 3 .7 1.8 3.1 2.1 4.3.6 1.9-2.4 5.5-8.4 9.1-10 2-.9 4.6 0 5.6 2s-.1 5-2.7 5.6c-1.7.4-3.4-.8-3.8-2.5-.2-1.1.5-2.1 1.6-2.3.7-.1 1.7.2 1.7 1.1M67.9 6.7H9.1M30.3 4.8C43.2 21.2 56.5-8.3 67.3 6"/><circle cx="2.1" cy="6.7" r="1"/><g><path d="M96.5 11.3c-.5-.2-.7-.8-.5-1.3.3-.7 1.2-1.1 1.9-.8 1.2.5 1.7 1.8 1.2 3-.7 1.8-3.1 2.1-4.3.6-1.9-2.4-5.5-8.4-9.1-10-2-.9-4.6 0-5.6 2s.1 5 2.7 5.6c1.7.4 3.4-.8 3.8-2.5.2-1.1-.5-2.1-1.6-2.3-.7-.1-1.7.2-1.7 1.1M83.1 6.7h58.8M120.7 4.8C107.8 21.2 94.5-8.3 83.7 6"/><circle cx="148.9" cy="6.7" r="1"/></g></symbol><symbol viewBox="0 0 100 42.591" id="car" xmlns="http://www.w3.org/2000/svg"><path d="M19.525 24.44c-5 0-9.069 4.075-9.069 9.089 0 4.986 4.069 9.062 9.069 9.062 5.013 0 9.088-4.076 9.088-9.062 0-5.014-4.075-9.089-9.088-9.089zm0 13.972c-2.676 0-4.876-2.201-4.876-4.883 0-2.695 2.201-4.896 4.876-4.896 2.695 0 4.889 2.201 4.889 4.896 0 2.681-2.194 4.883-4.889 4.883zM80.632 24.44c-5.007 0-9.076 4.075-9.076 9.089 0 4.986 4.069 9.062 9.076 9.062 5.006 0 9.068-4.076 9.068-9.062 0-5.014-4.062-9.089-9.068-9.089zm0 13.972c-2.695 0-4.89-2.201-4.89-4.883 0-2.695 2.194-4.896 4.89-4.896s4.889 2.201 4.889 4.896c0 2.681-2.194 4.883-4.889 4.883z"/><path d="M98.249 26.732c0-8.815-5.495-9.87-5.495-9.87-8.079-1.133-21.999-1.719-21.999-1.719C69.479 12.93 63.581 0 60.149 0H30.006c-4.368 0-11.523 12.604-13.092 15.456 0 0-5.482.938-8.066 1.537-1.432.325-5.41.403-5.41 11.51H0v5.026h8.366c0-6.172 5.007-11.172 11.159-11.172 6.178 0 11.172 5 11.172 11.172H69.46a11.16 11.16 0 0 1 11.172-11.172c6.165 0 11.165 5 11.165 11.172H100v-6.797h-1.751zM44.746 14.284H27.344c2.35-7.331 6.712-12.565 8.555-12.565h8.848v12.565zm3.242 0V1.719h11.289c2.324 0 7.422 10.638 8.854 13.359l-20.143-.794z"/></symbol><symbol viewBox="0 0 177 27" id="crateandbarrel" xmlns="http://www.w3.org/2000/svg"><path fill-rule="evenodd" clip-rule="evenodd" fill="#939598" d="M93 25.4l-1.7-2.2c-1.4 1.4-4.5 2.8-6.8 2.8-3.9 0-7.2-2.8-7.2-6.5 0-4.5 4.3-7 5.6-7.4-.9-1-2.4-2.9-2.4-5.1.1-3 1.9-5.4 5.9-5.4 3.4 0 6 2.3 6 5.6 0 3.8-2.9 5.1-3.8 5.8l2.8 4c.8-1 1.5-3.3 1.4-3.8h3.8s-.5 4.7-2.7 7l4 5.2H93zM86.5 5.2c-1.2 0-2.2 1-2 1.9.1 1.3 1.2 2.2 1.8 3 .9-.6 2.4-1.5 2.4-2.9 0-1.1-.9-2-2.2-2zm-1.4 10c-3.7 2.5-3.4 4.2-3.4 4.2 0 1.7 1.6 2.7 2.8 2.8 1.4 0 3.4-1.2 4.4-2l-3.8-5z"/><path fill-rule="evenodd" clip-rule="evenodd" d="M20.8 11.7c-.9-3.4-4-6.2-7.6-6.2-4.6 0-8.1 3.7-8 8.1.1 4.3 3.4 7.6 8 7.6 4.3 0 6.8-3.1 7.3-5.2H25c-1 6.3-7.1 9.7-11.9 9.7C7.6 25.7.7 21.2.7 13.5.6 6.3 6.1 1 13.1 1 19 1 24.4 5.5 25.2 11.7h-4.4zM57.3 25.5c-3.6 0-4.2-2.6-4.2-4V11.1h-2.3V7.7h2.3V2.6h4.5V8h2.9v3.1h-2.9v9.4c0 2.4 2.9 1.6 3.3 1.7v3.3h-3.6zM30.4 17.5v7.9H26V8.3h4.3V10c.6-.9 1.9-1.8 3.3-2.3 1-.1 1.9 0 1.9 0v4.2c-2.2-.6-5.3.4-5.1 5.6z"/><path fill-rule="evenodd" clip-rule="evenodd" d="M64.3 17.9c0 2.3 2.2 4 4.4 4 1.6 0 2.6-.6 3.4-1.9h4.6c-.6 3-3.8 5.8-7.9 5.8-5.3 0-9-4-9-9.6 0-4.3 3.2-8.7 8.5-8.6 6 .1 8.7 5.3 8.6 10.3H64.3zm4-6.8c-1.9-.1-3.8 1.4-3.8 3.6H72c.1-2.2-1.6-3.6-3.7-3.6zM47 25.4c0 .1-.1-.6-.3-1.4-.8.6-2.5 1.9-5.2 1.9-3 0-6.5-1.8-6.5-5.4 0-2.2 1.4-5 6.2-5.6 2.8-.4 5-.2 5.1-1.7.1-.5-.4-2.4-3.2-2.4-1.3 0-2.9.4-3.2 2.5H36c0-3 1.8-5.6 7.5-5.6 3.6 0 7.1 1.5 7.1 5.4v9.5c.1 1 .4 2.3.8 2.8H47zm-8-5c.1 1.8 2.5 2.2 2.9 1.9 0 0 2.4 0 3.4-1.2.6-.9 1-1.9.6-4.3-4.2 1.1-6.9 1.5-6.9 3.6zM172.1 2.4h4.3v23h-4.3v-23zM149.4 17.6v7.7H145v-17h4.3V10c.8-.9 1.9-1.9 3.3-2.3 1.1-.2 2 0 2 0V12c-2.4-.6-5.5.4-5.2 5.6zM138.7 17.6v7.7h-4.5v-17h4.4V10c.8-.9 1.9-1.9 3.3-2.3 1-.2 1.9 0 1.9 0V12c-2.2-.6-5.3.4-5.1 5.6zM158.6 18c0 2.2 2.2 3.9 4.4 3.9 1.5 0 2.6-.5 3.4-1.9h4.5c-.5 3-3.7 5.8-7.7 5.8-5.2 0-9-4-9-9.5 0-4.3 3.2-8.7 8.5-8.6 5.9 0 8.7 5.3 8.5 10.3h-12.6zm4.1-6.9c-2 0-3.9 1.4-3.9 3.6h7.5c.1-2.1-1.5-3.6-3.6-3.6zM110.2 25.4H98.1V2.3h10.4c3.6 0 7.2 1.6 7.2 5.9 0 3.6-2.8 4.3-3.4 4.8 2 .6 4.3 2.6 4.3 6.3 0 4.2-3.9 6.1-6.4 6.1zm-2.6-19.5h-5.2v5.7h5c1.1 0 3.7-.4 3.7-3.1-.1-1.8-1.9-2.6-3.5-2.6zm0 9.2h-5.2v6.8h5.5c.8 0 3.7-.6 3.7-3.1 0-1.5-.3-3.7-4-3.7zM129.2 25.4c0 .1-.2-.6-.3-1.4-.8.6-2.5 1.9-5.2 1.9-3 0-6.5-1.8-6.5-5.4 0-2.2 1.4-4.8 6.3-5.6 2.6-.4 4.8-.2 5-1.7.1-.4-.4-2.3-3.2-2.3-1.3 0-2.8.3-3.1 2.5h-4c0-3 2-5.6 7.5-5.6 3.4 0 7 1.5 7.1 5.4V22c0 .8.3 2.7.6 3.3h-4.2v.1zm-7.4-5c0 1.8 2.5 2.2 2.9 1.9 0 0 2.4 0 3.3-1.2.6-.9.9-1.8.6-4.3-4.1 1.2-6.8 1.5-6.8 3.6z"/></symbol><symbol viewBox="0 0 29.05 29.05" id="delete" xmlns="http://www.w3.org/2000/svg"><title>delete</title><path d="M20.12 14.53l8.1-8.1a3 3 0 0 0 0-4.1l-1.5-1.5a3 3 0 0 0-4.1 0l-8.1 8.1-8.1-8.1a3 3 0 0 0-4.1 0l-1.5 1.5a3 3 0 0 0 0 4.1l8.1 8.1-8.1 8.1a3 3 0 0 0 0 4.1l1.5 1.5a3 3 0 0 0 4.1 0l8.1-8.1 8.1 8.1a3 3 0 0 0 4.1 0l1.5-1.5a3 3 0 0 0 0-4.1z"/></symbol><symbol viewBox="0 0 152.1 96" id="headings_events" xmlns="http://www.w3.org/2000/svg"><path d="M47.8 58.6c.4.8-.4 2.2-1.7 3.5-2.7 2.8-7.2 4.4-11.7 4.1-3.5 4.7-9 8.2-16.3 8.2-4.1 0-7.8-1.6-11.3-4.7-3.4-3.1-5.1-7.3-5.1-12.6 0-17.3 15.1-28.2 27.6-29.3-3.9-6.3-2.3-18.6 7.8-22.9 8-3.5 18-.7 18 7.8 0 2.7-.9 4.9-2.8 6.5-1.8 1.6-3.4 2.4-4.7 2.5-2.3.1-2.3-2.2-.3-2.3 3.2-.3 5.5-3.4 5.5-6.3 0-4.4-3.1-6.7-6.8-6.7-10.2 0-17.4 12.1-13.1 20.7.7-.1 1.9.2 3.4.8 1.5.5 2.1 1.4 1.8 2.7-.3 1.1-1.2 1.6-2.8 1.5-1.6-.2-2.9-.8-3.8-1.9C19.5 31 6.9 43.3 6.9 58c0 3.9 1 7.3 2.9 10.2 1.9 2.9 4.8 4.4 8.5 4.4 5.3 0 9.6-3 12.3-7.1-2.5-.9-5.1-2.7-6.6-5.4-4.6-7.8-.3-17.2 6.3-17.2 9 0 10.7 12.2 5.3 21.4 3.9 0 8.1-1.7 11-5.4.5-.7.9-.8 1.2-.3zm-20.4 2.6c1.1 1.2 2.6 2 4.3 2.5 4.5-8 4.1-18.7-1.4-18.7-6.3 0-8.3 11.3-2.9 16.2z"/><path d="M72.3 56.6c1.1-1.2 2.3.1.8 1.6-2.9 2.9-6.6 3.3-9.4 2.4-5.6 9.3-9.9 14.1-15.8 14.1-5.6 0-7.4-5.1-4.5-10.4 2.7-4.8 2.6-4.8 6.4-11.3.4-.7.8-1.1 1.9-1.1h2.6c1.1 0 1.4.6.7 1.8-.3.7-1.3 2.3-2.9 5-1.5 2.7-3 5.1-4.3 7.4-2.4 4.1-.8 6.2 1.6 6.2 3.2 0 7.6-3.8 12.3-12.6-.7-.5-1.3-1.1-1.7-1.8-1.7-2.9-.1-6.3 2.6-6.3 2.9-.1 4.1 2.7 2.1 7.2 2 .8 5.1.5 7.6-2.2zm-9.6 1.2c.3-.4.6-1.2 1-2.4.4-1.3.1-1.9-.9-2-1.1-.1-1.8 1.7-1 3.3.1.4.5.8.9 1.1z"/><path d="M65.3 67.1c0-3.7 1.6-7.2 4.7-10.6 3.2-3.4 6.7-5.1 10.6-5.1 3.7 0 4.8 2.6 3.9 4.9-.9 2.1-2.9 3.9-6.9 5.2-2.3.7-4.5 1.2-6.2 1.3-.7 1.5-1.3 3.2-1.3 5.3 0 2.5 1 4.6 4.5 4.6 4.9 0 10.1-5.2 16.1-13.7.5-.8.9-.8 1.2-.4.4.5-.1 2-1.2 3.6-1.9 2.9-4.2 5.7-7.1 8.5-2.9 2.7-6.1 4.1-9.7 4.1-5.7 0-8.6-3.6-8.6-7.7zm7.2-6.5c2.1-.4 4.8-1 6.7-1.9 4.1-2.1 3.9-5.2 1.8-5.2-2.9 0-6.4 3.2-8.5 7.1z"/><path d="M116.9 59c.5-.9 1.1-.9 1.2-.4.4.5-.1 2-1.2 3.6-1.9 2.9-4 5.7-6.4 8.4-2.4 2.7-5 4.1-7.8 4.1-3.2 0-5.1-2.2-5.1-4.7 0-5.3 7.1-9.9 7.1-13.7 0-.9-.7-1.7-1.6-1.7-4.5 0-10.6 11.2-15.4 18.7-.4.7-.8 1.1-1.9 1.1h-1.7c-1.1 0-1.2-.6-.7-1.8 2.8-4.9 6.4-13.1 10.1-19.6.4-.7.8-1.1 1.9-1.1h2.2c.9 0 1.3.6.6 1.8l-2 3.9c2.4-2.9 5.3-5.5 8.4-5.5 2.9 0 4.5 1.8 4.5 4.3 0 5-7 10.6-7 14.6 0 .9.6 1.5 1.4 1.5 2.9 0 7.5-5 13.4-13.5z"/><path d="M132.6 59c.5-.9.9-.9 1.2-.4.4.5-.1 2-1.2 3.6-1.9 2.9-4 5.7-6.5 8.4-2.4 2.7-5 4.1-7.7 4.1-3.2 0-5.1-1.1-5.8-3.3-.7-2.2-.5-4.5.8-6.9 1.6-2.9 3.4-6.3 5.9-10.7h-1.6c-1.2 0-1.5-.4-1.2-1.1.4-.8.9-.7 2.2-.7h1.7l3.3-5.8c.4-.5.8-1 1.9-1h2.7c.9 0 1.3.5.6 1.8l-2.8 5h3.1c.9 0 1.6 0 1.3 1.1-.3.9-1.3.8-2.2.8H125l-7.2 12.8c-1.7 2.9-1.7 5.8 1.2 5.8 3.3 0 7.6-5 13.6-13.5z"/><path d="M150.1 65.7c.4.7-.1 1.9-1.2 3.5-2.5 3.3-7.1 6-13.5 6-4.8 0-8.3-1.7-8.8-5.3-.3-1.3.3-3 1.6-4.7 3.2-4.1 5.5-7.6 9-13.2 2.4-3.7 3.3-4.7 4.4-4.7.5 0 1.3.5.4 1.8-.4.5-.7.9-1.2 1.8-.9 1.7 1.2 4.9 2.9 9.4 1.6 4.1 1.1 7.9-.9 10.8-.3.5-.7.9-1.1 1.2 3.6-1.3 5.6-3.7 7.3-6.2.5-.8 1-.8 1.1-.4zm-16.5 1.2c.3 1.2.2 2-.3 2.5s-1.1.5-1.6.4c-.5-.3-.7-.9-.3-1.6.9-1.3-.9-2.1-2.1-1-.9.9-1 2-.5 3.5s1.7 2.2 3.8 2.2c3.3 0 5-2.3 6.3-5.1 1.1-2.5 1.3-4.9.6-7.3l-1.5-6.2c-1.6 2.1-4.1 6.9-7.3 10.6 1.7.1 2.6.7 2.9 2z"/></symbol><symbol viewBox="0 0 174.4 96" id="headings_photos" xmlns="http://www.w3.org/2000/svg"><path d="M65.1 7.6c2.3-2.1 4.3-3.5 5.9-3.9 1.1-.1 1.7 1.1 0 2.3-.9.7-2.1 1.7-3.3 2.8 5.7 3.1 10.8 9.1 10.8 16.8 0 13.1-10.2 20.9-19.5 20.9-4 0-6.6-.8-7.8-2.5-1.1-1.7-1.1-2.6.1-2.8 1.1-.1 1.8.4 2.2 1.5.4 1.1 2 1.6 4.9 1.6 6.8 0 15.1-8.2 15.1-20.2 0-5.5-2.7-11.1-7.4-13.6-3.5 3.7-7.6 9.7-11.3 17.3-12.6 24.9-20.4 47.6-40.4 47.6-4.8 0-8.2-1.3-10.3-3.8C2 69.1 1 66.6 1 64.2c0-5.6 4.2-9.4 9.1-9.4 3.5 0 5.3 2.5 5.4 4.2.4 2.8-1.9 2.8-2 .9-.1-1.3-1.1-3.2-3.6-3.2-3.7 0-6.7 3.2-6.8 7.3-.1 5.3 4.5 9.3 10.6 9.3 13 0 21.2-17.8 30.5-35.4 7.1-12.8 13.9-23 19.2-28.7-2.1-.5-4.7-1-7.2-1-5.5 0-10.8 1.9-15.9 5.6-5.1 3.7-8.7 7.7-10.9 12-3.2 6.1-2.5 10.5.7 10.5 2.9 0 6.3-2.2 10-8.7.7-1.2 1.1-2.2 1.9-2.1s1.2 1.2.3 2.8c-4.1 7.9-8.5 10.1-12.4 10.1-2.9 0-4.7-1.3-5.6-3.8-.8-2.6-.5-5.6 1-8.9 2.4-5.3 6.5-9.9 12.3-13.8C43.4 8 49.7 6.1 56.4 6.1c3.2 0 6.2.6 8.7 1.5zM92 59c.5-.9.9-.9 1.2-.4.4.5-.1 2-1.2 3.6-1.9 2.9-4 5.7-6.4 8.4-2.4 2.7-5 4-7.8 4.1-3.2 0-5.1-2.2-5.1-4.7 0-5.2 7-9.7 7-13.5 0-1.1-.8-1.8-1.9-1.7-2 .3-6.1 3.3-10.2 9.8-2.1 3.3-3.4 5.8-5 8.7-.4.7-1 1.1-1.9 1.1H59c-1.1 0-1.2-.7-.7-1.9 6.4-11.3 12-22.9 19.1-35.3.4-.5.8-1 1.9-1h2.2c.9 0 1.3.5.6 1.8-.6 1.2-7 11.9-11 19.4 2.3-2.8 5.3-5.1 8.2-5.1 3.2 0 4.9 2 4.9 4.5 0 5.2-7.1 10.6-7.1 14 0 1.1.6 1.7 1.5 1.7 2.9 0 7.4-5 13.4-13.5z"/><path d="M116.8 59.5c.1.3 0 1.1-.5 2-1.2 2-3.7 4.2-6.6 4.5-.8.1-1.7 0-2.6-.1-2.8 4.5-7.3 8.8-12 8.8-3.7 0-6-1.5-6.8-4.6-.9-3.1-.4-6.2 1.5-9.4 4.1-6.8 10.2-9.3 14.2-9.3 3.7 0 6.1 2 6.1 6.1 0 1.9-.8 4.3-2 6.7.5.1 1.1.2 1.8.1 2.5-.1 4.6-2.5 5.7-4.5.4-.8 1.1-.7 1.2-.3zm-9-2.3c.4-2.7-1.3-3.7-3.2-3.7s-3.8 1-5.7 3c-1.9 2-3.5 4.2-4.6 6.6-1.1 2.3-1.7 4.5-1.7 6.5.1 2 1.1 3 3.1 3 3.2 0 7-3.7 9.5-7.7-.7-.4-1.2-1-1.6-1.7-.9-1.3-1-2.7-.4-4.1.6-1.5 1.6-2.2 2.9-2.3.7 0 1.3.2 1.7.4zm-.7 3.9c.4-1.5 0-2.5-.9-2.6-1.1-.1-2 1.8-1.1 3.5.1.5.5 1 1 1.3.3-.8.7-1.4 1-2.2z"/><path d="M132 59c.5-.9.9-.9 1.2-.4.4.5-.1 2-1.2 3.6-1.9 2.9-4 5.7-6.5 8.4-2.4 2.7-5 4.1-7.7 4.1-3.2 0-5.1-1.1-5.8-3.3-.7-2.2-.5-4.5.8-6.9 1.6-2.9 3.4-6.3 5.9-10.7h-1.6c-1.2 0-1.5-.4-1.2-1.1.4-.8.9-.7 2.2-.7h1.7l3.3-5.8c.4-.5.8-1 1.9-1h2.7c.9 0 1.3.5.6 1.8l-2.8 5h3.1c.9 0 1.6 0 1.3 1.1-.3.9-1.3.8-2.2.8h-3.3l-7.2 12.8c-1.7 2.9-1.7 5.8 1.2 5.8 3.3 0 7.6-5 13.6-13.5z"/><path d="M171.8 66.1c.5-.8.9-.8 1.2-.4.4.7-.1 1.9-1.3 3.5-2.5 3.3-7.1 6-13.5 6-4.8 0-8.9-2.1-8.9-6.2 0-1.7 1.8-4.2 4.2-4.2 1.9 0 2.9.7 3.1 2s.1 2.1-.4 2.6-1.1.5-1.6.4c-.5-.3-.8-.9-.4-1.6.9-1.3-.9-2.1-2-1-.9.9-1.2 2-.7 3.5s1.8 2.2 3.9 2.2c3.3 0 5.1-2.3 6.3-5.1 1.1-2.5 1.3-4.9.6-7.4-.6-2.5-1.1-4.7-1.6-6.4-3.3 5.1-7.6 9.2-12.5 9.3-1.3 2.9-3.1 5.5-5.5 7.9-2.4 2.3-4.9 3.5-7.6 3.5-3.7 0-6.1-1.5-7-4.6-1-3.1-.6-6.2 1.3-9.4 4.1-6.8 10.2-9.3 14.2-9.3 3.7 0 5.9 2 5.9 6.1 0 1.2-.3 2.7-.7 4 4-.7 8-5 10.9-9.5 2.4-3.6 3.6-4.7 4.7-4.7.7 0 1.3.5.4 1.8-.3.5-.7.9-1.2 1.8-.9 1.7 1.3 4.9 3 9.4 1.5 4.1 1.3 8.7-2 12 3.5-1.3 5.5-3.7 7.2-6.2zm-24.4-10.4c-.5-1.6-1.7-2.2-3.2-2.2-3.7 0-8 4.8-10.1 9.6-1.1 2.3-1.6 4.5-1.5 6.5.1 2 1.1 3 3.2 3 4 0 8.2-4.7 10.3-9.6-2.3-.5-3.7-2.4-3.7-4 0-1.9 1.4-3.7 3.7-3.7.5 0 1 .3 1.3.4zm-3.1 3.3c-.1 1.3.7 2.2 2.4 2.5.3-.7.4-1.6.5-2.8s-.2-1.8-1.1-1.8c-1.1 0-1.7.7-1.8 2.1z"/></symbol><symbol viewBox="0 0 204 96" id="headings_playlist" xmlns="http://www.w3.org/2000/svg"><path d="M65.1 7.6c2.3-2.1 4.3-3.5 5.9-3.9 1.1-.1 1.7 1.1 0 2.3-.9.7-2.1 1.7-3.3 2.8 5.7 3.1 10.8 9.1 10.8 16.8 0 13.1-10.2 20.9-19.5 20.9-4 0-6.6-.8-7.8-2.5-1.1-1.7-1.1-2.6.1-2.8 1.1-.1 1.8.4 2.2 1.5.4 1.1 2 1.6 4.9 1.6 6.8 0 15.1-8.2 15.1-20.2 0-5.5-2.7-11.1-7.4-13.6-3.5 3.7-7.6 9.7-11.3 17.3-12.6 24.9-20.4 47.6-40.4 47.6-4.8 0-8.2-1.3-10.3-3.8C2 69.1 1 66.6 1 64.2c0-5.6 4.2-9.4 9.1-9.4 3.5 0 5.3 2.5 5.4 4.2.4 2.8-1.9 2.8-2 .9-.1-1.3-1.1-3.2-3.6-3.2-3.7 0-6.7 3.2-6.8 7.3-.1 5.3 4.5 9.3 10.6 9.3 13 0 21.2-17.8 30.5-35.4 7.1-12.8 13.9-23 19.2-28.7-2.1-.5-4.7-1-7.2-1-5.5 0-10.8 1.9-15.9 5.6-5.1 3.7-8.7 7.7-10.9 12-3.2 6.1-2.5 10.5.7 10.5 2.9 0 6.3-2.2 10-8.7.7-1.2 1.1-2.2 1.9-2.1s1.2 1.2.3 2.8c-4.1 7.9-8.5 10.1-12.4 10.1-2.9 0-4.7-1.3-5.6-3.8-.8-2.6-.5-5.6 1-8.9 2.4-5.3 6.5-9.9 12.3-13.8C43.4 8 49.7 6.1 56.4 6.1c3.2 0 6.2.6 8.7 1.5zM74.2 43.5c5.6-9.6 10.4-15.8 15.1-15.8 3.9 0 4.8 4.5-.3 10.6-3.3 4.1-7.9 8.4-13 12.1-3.6 6.8-7.2 13.6-8.9 17.1-1.5 3.1-.7 4.9 1 4.9 2.9 0 8.7-4.7 14.4-13.5.5-.9.9-.9 1.2-.4.4.9-.1 2.1-1.2 3.7-1.9 2.9-4.3 5.7-7.1 8.4-2.7 2.7-5.5 4-8.3 4-4.9 0-6.4-4.8-3.9-10 1.9-3.8 7.2-14.6 11-21.1zm3.7 3.4l4.9-4.7c4.4-4.2 6.8-7.4 7.3-9.6s.2-3.3-.8-3.3c-2.5 0-5.4 5.7-9.5 13.7l-1.9 3.9z"/><path d="M110.2 59c.5-.9.9-.9 1.2-.4.4.5-.1 2-1.2 3.6-1.9 2.9-4 5.7-6.5 8.4-2.4 2.7-5 4-7.8 4.1-2.9 0-4.8-1.4-5.3-4.3-1.9 2.1-4.1 4.2-6.9 4.2-3.3 0-5.2-1.5-5.8-4.5-.6-3.1 0-6.2 1.9-9.4 4.1-6.8 9.9-9.3 13.9-9.3 2.5 0 3.8 1.2 4.3 2.7l.8-1.2c.4-.7.8-1.1 1.9-1.1h2.7c.9 0 1.3.6.6 1.8l-8 14.3c-1.6 2.9-.9 4.6.8 4.6 2.9 0 7.4-5 13.4-13.5zM96 57.6c1.3-2.7-.4-4.1-1.9-4.1-1.7 0-3.5 1-5.4 3-1.9 2-3.4 4.2-4.7 6.5-1.2 2.3-1.9 4.5-2.1 6.5-.1 2 .6 3 2.3 3 4.9 0 9.9-11.4 11.8-14.9z"/><path d="M117.4 77.2c-2.9 4.8-5.9 8.9-9.1 12.4-3.3 3.5-7 5.2-11.1 5.2-3.3 0-5.4-2.2-5.4-4.7s2.2-5.8 7.7-8.2c3.9-1.7 8.5-3.2 12.6-4.7.9-1.3 2.8-3.8 3.7-5.5-1.1.8-3.6 3-6.5 3-4.8 0-6.6-4.5-4.1-9.2 1.3-2.5 2.4-4.4 3.2-5.7l3.9-6.9c.5-.5.9-1 2-1h2.6c1.1 0 1.4.5.7 1.8-.8 1.1-5.4 9.3-8 13.8-1.7 2.9-.8 4.7.8 4.7 2.5 0 5.9-3.1 11.2-12l2.1-3.8c.3-.7 1-1.8 2-3.5.4-.5.8-1 1.9-1h2.9c.9 0 1 .6.5 1.8-.8 1.1-5.3 9.3-8 13.8-1.3 2.3-2.6 4.8-3.9 6.9 6.9-3.2 12.4-7.2 17.3-15.6.5-.9.9-.9 1.2-.4.4.9-.1 1.9-1 3.6-3.9 6.4-9.2 11.3-17.6 14.6-.3.1-1.1.5-1.6.6zm-7 2.6c-6.5 2.3-11.4 3.9-14.3 6.4-3.1 2.8-2.4 6.6.9 6.6 4.4 0 8.7-5.7 13.4-13z"/><path d="M144.3 43.5c5.6-9.6 10.4-15.8 15.1-15.8 3.9 0 4.8 4.5-.3 10.6-3.3 4.1-7.9 8.4-13 12.1-3.6 6.8-7.2 13.6-8.9 17.1-1.5 3.1-.7 4.9 1 4.9 2.9 0 8.7-4.7 14.4-13.5.5-.9.9-.9 1.2-.4.4.9-.1 2.1-1.2 3.7-1.9 2.9-4.3 5.7-7.1 8.4-2.7 2.7-5.5 4-8.3 4-4.9 0-6.4-4.8-3.9-10 1.9-3.8 7.2-14.6 11-21.1zm3.7 3.4l4.9-4.7c4.4-4.2 6.8-7.4 7.3-9.6s.2-3.3-.8-3.3c-2.5 0-5.4 5.7-9.5 13.7l-1.9 3.9z"/><path d="M167.3 59c.5-.9.9-.9 1.2-.4.4.5-.1 2-1.2 3.6-1.9 2.9-4 5.7-6.5 8.4-2.4 2.7-5 4-7.7 4.1-4.9 0-6.7-4.4-4.2-9.2 1.3-2.5 2.4-4.4 3.1-5.7l3.9-6.9c.4-.7.8-1.1 1.9-1.1h2.7c1.1 0 1.3.6.6 1.8l-7.8 13.9c-1.6 2.9-1.3 5 .6 5 2.9 0 7.4-5 13.4-13.5zm-2.7-19.8c1.3 0 2.4 1.1 2.4 2.4 0 1.3-1.1 2.5-2.4 2.5-1.3 0-2.5-1.2-2.5-2.5s1.2-2.4 2.5-2.4z"/><path d="M190 58.6c.3.7 0 2-1.1 3.6-6.4 9.6-12.6 13-19 13-4.8 0-8.3-1.7-8.8-5.3-.3-1.3.3-3 1.6-4.7 3.2-4.1 5.5-7.6 9-13.2 2.4-3.7 3.3-4.7 4.4-4.7.5 0 1.3.5.4 1.8-.4.5-.7.9-1.2 1.8-.9 1.7 1.2 4.9 2.9 9.4 1.6 4.1 1.1 7.9-.9 10.8-.1.3-.3.6-.6.7 4.4-2.3 8.5-7.1 12.2-12.8.5-.9 1-.9 1.1-.4zm-21.9 8.3c.3 1.2.2 2-.3 2.5s-1.1.5-1.6.4c-.5-.3-.7-.9-.3-1.6.9-1.3-.9-2.1-2.1-1-.9.9-1 2-.5 3.5s1.7 2.2 3.8 2.2c3.3 0 5.1-2.4 6.3-5.1 2-4.5.4-8.7-.9-13.5-1.6 2.1-4.1 6.9-7.3 10.6 1.7.1 2.6.7 2.9 2z"/><path d="M199.6 66c.5-.8 1-.5 1.1-.1.1.5 0 1.5-1.2 3.1-1.7 2.1-5.1 5.7-8.8 5.7-3.2 0-5.1-1.1-5.8-3.3s-.5-4.5.8-6.9c1.6-2.9 3.4-6.3 5.9-10.7H190c-1.2 0-1.5-.4-1.2-1.1.4-.8.9-.7 2.2-.7h1.7l3.3-5.8c.4-.5.8-1 1.9-1h2.7c.9 0 1.3.5.6 1.8l-2.8 5h3.1c.9 0 1.6 0 1.3 1.1-.3.9-1.3.8-2.2.8h-3.3l-7.2 12.8c-1.7 2.9-1.7 5.8 1.2 5.8 2.5 0 5.4-2.5 8.3-6.5z"/></symbol><symbol viewBox="0 0 217.7 96" id="headings_registry" xmlns="http://www.w3.org/2000/svg"><path d="M65.3 7.9c2.4-2.4 4.6-3.9 6.3-4.2 1.1-.1 1.7 1.1 0 2.3-1.2.7-2.4 1.8-3.7 3.1 3.7 2.2 6.1 5.2 7.4 8.9 1.3 3.7 1.3 7.1.2 10.2-1.3 3.5-3.3 6-6 7.4-2.6 1.4-5 2.3-7.3 2.6 1.2.9 2.1 2.5 2.6 4.8 1.6 8-4.4 16-7.7 22.6-2 3.9-1.1 6.6 1.3 6.6 2.9 0 8.1-4.6 13.2-13.3.5-.8.9-.8 1.2-.3.4.8-.1 1.9-1 3.5-1.9 3.2-4.1 6.1-6.6 8.7-2.4 2.5-5 3.8-7.8 3.7-6 0-8.2-5-4.6-12.5 1.9-3.8 3.4-6.7 4.6-8.7 1.2-2.1 2.2-4.4 3.1-7.1.9-3.2.6-6.6-2.2-7.9-2.3-.3-3.4-1-3.3-2.2.1-1.3.8-1.9 2.1-1.8 1.5 0 1.9 1.4 2.8 1.5 4 .5 8.8-3 10.8-8.6 2.1-6.1.7-12.6-4.6-16.2-3.3 3.9-7.1 9.5-10.7 16.8-12.6 24.9-21.1 49.9-41 49.9-4.8 0-8.2-1.3-10.3-3.8S1 68.9 1 66.5c0-5.6 4.3-9.4 9.2-9.4 3.5 0 5.1 2.5 5.4 4.2.3 2.8-2 2.8-2.1.9-.1-1.3-.9-3.2-3.6-3.2-3.6 0-6.7 3.2-6.8 7.3-.1 5.3 4.6 9.3 10.7 9.3 12.9 0 21.4-20.1 31-37.7 6.8-12.7 13.5-22.6 18.8-28.3-2.1-.9-5-1.5-8.2-1.5-5.9 0-11.5 1.8-16.8 5.5-5.3 3.7-9.1 7.7-11.4 12.2-1.6 3.1-2 5.6-1.3 7.6.7 1.9 1.9 2.9 3.4 2.9 2.9 0 6.3-2.2 10-8.7.8-1.3 1.1-2.2 1.9-2.1.9.1 1.2 1.2.4 2.8-4.1 7.9-8.6 10-12.5 10-2.9 0-4.7-1.3-5.6-3.8-.8-2.6-.5-5.5 1-8.8 2.4-5.4 6.5-10 12.3-13.9C42.6 7.9 48.9 6 55.6 6c3.7 0 6.9.7 9.7 1.9z"/><path d="M67.1 67.1c0-3.7 1.6-7.2 4.7-10.6 3.2-3.4 6.7-5.1 10.6-5.1 3.7 0 4.8 2.6 3.9 4.9-.9 2.1-2.9 3.9-6.9 5.2-2.3.7-4.5 1.2-6.2 1.3-.7 1.5-1.3 3.2-1.3 5.3 0 2.5 1 4.6 4.5 4.6 4.9 0 10.1-5.2 16.1-13.7.5-.8.9-.8 1.2-.4.4.5-.1 2-1.2 3.6-1.9 2.9-4.2 5.7-7.1 8.5-2.9 2.7-6.1 4.1-9.7 4.1-5.7 0-8.6-3.6-8.6-7.7zm7.2-6.5c2.1-.4 4.8-1 6.7-1.9 4.1-2.1 3.9-5.2 1.8-5.2-2.9 0-6.4 3.2-8.5 7.1z"/><path d="M99.9 70.7c-2.1 2.5-4.1 3.9-6.6 3.9-2.9 0-4.7-1.5-5.3-4.5-.6-3.1 0-6.2 1.9-9.4 4-6.8 9.5-9.2 13.5-9.2 2.3 0 4 1.2 4.5 2.8l.7-1.4c.3-.5.8-1 1.9-1h2.7c.9 0 1.3.5.6 1.8l-11.6 20.9 1.6-.8c3.3-1.7 5.9-3.7 8-5.8 2.1-2.1 4.4-5.2 6.8-9.2.5-.9.7-.9 1-.4.5.9 0 1.9-.9 3.6-1.8 3.1-3.8 5.7-6 8-2.1 2.2-5.4 4.3-9.7 6.4l-2.6 1.2c-2.9 4.7-5.9 8.8-9.1 12.1-3.3 3.4-6.9 5.1-10.9 5.1-6.6 0-8.8-8.1 2.4-12.9 3.5-1.5 9-3.4 13.4-5 1.1-1.7 2.6-4.1 3.7-6.2zM87.1 88.8c2.7-2.6 5.2-5.7 7.5-9.2-6.4 2.1-12.4 4.2-15.3 6.7-3.3 2.8-2.5 6.4.7 6.4 2.1 0 4.4-1.3 7.1-3.9zM106 57.7c1.2-2.4 0-4-1.9-4-1.8 0-3.7 1-5.6 3-1.9 1.9-3.4 4.1-4.6 6.4-1.2 2.3-1.9 4.5-2 6.5-.1 1.9.7 2.9 2.4 2.9 4.2 0 8-8.2 11.7-14.8z"/><path d="M133.3 59c.5-.9.9-.9 1.2-.4.4.5-.1 2-1.2 3.6-1.9 2.9-4 5.7-6.5 8.4-2.4 2.7-5 4-7.7 4.1-4.9 0-6.7-4.4-4.2-9.2 1.3-2.5 2.4-4.4 3.1-5.7l3.9-6.9c.4-.7.8-1.1 1.9-1.1h2.7c1.1 0 1.3.6.6 1.8l-7.8 13.9c-1.6 2.9-1.3 5 .6 5 2.9 0 7.4-5 13.4-13.5zm-2.7-19.8c1.3 0 2.4 1.1 2.4 2.4 0 1.3-1.1 2.5-2.4 2.5-1.3 0-2.5-1.2-2.5-2.5s1.2-2.4 2.5-2.4z"/><path d="M156 58.6c.3.7 0 2-1.1 3.6-6.4 9.6-12.6 13-19 13-4.8 0-8.3-1.7-8.8-5.3-.3-1.3.3-3 1.6-4.7 3.2-4.1 5.5-7.6 9-13.2 2.4-3.7 3.3-4.7 4.4-4.7.5 0 1.3.5.4 1.8-.4.5-.7.9-1.2 1.8-.9 1.7 1.2 4.9 2.9 9.4 1.6 4.1 1.1 7.9-.9 10.8-.1.3-.3.6-.6.7 4.4-2.3 8.5-7.1 12.2-12.8.5-.9 1-.9 1.1-.4zm-21.9 8.3c.3 1.2.2 2-.3 2.5s-1.1.5-1.6.4c-.5-.3-.7-.9-.3-1.6.9-1.3-.9-2.1-2.1-1-.9.9-1 2-.5 3.5s1.7 2.2 3.8 2.2c3.3 0 5.1-2.4 6.3-5.1 2-4.5.4-8.7-.9-13.5-1.6 2.1-4.1 6.9-7.3 10.6 1.7.1 2.6.7 2.9 2z"/><path d="M171.4 59c.5-.9.9-.9 1.2-.4.4.5-.1 2-1.2 3.6-1.9 2.9-4 5.7-6.5 8.4-2.4 2.7-5 4.1-7.7 4.1-3.2 0-5.1-1.1-5.8-3.3s-.5-4.5.8-6.9c1.6-2.9 3.4-6.3 5.9-10.7h-1.6c-1.2 0-1.5-.4-1.2-1.1.4-.8.9-.7 2.2-.7h1.7l3.3-5.8c.4-.5.8-1 1.9-1h2.7c.9 0 1.3.5.6 1.8l-2.8 5h3.1c.9 0 1.6 0 1.3 1.1-.3.9-1.3.8-2.2.8h-3.3l-7.2 12.8c-1.7 2.9-1.7 5.8 1.2 5.8 3.3 0 7.6-5 13.6-13.5z"/><path d="M173.4 69.8c0-5.3 8-12.5 8-15.8 0-.9-.5-1.2-1.6-1-1 .1-2 .2-2.9.1-2.4 4.1-3.8 6-5.7 9.1-.5.9-1.1 1.5-1.6 1.1-.9-.7.2-2.1 1.1-3.6 1.5-2.3 2.6-4.1 4.2-7.2-2.9-1.3-3.1-5-.6-6.7 1.3-.9 2.4-.7 3.5.4s1.1 2.8 0 5.1c.3 0 1.1 0 3.9-.3 2.8-.4 4.8.5 4.8 2.9 0 4.5-8.9 12.7-8.9 16.8 0 1.1.7 1.9 2 1.9 2.9 0 7.6-5.2 13.3-13.7.5-.8.9-.8 1.2-.4.4.7-.1 2-1.2 3.7-1.9 2.9-4 5.7-6.4 8.4-2.4 2.6-5 3.9-7.7 4-3.3 0-5.4-2-5.4-4.8zm2.4-18.9c1.7-3.3.1-4.3-.8-3.4-.9.8-.8 2.5.8 3.4z"/><path d="M208.6 71.6c2.8-1.7 5-3.5 6.7-5.6.5-.8 1-.6 1.1-.2.1.5.1 1.8-1.2 3.1-3.6 3.9-10 6.9-14.9 8.6-2.9 4.8-5.9 8.9-9 12.2-3.1 3.4-6.8 5.1-10.9 5.1-3.3 0-5.4-2.2-5.4-4.7s2.2-5.8 7.7-8.2c3.9-1.7 8.5-3.2 12.6-4.7.9-1.3 2.8-3.8 3.7-5.5-1.1.8-3.6 3-6.5 3-4.8 0-6.6-4.5-4.1-9.2 1.3-2.5 2.4-4.4 3.2-5.7l3.9-6.9c.5-.5.9-1 2-1h2.6c1.1 0 1.4.5.7 1.8-.8 1.1-5.4 9.3-8 13.8-1.7 2.9-.8 4.7.8 4.7 2.5 0 5.9-3.1 11.2-12l2.1-3.8c.3-.7 1-1.8 2-3.5.4-.5.8-1 1.9-1h2.9c.9 0 1 .6.5 1.8-.8 1.1-5.3 9.3-8 13.8l-4.2 7.2c1.7-.5 3.9-1.5 6.6-3.1zm-15 8.2c-6.5 2.3-11.4 3.9-14.3 6.4-3.1 2.8-2.4 6.6.9 6.6 4.4 0 8.7-5.7 13.4-13z"/></symbol><symbol viewBox="0 0 237.8 96" id="headings_story" xmlns="http://www.w3.org/2000/svg"><path d="M39 4.6c5 0 8.1 2.1 9.4 6.2 1.3 4.1 1.3 9.2 0 15.4 4.9-.5 9.4-4.2 12.2-8.3 1.3-2 2.7-.8 1.5 1.1-3.1 4.9-7.9 9-14.2 9.3-.9 3.6-2.2 7.4-3.5 11.1-7.5 19.5-19.6 35.9-32.3 35.9C-1 75.3-1.1 58 6.4 39.9 14.2 20.6 27.3 4.6 39 4.6zM12.3 73.3c8.5 0 18.8-14.9 26.5-33.1 1.7-4.3 3.3-8.5 4.4-12.5-5.3-1.7-7.3-7.2-5.2-11.3 1.7-3.5 5.3-3.8 7.4-1.9-.1-4.7-1.7-7.7-5.4-7.7-8.8 0-21 16.2-27.9 33.5-7.7 18.9-8.4 33 .2 33zm32.5-52.4c.7-3.1.2-4.8-1.4-5.3-1.6-.5-2.8.1-3.6 1.7-1.5 2.8.2 6.9 3.9 8.4.5-2 .7-2.8 1.1-4.8zM77.9 72.5c2.5 0 5.4-2.5 8.3-6.5.5-.8 1-.5 1.1-.1.1.5 0 1.5-1.2 3.1-.9 1.1-2.1 2.3-3.7 3.6-1.5 1.3-3.3 2-5.3 1.9-3.2 0-5.5-2-5.5-4.8 0-5.2 8.2-12.4 8.2-15.7 0-.9-.5-1.3-1.6-1.1-1.1.1-2.1.2-3 .2-2.3 3.9-3.8 6.6-6.2 10.3-1.8 2.8-3.7 5.4-5.7 7.8-2 2.3-4.2 3.5-6.7 3.5-3.2 0-4.8-2-4.9-4.8-2.5 2.9-5.3 4.8-8.1 4.8-4.9 0-6.7-4.4-4.2-9.2 1.3-2.5 2.4-4.3 3.2-5.6l4-6.9c.4-.7.8-1.1 1.9-1.1h2.6c1.1 0 1.4.6.7 1.8l-8 13.8c-1.6 2.9-.8 4.7.8 4.7 2.7 0 6.2-3.1 11.7-13 .8-1.6 1.9-3.4 3.6-6.3.4-.7.8-1.1 1.9-1.1h2.7c.9 0 1.3.6.6 1.8l-7.8 13.9c-1.7 2.9-1.3 5 .6 5 1.5 0 3.2-1.4 5.3-4.2 2.1-2.8 4-5.5 5.7-8.2.8-1.3 2.6-4.3 4.3-7.6-2.9-1.3-3.1-5.1-.6-6.8 1.3-.8 2.5-.6 3.6.5s1 2.7-.1 5c.3 0 1.1 0 3.9-.3s4.8.5 4.8 2.9c0 4.5-8.9 12.7-8.9 16.8 0 1.1.7 1.9 2 1.9zm-3.8-21.7c1.7-3.3.2-4.2-.7-3.4-.9.8-.9 2.6.7 3.4zM161.1 20.5c0 2 1.6 4.3 5.7 4.3 4.9 0 8.2-4.6 8.2-9 0-5.3-3.8-9.1-9.9-9.1-2.9 0-5.7 1.1-8.6 3.2-2.9 2.1-4.8 5.1-5.8 9-4.3 17.3-.5 30-5.6 43.1-3.3 8.4-10.9 14-20.6 14-1.9 0-3.8-.2-6.5-1.1-1.7-.7-3.7-1.9-5.8-3.7-2.1-1.8-3.5-4.7-4.2-8.7-1.9-10.6 7-21.5 16.9-21.5 6.5 0 9.6 4.8 9.6 9.6 0 2.9-1 5.6-2.9 8.3-1.9 2.6-4.2 3.9-7.1 3.9-.5 0-1.2-.3-1.3-.8-.1-.5.4-1.1.9-1.1 2.8 0 5.6-2 7.3-5.6 1.5-3.3 1.5-6 .2-8.1-1.3-2.2-3.1-3.3-5.5-3.3-4.4 0-10 3.2-12.9 10.4-3.5 8.4-.1 19.7 11.2 19.7 6.8 0 12.4-3.5 15.6-12.3 4.8-13 .7-27.4 5.8-42.2 2.9-8.4 10-14.9 19.3-14.9 8 0 12.1 5.1 12.1 11.1 0 2.6-1 5.1-2.9 7.5-1.9 2.3-4.4 3.5-7.5 3.5-5.2 0-8-3.2-8-6.5 0-2.9 2.6-6.1 5.8-6.1.5 0 1.3.4 1.3.9s-.4.9-1.3 1c-2.3.4-3.5 2.4-3.5 4.5zM170.8 59c.5-.9.9-.9 1.2-.4.4.5-.1 2-1.2 3.6-1.9 2.9-4 5.7-6.5 8.4-2.4 2.7-5 4.1-7.7 4.1-3.2 0-5.1-1.1-5.8-3.3s-.5-4.5.8-6.9c1.6-2.9 3.4-6.3 5.9-10.7h-1.6c-1.2 0-1.5-.4-1.2-1.1.4-.8.9-.7 2.2-.7h1.7l3.3-5.8c.4-.5.8-1 1.9-1h2.7c.9 0 1.3.5.6 1.8l-2.8 5h3.1c.9 0 1.6 0 1.3 1.1-.3.9-1.3.8-2.2.8h-3.3L156 66.7c-1.7 2.9-1.7 5.8 1.2 5.8 3.3 0 7.6-5 13.6-13.5z"/><path d="M193.1 59.3c-1.7 2.4-3.7 3.7-6.2 4-1.3 2.9-3.2 5.5-5.7 7.9-2.5 2.3-5 3.5-7.7 3.5-3.7 0-6-1.5-6.8-4.6-.9-3.1-.4-6.2 1.5-9.4 4.1-6.8 10.2-9.3 14.2-9.3 3.7 0 5.9 2 5.9 6.1 0 1.2-.3 2.6-.7 3.9 1.9-.5 3.6-1.9 4.9-4.2 1.3-2.3 2.2-3.9 2.7-4.6-2.9-1.5-3.2-5.2-.7-6.9 1.3-.8 2.4-.6 3.5.5s1.1 2.7-.1 5c.4 0 1.1 0 4-.3 2.8-.3 4.8.5 4.8 2.9 0 4.5-8.9 12.7-8.9 16.8 0 1.1.7 1.9 2 1.9 2.9 0 7.4-5 13.4-13.5.5-.9.9-.8 1.2-.3.3.7-.1 1.9-1.2 3.5-1.9 2.9-4 5.6-6.5 8.3-2.4 2.7-5 4-7.8 4-3.2 0-5.4-2-5.4-4.8 0-5.2 8.1-12.4 8.1-15.7 0-.9-.5-1.3-1.6-1.1-1.1.1-2.1.2-3 .2-.9 1.7-2.2 3.7-3.9 6.2zm-8.4 3.8c-2.1-.5-3.6-2.4-3.6-4.1 0-1.9 1.6-3.7 3.7-3.7.5 0 1.1.4 1.4.5-.4-1.6-1.7-2.3-3.2-2.3-1.9 0-3.8 1-5.7 3-1.9 2-3.5 4.2-4.6 6.6-1.1 2.3-1.7 4.5-1.7 6.5.1 2 1.1 3 3.1 3 4.1 0 8.5-4.7 10.6-9.5zM183 59c-.1 1.3.7 2.2 2.4 2.5.3-.7.4-1.6.5-2.8.1-1.2-.2-1.8-1.1-1.8-1.1 0-1.7.7-1.8 2.1zm13-8.2c1.7-3.3.1-4.2-.8-3.4-.9.8-.8 2.6.8 3.4z"/><path d="M228.3 71.6c2.8-1.7 5-3.5 6.7-5.6.5-.8 1-.6 1.1-.2.1.5.1 1.8-1.2 3.1-3.6 3.9-10 6.9-14.9 8.6-2.9 4.8-5.9 8.9-9 12.2-3.1 3.4-6.8 5.1-10.9 5.1-3.3 0-5.4-2.2-5.4-4.7s2.2-5.8 7.7-8.2c3.9-1.7 8.5-3.2 12.6-4.7.9-1.3 2.8-3.8 3.7-5.5-1.1.8-3.6 3-6.5 3-4.8 0-6.6-4.5-4.1-9.2 1.3-2.5 2.4-4.4 3.2-5.7l3.9-6.9c.5-.5.9-1 2-1h2.6c1.1 0 1.4.5.7 1.8-.8 1.1-5.4 9.3-8 13.8-1.7 2.9-.8 4.7.8 4.7 2.5 0 5.9-3.1 11.2-12l2.1-3.8c.3-.7 1-1.8 2-3.5.4-.5.8-1 1.9-1h2.9c.9 0 1 .6.5 1.8-.8 1.1-5.3 9.3-8 13.8l-4.2 7.2c1.7-.5 3.9-1.5 6.6-3.1zm-15 8.2c-6.5 2.3-11.4 3.9-14.3 6.4-3.1 2.8-2.4 6.6.9 6.6 4.4 0 8.7-5.7 13.4-13z"/></symbol><symbol viewBox="0 0 476.5 96" id="headings_travel" xmlns="http://www.w3.org/2000/svg"><path d="M57.4 15.6C45.6 14.5 39 4 29.6 3.7c-5.7-.1-12.8 2.9-16.5 9.4-1.9 3.6-2.3 7-1.2 10.1s3.6 4.7 7.4 4.6c5.2-.1 8.5-4.7 9-9.2.1-2.1 2.3-1.9 2.2.4-.3 3.8-3.6 10.9-12.1 10.9-2.3-.1-4.4-1-6.5-2.8-2-1.8-3-4.1-3-7C8.9 9.3 20 .9 30.9.9 43.5.9 48.2 12 59 13.1c4.5-6.7 8.7-10.9 12.8-10.9 3.3 0 4 3 1.9 6.2-1.7 2.4-6 6.1-11.6 7-2 3.3-4.1 7.3-6.1 11.2-13.9 26.5-20.8 48.8-40.6 48.8-5 0-8.6-1.3-10.7-3.8-2.1-2.5-3.2-5-3.1-7.4.4-6.4 5-9.4 9.5-9.4 3.5 0 5.3 2.5 5.4 4.2.4 2.8-2 2.8-2.1.9-.1-1.3-1-3.1-3.5-3.1-3.7 0-6.8 3.3-6.9 7.4-.1 5.3 4.7 9 10.8 9 12 0 20.7-17.7 30-35.3 4.5-8.4 8.7-16.2 12.6-22.3zM71.6 4.3c-2 0-4.8 3.5-8 8.6 4.5-1.1 7.9-4.7 8.8-6.3.5-1.3.4-2.3-.8-2.3zM48.5 62.8c2.9-3.9 5-7.4 6.3-10.3-2.9-1.3-3.1-5-.6-6.7 1.3-.9 2.5-.7 3.6.4s1.1 2.8-.1 5.1c.4 0 1.1 0 3.9-.3 2.9-.4 4.9.5 4.9 2.9 0 4.5-8.9 12.7-8.9 16.8 0 1.1.5 1.9 2 1.9 2.9 0 7.4-4.9 13.4-13.6.5-.8 1-.8 1.1-.4.4.7-.2 2-1.1 3.7-1.9 2.8-4 5.6-6.5 8.3-2.4 2.7-5 4-7.8 4-3.2 0-5.4-2-5.4-4.8 0-5.3 8.1-12.5 8.1-15.8 0-.9-.5-1.2-1.6-1-1.1.1-2.1.2-3 .1-2.2 4.6-8.5 15.2-15.7 20.8-.9.7-2.2.7-2.9.4-1.2-.7.1-1.4 1-2.1 3.3-2.3 6.4-5.5 9.3-9.4zm7.2-11.9c1.9-3.3.2-4.3-.7-3.4-.9.8-.9 2.5.7 3.4z"/><path d="M100.8 59c.5-.9.9-.9 1.2-.4.4.5-.1 2-1.2 3.6-1.9 2.9-4 5.7-6.5 8.4-2.4 2.7-5 4-7.8 4.1-2.9 0-4.8-1.4-5.3-4.3-1.9 2.1-4.1 4.2-6.9 4.2-3.3 0-5.2-1.5-5.8-4.5-.6-3.1 0-6.2 1.9-9.4 4.1-6.8 9.9-9.3 13.9-9.3 2.5 0 3.8 1.2 4.3 2.7l.8-1.2c.4-.7.8-1.1 1.9-1.1H94c.9 0 1.3.6.6 1.8l-8 14.3c-1.6 2.9-.9 4.6.8 4.6 2.9 0 7.4-5 13.4-13.5zm-14.2-1.4c1.3-2.7-.4-4.1-1.9-4.1-1.7 0-3.5 1-5.4 3-1.9 2-3.4 4.2-4.7 6.5-1.2 2.3-1.9 4.5-2.1 6.5-.1 2 .6 3 2.3 3 4.9 0 9.9-11.4 11.8-14.9z"/><path d="M126.2 56.6c1.1-1.2 2.3.1.8 1.6-2.9 2.9-6.6 3.3-9.4 2.4-5.6 9.3-9.9 14.1-15.8 14.1-5.6 0-7.4-5.1-4.5-10.4 2.7-4.8 2.6-4.8 6.4-11.3.4-.7.8-1.1 1.9-1.1h2.6c1.1 0 1.4.6.7 1.8-.3.7-1.3 2.3-2.9 5-1.5 2.7-3 5.1-4.3 7.4-2.4 4.1-.8 6.2 1.6 6.2 3.2 0 7.6-3.8 12.3-12.6-.7-.5-1.3-1.1-1.7-1.8-1.7-2.9-.1-6.3 2.6-6.3 2.9-.1 4.1 2.7 2.1 7.2 2 .8 5.1.5 7.6-2.2zm-9.6 1.2c.3-.4.6-1.2 1-2.4.4-1.3.1-1.9-.9-2-1.1-.1-1.8 1.7-1 3.3.1.4.5.8.9 1.1z"/><path d="M119.2 67.1c0-3.7 1.6-7.2 4.7-10.6 3.2-3.4 6.7-5.1 10.6-5.1 3.7 0 4.8 2.6 3.9 4.9-.9 2.1-2.9 3.9-6.9 5.2-2.3.7-4.5 1.2-6.2 1.3-.7 1.5-1.3 3.2-1.3 5.3 0 2.5 1 4.6 4.5 4.6 4.9 0 10.1-5.2 16.1-13.7.5-.8.9-.8 1.2-.4.4.5-.1 2-1.2 3.6-1.9 2.9-4.2 5.7-7.1 8.5-2.9 2.7-6.1 4.1-9.7 4.1-5.7 0-8.6-3.6-8.6-7.7zm7.2-6.5c2.1-.4 4.8-1 6.7-1.9 4.1-2.1 3.9-5.2 1.8-5.2-2.9 0-6.4 3.2-8.5 7.1z"/><path d="M155 66c.5-.8 1-.6 1.1-.1s0 1.5-1.1 3c-1.7 2.3-5 5.8-9.3 5.7-4.9 0-6.4-4.8-3.9-10 1.9-3.8 7.2-14.6 11-21.1 5.6-9.6 10.4-15.8 15.1-15.8 3.9 0 4.8 4.5-.3 10.6-3.3 4.1-7.9 8.4-13 12.1-3.6 6.8-7.2 13.6-8.9 17.1-1.5 3.1-.7 4.9 1 4.9 2.5 0 5.5-2.4 8.3-6.4zm1.5-19.1l4.9-4.7c4.4-4.2 6.8-7.4 7.3-9.6s.2-3.3-.8-3.3c-2.5 0-5.4 5.7-9.5 13.7l-1.9 3.9zM205.4 59c.5-.9.9-.9 1.2-.4.4.5-.1 2-1.2 3.6-1.9 2.9-4 5.7-6.5 8.4-2.4 2.7-5 4-7.8 4.1-2.9 0-4.8-1.4-5.3-4.3-1.9 2.1-4.1 4.2-6.9 4.2-3.3 0-5.2-1.5-5.8-4.5-.6-3.1 0-6.2 1.9-9.4 4.1-6.8 9.9-9.3 13.9-9.3 2.5 0 3.8 1.2 4.3 2.7l.8-1.2c.4-.7.8-1.1 1.9-1.1h2.7c.9 0 1.3.6.6 1.8l-8 14.3c-1.6 2.9-.9 4.6.8 4.6 2.9 0 7.4-5 13.4-13.5zm-14.2-1.4c1.3-2.7-.4-4.1-1.9-4.1-1.7 0-3.5 1-5.4 3-1.9 2-3.4 4.2-4.7 6.5-1.2 2.3-1.9 4.5-2.1 6.5-.1 2 .6 3 2.3 3 4.9 0 9.9-11.4 11.8-14.9z"/><path d="M230.9 59c.5-.9 1.1-.9 1.2-.4.4.5-.1 2-1.2 3.6-1.9 2.9-4 5.7-6.4 8.4-2.4 2.7-5 4.1-7.8 4.1-3.2 0-5.1-2.2-5.1-4.7 0-5.3 7.1-9.9 7.1-13.7 0-.9-.7-1.7-1.6-1.7-4.5 0-10.6 11.2-15.4 18.7-.4.7-.8 1.1-1.9 1.1h-1.7c-1.1 0-1.2-.6-.7-1.8 2.8-4.9 6.4-13.1 10.1-19.6.4-.7.8-1.1 1.9-1.1h2.2c.9 0 1.3.6.6 1.8l-2 3.9c2.4-2.9 5.3-5.5 8.4-5.5 2.9 0 4.5 1.8 4.5 4.3 0 5-7 10.6-7 14.6 0 .9.6 1.5 1.4 1.5 2.9 0 7.5-5 13.4-13.5z"/><path d="M253.3 66c.5-.8 1-.6 1.1-.1.3.5 0 1.5-1.2 3-1.6 2.3-5 5.7-9 5.7-2.9 0-4.9-1.6-5.4-4.1-1.9 2.3-4.3 4.1-7 4.1-3.7 0-5.9-2.6-5.9-6.2 0-7.2 7.8-17 16.2-17 2.5 0 3.8 1.2 4.3 2.7 3.6-6.1 7.6-13.2 9.7-16.9.4-.5.8-1.1 1.9-1.1h2.2c1.1 0 1.4.6.7 1.9l-16.7 29.9c-1.6 2.9-.8 4.6.9 4.6 2.5 0 5.4-2.5 8.2-6.5zm-10.8-12.5c-3.3 0-7.6 4.8-10.1 9.6-1.2 2.3-1.9 4.5-2.1 6.5-.2 2 .5 3 2.2 3 2.1 0 4.1-1.5 6-4.6 2-3.1 4-6.6 5.9-10.3 1.5-2.8-.4-4.2-1.9-4.2zM324 58.7c2.5-5.6 1.9-9.5-1.3-9.5-2.9 0-6.2 3.3-9.9 10.9-.7 1.3-1.5 2.6-2.3 2.5-.8-.3-.9-1.5-.1-3.1 4.1-8.8 8.6-12.8 12.5-12.8 2.5 0 4.4 1.3 5.7 3.8 1.3 2.5 1.1 5.9-.6 10.1-4.1 9.9-11.9 15.6-22.6 15.6-3.6 0-6.7-.8-9.2-2.3l-6.9-4.2c-3.6 3.7-7.1 6-10.2 6-7.2 0-3.5-10 4.7-10 1.3 0 2.5.3 3.8.8C295.4 55.5 305 34 316 19c-3.7-1.8-7.2-3.7-10.5-5.6-3.3-1.9-6.7-2.9-10.4-2.9-10.5 0-11.8 13.5-1.4 13.5 4.9 0 8.5-2.5 10.1-3.2 1.6-.8 2.2.5 1 1.6-.3.3-1.6 1.1-3.8 2.2-2.1 1.1-4.8 1.7-8.1 1.7-15.3 0-13.4-18 2.2-18 4.2 0 8 1.1 11.4 3.2 3.4 2.1 7 4 10.7 5.8 6.8-9.2 14.5-15.6 21.3-15.6 7.1 0 8.8 5.2 6.7 10.4-2 5.2-8.1 10.4-16.5 10.4-2.9 0-5.8-.6-8.3-1.5-3.6 5.3-7.2 11.7-10.9 18.2-7.3 12.8-12.7 22.2-18.7 28.9 4.1 2.4 8.3 5.9 14.6 5.9 7.6 0 14.1-5.3 18.6-15.3zm-37.8 9.5c-.7-.3-1.5-.5-2.2-.5-6 0-8.6 6.3-5.1 6.3 2.1 0 4.6-2.2 7.3-5.8zm35.4-49c2.3.8 4.8 1.2 7.3 1.2 13.9 0 19.5-16.5 10.3-16.5-4.9 0-11.1 6.1-17.6 15.3zM359.8 59.5c.1.3 0 1.1-.5 2-1.2 2-3.7 4.2-6.6 4.5-.8.1-1.7 0-2.6-.1-2.8 4.5-7.3 8.8-12 8.8-3.7 0-6-1.5-6.8-4.6-.9-3.1-.4-6.2 1.5-9.4 4.1-6.8 10.2-9.3 14.2-9.3 3.7 0 6.1 2 6.1 6.1 0 1.9-.8 4.3-2 6.7.5.1 1.1.2 1.8.1 2.5-.1 4.6-2.5 5.7-4.5.4-.8 1.1-.7 1.2-.3zm-9-2.3c.4-2.7-1.3-3.7-3.2-3.7-1.9 0-3.8 1-5.7 3-1.9 2-3.5 4.2-4.6 6.6-1.1 2.3-1.7 4.5-1.7 6.5.1 2 1.1 3 3.1 3 3.2 0 7-3.7 9.5-7.7-.7-.4-1.2-1-1.6-1.7-.9-1.3-1-2.7-.4-4.1.6-1.5 1.6-2.2 2.9-2.3.7 0 1.3.2 1.7.5v-.1zm-.7 3.9c.4-1.5 0-2.5-.9-2.6-1.1-.1-2 1.8-1.1 3.5.1.5.5 1 1 1.3.3-.8.7-1.4 1-2.2z"/><path d="M366.2 70.5c-1.9 2.3-4.3 4.1-7 4.1-3.7 0-5.9-2.6-5.9-6.2 0-7.2 7.8-17 16.2-17 2.5 0 3.8 1.2 4.3 2.7 3.6-6.1 7.6-13.2 9.7-16.9.4-.5.8-1.1 1.9-1.1h2.2c1.1 0 1.4.6.7 1.9l-16.7 29.9c-1.6 2.9-.8 4.6.9 4.6 2.9 0 7.4-5 13.4-13.5.5-.9 1-.9 1.1-.5.5.7 0 2-1.1 3.7-1.9 2.9-4 5.6-6.5 8.3-2.4 2.6-5 3.9-7.8 4-2.9 0-4.9-1.5-5.4-4zm5.6-12.8c1.3-2.9-.4-4.2-1.9-4.2-3.3 0-7.6 4.8-10.1 9.6-1.2 2.3-1.9 4.5-2.1 6.5-.2 2 .5 3 2.2 3 4 0 7.7-7.9 11.2-13.5l.7-1.4z"/><path d="M393.2 70.7c-2.1 2.5-4.1 3.9-6.6 3.9-2.9 0-4.7-1.5-5.3-4.5-.6-3.1 0-6.2 1.9-9.4 4-6.8 9.5-9.2 13.5-9.2 2.3 0 4 1.2 4.5 2.8l.7-1.4c.3-.5.8-1 1.9-1h2.7c.9 0 1.3.5.6 1.8l-11.6 20.9 1.6-.8c3.3-1.7 5.9-3.7 8-5.8s4.4-5.2 6.8-9.2c.5-.9.7-.9 1-.4.5.9 0 1.9-.9 3.6-1.8 3.1-3.8 5.7-6 8-2.1 2.2-5.4 4.3-9.7 6.4l-2.6 1.2c-2.9 4.7-5.9 8.8-9.1 12.1-3.3 3.4-6.9 5.1-10.9 5.1-6.6 0-8.8-8.1 2.4-12.9 3.5-1.5 9-3.4 13.4-5 1.1-1.7 2.6-4.1 3.7-6.2zm-12.8 18.1c2.7-2.6 5.2-5.7 7.5-9.2-6.4 2.1-12.4 4.2-15.3 6.7-3.3 2.8-2.5 6.4.7 6.4 2.1 0 4.4-1.3 7.1-3.9zm18.9-31.1c1.2-2.4 0-4-1.9-4-1.8 0-3.7 1-5.6 3-1.9 1.9-3.4 4.1-4.6 6.4-1.2 2.3-1.9 4.5-2 6.5-.1 1.9.7 2.9 2.4 2.9 4.2 0 8-8.2 11.7-14.8z"/><path d="M426.1 59c.5-.9.9-.9 1.2-.4.4.5-.1 2-1.2 3.6-1.9 2.9-4 5.7-6.5 8.4-2.4 2.7-5 4-7.7 4.1-4.9 0-6.7-4.4-4.2-9.2 1.3-2.5 2.4-4.4 3.1-5.7l3.9-6.9c.4-.7.8-1.1 1.9-1.1h2.7c1.1 0 1.3.6.6 1.8L412 67.5c-1.6 2.9-1.3 5 .6 5 3 0 7.5-5 13.5-13.5zm-2.7-19.8c1.3 0 2.4 1.1 2.4 2.4 0 1.3-1.1 2.5-2.4 2.5-1.3 0-2.5-1.2-2.5-2.5s1.2-2.4 2.5-2.4z"/><path d="M451.7 59c.5-.9 1.1-.9 1.2-.4.4.5-.1 2-1.2 3.6-1.9 2.9-4 5.7-6.4 8.4-2.4 2.7-5 4.1-7.8 4.1-3.2 0-5.1-2.2-5.1-4.7 0-5.3 7.1-9.9 7.1-13.7 0-.9-.7-1.7-1.6-1.7-4.5 0-10.6 11.2-15.4 18.7-.4.7-.8 1.1-1.9 1.1h-1.7c-1.1 0-1.2-.6-.7-1.8 2.8-4.9 6.4-13.1 10.1-19.6.4-.7.8-1.1 1.9-1.1h2.2c.9 0 1.3.6.6 1.8l-2 3.9c2.4-2.9 5.3-5.5 8.4-5.5 2.9 0 4.5 1.8 4.5 4.3 0 5-7 10.6-7 14.6 0 .9.6 1.5 1.4 1.5 2.9 0 7.5-5 13.4-13.5z"/><path d="M467.4 71.8c2.8-1.6 5.2-3.5 7.3-5.8.7-.8 1-.6 1.1-.2.1.5.1 1.8-1.2 3.1-3.9 4.1-10.1 7-15 8.7-2.9 4.7-5.9 8.8-9.1 12.1-3.3 3.4-6.9 5.1-10.9 5.1-6.6 0-8.8-8.1 2.4-12.9 3.5-1.5 9-3.4 13.4-5 1.1-1.7 2.6-4.1 3.7-6.2-2.1 2.5-4.1 3.9-6.6 3.9-2.9 0-4.7-1.5-5.3-4.5-.6-3.1 0-6.2 1.9-9.4 4-6.8 9.5-9.2 13.5-9.2 2.3 0 4 1.2 4.5 2.8l.7-1.4c.3-.5.8-1 1.9-1h2.7c.9 0 1.3.5.6 1.8l-11.7 21c1.3-.3 3.3-1.3 6.1-2.9zm-21.1 17c2.7-2.6 5.2-5.7 7.5-9.2-6.4 2.1-12.4 4.2-15.3 6.7-3.3 2.8-2.5 6.4.7 6.4 2.1 0 4.4-1.3 7.1-3.9zm18.9-31.1c1.2-2.4 0-4-1.9-4-1.8 0-3.7 1-5.6 3-1.9 1.9-3.4 4.1-4.6 6.4-1.2 2.3-1.9 4.5-2 6.5-.1 1.9.7 2.9 2.4 2.9 4.2 0 8-8.2 11.7-14.8z"/></symbol><symbol viewBox="0 0 15 13" id="lucy" xmlns="http://www.w3.org/2000/svg"><path d="M13.2 1.3c1.1-.8 1-.5.5 1.1 0 .2-.5.6-.5.6-.2.1-.2.3-.3.6 0 .4-.3.3-.4 1.2-.1.7-.9 1.1-1 1.3-.3.6.3.4-.7 1.1-.6.4-.7 2.4-.7 2.7.1.9.2.5.5.7.5.3.1.4-.2.4-.6.1-.5-.3-.6-.5-.2-.4-.3-1-.3-1-.2.7-.4 1.7.1 2 .7.2.5.5 0 .6-.7.1-.7-.5-.8-.7 0-.4-.3-.3-.2-.8.3-1.7 0-1.9.2-2.2-.2-.6.1-.2.2-1-2-.3-.5-.8-3.9-.8-.1.4.1.6-.3 1.1-.2.3-.1.6-.4 1-.2.6-.2 1.5.1 1.5.3-.1.8.3.1.4-.6.1-.5-.2-.6-.3-.2-.5-.2-1.3-.3-1.2-.5.6-1 2.1-.6 2.2.4.1.5.5-.1.6-.4 0-.4-.1-.6-.4-.1-.3.1-.2.1-1.5-.2-.8.9-.9 0-2.9-.8-1.8.2-2 0-2.1-1.2-.7-1.2-.9-1.3-1-.6-.5-.4-1.9.9-2.2.8-.1 1.3.9 1.8 1 0 .1-.6 0-.7 0-2-.9-1.8 1.6-.2 1.1 0 0 1.5-1 5-.4.1 0 1.7-.2 1.7-.2.2 0 .8.1.5-.3-.2-.2-.4-.5-.4-.7C9 .3 9.6.8 11 2.1c0 .1.6-.2 1.5 0 .2-.4.5-.7.7-.8z"/></symbol><symbol viewBox="0 0 508 75" id="myregistry" xmlns="http://www.w3.org/2000/svg"><path fill="#F60" d="M35 55.9h-7.7v-1-25c0-2.4-.5-4.7-1.4-7-1.3-3-3.6-4-6.5-3.9-4 .1-6.8 2.1-8.6 5.7-1.4 2.9-2.1 5.9-2.1 9.1v22H2.3c-1.4 0-1.3.3-1.3-1.4v-6.9V15c0-1.2 0-1.2 1.2-1.2h5.1c.7 0 .9.2.9.9v4.4c0 .3 0 .6.1 1.1.3-.5.5-.7.7-1 2.8-4.1 6.6-6 11.5-6.2 2.4-.1 4.7.1 6.9 1.1 2.6 1.2 4.5 3 5.8 5.5.2.4.4.9.7 1.4.1-.2.3-.3.3-.5 2.3-4.2 5.9-6.5 10.4-7.3 3.4-.6 6.7-.3 9.9 1.3 3.4 1.6 5.2 4.5 6.1 8 .5 1.8.8 3.8.8 5.7.1 9 0 18 0 27v.8h-7.6v-1-24.5c0-2.5-.4-5-1.4-7.4-1.3-3-3.6-4-6.5-3.9-3.9.1-6.7 2-8.5 5.5-1.7 3.2-2.3 6.7-2.3 10.3v20c-.1.1-.1.5-.1.9z"/><path fill="#505051" d="M366.7 13.6h7.6c.6 0 .8.2 1 .7 3.6 11.1 7.2 22.2 10.8 33.4l.4 1.2c.4-1.1.7-1.9.9-2.7 3.5-10.6 7-21.1 10.5-31.7.2-.7.5-.9 1.2-.9h6.8c-.1.3-.1.5-.2.7-5.5 15.2-11 30.5-16.5 45.7-.8 2.3-1.8 4.5-2.9 6.6-1.6 3.1-3.9 5.6-7.3 6.9-2.4.9-4.8.9-7.3.7-1-.1-1.9-.3-2.9-.4.2-2.2.3-4.2.5-6.1 1.5.1 3 .3 4.4.3 1.6 0 3-.7 4.1-1.8 2.3-2.2 3.6-4.9 4.3-7.9.1-.6 0-1.2-.2-1.8-2.3-6.6-4.7-13.1-7.1-19.7-2.7-7.5-5.4-14.9-8.1-22.4.2-.1.1-.4 0-.8z"/><path fill="#F60" d="M71 73.8c.2-2.1.3-4.1.5-6 1.4.1 2.7.3 4 .4 1.9.1 3.4-.7 4.7-2 2.2-2.2 3.5-5 4.2-8 .1-.4-.1-.9-.2-1.3-2.4-6.8-4.9-13.7-7.4-20.5-2.6-7.3-5.2-14.4-7.8-21.6-.1-.3-.2-.6-.3-1h7.5c.6 0 .9.2 1.1.8 3.6 11.1 7.2 22.1 10.8 33.2.1.3.2.6.6.9l1.2-3.6c2.9-8.8 5.8-17.6 8.7-26.3.5-1.4.9-2.9 1.4-4.3.1-.3.4-.6.7-.6h6.9c.1 0 .1.1.3.1-.5 1.5-1 2.9-1.6 4.4-5 13.9-10 27.7-15 41.6-.9 2.5-1.9 4.9-3.2 7.2-1.7 3.1-4.1 5.5-7.6 6.6-2.5.8-5 .7-7.6.3-.6-.1-1.1-.2-1.9-.3z"/><path fill="#505051" d="M329.1 49.3v6c0 .2-.3.5-.4.5-3.8 1.1-7.6 1.5-11.5.3-4.6-1.4-7.5-5-7.6-10-.1-5.4 0-10.8-.1-16.1v-9.2c0-1.1 0-1.1-1.1-1.1h-8.5v-4.4c0-1.8 0-1.8 1.8-1.8h7c.7 0 .8-.2.8-.8V4.5c0-.6.1-.8.7-1 2.3-.7 4.6-1.4 7-2.2v12.2c.4 0 .7.1 1 .1h9.4c.7 0 .9.2.9.9v4.4c0 .3 0 .5-.1.9h-10.3c-.7 0-.9.2-.9.9V43c0 2 .4 4 1.9 5.5 2.2 2.3 4.8 2.5 7.6 1.7.8-.2 1.5-.5 2.4-.9zM291.7 21c-2.5-1.1-5-1.8-7.6-2-2-.2-4 .2-5.8 1.2-3 1.8-3.1 6.2-.2 8.1 2.2 1.4 4.5 2.4 6.8 3.7 1.8 1 3.6 2 5.3 3.2 2.3 1.6 3.7 3.8 4 6.6.5 4.3-.3 8.2-3.6 11.4-2.3 2.1-5 3.2-8 3.6-4.5.6-8.9.2-13.1-1.4-1.8-.7-1.4-.4-1.4-2.2.1-1.7.2-3.5.3-5.3.3.2.6.3.8.4 2.9 1.5 6 2.5 9.3 2.5 1.7 0 3.4-.5 4.9-1.3 3.2-1.7 3.7-6.9.3-8.9-2.4-1.4-4.9-2.6-7.3-4-1.7-1-3.3-2-4.9-3.1-2.9-2-4-4.9-3.8-8.3.2-3.5 1.2-6.6 4.1-8.9 2.1-1.7 4.5-2.7 7.2-3.1 4.4-.7 8.7 0 12.9 1.2.2.1.5.4.4.6-.2 1.8-.4 3.9-.6 6zM364 20.1c-2.1-.7-4.1-.9-6.1-.5-3.1.6-5.3 2.4-6.9 5.1-1.6 2.6-2.5 5.5-2.6 8.5-.2 7.2-.2 14.5-.2 21.7V56h-7.7v-.9-40.4c0-.8.2-1 1-1 1.8.1 3.7 0 5.5 0 .6 0 .8.2.8.8 0 1.9 0 3.8.2 5.7.1-.3.3-.5.4-.8 2-3.4 4.8-5.7 8.6-6.5 2.2-.5 4.5-.1 6.7.3.2 0 .4.4.4.6-.1 2-.1 4.1-.1 6.3zM118.5 55.9V13.7h7.2V20c.1 0 .1 0 .2.1.1-.2.3-.5.4-.7 2-3.4 4.8-5.7 8.6-6.6 2.2-.5 4.4-.1 6.6.3.2 0 .4.4.4.5v6.3c-1.1-.2-2.1-.4-3.1-.5-4-.4-7.2 1.2-9.5 4.5-1.7 2.5-2.6 5.3-2.9 8.3-.2 2-.3 4-.3 6v17.6c-2.5.1-5 .1-7.6.1zM490.9 55.3h-4.6v-1-14.2c0-1.2-.2-2.4-.4-3.5-1-3.9-4.8-5.1-7.9-2.5-1.5 1.2-2.2 2.8-2.6 4.6-.3 1.2-.4 2.5-.5 3.8-.1 3.9 0 7.8 0 11.7v1h-4.6V29.6h4.4v3.5c.1 0 .1.1.2.1 1.9-3 4.6-4.2 8-4.2 3.5 0 5.9 1.6 7.4 4.8.6-.7 1.1-1.5 1.7-2.1 3-3 7.5-3.4 10.9-1.8 2.5 1.1 3.5 3.4 4 5.9.2 1 .3 2.1.3 3.2v15.3c0 .7-.2 1-1 .9-1-.1-1.9-.1-2.9 0-.7 0-.9-.2-.9-.9V40.1c0-1.3-.2-2.6-.4-3.8-.9-3.9-4.1-4.1-6.7-3.1-1.5.6-2.4 1.8-3 3.2-.8 1.8-1.2 3.6-1.2 5.5v12.2c-.2.6-.2.9-.2 1.2zM254.4 55.9h-7.6V13.7h7.6v42.2zM433.3 33.9c-1.4-.3-2.7-.7-4-.8-3.9-.4-6.9 1.3-8.4 4.9-1.4 3.4-1.3 6.7.3 10 1.5 3 4.8 4.7 8.1 4.2 1.4-.2 2.8-.7 4.3-1.1.1 1.1.2 2.4.3 3.7 0 .1-.3.3-.4.4-8.4 2.8-16.8-1.1-18.3-10.3-.6-3.7 0-7.2 2.2-10.4 2.3-3.3 5.6-5 9.5-5.3 2.1-.2 4.1.1 6.1.7.5.1.8.4.7 1-.2.9-.3 2-.4 3z"/><path fill="#F60" d="M246.5 5c0-2.5 2-4.4 4.5-4.4s4.4 2 4.4 4.4c0 2.5-2 4.4-4.5 4.4-2.4 0-4.4-1.9-4.4-4.4zM405.3 55.1c-1.6 0-2.9-1.3-2.9-2.9 0-1.6 1.3-2.9 3-2.9 1.6 0 2.9 1.3 2.9 2.9 0 1.7-1.3 2.9-3 2.9z"/><path fill="#505051" d="M233 14.2c0-.2 0-.4-.1-.6h-7.2v6.1h-.2c-.2-.3-.4-.6-.5-.9-1.4-2.3-3.3-4-5.8-5-1.9-.8-3.8-1.1-5.9-1.3-7-.5-12.7 1.9-16.5 7.9-4.9 7.6-5.5 15.9-2.4 24.3 1.6 4.5 4.7 7.8 9.1 9.7 3.1 1.3 6.4 1.6 9.7 1.2 4.4-.6 8.3-2.3 11.2-5.9.1-.2.2-.4.3-.7.2.4.3.4.3.4.1 3.1.2 6.2-.6 9.2-1.5 5.1-4.7 8.4-10.1 9.1-4 .5-7.9.1-11.7-1.2-2-.7-3.9-1.5-6-2.3-.2 2.2-.5 4.3-.7 6.4-.1.6.2.8.7.9.8.2 1.5.5 2.3.7 6.4 1.9 12.9 2.6 19.6 1.2 4-.8 7.5-2.5 10.2-5.7 2.9-3.5 4.1-7.7 4.1-12.1.2-13.6.2-27.5.2-41.4zM223.8 42c-1.6 3.6-4.2 6.3-8.2 7.3-5.1 1.3-10-1-12.6-5.9-1.5-2.8-2.1-5.7-2.1-8.8 0-4.3 1.2-8.3 3.8-11.8 3.9-5.3 11.7-4.9 15.6-1.1 2.6 2.5 3.9 5.7 4.5 9.2.7 3.8.6 7.6-1 11.1zM185 36.2c0-4.3-.5-8.6-2-12.7-1.7-4.7-4.8-8.1-9.7-9.8-2.9-1-5.8-1.2-8.8-.9-7.7.7-13.2 4.6-16.2 11.7-2.6 6.3-2.3 12.9-.4 19.3 1.4 4.6 4.2 8.1 8.4 10.4 2.9 1.6 6 2.3 9.3 2.6 5.4.5 10.6-.4 15.7-2.5.2-.1.4-.3.4-.5v-7.3c-.2.1-.3.1-.4.2-3.3 2.1-6.9 3.3-10.8 3.8-5.6.7-11.1-2-14-6.9-1.3-2.2-1.9-4.5-1.8-7.2h30.1c.2-.1.2-.2.2-.2zm-9-5.4h-21.2c.2-.9.3-1.7.4-2.4.8-3.4 2.4-6.4 5.6-8.1 5.5-3 14.1-1.4 15.8 7.8.1.7.1 1.3.2 2 0 .5-.2.7-.8.7zM463.7 40.7c-.8-7-5.8-11.5-14.3-11.5-3.6.1-7.6 2-10.1 6.5-1.5 2.8-1.9 5.7-1.5 8.8 1.4 10.4 12.3 14.1 19.7 9.6 5-3 6.8-7.8 6.2-13.4zm-6.6 8c-1.5 2.5-3.8 3.6-6.7 3.5-3.1-.1-5.3-1.8-6.6-4.5-.8-1.6-1.1-3.3-1.1-5.3.1-2.7.9-5.3 2.9-7.3 3.4-3.4 8.9-2.8 11.5 1.3 2.5 4 2.4 8.2 0 12.3z"/></symbol><symbol viewBox="0 0 245 57" id="names" xmlns="http://www.w3.org/2000/svg"><path d="M149.8 37.6c2.6-6.5 10.4-16.7 13.7-23.6 2.9-6 2.3-8.8-.1-8.8-1.7 0-3.5 1.2-5.2 3.6-1.7 2.3-3.4 5-5 8-1.9 3.7-5.2 9.6-8.1 14.9l-4 7.3-2.5 4.4c-.2.4-.5.7-1.1.7h-1.6c-.7 0-.8-.4-.4-1.1.6-1.3 1.7-3.2 3.2-6.1 1.5-2.8 3.1-5.8 4.9-8.9l4.9-8.9c1.6-2.9 2.8-5 3.5-6.4 3.1-5.8 1.8-8.9-.4-8.9-4.2 0-7.5 7.2-11.2 14 0 0-.7 1.2-1.9 3.6l-4.4 8-4.8 8.6-3 5.4c-.2.4-.5.7-1.1.7h-1.6c-.7 0-.8-.4-.4-1.1.1-.2 1-1.8 2.6-4.9l5.5-10.2 5.8-10.6c1.8-3.3 2.9-5.3 3.2-6.1 3.1-6.1 1.6-9.4-2-9.4-1.9 0-3.9.9-6.1 2.7-2.2 1.7-3.9 4-5.2 6.7-1.5 3.1-1.6 5.9.7 5.9 1.7 0 3.7-2.2 5.9-6.7.4-.8.7-1.6 1.1-1.6.5.2.5.8.1 1.9-2.5 5.2-4.9 7.6-7.2 7.6-2.8 0-4.5-2.8-3.1-6.7 1.9-5.3 7.8-11 13.6-11 4 0 6.8 2.7 6.5 6.8 2.2-3.2 4.4-5 7.1-5 3.4 0 5 3 4.1 7.6 2.4-3.9 5.3-6.2 8.1-6.2 4.6 0 5.6 5 1.7 12.9-3.2 6.5-10.8 16.9-12.9 21.8-1.1 2.6-.9 4 .8 4 1.7 0 4.1-2.7 7.7-8 .3-.5.7-.5.7-.2.2.3-.2 1.3-.8 2.3-1.4 2.4-4.8 7.2-8.2 7.2-2.9.1-4.6-2.6-3.1-6.2z"/><path d="M169.6 34.8c.3-.5.5-.5.7-.2.2.3-.1 1.2-.7 2.2-1.1 1.7-2.4 3.4-3.9 5-1.4 1.6-3 2.4-4.6 2.5-2.9 0-4-2.6-2.5-5.5.8-1.5 1.4-2.6 1.9-3.4l2.3-4.1c.2-.4.5-.7 1.1-.7h1.6c.7 0 .8.4.4 1.1l-4.7 8.3c-1 1.7-.8 3 .4 3 1.7-.1 4.4-3.1 8-8.2zM168 22.9c.8 0 1.4.7 1.4 1.4s-.7 1.5-1.4 1.5c-.8 0-1.5-.7-1.5-1.5s.7-1.4 1.5-1.4z"/><path d="M167.6 39.8c0-4 4.7-9.5 9.2-9.5 2.2 0 2.9 1.6 2.3 2.9-.5 1.3-1.7 2.2-2.6 2.2-.8.1-1-.7-.2-1.1 2.2-1.2 2-2.8.7-2.8s-2.8 1-4.3 2.8c-1.5 1.9-2.3 3.8-2.3 5.9 0 1.9.9 2.8 2.4 2.8 2.9 0 5.8-3.1 9.4-8.2.3-.5.5-.5.7-.2.2.3-.1 1.2-.7 2.2-1.1 1.7-2.5 3.4-4.2 5.1-1.6 1.6-3.5 2.5-5.7 2.5-3.3-.1-4.7-2.2-4.7-4.6z"/><path d="M185.5 33.8c1.4-1.7 3.2-3.1 4.9-3.1 1.9 0 2.9 1.2 2.9 2.7 0 3.1-4.3 6.4-4.3 8.4 0 .7.4 1 .9 1 2.1 0 5-3.5 8-8.1.3-.5.6-.5.8-.2.2.3-.1 1.2-.7 2.2-1.1 1.7-2.4 3.4-3.8 5s-3 2.4-4.7 2.5c-1.9 0-3.1-1.3-3.1-2.8 0-3.1 4.2-5.8 4.2-8.1 0-.7-.5-1.1-1.1-1-1.2.2-3.7 2-6.1 5.9-1.3 2-2 3.5-3 5.2-.2.4-.6.7-1.1.7h-1c-.7 0-.7-.6-.4-1.1 2.2-3.8 5.2-9.4 9.3-17.4 3.4-6 6.2-9.5 9-9.5 2.3 0 2.9 2.7-.2 6.4-2 2.5-5 5.2-8.1 7.4-.4.4-1.4 2.1-2.4 3.9zm3.3-6.1c1-1 2.6-2.2 3.4-3 2.6-2.5 4.1-4.4 4.4-5.8.3-1.3.1-2-.5-2-1.5 0-3.5 3.7-5.9 8.3l-1.4 2.5z"/><path d="M214.9 34.8c.3-.5.5-.5.7-.2.2.3-.1 1.2-.7 2.2-1.1 1.7-2.4 3.4-3.9 5-1.4 1.6-3 2.4-4.7 2.5-1.7 0-2.9-.8-3.2-2.6-1.1 1.3-2.5 2.5-4.1 2.5-2 0-3.1-.9-3.5-2.7-.4-1.9 0-3.7 1.1-5.6 2.5-4.1 5.9-5.6 8.3-5.6 1.5 0 2.3.7 2.6 1.6l.5-.7c.2-.4.5-.7 1.1-.7h1.6c.5 0 .8.4.4 1.1l-4.8 8.6c-1 1.7-.5 2.8.5 2.8 1.8-.1 4.5-3.1 8.1-8.2zm-8.5-.8c.8-1.6-.2-2.5-1.1-2.5-1 0-2.1.6-3.2 1.8-1.1 1.2-2 2.5-2.8 3.9-.7 1.4-1.1 2.7-1.3 3.9-.1 1.2.4 1.8 1.4 1.8 2.9 0 5.9-6.8 7-8.9z"/><path d="M213 39.7c0-2.2 1-4.3 2.8-6.4 1.9-2 4-3.1 6.4-3.1 2.2 0 2.9 1.6 2.3 2.9-.5 1.3-1.7 2.3-4.1 3.1-1.4.4-2.7.7-3.7.8-.4.9-.8 1.9-.8 3.2 0 1.5.6 2.8 2.7 2.8 2.9 0 6.1-3.1 9.7-8.2.3-.5.5-.5.7-.2.2.3-.1 1.2-.7 2.2-1.1 1.7-2.5 3.4-4.3 5.1-1.7 1.6-3.7 2.5-5.8 2.5-3.5-.1-5.2-2.3-5.2-4.7zm4.3-3.9c1.3-.2 2.9-.6 4-1.1 2.5-1.3 2.3-3.1 1.1-3.1-1.7-.1-3.8 1.8-5.1 4.2z"/><path d="M234.5 39c.3-.5.6-.4.7-.1.1.3 0 .9-.7 1.8-1 1.4-3 3.5-5.6 3.4-2.9 0-3.8-2.9-2.3-6 1.1-2.3 4.3-8.8 6.6-12.7 3.4-5.8 6.2-9.5 9.1-9.5 2.3 0 2.9 2.7-.2 6.4-2 2.5-4.7 5-7.8 7.3-2.2 4.1-4.3 8.2-5.3 10.3-.9 1.9-.4 2.9.6 2.9 1.4 0 3.2-1.4 4.9-3.8zm.9-11.5l2.9-2.8c2.6-2.5 4.1-4.4 4.4-5.8s.1-2-.5-2c-1.5 0-3.2 3.4-5.7 8.2l-1.1 2.4z"/><g><path d="M28.5 34.6c.2.5-.2 1.3-1 2.1-1.6 1.7-4.3 2.6-7 2.5-2.1 2.8-5.4 4.9-9.8 4.9-2.5 0-4.7-1-6.8-2.8-2-1.9-3.1-4.4-3.1-7.6 0-10.4 9.1-16.9 16.6-17.6-2.3-3.8-1.4-11.2 4.7-13.8C26.9.2 32.9 1.9 32.9 7c0 1.6-.5 2.9-1.7 3.9-1.1 1-2 1.4-2.8 1.5-1.4.1-1.4-1.3-.2-1.4 1.9-.2 3.3-2 3.3-3.8 0-2.6-1.9-4-4.1-4-6.1 0-10.4 7.3-7.9 12.4.4-.1 1.1.1 2 .5.9.3 1.3.8 1.1 1.6-.2.7-.7 1-1.7.9-1-.1-1.7-.5-2.3-1.1C11.5 18 4 25.4 4 34.2c0 2.3.6 4.4 1.7 6.1 1.1 1.7 2.9 2.6 5.1 2.6 3.2 0 5.8-1.8 7.4-4.3-1.5-.5-3.1-1.6-4-3.2-2.7-4.6-.2-10.3 3.8-10.3 5.4 0 6.4 7.3 3.2 12.8 2.3 0 4.9-1 6.6-3.2.3-.4.5-.4.7-.1zm-12.2 1.5c.7.7 1.6 1.2 2.6 1.5 2.7-4.8 2.5-11.2-.8-11.2-3.9 0-5.1 6.8-1.8 9.7z"/><path d="M52.8 34.8c.3-.5.6-.5.7-.2.2.3-.1 1.2-.7 2.2-1.1 1.7-2.4 3.4-3.9 5-1.4 1.6-3 2.5-4.7 2.5-1.9 0-3-1.3-3-2.8 0-3.1 4.1-5.8 4.1-8.1 0-.7-.3-1-1-1-3.2 0-7.7 8.3-9.4 11.1-.2.4-.5.7-1.1.7h-1.5c-.7 0-.8-.4-.4-1.1.2-.4.8-1.4 1.9-3.2l2.8-4.8c1-1.7.4-2.7-.8-2.6-1.1.1-3.5 2-6.4 6.1-1.7 2.5-2.6 4-3.3 5-.2.1-.5.4-1.1.4h-1c-.5 0-.7-.4-.4-1.1 1.7-3.3 4-7.9 6.1-11.8.2-.4.6-.7 1.1-.7h1.4c.7 0 .8.4.4 1.1l-2.2 3.8c2.3-2.9 4.4-4.6 6.4-4.6 2.4-.1 3.4 1.7 2.8 3.9 1.9-2.5 3.8-3.9 5.6-3.9 1.9 0 2.9 1.2 2.9 2.7 0 3.1-4.2 6.1-4.2 8.5 0 .5.4.9.9.9 1.7.1 4.4-2.9 8-8z"/><path d="M61.7 34.8c.3-.5.5-.5.7-.2.2.3-.1 1.2-.7 2.2-1.1 1.7-2.4 3.4-3.9 5-1.4 1.6-3 2.4-4.6 2.5-2.9 0-4-2.6-2.5-5.5.8-1.5 1.4-2.6 1.9-3.4l2.3-4.1c.2-.4.5-.7 1.1-.7h1.6c.7 0 .8.4.4 1.1L53.3 40c-1 1.7-.8 3 .4 3 1.7-.1 4.4-3.1 8-8.2zm-1.6-11.9c.8 0 1.4.7 1.4 1.4s-.7 1.5-1.4 1.5c-.8 0-1.5-.7-1.5-1.5s.7-1.4 1.5-1.4z"/><path d="M66.6 25.5c3.4-5.8 6.2-9.5 9.1-9.5 2.3 0 2.9 2.7-.2 6.4-2 2.5-4.7 5-7.8 7.3-2.2 4.1-4.3 8.2-5.3 10.3-.9 1.9-.4 2.9.6 2.9 1.7 0 5.2-2.8 8.6-8.1.3-.5.5-.5.7-.2.2.5-.1 1.3-.7 2.2-1.1 1.7-2.6 3.4-4.3 5-1.6 1.6-3.3 2.4-5 2.4-2.9 0-3.8-2.9-2.3-6 1.1-2.3 4.3-8.8 6.6-12.7zm2.2 2l2.9-2.8c2.6-2.5 4.1-4.4 4.4-5.8.3-1.3.1-2-.5-2-1.5 0-3.2 3.4-5.7 8.2l-1.1 2.4z"/><path d="M81.1 42.4c1.7-1 3-2.1 4-3.4.3-.5.6-.4.7-.1.1.3.1 1.1-.7 1.9-2.2 2.3-6 4.1-8.9 5.2-1.7 2.9-3.5 5.3-5.4 7.3-1.9 2-4.1 3.1-6.5 3.1-2 0-3.2-1.3-3.2-2.8s1.3-3.5 4.6-4.9c2.3-1 5.1-1.9 7.6-2.8.5-.8 1.7-2.3 2.2-3.3-.7.5-2.2 1.8-3.9 1.8-2.9 0-4-2.7-2.5-5.5.8-1.5 1.4-2.6 1.9-3.4l2.3-4.1c.3-.3.5-.6 1.2-.6H76c.7 0 .8.3.4 1.1-.5.7-3.2 5.6-4.8 8.3-1 1.7-.5 2.8.5 2.8 1.5 0 3.5-1.9 6.7-7.2l1.3-2.3c.2-.4.6-1.1 1.2-2.1.2-.3.5-.6 1.1-.6h1.7c.5 0 .6.4.3 1.1-.5.7-3.2 5.6-4.8 8.3l-2.5 4.3c1.1-.6 2.4-1.2 4-2.1zm-9 4.9c-3.9 1.4-6.8 2.3-8.6 3.8-1.9 1.7-1.4 4 .5 4 2.7 0 5.3-3.4 8.1-7.8z"/></g><g><path d="M97.8 33.8c0-1.2.9-1.9 2.2-1.8.6 0 1.1.1 1.6.3v-.4c0-1-.6-1.6-1.6-1.6-.6 0-1.1.2-1.5.4l-.2-.5c.5-.2 1.1-.4 1.7-.4.6 0 1.2.2 1.5.6.3.3.5.8.5 1.5l-.1 3.7h-.5v-.9c-.3.5-.9 1-1.8 1-.9-.1-1.8-.8-1.8-1.9zm3.7-.3v-.8c-.4-.1-.9-.3-1.6-.3-1 0-1.6.5-1.6 1.3s.6 1.3 1.4 1.3c1 .1 1.8-.6 1.8-1.5zM103.8 26.9h.5v1c.3-.6.9-1.1 1.8-1.1 1.2 0 1.9.9 1.9 2.1l-.1 3.7h-.5l.1-3.5c0-1.1-.5-1.8-1.5-1.8-.9 0-1.7.7-1.7 1.8v3.5h-.5v-5.7zM109.2 26.8c0-1.9 1.2-3 2.3-3 1 0 1.6.6 1.9 1.3v-3.5h.5l-.1 7.9h-.5v-1.2c-.4.7-1 1.3-2 1.3-1 .1-2.1-.9-2.1-2.8zm4.3 0v-.1c0-1.5-.9-2.4-1.9-2.4-1 0-1.8.8-1.8 2.4v.1c0 1.5.8 2.5 1.8 2.5.9-.1 1.9-1 1.9-2.5z"/></g></symbol><symbol viewBox="53.6 3 361 335.9" id="names2" xmlns="http://www.w3.org/2000/svg"><path d="M191.2 290.1c-1.1-20 6.8-55.6 7.1-77.5.3-19.1-4.6-25.7-10.8-22.5-4.6 2-7.4 7.4-9.1 15.7-1.7 8.3-2.8 17.1-3.4 26.8-.6 11.7-1.7 31.1-3.1 48.2l-1.7 23.7-1.1 14.5c0 1.4-.6 2.3-2.3 3.1l-4 2c-1.7.9-2.6 0-2.3-2.3 0-4 .6-10.3.9-19.4.6-9.1 1.1-18.5 2-28.8l2-29.1c.9-9.4 1.1-16.2 1.4-20.5.9-18.8-6-25.4-12-22.5-10.8 5.1-10.8 27.6-12.3 49.6 0 0-.3 4-.6 11.7l-1.7 25.9-2 27.9-1.1 16.8c0 1.4-.6 2.3-2.3 3.1l-4.3 2c-1.7.9-2.6 0-2.3-2.3 0-.6.3-5.7.9-15.7l2-33.1 2.3-34.2c.6-10.8 1.1-17.4 1.1-19.7.9-19.4-7.1-26.2-16.2-21.7-4.8 2.3-9.1 7.1-12.5 14.2s-5.4 14.8-5.4 23.4c0 10 3.1 17.1 8.8 14.2 4.6-2 7.1-10 7.1-24.5.3-2.6-.3-4.8 1.1-5.4 1.4 0 2.3 1.4 2.3 4.8 0 16.5-3.4 25.6-9.4 28.2-7.4 3.4-14.8-1.7-16-13.4-1.4-16.2 6.8-37.6 21.9-44.7 10.3-4.8 20.8-1.1 24.8 9.7 1.7-10.8 5.4-18.2 12.3-21.4 8.8-4 16.5 1.7 19.7 14.8 1.4-12.8 6-22.5 13.4-25.9 11.7-5.4 20.5 6.3 19.9 31.4-.6 20.8-7.7 56.4-7.1 71.8.3 8.3 2.6 11.4 6.8 9.4 4.6-2 7.4-12 10.3-29.9 0-1.7 1.1-2.3 1.7-1.4.9.6.9 3.7.9 7.1-.9 8-3.7 24.5-12.5 28.5-7.2 3.4-14.6-1.5-15.2-12.6z"/><path d="M239.4 258.8c0-1.7.9-2 1.7-1.4.9.6 1.4 3.1.9 6.6-.9 6-2 11.7-4 17.7-1.7 6-4.8 9.7-8.8 12-7.7 3.4-13.7-2-13.1-11.1.3-4.8.6-8.6.6-11.1l1.1-13.4c0-1.4.6-2.3 2.3-3.1l4.3-2c1.7-.9 2.6 0 2.3 2.3l-2.6 27.1c-.3 5.7 1.7 8.5 4.6 7.4 4.2-2.5 7.6-13.4 10.7-31zM220.9 230c2-.9 4.6 0 5.4 2 .9 2 0 4.6-2 5.7-2 .9-4.8 0-5.7-2-.6-2 .3-4.6 2.3-5.7z"/><path d="M240.3 274.2c-4.8-10.3.6-30.2 12.3-35.9 5.7-2.6 9.4.6 9.7 4.8 0 4-1.7 7.7-4.3 8.8-2 1.1-3.1-.6-1.7-2.6 4.3-5.7 1.7-9.7-1.4-8.3-3.4 1.7-6 5.7-7.7 12.5-1.7 6.6-1.1 12.5 1.1 18 2.3 4.8 5.7 6 9.4 4.3 7.7-3.4 11.1-14.8 14.2-32.5.3-1.7.9-2 1.7-1.4.9.6 1.4 3.1.9 6.6-.9 6-2.3 12-4.8 18.2-2.3 6.3-6.3 10.5-11.7 13.1-8.6 4.3-14.6.6-17.7-5.6z"/><path d="M279.3 237.1c1.4-6 4.6-11.7 9.1-14 4.8-2.3 9.1-.6 10.8 3.4 3.7 8-3.4 21.7-.9 26.8.9 1.7 2.3 2.3 3.4 1.4 5.4-2.6 8.8-15.1 10.8-30.5 0-1.7.9-2 1.7-1.4.9.6 1.4 3.1.9 6.6-.9 6-2 11.7-4 17.7-1.7 6-4.8 9.7-9.1 12-4.8 2.3-9.4.3-11.4-3.7-3.7-8 3.7-19.9 1.1-25.9-.9-1.7-2.6-2.3-4.3-1.1-2.8 2-7.1 9.4-8.8 22.5-.9 6.6-1.1 11.4-1.4 17.1 0 1.4-.9 2.6-2.3 3.1l-2.6 1.1c-1.7.9-2.6-.6-2.6-2.6 1.1-12.5 2-30.5 3.1-56.1 1.7-19.7 4.6-31.9 12-35.3 6-2.8 10.8 3.4 7.1 16.5-2.3 8.8-6.8 19.4-12 28.8.3 2.2-.3 7.6-.6 13.6zm1.2-19.6c1.4-3.7 4-8.8 5.1-11.7 3.7-9.7 5.1-16.2 4.3-20.2-.9-3.7-2-5.1-3.7-4.6-4 1.7-4.6 13.7-5.4 28.5l-.3 8z"/><path d="M356.5 204.3c0-1.7.9-2 1.7-1.4.9.6 1.4 3.1.9 6.6-.9 6-2 11.7-4 17.7-1.7 6-4.8 9.7-9.1 12-4.6 2-8.6 1.4-11.4-2.9-1.4 4.6-3.4 9.4-7.7 11.4-5.1 2.3-9.1 1.4-12.3-2.9-3.1-4.3-4.6-9.7-3.7-16 1.4-13.4 8.6-21.7 14.8-24.5 4-1.7 6.8-.9 8.5 1.1l.3-2.6c0-1.4.6-2.3 2.3-3.1l4.3-2c1.4-.6 2.6 0 2.3 2.3l-2 27.9c-.3 5.7 2 7.7 4.6 6.6 4-1.7 7.4-12.8 10.5-30.2zm-23 8c0-5.1-3.7-6-6-4.8-2.6 1.1-4.6 4-6.3 8.6-1.4 4.6-2.3 8.8-2.6 13.4-.3 4.6.3 8.3 1.4 11.7 1.4 3.1 3.1 4.3 5.7 2.9 7.8-3.6 7.5-24.9 7.8-31.8z"/><path d="M357.4 219.2c-2.6-5.7-2.9-12.3-.3-19.9s6.6-12.8 12.8-15.7c5.7-2.6 9.4.6 9.7 4.8 0 4-1.7 8.3-6.8 13.1-3.1 2.9-6 5.1-8.6 6.6 0 2.9.3 6 1.7 9.1 1.7 4 4.8 6.3 10.3 4 7.7-3.4 12-15.4 15.1-32.8.3-1.7.9-2 1.7-1.4.9.6 1.4 3.1.9 6.6-.9 6-2.3 12-4.8 18.2-2.6 6.3-6.6 10.8-12 13.4-9.7 3.7-16.8.2-19.7-6zm6.6-15.4c2.9-2 6.8-5.1 9.1-7.7 4.8-6.3 2.3-10.8-.9-9.4-4.8 2-8 9.7-8.2 17.1z"/><path d="M412.1 191.5c.3-1.7 1.1-1.7 1.7-.9.6.6 1.1 2.3.6 5.4-.9 4.8-3.4 12.5-10.3 15.7-7.7 3.4-13.4-2.8-13.4-12.5.3-7.1.6-27.9 1.7-40.8 1.7-18.8 4.6-31.9 12-35.3 6-2.8 10.8 3.4 7.1 16.5-2.3 8.8-6.3 18.8-11.4 28.2-.6 13.1-1.4 26.2-1.4 33.1 0 6 2.6 8 5.1 6.8 4-1.9 6.9-7.9 8.3-16.2zm-11.4-30.8l4.3-10.8c3.7-9.7 5.1-16.2 4.3-20.2-.9-3.7-2-5.1-3.7-4.6-4 1.7-4.3 12.8-4.8 28.2v7.4z"/><g><path d="M130.5 108.6c1.1.9.9 3.7 0 6.6-2.3 6.3-8 12-15.1 14.8-2 9.7-8 19.1-19.4 24.5-6.3 2.9-13.1 3.1-20.8.9-7.4-2.3-13.1-7.7-17.1-16-12.5-26.8 3.1-54.7 21.7-65.3-10.5-6.8-17.1-27.1-4.6-41 10-11.1 27.4-14 33.6-.9 2 4.3 2.3 8.3.3 12-1.7 3.7-3.4 6.3-5.4 7.4-3.4 1.7-5.1-1.7-2-3.4 4.8-2.9 6-9.1 4-13.7-3.1-6.8-9.7-8.3-15.4-5.4-15.7 7.4-18.2 31.3-5.4 41.6 1.1-.6 3.1-1.1 6-1.1 2.6-.3 4.3.6 4.8 2.9.3 2-.6 3.4-3.1 4.3-2.6.9-5.1.9-7.1-.3-18.8 9.7-29.4 37.9-18.8 60.7 2.8 6 6.8 10.5 12 13.7 5.1 3.1 10.5 3.4 16.2.6 8.3-3.7 12.8-11.7 14-19.9-4.6.3-10-.6-14.2-3.7-12.8-8.8-12.8-26.5-2.6-31.3 14-6.6 25.4 11.1 23.7 29.4 6-2.8 11.4-8.5 13.1-16.2.2-1.5.8-1.8 1.6-1.2zm-29.6 18.8c2.6 1.1 5.4 1.1 8.5.9 1.1-15.7-7.1-31.9-15.7-27.9-9.9 4.2-4.8 23.3 7.2 27z"/><path d="M193.5 79.8c0-1.7.9-2 1.4-1.4.9.6 1.1 3.1.9 6.3-.9 6-2 11.7-4 17.7-1.7 6-4.8 10-9.1 12-4.8 2.3-9.4.3-11.1-3.7-3.7-8 3.7-19.9.9-25.9-.9-1.7-2-2.3-3.7-1.4-8.3 3.7-10 30.5-10.8 39.9 0 1.4-.6 2.3-2.3 3.1l-3.7 2c-1.7.9-2.6 0-2.3-2.6 0-1.1.3-4.6.9-10.5l1.4-15.7c.6-5.7-2.3-7.4-5.1-6-2.8 1.4-6.6 9.4-9.1 23.7-1.4 8.5-2 13.7-2.6 17.1-.3 1.1-.6 2.3-2.3 3.1l-2.6 1.1c-1.4.6-2.3-.3-2.3-2.3.3-10.5.6-25.4 1.4-37.6 0-1.4.9-2.6 2.3-3.1l3.7-1.7c1.7-.9 2.6 0 2.3 2.3l-1.1 12.3c2.6-10.5 5.7-17.1 10.8-19.7 6.3-3.1 10.8.6 12 6.6 1.7-8.6 5.1-14.8 9.7-16.8 4.8-2.3 9.1-.6 10.8 3.4 3.7 8-3.4 20.8-.6 27.1.6 1.4 2 2 3.4 1.1 4.3-1.9 7.7-12.7 10.8-30.4z"/><path d="M216.6 69.3c0-1.7.9-2 1.7-1.4.9.6 1.4 3.1.9 6.6-.9 6-2 11.7-4 17.7-1.7 6-4.8 9.7-8.8 12-7.7 3.4-13.7-2-13.1-11.1.3-4.8.6-8.6.6-11.1l1.1-13.4c0-1.4.6-2.3 2.3-3.1l4.3-2c1.7-.9 2.6 0 2.3 2.3l-2 27.1c-.3 5.7 1.7 8.5 4.6 7.4 3.6-2.5 7-13.7 10.1-31zm-18.5-28.8c2-.9 4.6 0 5.4 2 .9 2 0 4.6-2 5.7-2 .9-4.8 0-5.7-2-.8-2.3.3-4.9 2.3-5.7z"/><path d="M218 39.3c1.7-19.1 4.8-32.2 12-35.6 6-2.8 10.8 3.4 7.1 16.5-2.3 8.8-6.3 18.8-11.4 28.2-.6 13.1-1.4 26.2-1.4 33.1 0 6 2.6 8 5.1 6.8 4.6-2 10-13.7 12.5-31.3 0-1.7.9-2 1.7-1.4 1.1 1.1 1.4 3.4.9 6.6-.9 6-2.6 12-4.8 18.2-2.3 6.3-5.7 10.3-10 12.3-7.7 3.4-13.4-2.9-13.4-12.5 0-7.5.6-28 1.7-40.9zm8.3 2.6l4.3-10.8c3.7-9.7 5.1-16.2 4.3-20.2-.9-3.7-2-5.1-3.7-4.6-4 1.7-4.3 12.8-4.8 28.2v7.4z"/><path d="M267.3 80.4c-1.1 9.4-2.8 18-5.1 25.4-2.3 7.4-6.8 12.8-13.1 15.7-5.1 2.3-10 .6-11.7-3.4s-.9-10.5 6-18.2c4.8-5.4 10.8-11.1 16.2-16.5.6-2.6 1.7-8 1.7-11.1-1.1 2-3.4 7.1-8 9.4-7.4 3.4-13.4-2.3-13.1-11.4.3-4.8.6-8.5.9-11.1l1.1-13.4c.3-1.1.6-2.3 2.3-3.1l4-2c1.7-.9 2.6-.3 2.3 2.3-.6 2.3-1.7 18.2-2.6 27.1-.6 5.7 2.3 8 4.6 6.8 4-1.7 6.8-9.1 8.6-26.8l.6-7.4c0-1.4.3-3.4.6-6.8.3-1.1.6-2 2.3-2.9l4.6-2c1.4-.6 2 .3 2 2.6-.6 2.3-1.4 18.2-2.6 27.1l-1.4 14.2v5.5zm-8.8 8.5c-8.5 8.3-14.8 14.2-17.7 20.2-2.9 6.6 1.1 12 6.3 9.7 6.8-3.4 9.4-15.3 11.4-29.9z"/></g><g><path d="M256.5 86.4s2.6-2.3 7.7-6.6 12.8-10.3 23.4-17.1c5.4-3.4 11.4-6.8 18.2-9.7 3.4-1.4 7.4-2.8 11.4-3.7 4-.9 8.6-1.4 13.1-.3 2.3.6 4.6 1.7 6.3 3.7 1.7 1.7 2.9 4.3 3.7 6.6.3 1.1.6 2.6.6 3.7v3.7c-.3 2.6-.9 5.1-1.7 7.4-1.7 4.8-4.6 9.1-7.4 13.4-3.1 4.3-6.6 8-10.5 12-7.7 7.4-16.5 14.5-25.6 21.4-9.4 6.6-19.1 13.4-29.9 19.4-21.4 12-44.7 22.8-69.8 32.2-12.5 4.6-25.6 8.5-39.3 10.3-3.4.3-7.1.6-10.5.3-3.4-.3-7.4-.9-10.5-2.9-1.7-.9-3.1-2.3-4.3-4-.6-.9-1.1-1.7-1.4-2.6-.3-1.1-.6-1.7-.9-2.6-1.1-3.7-.9-8 .6-11.4 1.4-3.7 4.3-6.6 7.1-8.8 2.8-2.6 6-4.3 9.1-6 6.6-3.4 13.4-6 20.2-7.7 7.1-2 14.2-3.1 21.4-4 7.1-.9 14.2-1.4 21.4-2 14.2-.9 28.8-.9 43 0 7.1.3 14.2.9 21.4 2 3.4.6 7.1.9 10.5 1.7 3.4.6 6.8 1.1 10.3 1.7 27.4 4.3 54.7 6.8 80.9 5.7 6.6-.3 13.1-.6 19.1-2 3.1-.9 6-2 8.3-3.7s4-4 4.3-6.8c.3-1.4 0-2.8-.3-4-.3-1.1-1.1-2-2-2.6-2.3-1.4-5.4-1.7-8.3-2-6-.3-12.3.6-18 1.4-12 2-23.4 5.4-34.2 8.8-10.8 3.7-21.1 7.7-30.8 11.7-19.4 8.6-36.5 17.7-51 27.4-14.2 9.7-25.7 19.4-33.1 29.4-3.7 4.8-6.3 9.7-7.7 14-1.4 4.3-2 8.3-1.7 11.4.3 3.1.9 5.4 1.4 7.1.6 1.4.9 2.3.9 2.3L219 236s-.3-.9-1.1-2.6c-.6-1.7-1.4-4.3-1.7-8-.3-3.4.3-8 1.7-12.5 1.7-4.8 4.3-10 8.3-14.8 7.7-10.3 19.4-20.2 33.6-29.9 14.5-9.7 31.9-19.1 51.3-27.4 9.7-4.3 20.2-8.3 31.1-12 10.8-3.7 22.5-6.8 34.5-9.1 6-1.1 12.3-2 18.8-1.7 3.1.3 6.6.6 10 2.3 1.7.9 3.1 2.6 3.7 4.6.6 2 .6 3.7.6 5.4-.3 3.7-2.6 7.1-5.4 9.4s-6 3.7-9.1 4.8c-6.3 2.6-13.1 3.7-20 4.8-6.8.9-13.7 1.1-20.5 1.1s-13.7-.3-20.5-.9c-13.7-.9-27.6-2.3-41.6-4.3-3.4-.6-6.8-1.1-10.5-1.7-3.4-.6-6.8-1.1-10.3-1.7-6.8-.9-13.7-1.4-20.8-2-14-.9-27.9-.9-41.9-.3-14 .6-27.9 2.3-41.6 4.8-6.8 1.1-13.7 2.6-20 5.1-6.3 2.3-12.5 6-15.1 11.7-1.4 2.9-1.4 6-.6 9.1 0 .6.6 1.7.6 2.3.3.6.6 1.4 1.1 2 .9 1.1 2 2.3 3.1 3.1 2.6 1.4 6 2.3 9.1 2.6 3.4.3 6.6 0 10-.3 13.4-1.7 26.2-5.7 38.8-10.3 13.1-5.1 25.4-10.3 36.8-15.7 11.7-5.4 22.8-11.1 33.3-17.1 10.5-6 20.2-12.5 29.6-19.4 9.1-6.6 18-13.7 25.4-21.1 7.4-7.4 14-15.4 17.4-23.9.9-2.3 1.4-4.3 1.4-6.6v-3.1c0-1.1-.3-2-.6-3.1-.6-2-1.4-3.7-2.9-5.1-1.4-1.4-3.1-2.3-4.8-2.8-3.7-1.1-8-.6-11.7.3-3.7.9-7.4 2-10.8 3.4-6.8 2.9-12.8 6.3-18 9.4-10.5 6.6-18 12.5-23.1 16.8-5.1 4.3-7.7 6.6-7.7 6.6l-2.4-1.8z"/></g></symbol><symbol viewBox="0 0 33.8 88" id="photo-direction" xmlns="http://www.w3.org/2000/svg"><path d="M32.1 86.3S7.2 52.2 2 45.2c-.5-.7-.5-1.8 0-2.5l30.1-41"/></symbol><symbol viewBox="0 0 508 37" id="potterybarn" xmlns="http://www.w3.org/2000/svg"><path d="M8.2 19.1v16h1.5v.8h-9V35h1.5V1.7H.7V.9h10.6c.8 0 3.5-.2 5 .8C18 2.8 18.4 4.2 18.4 6v8.3c0 .9-.2 2.4-1.9 3.5-1.6 1-4.2 1.3-6.3 1.3h-2zM12.4 4c0-.7 0-1.2-.4-1.7s-1.1-.6-2-.6H8.2v16.6h2.2c.7 0 1.2-.2 1.6-.7.4-.5.3-1.3.3-1.8V4zM64 31c0 3.2-2.1 5.2-7.6 5.2-6 0-7.6-2-7.6-5.2V9.8c0-3.7 2.6-5.7 7.7-5.7 4.9 0 7.5 2.4 7.5 5.7V31zM58.5 7.2c0-1.8-.7-2.5-2-2.4-1.5 0-2.3.6-2.3 2.4v26c0 1.3.4 2.3 2.1 2.3 1.6 0 2.2-.6 2.2-2.3v-26zM112.5 4.4v6.3h-.8V5.8h-4.6v29.3h1.3v.7h-8.1v-.7h1.3V5.8H97v4.9h-.8V4.4zM161.1 4.4v6.3h-.8V5.8h-4.7v29.3h1.4v.7h-8.2v-.7h1.3V5.8h-4.6v4.9h-.8V4.4zM199.9 19.1h6v-2.7h.9v6.9h-.9v-2.8h-6v13.9h6v-4.7h.9v6.1h-13.7v-.7h1.3v-30h-1.3v-.7h13.7v6.1h-.9V5.8h-6zM250.9 19.7c0 .2 2 .4 3.4 1.3 1.4 1 1.6 2 1.6 3.4v10.7h1.3v.7h-6.8V23.3c0-1 .2-1.9-.7-2.5-.6-.4-1.7-.3-2.3-.3h-1.8v14.7h1.3v.7h-8.1v-.7h1.3v-30h-1.3v-.8h9.5c.7 0 3.1-.2 4.5.7 1.5 1 1.9 2.2 1.9 3.8v6.7c0 .3.1 1.8-1.1 2.9-1.2 1-2.7 1.1-2.7 1.2m-1.7-12.5c0-.6.1-1-.3-1.5-.5-.5-1.1-.5-1.7-.5h-1.7v14.7h2c.6 0 1.1-.2 1.5-.6.4-.5.3-1.2.3-1.6V7.2zM292.3 24.6l-5.7-19.5h-1.3v-.7h8.1v.7h-1.3l4.8 16.5 4.3-16.5h-1.4v-.7h4.4v.7h-1.3l-5.1 19.6v10.4h1.3v.7H291v-.7h1.3zM355.2 22.9v7.9c0 1.4-.1 2.3-1 3.4-1.3 1.4-4.1 1.7-5.3 1.7h-13.2V35h1.5V1.7h-1.5V.9h12.6c1.6 0 2.7.3 3.9 1.2 1.9 1.5 1.7 3.3 1.7 3.3v8.4s.1 1.7-1.2 2.7c-1.6 1.3-2.9 1.4-2.8 1.6 0 .2 2.2.2 3.8 1.6 1.1.7 1.5 1.6 1.5 3.2M343.3 35h3.3c.1 0 1.2 0 1.8-.4.6-.5.8-1 .8-1.7V20.6c0-.5 0-1-.4-1.3-.4-.4-1-.5-1.7-.5h-3.8V35zm0-33.3v16h3.2c.1 0 .8 0 1.2-.4.4-.4.3-1 .3-1.3V3.7c0-.1.1-1.3-.3-1.7-.3-.4-1.7-.4-1.8-.4h-2.6zM395.8 5.1h-1.4v-.7h8.4v.7h-1.5l5.5 30h1.3v.7h-8.2v-.7h1.1l-1.3-8.8H393l-1.8 8.8h1.3v.7h-4.3v-.7h1.2l6.4-30zm-2.6 20h6.2L396.5 8l-3.3 17.1zM452.3 19.7c0 .2 2 .4 3.4 1.3 1.4 1 1.5 2 1.5 3.4v10.7h1.3v.7h-6.8V23.3c0-1 .2-1.9-.7-2.5-.6-.4-1.7-.3-2.3-.3h-1.8v14.7h1.3v.7H440v-.7h1.3v-30H440v-.8h9.5c.7 0 3.1-.2 4.5.7 1.5 1 1.9 2.2 1.9 3.8v6.7c0 .3.1 1.8-1.1 2.9-1 1-2.5 1.1-2.5 1.2m-1.7-12.5c0-.6.1-1-.3-1.5-.5-.5-1.1-.5-1.7-.5h-1.7v14.7h2c.6 0 1.1-.2 1.5-.6.4-.5.3-1.2.3-1.6V7.2zM500.2 35.8l-6.6-26.1v25.4h1.3v.7h-4.3v-.7h1.4v-30h-1.4v-.7h6.9l6.9 27.2V5.1H503v-.7h4.3v.7H506v30.7z"/></symbol><symbol viewBox="0 0 100 49.349" id="shuttle" xmlns="http://www.w3.org/2000/svg"><path d="M23.848 33.001a8.147 8.147 0 0 0-8.184 8.177 8.158 8.158 0 0 0 8.184 8.171c4.505 0 8.151-3.659 8.151-8.171 0-4.538-3.646-8.177-8.151-8.177zm-.02 12.259c-2.246 0-4.095-1.829-4.095-4.089a4.111 4.111 0 0 1 4.095-4.095 4.092 4.092 0 0 1 4.088 4.095 4.081 4.081 0 0 1-4.088 4.089zM76.179 33.001a8.163 8.163 0 0 0-8.184 8.177c0 4.512 3.658 8.171 8.184 8.171 4.505 0 8.17-3.659 8.17-8.171a8.164 8.164 0 0 0-8.17-8.177zm0 12.259a4.094 4.094 0 0 1-4.102-4.089 4.104 4.104 0 0 1 4.102-4.095c2.246 0 4.082 1.843 4.082 4.095a4.09 4.09 0 0 1-4.082 4.089z"/><path d="M87.461 19.212L80.144 4.668C78.854 2.103 75.442 0 72.565 0H5.228C2.357 0 0 2.356 0 5.228v38.497h14.056c-.208-.82-.365-1.667-.365-2.546 0-5.599 4.551-10.149 10.156-10.149 5.573 0 10.124 4.551 10.124 10.149 0 .879-.156 1.726-.364 2.546h32.792c-.215-.82-.364-1.667-.364-2.546 0-5.599 4.538-10.149 10.144-10.149 5.586 0 10.137 4.551 10.137 10.149 0 .879-.15 1.726-.365 2.546H100V32.389c0-2.878-4.31-12.207-12.539-13.177zm-66.133 0H3.998V3.874h17.331v15.338zm19.994 0H23.991V3.874h17.331v15.338zm19.987 0H43.984V3.874h17.324v15.338zm4.954 0V3.874h5.176c1.836 0 4.011 1.341 4.831 2.975l6.218 12.363H66.263z"/></symbol><symbol viewBox="0 0 35.5 31.31" id="song-direction" xmlns="http://www.w3.org/2000/svg"><title>song-direction</title><path d="M3.1 29.3c-1.7.9-3.1.2-3.1-1.8V3.8c0-1.9 1.4-2.6 2.9-1.6L23 14.9c1.6 1.1 1.5 2.6-.2 3.5zM35.5 28.6V2.7A2.69 2.69 0 0 0 32.8 0H30a2.78 2.78 0 0 0-2.8 2.7v25.9a2.69 2.69 0 0 0 2.7 2.7h2.8a2.71 2.71 0 0 0 2.8-2.7z"/></symbol><symbol viewBox="0 0 28.8 33.7" id="song-pause" xmlns="http://www.w3.org/2000/svg"><title>pause</title><path d="M8.9 30.7V2.9A2.9 2.9 0 0 0 6 0H2.9A3 3 0 0 0 0 2.9v27.9a2.9 2.9 0 0 0 2.9 2.9h3a3 3 0 0 0 3-3zM28.8 30.7V2.9A2.9 2.9 0 0 0 25.9 0h-3a3 3 0 0 0-3 2.9v27.9a2.9 2.9 0 0 0 2.9 2.9h3a3 3 0 0 0 3-3z"/></symbol><symbol viewBox="0 0 31.51 36.4" id="song-play" xmlns="http://www.w3.org/2000/svg"><title>song-play</title><path d="M4 35.89c-2.2 1.2-4 .2-4-2.4V2.69C0 .19 1.8-.71 3.8.59L30 17.19c2.1 1.4 2 3.4-.2 4.6z"/></symbol><symbol viewBox="0 0 218 80" id="spotify-listen" xmlns="http://www.w3.org/2000/svg"><path fill="#648F00" d="M218 76c0 2.2-1.8 4-4 4H4c-2.2 0-4-1.8-4-4V4c0-2.2 1.8-4 4-4h210c2.2 0 4 1.8 4 4v72z"/><path fill="#FFF" d="M59.5 19.7c-11 0-20 9-20 20s9 20 20 20 20-9 20-20-8.9-20-20-20zm9.2 28.9c-.4.6-1.1.8-1.7.4-4.7-2.9-10.6-3.5-17.6-1.9-.7.2-1.3-.3-1.5-.9-.2-.7.3-1.3.9-1.5 7.6-1.7 14.2-1 19.4 2.2.7.3.8 1.1.5 1.7zm2.4-5.5c-.5.7-1.4 1-2.1.5-5.4-3.3-13.6-4.3-19.9-2.3-.8.2-1.7-.2-1.9-1-.2-.8.2-1.7 1-1.9 7.3-2.2 16.3-1.1 22.5 2.7.6.3.9 1.3.4 2zm.2-5.6c-6.4-3.8-17.1-4.2-23.2-2.3-1 .3-2-.3-2.3-1.2-.3-1 .3-2 1.2-2.3 7.1-2.1 18.8-1.7 26.2 2.7.9.5 1.2 1.7.7 2.6-.5.7-1.7 1-2.6.5z"/><g fill="#FFF"><path d="M101.4 49.7v-20h3.5v16.9h8.8v3.1h-12.3zM116.4 31.5c0-1.1.9-2 2-2s2 .9 2 2-.9 1.9-2 1.9-2-.8-2-1.9zm.3 18.2V35.2h3.1v14.5h-3.1zM122.7 47.8l1.4-2.2c1 1 3 2 4.9 2 1.9 0 2.9-.8 2.9-1.9 0-2.8-8.8-.8-8.8-6.4 0-2.4 2-4.4 5.7-4.4 2.5 0 4.3.9 5.6 2l-1.3 2.2c-.9-1-2.5-1.7-4.3-1.7-1.7 0-2.7.8-2.7 1.8 0 2.5 8.8.6 8.8 6.4 0 2.6-2.1 4.5-6 4.5-2.5 0-4.7-.8-6.2-2.3zM138.8 46.3V38h-2.4v-2.7h2.4v-4h3.1v4h2.9V38h-2.9v7.6c0 1 .5 1.7 1.4 1.7.6 0 1.1-.3 1.4-.5l.7 2.4c-.6.5-1.5.9-2.9.9-2.5 0-3.7-1.3-3.7-3.8zM146.8 42.5c0-4.2 3.1-7.6 7.3-7.6 4.3 0 7.1 3.3 7.1 7.9v.8H150c.2 2.2 1.9 4 4.6 4 1.4 0 3.1-.6 4.1-1.6l1.4 2.1c-1.5 1.4-3.6 2.1-5.9 2.1-4.2-.1-7.4-3.1-7.4-7.7zm7.3-5c-2.7 0-3.9 2.1-4.1 3.8h8.2c0-1.7-1.2-3.8-4.1-3.8zM174.2 49.7v-9.1c0-2.3-1.2-3-2.9-3-1.6 0-3 1-3.7 1.9v10.1h-3.2V35.2h3.2v2c1-1.1 2.8-2.3 5.1-2.3 3.1 0 4.7 1.7 4.7 4.7v10.2h-3.2z"/></g></symbol><symbol viewBox="0 0 270 50" id="spotify-login" xmlns="http://www.w3.org/2000/svg"><path fill="#648F00" d="M270 25c0 13.8-11.2 25-25 25H25C11.2 50 0 38.8 0 25S11.2 0 25 0h220c13.8 0 25 11.2 25 25z"/><path fill="#FFF" d="M40.9 13.1c-6.3 0-11.4 5.1-11.4 11.4 0 6.3 5.1 11.4 11.4 11.4 6.3 0 11.4-5.1 11.4-11.4-.1-6.3-5.2-11.4-11.4-11.4zm5.2 16.4c-.2.3-.6.4-1 .2-2.7-1.6-6-2-10-1.1-.4.1-.8-.2-.8-.5-.1-.4.2-.8.5-.8 4.3-1 8-.6 11 1.3.4.1.5.5.3.9zm1.4-3.1c-.3.4-.8.5-1.2.3-3.1-1.9-7.7-2.4-11.3-1.3-.5.1-1-.1-1.1-.6-.1-.5.1-1 .6-1.1 4.1-1.3 9.3-.6 12.8 1.5.3.2.4.8.2 1.2zm.1-3.2c-3.7-2.2-9.7-2.4-13.2-1.3-.6.2-1.2-.1-1.3-.7-.2-.6.1-1.2.7-1.3 4-1.2 10.7-1 14.9 1.5.5.3.7 1 .4 1.5-.4.4-1 .6-1.5.3z"/><g fill="#FFF"><path d="M63.2 30.6V19.9h1.9v9h4.7v1.6h-6.6zM71.3 25.3c0-3.2 2.3-5.5 5.5-5.5s5.5 2.3 5.5 5.5-2.3 5.5-5.5 5.5-5.5-2.3-5.5-5.5zm9 0c0-2.2-1.4-3.9-3.5-3.9-2.2 0-3.5 1.6-3.5 3.9 0 2.2 1.4 3.9 3.5 3.9 2.1-.1 3.5-1.7 3.5-3.9zM84.4 25.3c0-3.4 2.5-5.5 5.6-5.5 2.1 0 3.4 1 4.3 2.2l-1.5.9a3.5 3.5 0 0 0-2.8-1.4c-2.1 0-3.7 1.6-3.7 3.9 0 2.2 1.6 3.9 3.7 3.9 1.1 0 2-.5 2.5-1v-1.6h-3.2v-1.6h5.1v4c-1 1.2-2.5 2-4.4 2-3.1-.3-5.6-2.5-5.6-5.8zM102 30.6V19.9h1.9v10.7H102zM114.4 30.6l-5.6-7.6v7.6H107V19.9h1.9l5.5 7.4v-7.4h1.9v10.7h-1.9zM132.4 30.6l-2.1-7.9-2.1 7.9h-2l-3-10.7h2.1l2.1 8.2 2.2-8.2h1.5l2.2 8.2 2.1-8.2h2.1l-3.1 10.7h-2zM139.5 30.6V19.9h1.9v10.7h-1.9zM147 30.6v-9h-3.2V20h8.3v1.6h-3.2v9H147zM161.9 30.6v-4.7h-5.6v4.7h-1.9V19.9h1.9v4.4h5.6v-4.4h1.9v10.7h-1.9zM171 29.1l1.1-1.5c.7.8 1.9 1.5 3.4 1.5s2.1-.8 2.1-1.5c0-2.2-6.2-.8-6.2-4.8 0-1.8 1.5-3.1 3.9-3.1 1.6 0 3 .5 4 1.5l-1.1 1.4c-.8-.8-2-1.2-3.1-1.2s-1.8.5-1.8 1.3c0 2 6.2.8 6.2 4.7 0 1.8-1.3 3.3-4.1 3.3-2 .1-3.4-.6-4.4-1.6zM182 30.6V19.9h4.7c2.2 0 3.5 1.5 3.5 3.3 0 1.8-1.2 3.3-3.5 3.3h-2.8v4H182zm6.3-7.3c0-1-.8-1.7-1.8-1.7h-2.6V25h2.6c1 0 1.8-.7 1.8-1.7zM192.1 25.3c0-3.2 2.3-5.5 5.5-5.5s5.5 2.3 5.5 5.5-2.3 5.5-5.5 5.5-5.5-2.3-5.5-5.5zm9 0c0-2.2-1.4-3.9-3.5-3.9-2.2 0-3.5 1.6-3.5 3.9 0 2.2 1.4 3.9 3.5 3.9 2.1-.1 3.5-1.7 3.5-3.9zM207.8 30.6v-9h-3.2V20h8.3v1.6h-3.2v9h-1.9zM215.3 30.6V19.9h1.9v10.7h-1.9zM220.2 30.6V19.9h7.3v1.6h-5.4v2.8h5.3V26h-5.3v4.6h-1.9zM233.1 30.6v-4.4L229 20h2.1l2.9 4.6 2.9-4.6h2.1l-4.1 6.2v4.4h-1.8z"/></g></symbol><symbol viewBox="0 0 74.844 100" id="train" xmlns="http://www.w3.org/2000/svg"><path d="M65.378 100h9.466L58.021 75.046c3.229-.508 5.898-1.999 8.021-4.447 2.135-2.447 3.203-5.352 3.203-8.704v-48.75c0-3.607-1.289-6.699-3.867-9.284C62.786 1.283 59.622 0 55.898 0H18.945c-3.75 0-6.901 1.283-9.479 3.861-2.578 2.584-3.867 5.677-3.867 9.284v48.75c0 3.353 1.094 6.289 3.294 8.802 2.188 2.514 4.831 3.959 7.93 4.35L0 100h9.466l1.614-2.402h52.682L65.378 100zm-5.625-33.079c-1.146 1.158-2.644 1.744-4.44 1.744-1.68 0-3.099-.586-4.258-1.744-1.159-1.166-1.745-2.637-1.745-4.447 0-1.673.586-3.118 1.745-4.349 1.159-1.224 2.578-1.843 4.258-1.843 1.797 0 3.294.619 4.44 1.843 1.158 1.23 1.744 2.676 1.744 4.349 0 1.81-.586 3.281-1.744 4.447zM13.724 14.375c0-1.803.586-3.288 1.745-4.453 1.146-1.159 2.63-1.738 4.44-1.738h35.013c1.81 0 3.32.58 4.544 1.738 1.237 1.166 1.85 2.65 1.85 4.453v15.599c0 1.81-.612 3.294-1.85 4.453-1.224 1.159-2.734 1.731-4.544 1.731H19.909c-1.81 0-3.294-.573-4.44-1.731-1.159-1.159-1.745-2.644-1.745-4.453V14.375zm1.354 52.546c-1.172-1.166-1.745-2.637-1.745-4.447 0-1.673.573-3.118 1.745-4.349 1.172-1.224 2.643-1.843 4.453-1.843 1.667 0 3.086.619 4.258 1.843 1.159 1.23 1.745 2.676 1.745 4.349 0 1.811-.586 3.281-1.745 4.447-1.172 1.158-2.591 1.744-4.258 1.744-1.81 0-3.281-.586-4.453-1.744zm1.42 22.617l4.388-6.557h33.073l4.401 6.557H16.498z"/></symbol><symbol viewBox="52.5 107.4 435 32" id="williamssonoma" xmlns="http://www.w3.org/2000/svg"><path fill="#0A0B0B" d="M53.5 110.6h1.4c.6 0 1 .1 1.2.4.2.2.4.6.6.9l9.1 26.7h1.6l6.3-20.5 6.9 20.5h1.6l7.3-23.7c.6-1.7 1.1-2.9 1.7-3.4.6-.5 1.5-.8 2.7-1v-1.8H83.8v1.8c1.5.1 2.5.3 3 .5.7.3 1 .9 1 1.7 0 .2 0 .5-.1.7-.1.3-.1.6-.2.8l-5 16.7-5.9-17.8c-.1-.4-.2-.7-.3-.9-.1-.2-.1-.4-.1-.6 0-.3.1-.5.2-.7.2-.1.3-.2.6-.3.2-.1.5-.1.9-.1s1 0 2-.1v-1.8H68v1.8l2.6.1c.3 0 .6.1.7.2.1.1.2.3.3.4l1.2 3.7-5 15.9-6.1-18.7c-.1-.2-.1-.4-.2-.5v-.4c0-.2.1-.4.3-.5.2-.1.5-.2.7-.2h2.7v-1.8H53.5v2zM96.4 138h13.7v-1.8h-1.6c-.7 0-1.1 0-1.4-.1-.5-.1-1-.2-1.2-.5-.2-.2-.4-.7-.4-1.4v-21.7c0-.9.2-1.4.6-1.6.4-.2 1.1-.3 2.1-.4h2v-1.8H96.4v1.8c1.2 0 2 0 2.2.1.2 0 .5 0 .8.1.5 0 .9.2 1.2.4.3.3.4.7.4 1.2v21.4c0 1.2-.2 1.9-.6 2.1-.4.2-1.7.3-4 .4v1.8zm41.3 0l.8-11-1.8-.1c-.5 4.1-2 6.8-4.3 8.2-1.3.8-3.4 1.2-6.1 1.2-1.9 0-3.1-.1-3.6-.4-.5-.3-.7-1-.7-2.1v-21.1c0-1 .2-1.6.7-1.8.5-.2 1.8-.3 4-.3v-1.8H113v1.8c2.1.1 3.4.2 3.9.3.5.2.7.7.7 1.8v21.5c0 .6-.1 1-.2 1.3-.2.3-.5.5-.9.6-.2 0-.4.1-.7.1-.3 0-1.2 0-2.7.1v1.8l24.6-.1zm27.7 0l.8-11-1.8-.1c-.5 4.1-2 6.8-4.3 8.2-1.3.8-3.4 1.2-6 1.2-1.9 0-3.1-.1-3.6-.4-.5-.3-.7-1-.7-2.1v-21.1c0-1 .2-1.6.7-1.8.5-.2 1.8-.3 4-.3v-1.8h-13.8v1.8c2.1.1 3.4.2 3.9.3s.7.7.7 1.8v21.5c0 .6-.1 1-.2 1.3-.2.3-.5.5-.9.6-.2 0-.4.1-.7.1-.3 0-1.2 0-2.7.1v1.8l24.6-.1zm3.1 0h13.7v-1.8h-1.6c-.7 0-1.1 0-1.4-.1-.5-.1-1-.2-1.2-.5-.3-.2-.4-.7-.4-1.4v-21.7c0-.9.2-1.4.6-1.6.4-.2 1.1-.3 2.1-.4h2v-1.8h-13.8v1.8c1.2 0 2 0 2.2.1.3 0 .5 0 .8.1.5 0 .9.2 1.2.4.3.3.4.7.4 1.2v21.4c0 1.2-.2 1.9-.6 2.1s-1.7.3-4 .4v1.8zm30.1-23.4l-4.7 11.8h9.6l-4.9-11.8zm.4-6.4h1.7l11.2 26.7c.2.6.7.9 1.3 1.1.4.1 1.1.2 2.2.2v1.8h-12.8v-1.8c1 0 1.7 0 2.3-.1.6 0 1-.1 1.2-.2.2 0 .4-.1.6-.2.2-.1.2-.4.2-.7 0-.1 0-.3-.1-.4 0-.1-.1-.3-.1-.4l-2.4-5.7H193c-.2.4-.4.9-.6 1.5-.2.5-.4.9-.4 1.2l-.4 1.1c-.1.3-.2.5-.2.8 0 .3-.1.5-.1.9 0 .9.4 1.5 1 1.8.7.3 1.8.5 3.2.5v1.8h-11v-1.8c1.1-.1 2-.3 2.6-.7.6-.3 1.1-1 1.7-2.1l.2-.5 10-24.8zm18.4 29.8h11.7v-1.8c-2-.1-3.4-.5-4-1.3-.6-.8-.9-2.1-.9-3.9v-20.2l10.1 27.2h1.6l9.5-27.1v23.4c0 .4 0 .7-.1.8-.1.4-.6.7-1.5.9-.6.1-1.6.2-3 .2v1.8h13.7v-1.8c-2 0-3.3-.2-3.8-.3-.5-.2-.8-.6-.8-1.2v-21c0-1.5.2-2.4.6-2.7.4-.3 1.7-.4 4-.5v-1.8H244l-7.7 22-8.1-22h-10.7v1.8h2.8c.6 0 1 .1 1.4.4.3.2.5.6.5 1.1l.1 1v17.5c0 2.4-.5 4-1.4 4.7-.6.5-1.7.8-3.5 1v1.8zm40.4-11l.3 11.4h1.5l1.8-2.9c1 .9 2.2 1.6 3.7 2.2 1.5.6 3.3.9 5.3.9 2.9 0 5.3-.8 7.1-2.5 1.8-1.7 2.7-3.7 2.7-6.3 0-2.3-.6-4.2-1.8-5.6-1.2-1.4-3.1-2.4-5.6-3l-5.9-1.5c-1.6-.4-2.8-.9-3.5-1.4-1.2-.9-1.8-2.1-1.8-3.5 0-1.2.5-2.2 1.5-3.3 1-1 2.6-1.6 4.6-1.6 2.6 0 4.7.9 6.3 2.8 1.5 1.9 2.6 4 3.1 6.3l1.8-.1-.5-10.6h-1.5l-1.7 2.6c-.7-.7-1.5-1.3-2.7-1.8-1.5-.6-3.2-1-5-1-2.7 0-4.9.8-6.6 2.5-1.7 1.6-2.5 3.6-2.5 5.9 0 2.6 1 4.6 2.9 5.9 1.2.8 3.3 1.6 6.4 2.4l3.9 1c2.1.6 3.5 1.3 4.2 2.2.7.9 1.1 1.9 1.1 3.2 0 1.7-.6 3-1.7 4s-2.9 1.5-5.2 1.5c-3.1 0-5.5-1-7.2-3-1.7-2-2.7-4.3-3.2-6.9l-1.8.2zm27.5-1.5h10.4v-3.3h-10.4v3.3zm14.8 1.5l.3 11.4h1.5l1.8-2.9c1 .9 2.2 1.6 3.7 2.2 1.5.6 3.3.9 5.3.9 2.9 0 5.3-.8 7.1-2.5 1.8-1.7 2.7-3.7 2.7-6.3 0-2.3-.6-4.2-1.8-5.6-1.2-1.4-3.1-2.4-5.6-3l-5.9-1.5c-1.6-.4-2.8-.9-3.6-1.4-1.2-.9-1.8-2.1-1.8-3.5 0-1.2.5-2.2 1.5-3.3 1-1 2.5-1.6 4.6-1.6 2.6 0 4.7.9 6.3 2.8 1.6 1.9 2.6 4 3.1 6.3l1.8-.1-.5-10.6h-1.5l-1.7 2.6c-.6-.7-1.5-1.3-2.7-1.8-1.5-.6-3.1-1-5-1-2.7 0-4.9.8-6.6 2.5-1.7 1.6-2.5 3.6-2.5 5.9 0 2.6 1 4.6 2.9 5.9 1.2.8 3.3 1.6 6.4 2.4l3.9 1c2.1.6 3.5 1.3 4.2 2.2.7.9 1.1 1.9 1.1 3.2 0 1.7-.6 3-1.7 4s-2.9 1.5-5.2 1.5c-3.1 0-5.5-1-7.2-3-1.7-2-2.7-4.3-3.2-6.9l-1.7.2zm31.5 4.1c1.4 3.8 4 5.7 7.7 5.7 3.8 0 6.4-1.9 7.8-5.7.8-2 1.1-4.8 1.1-8.2 0-3.2-.5-5.9-1.4-8-1.5-3.3-3.9-4.9-7.5-4.9-3.4 0-5.9 1.6-7.6 4.9-.9 2-1.4 4.8-1.4 8.4.2 3.2.5 5.8 1.3 7.8zm18.3-18c2.5 2.9 3.8 6.3 3.8 10.1 0 3.9-1.2 7.3-3.7 10.3-2.8 3.4-6.3 5.1-10.6 5.1-3.9 0-7.2-1.5-10.1-4.5-2.8-2.9-4.2-6.5-4.2-10.6s1.3-7.6 4-10.6c2.8-3.1 6.2-4.7 10.2-4.7 4.4 0 7.9 1.7 10.6 4.9zm4.2 24.9h12.1v-1.8c-1.8-.2-3.1-.4-3.6-.9-.9-.7-1.4-2.1-1.4-4.2v-17.3l18.7 24.7h1.6v-23.6c.1-1.8.5-3 1.4-3.6.6-.4 1.7-.7 3.4-.8v-1.8h-11.7v1.8c1.4.1 2.4.3 3.1.6 1 .6 1.6 1.6 1.6 3.2v16.2l-16.6-21.8h-8.8v1.8c1.8 0 3 .1 3.5.2s1 .5 1.5 1.1v18.5c0 2.4-.3 3.9-1 4.5-.7.6-2 1.1-4 1.3v1.9h.2zm39.3-6.9c1.4 3.8 4 5.7 7.7 5.7 3.8 0 6.4-1.9 7.8-5.7.7-2 1.1-4.8 1.1-8.2 0-3.2-.5-5.9-1.4-8-1.4-3.3-3.9-4.9-7.4-4.9-3.4 0-5.9 1.6-7.6 4.9-.9 2-1.4 4.8-1.4 8.4.1 3.2.5 5.8 1.2 7.8zm18.4-18c2.5 2.9 3.8 6.3 3.8 10.1 0 3.9-1.2 7.3-3.7 10.3-2.8 3.4-6.3 5.1-10.6 5.1-3.9 0-7.2-1.5-10-4.5-2.8-2.9-4.2-6.5-4.2-10.6s1.3-7.6 4-10.6c2.8-3.1 6.2-4.7 10.3-4.7 4.1 0 7.6 1.7 10.4 4.9zm4.4 24.9h11.7v-1.8c-2-.1-3.4-.5-4-1.3-.6-.8-.9-2.1-.9-3.9v-20.2l10.1 27.2h1.6l9.5-27.1v23.4c0 .4 0 .7-.1.8-.1.4-.6.7-1.5.9-.6.1-1.6.2-3 .2v1.8h13.7v-1.8c-2 0-3.3-.2-3.8-.3-.5-.2-.8-.6-.8-1.2v-21c0-1.5.2-2.4.6-2.7.4-.3 1.7-.4 4-.5v-1.8h-10.5l-7.7 22-8.1-22h-10.7v1.8h2.8c.6 0 1.1.1 1.4.4.3.2.5.6.5 1.1l.1 1v17.5c0 2.4-.4 4-1.4 4.7-.5.5-1.7.8-3.5 1v1.8zm53.5-23.4l-4.7 11.8h9.6l-4.9-11.8zm.4-6.4h1.7l11.2 26.7c.2.6.7.9 1.3 1.1.4.1 1.1.2 2.2.2v1.8h-12.9v-1.8c1 0 1.7 0 2.3-.1.6 0 1-.1 1.2-.2.2 0 .4-.1.6-.2.2-.1.3-.4.3-.7 0-.1 0-.3-.1-.4 0-.1-.1-.3-.1-.4l-2.4-5.7h-11.3c-.2.4-.4.9-.6 1.5-.2.5-.3.9-.4 1.2l-.4 1.1c-.1.3-.2.5-.2.8-.1.3-.1.5-.1.9 0 .9.4 1.5 1 1.8.7.3 1.8.5 3.2.5v1.8h-11v-1.8c1.1-.1 2-.3 2.6-.7.6-.3 1.1-1 1.6-2.1l.2-.5 10.1-24.8z"/></symbol></svg>